<svg width="48" height="48" viewBox="0 0 48 48" fill="none" xmlns="http://www.w3.org/2000/svg">
<path opacity="0.2" d="M42 40.875C42.0003 41.5644 41.535 42.2471 40.6306 42.884C39.7261 43.521 38.4003 44.0997 36.7288 44.5873C35.0574 45.0748 33.0729 45.4615 30.8889 45.7254C28.7049 45.9892 26.364 46.125 24 46.125C21.636 46.125 19.2951 45.9892 17.1111 45.7254C14.9271 45.4615 12.9426 45.0748 11.2712 44.5873C9.59967 44.0997 8.27385 43.521 7.36942 42.884C6.46499 42.2471 5.99966 41.5644 6 40.875C5.99966 40.1856 6.46499 39.5029 7.36942 38.866C8.27385 38.229 9.59967 37.6503 11.2712 37.1627C12.9426 36.6752 14.9271 36.2885 17.1111 36.0246C19.2951 35.7608 21.636 35.625 24 35.625C26.364 35.625 28.7049 35.7608 30.8889 36.0246C33.0729 36.2885 35.0574 36.6752 36.7288 37.1627C38.4003 37.6503 39.7261 38.229 40.6306 38.866C41.535 39.5029 42.0003 40.1856 42 40.875V40.875Z" fill="url(#paint0_radial)"/>
<path opacity="0.4" d="M36 42.375C36.0004 42.8674 35.6903 43.355 35.0874 43.81C34.4845 44.265 33.6007 44.6784 32.4863 45.0266C31.372 45.3748 30.049 45.6511 28.5929 45.8395C27.1368 46.028 25.5761 46.125 24 46.125C22.4239 46.125 20.8632 46.028 19.4071 45.8395C17.951 45.6511 16.628 45.3748 15.5137 45.0266C14.3993 44.6784 13.5155 44.265 12.9126 43.81C12.3097 43.355 11.9996 42.8674 12 42.375C11.9996 41.8826 12.3097 41.395 12.9126 40.94C13.5155 40.485 14.3993 40.0716 15.5137 39.7234C16.628 39.3752 17.951 39.0989 19.4071 38.9105C20.8632 38.722 22.4239 38.625 24 38.625C25.5761 38.625 27.1368 38.722 28.5929 38.9105C30.049 39.0989 31.372 39.3752 32.4863 39.7234C33.6007 40.0716 34.4845 40.485 35.0874 40.94C35.6903 41.395 36.0004 41.8826 36 42.375Z" fill="url(#paint1_radial)"/>
<path d="M44.4231 25.2651C44.5547 24.99 44.6213 24.6535 44.625 24.3617C44.6213 24.07 44.5547 23.7601 44.4231 23.4851L44.0468 22.7619C43.9063 22.5144 43.8241 22.2735 43.7993 22.0576C43.7746 21.8417 43.799 21.5886 43.88 21.3158C43.9341 21.1489 43.9977 20.8645 44.0803 20.5274C44.1465 20.2298 44.1384 19.8868 44.0691 19.6034C43.9999 19.32 43.8625 19.034 43.6725 18.7955L43.1368 18.1775C42.9444 17.9676 42.8064 17.7527 42.7341 17.5477C42.6618 17.3428 42.6226 17.0823 42.6338 16.7979C42.6451 16.6229 42.6485 16.3468 42.6544 15.9998C42.653 15.695 42.5595 15.3682 42.4294 15.107C42.2994 14.8457 42.0868 14.5787 41.8444 14.3934L41.1841 13.9191C40.9465 13.7618 40.7649 13.5842 40.6452 13.4026C40.5256 13.2211 40.4324 12.973 40.375 12.6943C40.3439 12.5216 40.2845 12.2506 40.2071 11.9122C40.1326 11.6166 39.9706 11.3173 39.782 11.0945C39.5933 10.8717 39.3294 10.6586 39.0498 10.5361L38.3077 10.2385C38.042 10.1356 37.8169 9.99839 37.6576 9.85031C37.4983 9.70223 37.3551 9.49158 37.2395 9.23147C37.1748 9.07558 37.051 8.82823 36.9033 8.53332L36.8857 8.49803C36.7433 8.22835 36.5192 7.97029 36.2831 7.79837C36.047 7.62644 35.759 7.4958 35.4597 7.43571L34.6533 7.30626C34.3708 7.26914 34.1273 7.19276 33.9399 7.08215C33.7526 6.97155 33.5555 6.79668 33.3812 6.57152C33.2773 6.43009 33.1026 6.21621 32.8839 5.9464C32.6868 5.71362 32.4052 5.52276 32.1375 5.40582C31.8698 5.28889 31.5347 5.22003 31.2297 5.23357L30.4307 5.29747C30.1468 5.32266 29.8816 5.30483 29.673 5.24286C29.4643 5.1809 29.2412 5.05814 29.0217 4.87666C28.8892 4.76145 28.6529 4.5898 28.3748 4.38152C28.1267 4.20388 27.8079 4.07503 27.5196 4.02734C27.2313 3.97965 26.914 3.99262 26.6196 4.07355L25.84 4.32066C25.5712 4.41521 25.3191 4.45599 25.1019 4.44224C24.8847 4.4285 24.6289 4.35747 24.371 4.23628C24.214 4.15763 23.9602 4.04324 23.6423 3.90278C23.3605 3.78546 23.0204 3.73527 22.7288 3.75372C22.4372 3.77218 22.1309 3.85772 21.8625 4.00288L21.1591 4.42185C20.9186 4.57454 20.6825 4.67242 20.4678 4.70794C20.253 4.74347 19.9887 4.73537 19.7101 4.67523C19.543 4.63479 19.2788 4.58405 18.9477 4.5205L18.9257 4.51627C18.6247 4.46519 18.2845 4.4984 18.0045 4.58159C17.7244 4.66477 17.4226 4.82507 17.1984 5.03205L16.629 5.59439C16.4285 5.79666 16.2133 5.95075 16.0139 6.03786C15.8145 6.12496 15.5642 6.17347 15.2792 6.17619C15.1035 6.17349 14.8118 6.19193 14.4648 6.21143C14.1604 6.23511 13.8344 6.33977 13.5829 6.48825C13.3314 6.63673 13.0974 6.84978 12.9238 7.1005L12.4864 7.7897C12.3405 8.03418 12.1743 8.22766 11.9984 8.35572C11.8226 8.48379 11.5847 8.59609 11.3086 8.6667C11.1374 8.70597 10.8722 8.78178 10.5374 8.87522C10.2452 8.96361 9.95993 9.14651 9.74607 9.3453C9.5322 9.5441 9.33825 9.82428 9.22907 10.109L8.96262 10.877C8.8788 11.149 8.76056 11.3739 8.62002 11.5399C8.47949 11.7059 8.2696 11.8668 8.01805 12.0006C7.86098 12.0792 7.61846 12.2134 7.31534 12.3833C7.05238 12.5382 6.81268 12.7796 6.65203 13.0233C6.49139 13.267 6.36316 13.5818 6.32473 13.8842L6.2502 14.68C6.22671 14.9636 6.16055 15.2193 6.06369 15.4139C5.96683 15.6085 5.80604 15.8061 5.58928 15.9909C5.45287 16.1014 5.24066 16.3027 4.98719 16.5401C4.76913 16.7535 4.58564 17.0433 4.48857 17.3185C4.3915 17.5937 4.34883 17.9074 4.37742 18.2109L4.48522 19.02C4.53147 19.3008 4.52806 19.5557 4.47646 19.7669C4.42486 19.978 4.31207 20.2172 4.14727 20.4494C4.04214 20.59 3.88643 20.8195 3.69204 21.1072C3.5268 21.3636 3.42177 21.6893 3.38859 21.9792C3.35541 22.2691 3.38138 22.6099 3.48447 22.8968L3.77781 23.6404C3.88598 23.9037 3.94299 24.1531 3.94024 24.3704C3.93748 24.5877 3.88598 24.8463 3.77781 25.1096C3.7071 25.2702 3.60886 25.5289 3.48446 25.853C3.38137 26.14 3.35541 26.4809 3.38859 26.7708C3.42177 27.0607 3.52678 27.3863 3.69202 27.6426L4.14727 28.3006C4.31207 28.5328 4.42483 28.7719 4.47643 28.983C4.52803 29.1941 4.53147 29.4492 4.48522 29.73C4.4524 29.9023 4.4174 30.1942 4.37738 30.5389C4.34879 30.8424 4.3915 31.1563 4.48857 31.4315C4.58564 31.7067 4.76908 31.9964 4.98715 32.2097L5.58928 32.7591C5.80604 32.9439 5.96678 33.1413 6.06364 33.336C6.16049 33.5306 6.22671 33.7864 6.2502 34.07C6.2603 34.2452 6.28837 34.5205 6.32467 34.8657C6.36309 35.1681 6.49138 35.483 6.65203 35.7267C6.81268 35.9704 7.05231 36.2117 7.31526 36.3666L8.01805 36.7494C8.2696 36.8832 8.47941 37.044 8.61994 37.21C8.76047 37.376 8.8788 37.601 8.96262 37.873C9.01008 38.0419 9.11169 38.3142 9.22898 38.6409C9.33816 38.9256 9.5322 39.2059 9.74607 39.4047C9.95993 39.6035 10.2451 39.7863 10.5373 39.8747L11.3086 40.0833C11.5847 40.1539 11.8225 40.2661 11.9983 40.3942C12.1742 40.5223 12.3405 40.7158 12.4864 40.9603C12.5725 41.1132 12.7322 41.3598 12.9237 41.6494C13.0973 41.9002 13.3314 42.1133 13.5829 42.2618C13.8344 42.4102 14.1603 42.5148 14.4646 42.5385L15.2792 42.5738C15.5642 42.5765 15.8144 42.625 16.0138 42.7121C16.2132 42.7992 16.4285 42.9533 16.629 43.1556C16.7494 43.2833 16.9483 43.4768 17.1983 43.7179C17.4224 43.9249 17.7244 44.0852 18.0045 44.1684C18.2845 44.2516 18.6246 44.2848 18.9256 44.2337L19.7101 44.0748C19.9887 44.0146 20.2529 44.0065 20.4676 44.042C20.6824 44.0776 20.9186 44.1755 21.1591 44.3281C21.305 44.4259 21.5604 44.5753 21.8624 44.7471C22.1308 44.8923 22.4372 44.9778 22.7288 44.9963C23.0204 45.0147 23.3604 44.9645 23.6422 44.8472L24.371 44.5137C24.6289 44.3925 24.8846 44.3215 25.1018 44.3078C25.319 44.294 25.5712 44.3348 25.84 44.4293C26.0042 44.4917 26.2864 44.5771 26.6195 44.6765C26.9138 44.7574 27.2313 44.7704 27.5196 44.7227C27.8079 44.675 28.1266 44.5461 28.3747 44.3685L29.0217 43.8733C29.2412 43.6919 29.4642 43.5691 29.6728 43.5072C29.8815 43.4452 30.1468 43.4273 30.4307 43.4525C30.6052 43.4724 30.8828 43.4936 31.2296 43.5165C31.5346 43.53 31.8698 43.4611 32.1375 43.3442C32.4052 43.2272 32.6867 43.0364 32.8838 42.8037L33.3812 42.1785C33.5555 41.9533 33.7525 41.7785 33.9398 41.6679C34.1272 41.5573 34.3708 41.4809 34.6533 41.4437C34.828 41.4252 35.1174 41.3754 35.4596 41.3144C35.7589 41.2543 36.047 41.1236 36.2831 40.9516C36.5192 40.7797 36.7432 40.5217 36.8856 40.2521L37.2395 39.5185C37.3551 39.2584 37.4982 39.0479 37.6575 38.8998C37.8168 38.7517 38.042 38.6144 38.3077 38.5115C38.4701 38.4532 38.7195 38.3503 39.0328 38.221L39.0498 38.214C39.3293 38.0915 39.5933 37.8783 39.782 37.6555C39.9706 37.4327 40.1325 37.1335 40.207 36.8379L40.375 36.0557C40.4324 35.777 40.5255 35.529 40.6452 35.3475C40.7648 35.1659 40.9465 34.9882 41.1841 34.8309C41.3329 34.7376 41.5638 34.5616 41.8443 34.3567C42.0867 34.1714 42.2994 33.9043 42.4294 33.643C42.5595 33.3818 42.6529 33.0551 42.6543 32.7503L42.6338 31.9521C42.6226 31.6677 42.6618 31.4074 42.7341 31.2024C42.8064 30.9974 42.9444 30.7824 43.1368 30.5725C43.2586 30.4461 43.4502 30.2215 43.6724 29.9547C43.8625 29.7161 43.9999 29.4301 44.0691 29.1466C44.1384 28.8632 44.1464 28.5203 44.0803 28.2227L43.88 27.4342C43.799 27.1614 43.7746 26.9084 43.7993 26.6925C43.824 26.4766 43.9063 26.2356 44.0468 25.9881C44.1373 25.8377 44.2665 25.5749 44.4231 25.2651Z" fill="url(#paint2_linear)"/>
<g opacity="0.5">
<mask id="path-4-inside-1" fill="white">
<path d="M44.4231 25.2651C44.5547 24.99 44.6213 24.6535 44.625 24.3617C44.6213 24.07 44.5547 23.7601 44.4231 23.4851L44.0468 22.7619C43.9063 22.5144 43.8241 22.2735 43.7993 22.0576C43.7746 21.8417 43.799 21.5886 43.88 21.3158C43.9341 21.1489 43.9977 20.8645 44.0803 20.5274C44.1465 20.2298 44.1384 19.8868 44.0691 19.6034C43.9999 19.32 43.8625 19.034 43.6725 18.7955L43.1368 18.1775C42.9444 17.9676 42.8064 17.7527 42.7341 17.5477C42.6618 17.3428 42.6226 17.0823 42.6338 16.7979C42.6451 16.6229 42.6485 16.3468 42.6544 15.9998C42.653 15.695 42.5595 15.3682 42.4294 15.107C42.2994 14.8457 42.0868 14.5787 41.8444 14.3934L41.1841 13.9191C40.9465 13.7618 40.7649 13.5842 40.6452 13.4026C40.5256 13.2211 40.4324 12.973 40.375 12.6943C40.3439 12.5216 40.2845 12.2506 40.2071 11.9122C40.1326 11.6166 39.9706 11.3173 39.782 11.0945C39.5933 10.8717 39.3294 10.6586 39.0498 10.5361L38.3077 10.2385C38.042 10.1356 37.8169 9.99839 37.6576 9.85031C37.4983 9.70223 37.3551 9.49158 37.2395 9.23147C37.1748 9.07558 37.051 8.82823 36.9033 8.53332L36.8857 8.49803C36.7433 8.22835 36.5192 7.97029 36.2831 7.79837C36.047 7.62644 35.759 7.4958 35.4597 7.43571L34.6533 7.30626C34.3708 7.26914 34.1273 7.19276 33.9399 7.08215C33.7526 6.97155 33.5555 6.79668 33.3812 6.57152C33.2773 6.43009 33.1026 6.21621 32.8839 5.9464C32.6868 5.71362 32.4052 5.52276 32.1375 5.40582C31.8698 5.28889 31.5347 5.22003 31.2297 5.23357L30.4307 5.29747C30.1468 5.32266 29.8816 5.30483 29.673 5.24286C29.4643 5.1809 29.2412 5.05814 29.0217 4.87666C28.8892 4.76145 28.6529 4.5898 28.3748 4.38152C28.1267 4.20388 27.8079 4.07503 27.5196 4.02734C27.2313 3.97965 26.914 3.99262 26.6196 4.07355L25.84 4.32066C25.5712 4.41521 25.3191 4.45599 25.1019 4.44224C24.8847 4.4285 24.6289 4.35747 24.371 4.23628C24.214 4.15763 23.9602 4.04324 23.6423 3.90278C23.3605 3.78546 23.0204 3.73527 22.7288 3.75372C22.4372 3.77218 22.1309 3.85772 21.8625 4.00288L21.1591 4.42185C20.9186 4.57454 20.6825 4.67242 20.4678 4.70794C20.253 4.74347 19.9887 4.73537 19.7101 4.67523C19.543 4.63479 19.2788 4.58405 18.9477 4.5205L18.9257 4.51627C18.6247 4.46519 18.2845 4.4984 18.0045 4.58159C17.7244 4.66477 17.4226 4.82507 17.1984 5.03205L16.629 5.59439C16.4285 5.79666 16.2133 5.95075 16.0139 6.03786C15.8145 6.12496 15.5642 6.17347 15.2792 6.17619C15.1035 6.17349 14.8118 6.19193 14.4648 6.21143C14.1604 6.23511 13.8344 6.33977 13.5829 6.48825C13.3314 6.63673 13.0974 6.84978 12.9238 7.1005L12.4864 7.7897C12.3405 8.03418 12.1743 8.22766 11.9984 8.35572C11.8226 8.48379 11.5847 8.59609 11.3086 8.6667C11.1374 8.70597 10.8722 8.78178 10.5374 8.87522C10.2452 8.96361 9.95993 9.14651 9.74607 9.3453C9.5322 9.5441 9.33825 9.82428 9.22907 10.109L8.96262 10.877C8.8788 11.149 8.76056 11.3739 8.62002 11.5399C8.47949 11.7059 8.2696 11.8668 8.01805 12.0006C7.86098 12.0792 7.61846 12.2134 7.31534 12.3833C7.05238 12.5382 6.81268 12.7796 6.65203 13.0233C6.49139 13.267 6.36316 13.5818 6.32473 13.8842L6.2502 14.68C6.22671 14.9636 6.16055 15.2193 6.06369 15.4139C5.96683 15.6085 5.80604 15.8061 5.58928 15.9909C5.45287 16.1014 5.24066 16.3027 4.98719 16.5401C4.76913 16.7535 4.58564 17.0433 4.48857 17.3185C4.3915 17.5937 4.34883 17.9074 4.37742 18.2109L4.48522 19.02C4.53147 19.3008 4.52806 19.5557 4.47646 19.7669C4.42486 19.978 4.31207 20.2172 4.14727 20.4494C4.04214 20.59 3.88643 20.8195 3.69204 21.1072C3.5268 21.3636 3.42177 21.6893 3.38859 21.9792C3.35541 22.2691 3.38138 22.6099 3.48447 22.8968L3.77781 23.6404C3.88598 23.9037 3.94299 24.1531 3.94024 24.3704C3.93748 24.5877 3.88598 24.8463 3.77781 25.1096C3.7071 25.2702 3.60886 25.5289 3.48446 25.853C3.38137 26.14 3.35541 26.4809 3.38859 26.7708C3.42177 27.0607 3.52678 27.3863 3.69202 27.6426L4.14727 28.3006C4.31207 28.5328 4.42483 28.7719 4.47643 28.983C4.52803 29.1941 4.53147 29.4492 4.48522 29.73C4.4524 29.9023 4.4174 30.1942 4.37738 30.5389C4.34879 30.8424 4.3915 31.1563 4.48857 31.4315C4.58564 31.7067 4.76908 31.9964 4.98715 32.2097L5.58928 32.7591C5.80604 32.9439 5.96678 33.1413 6.06364 33.336C6.16049 33.5306 6.22671 33.7864 6.2502 34.07C6.2603 34.2452 6.28837 34.5205 6.32467 34.8657C6.36309 35.1681 6.49138 35.483 6.65203 35.7267C6.81268 35.9704 7.05231 36.2117 7.31526 36.3666L8.01805 36.7494C8.2696 36.8832 8.47941 37.044 8.61994 37.21C8.76047 37.376 8.8788 37.601 8.96262 37.873C9.01008 38.0419 9.11169 38.3142 9.22898 38.6409C9.33816 38.9256 9.5322 39.2059 9.74607 39.4047C9.95993 39.6035 10.2451 39.7863 10.5373 39.8747L11.3086 40.0833C11.5847 40.1539 11.8225 40.2661 11.9983 40.3942C12.1742 40.5223 12.3405 40.7158 12.4864 40.9603C12.5725 41.1132 12.7322 41.3598 12.9237 41.6494C13.0973 41.9002 13.3314 42.1133 13.5829 42.2618C13.8344 42.4102 14.1603 42.5148 14.4646 42.5385L15.2792 42.5738C15.5642 42.5765 15.8144 42.625 16.0138 42.7121C16.2132 42.7992 16.4285 42.9533 16.629 43.1556C16.7494 43.2833 16.9483 43.4768 17.1983 43.7179C17.4224 43.9249 17.7244 44.0852 18.0045 44.1684C18.2845 44.2516 18.6246 44.2848 18.9256 44.2337L19.7101 44.0748C19.9887 44.0146 20.2529 44.0065 20.4676 44.042C20.6824 44.0776 20.9186 44.1755 21.1591 44.3281C21.305 44.4259 21.5604 44.5753 21.8624 44.7471C22.1308 44.8923 22.4372 44.9778 22.7288 44.9963C23.0204 45.0147 23.3604 44.9645 23.6422 44.8472L24.371 44.5137C24.6289 44.3925 24.8846 44.3215 25.1018 44.3078C25.319 44.294 25.5712 44.3348 25.84 44.4293C26.0042 44.4917 26.2864 44.5771 26.6195 44.6765C26.9138 44.7574 27.2313 44.7704 27.5196 44.7227C27.8079 44.675 28.1266 44.5461 28.3747 44.3685L29.0217 43.8733C29.2412 43.6919 29.4642 43.5691 29.6728 43.5072C29.8815 43.4452 30.1468 43.4273 30.4307 43.4525C30.6052 43.4724 30.8828 43.4936 31.2296 43.5165C31.5346 43.53 31.8698 43.4611 32.1375 43.3442C32.4052 43.2272 32.6867 43.0364 32.8838 42.8037L33.3812 42.1785C33.5555 41.9533 33.7525 41.7785 33.9398 41.6679C34.1272 41.5573 34.3708 41.4809 34.6533 41.4437C34.828 41.4252 35.1174 41.3754 35.4596 41.3144C35.7589 41.2543 36.047 41.1236 36.2831 40.9516C36.5192 40.7797 36.7432 40.5217 36.8856 40.2521L37.2395 39.5185C37.3551 39.2584 37.4982 39.0479 37.6575 38.8998C37.8168 38.7517 38.042 38.6144 38.3077 38.5115C38.4701 38.4532 38.7195 38.3503 39.0328 38.221L39.0498 38.214C39.3293 38.0915 39.5933 37.8783 39.782 37.6555C39.9706 37.4327 40.1325 37.1335 40.207 36.8379L40.375 36.0557C40.4324 35.777 40.5255 35.529 40.6452 35.3475C40.7648 35.1659 40.9465 34.9882 41.1841 34.8309C41.3329 34.7376 41.5638 34.5616 41.8443 34.3567C42.0867 34.1714 42.2994 33.9043 42.4294 33.643C42.5595 33.3818 42.6529 33.0551 42.6543 32.7503L42.6338 31.9521C42.6226 31.6677 42.6618 31.4074 42.7341 31.2024C42.8064 30.9974 42.9444 30.7824 43.1368 30.5725C43.2586 30.4461 43.4502 30.2215 43.6724 29.9547C43.8625 29.7161 43.9999 29.4301 44.0691 29.1466C44.1384 28.8632 44.1464 28.5203 44.0803 28.2227L43.88 27.4342C43.799 27.1614 43.7746 26.9084 43.7993 26.6925C43.824 26.4766 43.9063 26.2356 44.0468 25.9881C44.1373 25.8377 44.2665 25.5749 44.4231 25.2651Z"/>
</mask>
<path d="M44.4231 25.2651C44.5547 24.99 44.6213 24.6535 44.625 24.3617C44.6213 24.07 44.5547 23.7601 44.4231 23.4851L44.0468 22.7619C43.9063 22.5144 43.8241 22.2735 43.7993 22.0576C43.7746 21.8417 43.799 21.5886 43.88 21.3158C43.9341 21.1489 43.9977 20.8645 44.0803 20.5274C44.1465 20.2298 44.1384 19.8868 44.0691 19.6034C43.9999 19.32 43.8625 19.034 43.6725 18.7955L43.1368 18.1775C42.9444 17.9676 42.8064 17.7527 42.7341 17.5477C42.6618 17.3428 42.6226 17.0823 42.6338 16.7979C42.6451 16.6229 42.6485 16.3468 42.6544 15.9998C42.653 15.695 42.5595 15.3682 42.4294 15.107C42.2994 14.8457 42.0868 14.5787 41.8444 14.3934L41.1841 13.9191C40.9465 13.7618 40.7649 13.5842 40.6452 13.4026C40.5256 13.2211 40.4324 12.973 40.375 12.6943C40.3439 12.5216 40.2845 12.2506 40.2071 11.9122C40.1326 11.6166 39.9706 11.3173 39.782 11.0945C39.5933 10.8717 39.3294 10.6586 39.0498 10.5361L38.3077 10.2385C38.042 10.1356 37.8169 9.99839 37.6576 9.85031C37.4983 9.70223 37.3551 9.49158 37.2395 9.23147C37.1748 9.07558 37.051 8.82823 36.9033 8.53332L36.8857 8.49803C36.7433 8.22835 36.5192 7.97029 36.2831 7.79837C36.047 7.62644 35.759 7.4958 35.4597 7.43571L34.6533 7.30626C34.3708 7.26914 34.1273 7.19276 33.9399 7.08215C33.7526 6.97155 33.5555 6.79668 33.3812 6.57152C33.2773 6.43009 33.1026 6.21621 32.8839 5.9464C32.6868 5.71362 32.4052 5.52276 32.1375 5.40582C31.8698 5.28889 31.5347 5.22003 31.2297 5.23357L30.4307 5.29747C30.1468 5.32266 29.8816 5.30483 29.673 5.24286C29.4643 5.1809 29.2412 5.05814 29.0217 4.87666C28.8892 4.76145 28.6529 4.5898 28.3748 4.38152C28.1267 4.20388 27.8079 4.07503 27.5196 4.02734C27.2313 3.97965 26.914 3.99262 26.6196 4.07355L25.84 4.32066C25.5712 4.41521 25.3191 4.45599 25.1019 4.44224C24.8847 4.4285 24.6289 4.35747 24.371 4.23628C24.214 4.15763 23.9602 4.04324 23.6423 3.90278C23.3605 3.78546 23.0204 3.73527 22.7288 3.75372C22.4372 3.77218 22.1309 3.85772 21.8625 4.00288L21.1591 4.42185C20.9186 4.57454 20.6825 4.67242 20.4678 4.70794C20.253 4.74347 19.9887 4.73537 19.7101 4.67523C19.543 4.63479 19.2788 4.58405 18.9477 4.5205L18.9257 4.51627C18.6247 4.46519 18.2845 4.4984 18.0045 4.58159C17.7244 4.66477 17.4226 4.82507 17.1984 5.03205L16.629 5.59439C16.4285 5.79666 16.2133 5.95075 16.0139 6.03786C15.8145 6.12496 15.5642 6.17347 15.2792 6.17619C15.1035 6.17349 14.8118 6.19193 14.4648 6.21143C14.1604 6.23511 13.8344 6.33977 13.5829 6.48825C13.3314 6.63673 13.0974 6.84978 12.9238 7.1005L12.4864 7.7897C12.3405 8.03418 12.1743 8.22766 11.9984 8.35572C11.8226 8.48379 11.5847 8.59609 11.3086 8.6667C11.1374 8.70597 10.8722 8.78178 10.5374 8.87522C10.2452 8.96361 9.95993 9.14651 9.74607 9.3453C9.5322 9.5441 9.33825 9.82428 9.22907 10.109L8.96262 10.877C8.8788 11.149 8.76056 11.3739 8.62002 11.5399C8.47949 11.7059 8.2696 11.8668 8.01805 12.0006C7.86098 12.0792 7.61846 12.2134 7.31534 12.3833C7.05238 12.5382 6.81268 12.7796 6.65203 13.0233C6.49139 13.267 6.36316 13.5818 6.32473 13.8842L6.2502 14.68C6.22671 14.9636 6.16055 15.2193 6.06369 15.4139C5.96683 15.6085 5.80604 15.8061 5.58928 15.9909C5.45287 16.1014 5.24066 16.3027 4.98719 16.5401C4.76913 16.7535 4.58564 17.0433 4.48857 17.3185C4.3915 17.5937 4.34883 17.9074 4.37742 18.2109L4.48522 19.02C4.53147 19.3008 4.52806 19.5557 4.47646 19.7669C4.42486 19.978 4.31207 20.2172 4.14727 20.4494C4.04214 20.59 3.88643 20.8195 3.69204 21.1072C3.5268 21.3636 3.42177 21.6893 3.38859 21.9792C3.35541 22.2691 3.38138 22.6099 3.48447 22.8968L3.77781 23.6404C3.88598 23.9037 3.94299 24.1531 3.94024 24.3704C3.93748 24.5877 3.88598 24.8463 3.77781 25.1096C3.7071 25.2702 3.60886 25.5289 3.48446 25.853C3.38137 26.14 3.35541 26.4809 3.38859 26.7708C3.42177 27.0607 3.52678 27.3863 3.69202 27.6426L4.14727 28.3006C4.31207 28.5328 4.42483 28.7719 4.47643 28.983C4.52803 29.1941 4.53147 29.4492 4.48522 29.73C4.4524 29.9023 4.4174 30.1942 4.37738 30.5389C4.34879 30.8424 4.3915 31.1563 4.48857 31.4315C4.58564 31.7067 4.76908 31.9964 4.98715 32.2097L5.58928 32.7591C5.80604 32.9439 5.96678 33.1413 6.06364 33.336C6.16049 33.5306 6.22671 33.7864 6.2502 34.07C6.2603 34.2452 6.28837 34.5205 6.32467 34.8657C6.36309 35.1681 6.49138 35.483 6.65203 35.7267C6.81268 35.9704 7.05231 36.2117 7.31526 36.3666L8.01805 36.7494C8.2696 36.8832 8.47941 37.044 8.61994 37.21C8.76047 37.376 8.8788 37.601 8.96262 37.873C9.01008 38.0419 9.11169 38.3142 9.22898 38.6409C9.33816 38.9256 9.5322 39.2059 9.74607 39.4047C9.95993 39.6035 10.2451 39.7863 10.5373 39.8747L11.3086 40.0833C11.5847 40.1539 11.8225 40.2661 11.9983 40.3942C12.1742 40.5223 12.3405 40.7158 12.4864 40.9603C12.5725 41.1132 12.7322 41.3598 12.9237 41.6494C13.0973 41.9002 13.3314 42.1133 13.5829 42.2618C13.8344 42.4102 14.1603 42.5148 14.4646 42.5385L15.2792 42.5738C15.5642 42.5765 15.8144 42.625 16.0138 42.7121C16.2132 42.7992 16.4285 42.9533 16.629 43.1556C16.7494 43.2833 16.9483 43.4768 17.1983 43.7179C17.4224 43.9249 17.7244 44.0852 18.0045 44.1684C18.2845 44.2516 18.6246 44.2848 18.9256 44.2337L19.7101 44.0748C19.9887 44.0146 20.2529 44.0065 20.4676 44.042C20.6824 44.0776 20.9186 44.1755 21.1591 44.3281C21.305 44.4259 21.5604 44.5753 21.8624 44.7471C22.1308 44.8923 22.4372 44.9778 22.7288 44.9963C23.0204 45.0147 23.3604 44.9645 23.6422 44.8472L24.371 44.5137C24.6289 44.3925 24.8846 44.3215 25.1018 44.3078C25.319 44.294 25.5712 44.3348 25.84 44.4293C26.0042 44.4917 26.2864 44.5771 26.6195 44.6765C26.9138 44.7574 27.2313 44.7704 27.5196 44.7227C27.8079 44.675 28.1266 44.5461 28.3747 44.3685L29.0217 43.8733C29.2412 43.6919 29.4642 43.5691 29.6728 43.5072C29.8815 43.4452 30.1468 43.4273 30.4307 43.4525C30.6052 43.4724 30.8828 43.4936 31.2296 43.5165C31.5346 43.53 31.8698 43.4611 32.1375 43.3442C32.4052 43.2272 32.6867 43.0364 32.8838 42.8037L33.3812 42.1785C33.5555 41.9533 33.7525 41.7785 33.9398 41.6679C34.1272 41.5573 34.3708 41.4809 34.6533 41.4437C34.828 41.4252 35.1174 41.3754 35.4596 41.3144C35.7589 41.2543 36.047 41.1236 36.2831 40.9516C36.5192 40.7797 36.7432 40.5217 36.8856 40.2521L37.2395 39.5185C37.3551 39.2584 37.4982 39.0479 37.6575 38.8998C37.8168 38.7517 38.042 38.6144 38.3077 38.5115C38.4701 38.4532 38.7195 38.3503 39.0328 38.221L39.0498 38.214C39.3293 38.0915 39.5933 37.8783 39.782 37.6555C39.9706 37.4327 40.1325 37.1335 40.207 36.8379L40.375 36.0557C40.4324 35.777 40.5255 35.529 40.6452 35.3475C40.7648 35.1659 40.9465 34.9882 41.1841 34.8309C41.3329 34.7376 41.5638 34.5616 41.8443 34.3567C42.0867 34.1714 42.2994 33.9043 42.4294 33.643C42.5595 33.3818 42.6529 33.0551 42.6543 32.7503L42.6338 31.9521C42.6226 31.6677 42.6618 31.4074 42.7341 31.2024C42.8064 30.9974 42.9444 30.7824 43.1368 30.5725C43.2586 30.4461 43.4502 30.2215 43.6724 29.9547C43.8625 29.7161 43.9999 29.4301 44.0691 29.1466C44.1384 28.8632 44.1464 28.5203 44.0803 28.2227L43.88 27.4342C43.799 27.1614 43.7746 26.9084 43.7993 26.6925C43.824 26.4766 43.9063 26.2356 44.0468 25.9881C44.1373 25.8377 44.2665 25.5749 44.4231 25.2651Z" stroke="#0E141F" stroke-opacity="0.75" stroke-width="2" mask="url(#path-4-inside-1)"/>
</g>
<g opacity="0.5">
<mask id="path-5-inside-2" fill="white">
<path d="M44.0518 25.2489C44.181 24.9788 44.2464 24.6484 44.25 24.362C44.2464 24.0756 44.181 23.7713 44.0518 23.5012L43.6824 22.7913C43.5443 22.5482 43.4636 22.3118 43.4394 22.0998C43.4151 21.8878 43.439 21.6393 43.5185 21.3714C43.5717 21.2075 43.6341 20.9283 43.7152 20.5974C43.7802 20.3052 43.7723 19.9684 43.7043 19.6901C43.6362 19.4119 43.5014 19.1311 43.3148 18.8969L42.7889 18.2902C42.5999 18.0841 42.4645 17.8731 42.3935 17.6719C42.3225 17.4706 42.284 17.2149 42.295 16.9357C42.3061 16.7638 42.3094 16.4928 42.3152 16.1521C42.3138 15.8528 42.222 15.532 42.0944 15.2755C41.9667 15.0189 41.7579 14.7568 41.5199 14.5749L40.8716 14.1092C40.6384 13.9548 40.4601 13.7804 40.3426 13.6021C40.2251 13.4239 40.1337 13.1803 40.0773 12.9066C40.0467 12.7371 39.9885 12.471 39.9124 12.1388C39.8393 11.8486 39.6803 11.5547 39.495 11.336C39.3098 11.1172 39.0507 10.9079 38.7762 10.7877L38.0476 10.4955C37.7867 10.3945 37.5657 10.2598 37.4093 10.1144C37.2529 9.96901 37.1123 9.76219 36.9988 9.5068C36.9352 9.35374 36.8136 9.11084 36.6687 8.82125L36.6514 8.7867C36.5116 8.52193 36.2916 8.26855 36.0598 8.09976C35.828 7.93096 35.5452 7.8027 35.2513 7.7437L34.4597 7.6166C34.1822 7.58016 33.9432 7.50516 33.7592 7.39657C33.5752 7.28798 33.3818 7.11629 33.2107 6.89522C33.1086 6.75636 32.9371 6.54637 32.7224 6.28147C32.5289 6.05292 32.2523 5.86553 31.9895 5.75072C31.7267 5.63591 31.3977 5.5683 31.0983 5.58159L30.3137 5.64434C30.035 5.66906 29.7746 5.65156 29.5698 5.59072C29.365 5.52988 29.1459 5.40936 28.9304 5.23117C28.8003 5.11806 28.5683 4.94953 28.2953 4.74504C28.0517 4.57063 27.7386 4.44412 27.4556 4.3973C27.1726 4.35047 26.861 4.36321 26.572 4.44267L25.8066 4.68528C25.5426 4.77812 25.2951 4.81815 25.0819 4.80466C24.8686 4.79116 24.6175 4.72143 24.3643 4.60244C24.2101 4.52522 23.9609 4.41291 23.6488 4.27501C23.3722 4.15981 23.0383 4.11054 22.7519 4.12866C22.4656 4.14677 22.1649 4.23076 21.9014 4.37328L21.2108 4.78464C20.9746 4.93455 20.7428 5.03065 20.532 5.06553C20.3212 5.1004 20.0616 5.09245 19.7881 5.03341C19.6241 4.9937 19.3646 4.94389 19.0396 4.8815L19.018 4.87734C18.7225 4.82718 18.3885 4.85979 18.1135 4.94147C17.8385 5.02314 17.5422 5.18052 17.3221 5.38374L16.763 5.93585C16.5661 6.13444 16.3549 6.28574 16.1591 6.37126C15.9633 6.45678 15.7176 6.5044 15.4378 6.50708C15.2653 6.50442 14.9788 6.52253 14.6381 6.54167C14.3393 6.56493 14.0192 6.66768 13.7723 6.81346C13.5253 6.95924 13.2956 7.16842 13.1252 7.41458L12.6957 8.09125C12.5525 8.33128 12.3893 8.52125 12.2166 8.64698C12.044 8.77272 11.8104 8.88297 11.5393 8.95231C11.3712 8.99087 11.1108 9.06529 10.7822 9.15704C10.4953 9.24382 10.2152 9.42339 10.0052 9.61857C9.79525 9.81375 9.60483 10.0888 9.49763 10.3683L9.23603 11.1224C9.15373 11.3895 9.03764 11.6103 8.89966 11.7733C8.76168 11.9362 8.55561 12.0942 8.30863 12.2256C8.15442 12.3028 7.91631 12.4346 7.6187 12.6013C7.36052 12.7534 7.12518 12.9904 6.96745 13.2297C6.80972 13.469 6.68383 13.778 6.6461 14.0749L6.57292 14.8562C6.54987 15.1347 6.48491 15.3858 6.38981 15.5768C6.29471 15.7679 6.13683 15.9619 5.92402 16.1433C5.79009 16.2519 5.58174 16.4494 5.33288 16.6826C5.11878 16.8921 4.93863 17.1766 4.84332 17.4468C4.74802 17.717 4.70612 18.025 4.7342 18.323L4.84004 19.1173C4.88545 19.3931 4.8821 19.6434 4.83144 19.8507C4.78078 20.058 4.67004 20.2928 4.50823 20.5208C4.40501 20.6588 4.25213 20.8842 4.06127 21.1666C3.89904 21.4183 3.79592 21.7382 3.76334 22.0228C3.73076 22.3074 3.75626 22.642 3.85748 22.9237L4.14549 23.6537C4.25169 23.9122 4.30766 24.1571 4.30496 24.3705C4.30226 24.5839 4.25169 24.8378 4.14549 25.0963C4.07606 25.2539 3.97961 25.508 3.85747 25.8261C3.75625 26.1079 3.73076 26.4426 3.76334 26.7272C3.79592 27.0118 3.89902 27.3316 4.06125 27.5832L4.50823 28.2292C4.67004 28.4572 4.78075 28.6919 4.83141 28.8992C4.88207 29.1065 4.88545 29.3569 4.84004 29.6326C4.80781 29.8018 4.77344 30.0884 4.73416 30.4269C4.70608 30.7248 4.74802 31.033 4.84332 31.3032C4.93863 31.5734 5.11873 31.8578 5.33283 32.0673L5.92402 32.6067C6.13683 32.7881 6.29465 32.982 6.38975 33.173C6.48485 33.3641 6.54987 33.6153 6.57292 33.8938C6.58284 34.0657 6.6104 34.3361 6.64604 34.675C6.68376 34.9719 6.80972 35.281 6.96745 35.5203C7.12518 35.7596 7.36045 35.9965 7.61862 36.1486L8.30863 36.5244C8.55561 36.6558 8.7616 36.8137 8.89958 36.9766C9.03755 37.1396 9.15373 37.3605 9.23603 37.6276C9.28263 37.7934 9.38239 38.0608 9.49754 38.3816C9.60474 38.6611 9.79525 38.9363 10.0052 39.1314C10.2152 39.3266 10.4952 39.5061 10.7821 39.5929L11.5393 39.7977C11.8104 39.867 12.0439 39.9772 12.2165 40.1029C12.3892 40.2287 12.5525 40.4187 12.6957 40.6588C12.7803 40.8089 12.937 41.051 13.125 41.3353C13.2955 41.5815 13.5253 41.7908 13.7723 41.9365C14.0192 42.0823 14.3392 42.185 14.638 42.2083L15.4378 42.2429C15.7176 42.2456 15.9632 42.2932 16.159 42.3787C16.3548 42.4642 16.5661 42.6156 16.763 42.8142C16.8812 42.9395 17.0765 43.1295 17.322 43.3662C17.542 43.5694 17.8385 43.7269 18.1135 43.8085C18.3885 43.8902 18.7223 43.9228 19.0178 43.8726L19.7881 43.7166C20.0616 43.6575 20.321 43.6496 20.5319 43.6845C20.7427 43.7193 20.9746 43.8155 21.2108 43.9654C21.354 44.0614 21.6047 44.208 21.9012 44.3767C22.1648 44.5192 22.4656 44.6032 22.7519 44.6213C23.0383 44.6395 23.372 44.5902 23.6487 44.475L24.3643 44.1476C24.6175 44.0286 24.8685 43.9588 25.0817 43.9454C25.295 43.9319 25.5426 43.9719 25.8066 44.0647C25.9678 44.126 26.2449 44.2098 26.5719 44.3074C26.8608 44.3868 27.1726 44.3995 27.4556 44.3527C27.7386 44.3059 28.0516 44.1794 28.2952 44.005L28.9304 43.5188C29.1459 43.3406 29.3649 43.2202 29.5697 43.1593C29.7745 43.0985 30.035 43.0809 30.3137 43.1057C30.4851 43.1252 30.7577 43.146 31.0982 43.1684C31.3976 43.1817 31.7267 43.1141 31.9895 42.9993C32.2523 42.8845 32.5288 42.6971 32.7223 42.4686L33.2107 41.8548C33.3818 41.6337 33.5751 41.4621 33.7591 41.3535C33.943 41.2449 34.1822 41.1698 34.4597 41.1334C34.6312 41.1152 34.9153 41.0663 35.2512 41.0064C35.5451 40.9474 35.828 40.819 36.0598 40.6502C36.2916 40.4814 36.5115 40.2282 36.6513 39.9634L36.9988 39.2432C37.1123 38.9878 37.2528 38.7811 37.4092 38.6357C37.5656 38.4903 37.7867 38.3555 38.0476 38.2545C38.207 38.1972 38.4519 38.0962 38.7595 37.9693L38.7761 37.9624C39.0506 37.8421 39.3098 37.6328 39.495 37.414C39.6803 37.1953 39.8392 36.9015 39.9123 36.6113L40.0773 35.8434C40.1337 35.5697 40.2251 35.3262 40.3425 35.148C40.46 34.9697 40.6384 34.7952 40.8716 34.6408C41.0177 34.5492 41.2444 34.3764 41.5198 34.1752C41.7579 33.9933 41.9667 33.7311 42.0944 33.4745C42.222 33.218 42.3138 32.8973 42.3152 32.598L42.295 31.8143C42.284 31.5351 42.3225 31.2795 42.3935 31.0782C42.4645 30.877 42.5999 30.6659 42.7889 30.4598C42.9085 30.3357 43.0966 30.1152 43.3147 29.8532C43.5013 29.619 43.6362 29.3381 43.7043 29.0599C43.7723 28.7816 43.7801 28.445 43.7152 28.1528L43.5185 27.3786C43.439 27.1107 43.4151 26.8624 43.4393 26.6504C43.4636 26.4384 43.5443 26.2018 43.6824 25.9587C43.7712 25.8111 43.898 25.5531 44.0518 25.2489Z"/>
</mask>
<path d="M44.0518 25.2489C44.181 24.9788 44.2464 24.6484 44.25 24.362C44.2464 24.0756 44.181 23.7713 44.0518 23.5012L43.6824 22.7913C43.5443 22.5482 43.4636 22.3118 43.4394 22.0998C43.4151 21.8878 43.439 21.6393 43.5185 21.3714C43.5717 21.2075 43.6341 20.9283 43.7152 20.5974C43.7802 20.3052 43.7723 19.9684 43.7043 19.6901C43.6362 19.4119 43.5014 19.1311 43.3148 18.8969L42.7889 18.2902C42.5999 18.0841 42.4645 17.8731 42.3935 17.6719C42.3225 17.4706 42.284 17.2149 42.295 16.9357C42.3061 16.7638 42.3094 16.4928 42.3152 16.1521C42.3138 15.8528 42.222 15.532 42.0944 15.2755C41.9667 15.0189 41.7579 14.7568 41.5199 14.5749L40.8716 14.1092C40.6384 13.9548 40.4601 13.7804 40.3426 13.6021C40.2251 13.4239 40.1337 13.1803 40.0773 12.9066C40.0467 12.7371 39.9885 12.471 39.9124 12.1388C39.8393 11.8486 39.6803 11.5547 39.495 11.336C39.3098 11.1172 39.0507 10.9079 38.7762 10.7877L38.0476 10.4955C37.7867 10.3945 37.5657 10.2598 37.4093 10.1144C37.2529 9.96901 37.1123 9.76219 36.9988 9.5068C36.9352 9.35374 36.8136 9.11084 36.6687 8.82125L36.6514 8.7867C36.5116 8.52193 36.2916 8.26855 36.0598 8.09976C35.828 7.93096 35.5452 7.8027 35.2513 7.7437L34.4597 7.6166C34.1822 7.58016 33.9432 7.50516 33.7592 7.39657C33.5752 7.28798 33.3818 7.11629 33.2107 6.89522C33.1086 6.75636 32.9371 6.54637 32.7224 6.28147C32.5289 6.05292 32.2523 5.86553 31.9895 5.75072C31.7267 5.63591 31.3977 5.5683 31.0983 5.58159L30.3137 5.64434C30.035 5.66906 29.7746 5.65156 29.5698 5.59072C29.365 5.52988 29.1459 5.40936 28.9304 5.23117C28.8003 5.11806 28.5683 4.94953 28.2953 4.74504C28.0517 4.57063 27.7386 4.44412 27.4556 4.3973C27.1726 4.35047 26.861 4.36321 26.572 4.44267L25.8066 4.68528C25.5426 4.77812 25.2951 4.81815 25.0819 4.80466C24.8686 4.79116 24.6175 4.72143 24.3643 4.60244C24.2101 4.52522 23.9609 4.41291 23.6488 4.27501C23.3722 4.15981 23.0383 4.11054 22.7519 4.12866C22.4656 4.14677 22.1649 4.23076 21.9014 4.37328L21.2108 4.78464C20.9746 4.93455 20.7428 5.03065 20.532 5.06553C20.3212 5.1004 20.0616 5.09245 19.7881 5.03341C19.6241 4.9937 19.3646 4.94389 19.0396 4.8815L19.018 4.87734C18.7225 4.82718 18.3885 4.85979 18.1135 4.94147C17.8385 5.02314 17.5422 5.18052 17.3221 5.38374L16.763 5.93585C16.5661 6.13444 16.3549 6.28574 16.1591 6.37126C15.9633 6.45678 15.7176 6.5044 15.4378 6.50708C15.2653 6.50442 14.9788 6.52253 14.6381 6.54167C14.3393 6.56493 14.0192 6.66768 13.7723 6.81346C13.5253 6.95924 13.2956 7.16842 13.1252 7.41458L12.6957 8.09125C12.5525 8.33128 12.3893 8.52125 12.2166 8.64698C12.044 8.77272 11.8104 8.88297 11.5393 8.95231C11.3712 8.99087 11.1108 9.06529 10.7822 9.15704C10.4953 9.24382 10.2152 9.42339 10.0052 9.61857C9.79525 9.81375 9.60483 10.0888 9.49763 10.3683L9.23603 11.1224C9.15373 11.3895 9.03764 11.6103 8.89966 11.7733C8.76168 11.9362 8.55561 12.0942 8.30863 12.2256C8.15442 12.3028 7.91631 12.4346 7.6187 12.6013C7.36052 12.7534 7.12518 12.9904 6.96745 13.2297C6.80972 13.469 6.68383 13.778 6.6461 14.0749L6.57292 14.8562C6.54987 15.1347 6.48491 15.3858 6.38981 15.5768C6.29471 15.7679 6.13683 15.9619 5.92402 16.1433C5.79009 16.2519 5.58174 16.4494 5.33288 16.6826C5.11878 16.8921 4.93863 17.1766 4.84332 17.4468C4.74802 17.717 4.70612 18.025 4.7342 18.323L4.84004 19.1173C4.88545 19.3931 4.8821 19.6434 4.83144 19.8507C4.78078 20.058 4.67004 20.2928 4.50823 20.5208C4.40501 20.6588 4.25213 20.8842 4.06127 21.1666C3.89904 21.4183 3.79592 21.7382 3.76334 22.0228C3.73076 22.3074 3.75626 22.642 3.85748 22.9237L4.14549 23.6537C4.25169 23.9122 4.30766 24.1571 4.30496 24.3705C4.30226 24.5839 4.25169 24.8378 4.14549 25.0963C4.07606 25.2539 3.97961 25.508 3.85747 25.8261C3.75625 26.1079 3.73076 26.4426 3.76334 26.7272C3.79592 27.0118 3.89902 27.3316 4.06125 27.5832L4.50823 28.2292C4.67004 28.4572 4.78075 28.6919 4.83141 28.8992C4.88207 29.1065 4.88545 29.3569 4.84004 29.6326C4.80781 29.8018 4.77344 30.0884 4.73416 30.4269C4.70608 30.7248 4.74802 31.033 4.84332 31.3032C4.93863 31.5734 5.11873 31.8578 5.33283 32.0673L5.92402 32.6067C6.13683 32.7881 6.29465 32.982 6.38975 33.173C6.48485 33.3641 6.54987 33.6153 6.57292 33.8938C6.58284 34.0657 6.6104 34.3361 6.64604 34.675C6.68376 34.9719 6.80972 35.281 6.96745 35.5203C7.12518 35.7596 7.36045 35.9965 7.61862 36.1486L8.30863 36.5244C8.55561 36.6558 8.7616 36.8137 8.89958 36.9766C9.03755 37.1396 9.15373 37.3605 9.23603 37.6276C9.28263 37.7934 9.38239 38.0608 9.49754 38.3816C9.60474 38.6611 9.79525 38.9363 10.0052 39.1314C10.2152 39.3266 10.4952 39.5061 10.7821 39.5929L11.5393 39.7977C11.8104 39.867 12.0439 39.9772 12.2165 40.1029C12.3892 40.2287 12.5525 40.4187 12.6957 40.6588C12.7803 40.8089 12.937 41.051 13.125 41.3353C13.2955 41.5815 13.5253 41.7908 13.7723 41.9365C14.0192 42.0823 14.3392 42.185 14.638 42.2083L15.4378 42.2429C15.7176 42.2456 15.9632 42.2932 16.159 42.3787C16.3548 42.4642 16.5661 42.6156 16.763 42.8142C16.8812 42.9395 17.0765 43.1295 17.322 43.3662C17.542 43.5694 17.8385 43.7269 18.1135 43.8085C18.3885 43.8902 18.7223 43.9228 19.0178 43.8726L19.7881 43.7166C20.0616 43.6575 20.321 43.6496 20.5319 43.6845C20.7427 43.7193 20.9746 43.8155 21.2108 43.9654C21.354 44.0614 21.6047 44.208 21.9012 44.3767C22.1648 44.5192 22.4656 44.6032 22.7519 44.6213C23.0383 44.6395 23.372 44.5902 23.6487 44.475L24.3643 44.1476C24.6175 44.0286 24.8685 43.9588 25.0817 43.9454C25.295 43.9319 25.5426 43.9719 25.8066 44.0647C25.9678 44.126 26.2449 44.2098 26.5719 44.3074C26.8608 44.3868 27.1726 44.3995 27.4556 44.3527C27.7386 44.3059 28.0516 44.1794 28.2952 44.005L28.9304 43.5188C29.1459 43.3406 29.3649 43.2202 29.5697 43.1593C29.7745 43.0985 30.035 43.0809 30.3137 43.1057C30.4851 43.1252 30.7577 43.146 31.0982 43.1684C31.3976 43.1817 31.7267 43.1141 31.9895 42.9993C32.2523 42.8845 32.5288 42.6971 32.7223 42.4686L33.2107 41.8548C33.3818 41.6337 33.5751 41.4621 33.7591 41.3535C33.943 41.2449 34.1822 41.1698 34.4597 41.1334C34.6312 41.1152 34.9153 41.0663 35.2512 41.0064C35.5451 40.9474 35.828 40.819 36.0598 40.6502C36.2916 40.4814 36.5115 40.2282 36.6513 39.9634L36.9988 39.2432C37.1123 38.9878 37.2528 38.7811 37.4092 38.6357C37.5656 38.4903 37.7867 38.3555 38.0476 38.2545C38.207 38.1972 38.4519 38.0962 38.7595 37.9693L38.7761 37.9624C39.0506 37.8421 39.3098 37.6328 39.495 37.414C39.6803 37.1953 39.8392 36.9015 39.9123 36.6113L40.0773 35.8434C40.1337 35.5697 40.2251 35.3262 40.3425 35.148C40.46 34.9697 40.6384 34.7952 40.8716 34.6408C41.0177 34.5492 41.2444 34.3764 41.5198 34.1752C41.7579 33.9933 41.9667 33.7311 42.0944 33.4745C42.222 33.218 42.3138 32.8973 42.3152 32.598L42.295 31.8143C42.284 31.5351 42.3225 31.2795 42.3935 31.0782C42.4645 30.877 42.5999 30.6659 42.7889 30.4598C42.9085 30.3357 43.0966 30.1152 43.3147 29.8532C43.5013 29.619 43.6362 29.3381 43.7043 29.0599C43.7723 28.7816 43.7801 28.445 43.7152 28.1528L43.5185 27.3786C43.439 27.1107 43.4151 26.8624 43.4393 26.6504C43.4636 26.4384 43.5443 26.2018 43.6824 25.9587C43.7712 25.8111 43.898 25.5531 44.0518 25.2489Z" stroke="url(#paint3_linear)" stroke-width="2" stroke-linecap="round" stroke-linejoin="round" mask="url(#path-5-inside-2)"/>
</g>
<path d="M20.2987 9.93781L18.7465 12.9369L17.4333 13.604L15.9425 10.6605L13.6998 13.5582V17.5819L12.5971 18.5335L10.0679 16.4295L9.63693 20.3355L11.4135 23.692L10.6175 25.2711L8.05414 24.4011L9.34874 27.8848L12.0594 29.5042L13.2141 31.1724L10.1434 32.3869L13.2141 34.7919L16.8077 34.8692L18.1405 35.965L16.0236 38.2372L19.8242 38.7431L22.2315 37.3791L24.3828 37.112L24.0154 40.3209L27.5272 38.9457L29.2998 35.9006L30.6814 35.3708L32.0146 38.2053L34.3153 35.2969V31.622L35.2282 30.3675L37.7642 32.319L38.2712 28.4275L36.516 25.4804V23.6921L39.9459 24.4373L38.3731 20.7191L35.7703 19.3703L34.87 17.7397L37.7754 16.3728L34.87 14.0759H31.4225L30.0299 12.9369L31.9807 10.5083L28.0414 10.0076L25.2772 11.7683L23.7584 11.6924L23.8403 8.42914L20.2987 9.93781Z" fill="url(#paint4_linear)"/>
<path opacity="0.5" d="M18.9729 13.3827C19.0663 13.3353 19.1424 13.2598 19.1905 13.1668L20.6601 10.3273L23.321 9.19384L23.2586 11.6798C23.2518 11.951 23.4625 12.1782 23.7335 12.1917L25.2522 12.2676C25.3558 12.2728 25.4584 12.2457 25.5458 12.19L28.1576 10.5264L31.0315 10.8917L29.6401 12.6238C29.4683 12.8378 29.501 13.1503 29.7134 13.324L31.106 14.4629C31.1953 14.5359 31.3071 14.5759 31.4225 14.5759H34.6962L36.8318 16.2641L34.6571 17.2873C34.532 17.3461 34.4369 17.4541 34.3943 17.5856C34.3517 17.7171 34.3655 17.8604 34.4323 17.9814L35.3326 19.612C35.3804 19.6984 35.4526 19.7688 35.5403 19.8142L37.9829 21.08L39.1097 23.7439L36.6221 23.2035C36.4743 23.1714 36.3199 23.2079 36.2022 23.3028C36.0844 23.3977 36.016 23.5409 36.016 23.6921V25.4804C36.016 25.5705 36.0403 25.6589 36.0864 25.7363L37.753 28.5346L37.3807 31.3929L35.5331 29.9713C35.4262 29.889 35.2906 29.8534 35.157 29.8726C35.0235 29.8918 34.9033 29.9642 34.824 30.0733L33.911 31.3278C33.8488 31.4133 33.8153 31.5163 33.8153 31.622V35.123L32.1234 37.2618L31.1338 35.158C31.0223 34.921 30.7469 34.8102 30.5023 34.904L29.1208 35.4337C29.0144 35.4745 28.9251 35.5505 28.8677 35.649L27.1827 38.5437L24.6066 39.5524L24.8795 37.1688C24.897 37.0165 24.8436 36.8646 24.7346 36.7567C24.6257 36.6488 24.4733 36.5969 24.3212 36.6158L22.1699 36.8829C22.1048 36.891 22.042 36.9118 21.985 36.9441L19.7238 38.2253L17.0497 37.8694L18.5064 36.3058C18.6004 36.2048 18.6486 36.0695 18.6394 35.9318C18.6303 35.7941 18.5646 35.6664 18.458 35.5787L17.1252 34.483C17.0386 34.4118 16.9305 34.3718 16.8184 34.3694L13.3913 34.2956L11.1383 32.5311L13.398 31.6374C13.5398 31.5813 13.6483 31.4635 13.6926 31.3175C13.7368 31.1715 13.712 31.0133 13.6252 30.8879L12.4705 29.2196C12.4299 29.1609 12.3771 29.1116 12.3158 29.075L9.75616 27.5458L8.88907 25.2124L10.4568 25.7446C10.6929 25.8247 10.9518 25.7187 11.064 25.4961L11.86 23.917C11.9329 23.7724 11.9312 23.6013 11.8554 23.4581L10.1508 20.2375L10.4629 17.4085L12.2774 18.9179C12.4653 19.0742 12.7387 19.0717 12.9238 18.912L14.0264 17.9605C14.1365 17.8655 14.1998 17.7273 14.1998 17.5819V13.7291L15.8538 11.592L16.9873 13.8299C17.0473 13.9483 17.1518 14.038 17.278 14.0792C17.4041 14.1205 17.5415 14.1099 17.6598 14.0498L18.9729 13.3827Z" stroke="url(#paint5_linear)" stroke-linecap="round" stroke-linejoin="round"/>
<path d="M18.3765 12.5641L17.6532 12.9315L16.3885 10.4346L16.0312 9.72906L15.5471 10.3545L13.3044 13.2521L13.1998 13.3873V13.5582V17.353L12.5912 17.8782L10.3876 16.0451L9.67285 15.4505L9.57089 16.3746L9.13995 20.2807L9.12308 20.4335L9.19501 20.5694L10.8507 23.6976L10.3667 24.6579L8.21484 23.9276L7.21921 23.5897L7.58545 24.5752L8.88005 28.059L8.94132 28.2239L9.09231 28.3141L11.7099 29.8779L12.4445 30.9391L9.95947 31.9219L9.14839 32.2427L9.83505 32.7805L12.9058 35.1856L13.0368 35.2882L13.2033 35.2918L16.6238 35.3654L17.4121 36.0134L15.6578 37.8964L14.9976 38.605L15.9576 38.7328L19.7582 39.2387L19.9246 39.2609L20.0707 39.1781L22.3916 37.8631L23.8137 37.6865L23.5186 40.264L23.4241 41.0894L24.1977 40.7864L27.7095 39.4113L27.8716 39.3478L27.9593 39.1973L29.6433 36.3043L30.4266 36.004L31.5622 38.4181L31.9059 39.1487L32.4068 38.5155L34.7074 35.6071L34.8153 35.4707V35.2969V31.7847L35.3303 31.077L37.4593 32.7153L38.1478 33.2451L38.2601 32.3836L38.767 28.4921L38.7894 28.3204L38.7008 28.1717L37.016 25.3428V24.3124L39.8397 24.9259L40.782 25.1306L40.4064 24.2425L38.8336 20.5243L38.7633 20.3581L38.6032 20.2751L36.1349 18.996L35.5656 17.965L37.9883 16.8252L38.7191 16.4814L38.0855 15.9805L35.1801 13.6836L35.0437 13.5759H34.87H31.6009L30.7301 12.8637L32.3705 10.8214L32.93 10.1249L32.0438 10.0123L28.1044 9.51162L27.9251 9.48884L27.7727 9.58591L25.143 11.2609L24.2705 11.2173L24.3401 8.44168L24.3596 7.66443L23.6443 7.96914L20.1027 9.4778L19.9373 9.54828L19.8546 9.70799L18.3765 12.5641Z" stroke="black" stroke-opacity="0.8"/>
<path d="M32.625 24.375C32.625 19.616 28.759 15.75 24 15.75C19.241 15.75 15.375 19.616 15.375 24.375C15.375 29.134 19.241 33 24 33C28.759 33 32.625 29.134 32.625 24.375Z" fill="url(#paint6_linear)"/>
<path d="M24 15.25C18.9649 15.25 14.875 19.3399 14.875 24.375C14.875 29.4101 18.9649 33.5 24 33.5C29.0351 33.5 33.125 29.4101 33.125 24.375C33.125 19.3399 29.0351 15.25 24 15.25Z" stroke="black" stroke-opacity="0.8"/>
<path opacity="0.5" d="M32.125 24.375C32.125 28.8623 28.4873 32.5 24 32.5C19.5127 32.5 15.875 28.8623 15.875 24.375C15.875 19.8877 19.5127 16.25 24 16.25C28.4873 16.25 32.125 19.8877 32.125 24.375Z" stroke="url(#paint7_linear)" stroke-linecap="round" stroke-linejoin="round"/>
<g filter="url(#filter0_d)">
<circle cx="24.0634" cy="13.3349" r="0.698225" fill="#C4C4C4"/>
<circle cx="24.0634" cy="13.3349" r="0.5" stroke="url(#paint8_linear)" stroke-width="0.39645"/>
</g>
<circle cx="24.0607" cy="16.6489" r="0.396954" fill="url(#paint9_linear)"/>
<circle cx="24.0634" cy="31.8924" r="0.396954" fill="url(#paint10_linear)"/>
<circle cx="20.9928" cy="31.0985" r="0.396954" fill="url(#paint11_linear)"/>
<circle cx="26.9426" cy="31.0985" r="0.396954" fill="url(#paint12_linear)"/>
<circle cx="29.4437" cy="18.9557" r="0.396954" fill="url(#paint13_linear)"/>
<circle cx="29.4437" cy="29.2484" r="0.396954" fill="url(#paint14_linear)"/>
<circle cx="18.7541" cy="18.9557" r="0.396954" fill="url(#paint15_linear)"/>
<circle cx="21.1789" cy="17.2896" r="0.396954" fill="url(#paint16_linear)"/>
<circle cx="26.9426" cy="17.2896" r="0.396954" fill="url(#paint17_linear)"/>
<circle cx="18.5563" cy="29.2484" r="0.396954" fill="url(#paint18_linear)"/>
<g filter="url(#filter1_d)">
<circle cx="24.0634" cy="35.1093" r="0.698225" fill="#C4C4C4"/>
<circle cx="24.0634" cy="35.1093" r="0.5" stroke="url(#paint19_linear)" stroke-width="0.39645"/>
</g>
<path d="M23.7405 18.6075C28.9388 18.5488 34.1749 21.2215 36.2792 23.0785C35.2821 23.7397 35.3038 24.912 36.2792 25.5368C32.9809 27.7341 28.8954 29.6998 23.7405 29.6633C18.7318 29.6278 14.2846 27.74 11.5761 25.5973C12.4452 24.914 12.5625 23.9463 11.5761 23.1286C14.5107 20.7431 18.6728 18.6647 23.7405 18.6075Z" fill="url(#paint20_linear)"/>
<path fill-rule="evenodd" clip-rule="evenodd" d="M9.54764 24.44C9.5024 21.7738 17.651 18.0597 23.7405 17.9782C30.0151 17.8942 38.4525 22.0726 38.4525 24.44C38.4525 26.8073 29.9707 30.4807 23.7405 30.3998C17.6967 30.3213 9.59288 27.1062 9.54764 24.44ZM36.2792 23.0785C34.1749 21.2215 28.9388 18.5488 23.7405 18.6075C18.6728 18.6647 14.5107 20.7431 11.5761 23.1286C12.5625 23.9463 12.4452 24.914 11.5761 25.5973C14.2846 27.74 18.7318 29.6278 23.7405 29.6633C28.8954 29.6998 32.9809 27.7341 36.2792 25.5368C35.3038 24.912 35.2821 23.7397 36.2792 23.0785Z" fill="url(#paint21_linear)"/>
<path d="M23.7338 17.4782C20.6053 17.5201 16.9773 18.4908 14.1363 19.7848C12.715 20.4322 11.466 21.1715 10.5661 21.9359C9.6955 22.6755 9.0323 23.5403 9.04771 24.4484C9.06311 25.3558 9.74341 26.1835 10.6251 26.8778C11.5348 27.5941 12.7865 28.2692 14.2043 28.8527C17.0401 30.0196 20.6394 30.8596 23.734 30.8998C26.9346 30.9413 30.681 30.0223 33.6246 28.7997C35.0976 28.1879 36.394 27.4901 37.3318 26.7798C37.8002 26.4251 38.1948 26.0554 38.4765 25.6782C38.7554 25.3048 38.9525 24.8846 38.9525 24.44C38.9525 23.9987 38.7588 23.5729 38.4848 23.1888C38.2072 22.7996 37.8171 22.4106 37.3517 22.0319C36.4199 21.2738 35.1294 20.5117 33.6583 19.8355C30.7208 18.4853 26.9677 17.4349 23.7338 17.4782ZM23.7461 19.1075C26.2621 19.079 28.8043 19.7126 30.9836 20.5885C32.8772 21.3496 34.4694 22.2823 35.5106 23.092C35.2036 23.4485 35.0368 23.8764 35.0395 24.3243C35.042 24.7425 35.192 25.1394 35.4622 25.4733C32.3094 27.4914 28.4868 29.1969 23.744 29.1633C19.1209 29.1305 14.9915 27.4798 12.3363 25.5465C12.5949 25.222 12.7575 24.8446 12.7716 24.4304C12.787 23.9814 12.6258 23.5555 12.3229 23.1752C15.1607 20.991 19.0585 19.1604 23.7461 19.1075Z" stroke="black" stroke-opacity="0.75"/>
<circle cx="10.8973" cy="24.3247" r="0.648775" fill="url(#paint22_linear)" stroke="black"/>
<circle cx="36.8121" cy="24.3247" r="0.648775" fill="url(#paint23_linear)" stroke="black"/>
<path d="M16.2706 21.9635C15.6515 23.8748 15.6194 24.6226 16.2706 26.7028C20.8188 28.5061 26.3391 28.6986 31.7313 26.7028C31.7447 26.418 31.7313 26.2879 31.7313 25.9727C22.3862 27.3896 17.3384 25.9727 17.3384 25.9727V24.8303H30.2007C30.3092 24.0974 30.3092 24.4696 30.2007 23.7367H17.3384V22.5813C17.3384 22.5813 23.439 21.0728 31.7313 22.5813C31.7313 22.4355 31.7488 22.2883 31.7313 21.9635C27.4848 19.7987 20.5941 19.7346 16.2706 21.9635Z" fill="url(#paint24_linear)"/>
<path d="M17.8384 25.5775V25.3303H17.8503H17.8637H17.8772H17.8909H17.9047H17.9187H17.9328H17.9471H17.9616H17.9762H17.9909H18.0058H18.0209H18.036H18.0514H18.0669H18.0825H18.0983H18.1143H18.1303H18.1466H18.1629H18.1795H18.1961H18.2129H18.2299H18.2469H18.2642H18.2815H18.299H18.3167H18.3345H18.3524H18.3705H18.3887H18.407H18.4255H18.4441H18.4628H18.4817H18.5007H18.5198H18.5391H18.5585H18.5781H18.5977H18.6175H18.6374H18.6575H18.6777H18.698H18.7184H18.739H18.7596H18.7805H18.8014H18.8224H18.8436H18.8649H18.8863H18.9079H18.9296H18.9513H18.9732H18.9953H19.0174H19.0397H19.062H19.0845H19.1071H19.1299H19.1527H19.1756H19.1987H19.2219H19.2452H19.2686H19.2921H19.3157H19.3394H19.3633H19.3872H19.4113H19.4354H19.4597H19.4841H19.5085H19.5331H19.5578H19.5826H19.6075H19.6325H19.6576H19.6828H19.7081H19.7335H19.759H19.7846H19.8103H19.836H19.8619H19.8879H19.914H19.9402H19.9664H19.9928H20.0193H20.0458H20.0724H20.0992H20.126H20.1529H20.1799H20.207H20.2342H20.2614H20.2888H20.3162H20.3437H20.3714H20.399H20.4268H20.4547H20.4826H20.5107H20.5388H20.567H20.5952H20.6236H20.652H20.6805H20.7091H20.7377H20.7665H20.7953H20.8242H20.8531H20.8822H20.9113H20.9405H20.9697H20.9991H21.0285H21.0579H21.0875H21.1171H21.1468H21.1765H21.2063H21.2362H21.2662H21.2962H21.3262H21.3564H21.3866H21.4169H21.4472H21.4776H21.508H21.5386H21.5691H21.5998H21.6305H21.6612H21.692H21.7229H21.7538H21.7848H21.8158H21.8469H21.8781H21.9093H21.9405H21.9718H22.0032H22.0346H22.066H22.0975H22.1291H22.1607H22.1924H22.2241H22.2558H22.2876H22.3194H22.3513H22.3832H22.4152H22.4472H22.4793H22.5114H22.5435H22.5757H22.6079H22.6402H22.6725H22.7048H22.7372H22.7696H22.8021H22.8346H22.8671H22.8996H22.9322H22.9648H22.9975H23.0302H23.0629H23.0956H23.1284H23.1612H23.1941H23.2269H23.2598H23.2928H23.3257H23.3587H23.3917H23.4247H23.4578H23.4908H23.5239H23.5571H23.5902H23.6234H23.6565H23.6897H23.723H23.7562H23.7895H23.8227H23.856H23.8894H23.9227H23.956H23.9894H24.0227H24.0561H24.0895H24.1229H24.1564H24.1898H24.2232H24.2567H24.2901H24.3236H24.3571H24.3906H24.4241H24.4576H24.4911H24.5246H24.5581H24.5916H24.6251H24.6586H24.6921H24.7257H24.7592H24.7927H24.8262H24.8597H24.8933H24.9268H24.9603H24.9938H25.0273H25.0608H25.0943H25.1278H25.1613H25.1948H25.2282H25.2617H25.2951H25.3286H25.362H25.3954H25.4288H25.4622H25.4956H25.529H25.5623H25.5956H25.629H25.6623H25.6956H25.7288H25.7621H25.7953H25.8286H25.8618H25.8949H25.9281H25.9612H25.9943H26.0274H26.0605H26.0936H26.1266H26.1596H26.1925H26.2255H26.2584H26.2913H26.3242H26.357H26.3898H26.4226H26.4553H26.488H26.5207H26.5534H26.586H26.6186H26.6511H26.6836H26.7161H26.7485H26.7809H26.8133H26.8456H26.8779H26.9102H26.9424H26.9746H27.0067H27.0388H27.0708H27.1028H27.1348H27.1667H27.1986H27.2304H27.2622H27.2939H27.3256H27.3573H27.3889H27.4204H27.4519H27.4834H27.5148H27.5461H27.5774H27.6086H27.6398H27.671H27.702H27.7331H27.764H27.7949H27.8258H27.8566H27.8873H27.918H27.9487H27.9792H28.0097H28.0402H28.0705H28.1009H28.1311H28.1613H28.1914H28.2215H28.2515H28.2814H28.3113H28.3411H28.3708H28.4005H28.4301H28.4596H28.4891H28.5185H28.5478H28.577H28.6062H28.6353H28.6643H28.6933H28.7221H28.7509H28.7797H28.8083H28.8369H28.8654H28.8938H28.9221H28.9504H28.9785H29.0066H29.0346H29.0626H29.0904H29.1182H29.1458H29.1734H29.2009H29.2284H29.2557H29.2829H29.3101H29.3372H29.3642H29.3911H29.4179H29.4446H29.4712H29.4977H29.5242H29.5505H29.5767H29.6029H29.629H29.6549H29.6808H29.7066H29.7322H29.7578H29.7833H29.8087H29.8339H29.8591H29.8842H29.9092H29.934H29.9588H29.9835H30.008H30.0325H30.0569H30.0811H30.1052H30.1293H30.1532H30.177H30.2007H30.6321L30.6953 24.9036C30.7177 24.7525 30.735 24.6515 30.7483 24.5745C30.7505 24.5615 30.7526 24.5491 30.7547 24.5373L30.7552 24.5341C30.7676 24.4612 30.7821 24.3762 30.7821 24.2835C30.7821 24.1908 30.7676 24.1059 30.7552 24.033L30.7547 24.0298C30.7526 24.018 30.7505 24.0056 30.7483 23.9925C30.735 23.9155 30.7177 23.8146 30.6953 23.6635L30.6321 23.2367H30.2007H30.1774H30.1539H30.1304H30.1067H30.0829H30.0591H30.0351H30.011H29.9867H29.9624H29.938H29.9135H29.8888H29.8641H29.8393H29.8143H29.7893H29.7641H29.7389H29.7135H29.6881H29.6625H29.6369H29.6111H29.5853H29.5593H29.5333H29.5071H29.4809H29.4546H29.4281H29.4016H29.375H29.3483H29.3215H29.2946H29.2677H29.2406H29.2135H29.1862H29.1589H29.1315H29.104H29.0764H29.0487H29.021H28.9931H28.9652H28.9372H28.9091H28.8809H28.8527H28.8243H28.7959H28.7674H28.7388H28.7102H28.6815H28.6527H28.6238H28.5948H28.5658H28.5367H28.5075H28.4783H28.4489H28.4195H28.3901H28.3605H28.3309H28.3013H28.2715H28.2417H28.2118H28.1819H28.1519H28.1218H28.0916H28.0614H28.0311H28.0008H27.9704H27.9399H27.9094H27.8788H27.8482H27.8175H27.7867H27.7559H27.725H27.6941H27.6631H27.6321H27.601H27.5698H27.5386H27.5073H27.476H27.4447H27.4132H27.3818H27.3502H27.3187H27.2871H27.2554H27.2237H27.1919H27.1601H27.1282H27.0963H27.0644H27.0324H27.0004H26.9683H26.9362H26.904H26.8718H26.8396H26.8073H26.775H26.7426H26.7102H26.6778H26.6453H26.6128H26.5803H26.5477H26.5151H26.4825H26.4498H26.4171H26.3843H26.3516H26.3188H26.2859H26.2531H26.2202H26.1873H26.1543H26.1214H26.0884H26.0553H26.0223H25.9892H25.9561H25.923H25.8899H25.8567H25.8235H25.7903H25.7571H25.7238H25.6906H25.6573H25.624H25.5907H25.5573H25.524H25.4906H25.4573H25.4239H25.3905H25.357H25.3236H25.2902H25.2567H25.2233H25.1898H25.1563H25.1228H25.0893H25.0558H25.0223H24.9888H24.9553H24.9218H24.8882H24.8547H24.8212H24.7876H24.7541H24.7206H24.687H24.6535H24.62H24.5864H24.5529H24.5194H24.4858H24.4523H24.4188H24.3853H24.3518H24.3183H24.2848H24.2513H24.2178H24.1844H24.1509H24.1175H24.084H24.0506H24.0172H23.9838H23.9504H23.917H23.8837H23.8503H23.817H23.7837H23.7504H23.7171H23.6839H23.6506H23.6174H23.5842H23.551H23.5179H23.4847H23.4516H23.4185H23.3855H23.3524H23.3194H23.2864H23.2535H23.2205H23.1876H23.1547H23.1219H23.0891H23.0563H23.0235H22.9908H22.9581H22.9254H22.8928H22.8602H22.8276H22.7951H22.7626H22.7301H22.6977H22.6653H22.633H22.6007H22.5684H22.5362H22.504H22.4719H22.4398H22.4077H22.3757H22.3437H22.3118H22.2799H22.248H22.2162H22.1845H22.1528H22.1211H22.0895H22.058H22.0265H21.995H21.9636H21.9323H21.901H21.8697H21.8385H21.8074H21.7763H21.7453H21.7143H21.6834H21.6525H21.6217H21.591H21.5603H21.5297H21.4991H21.4686H21.4382H21.4078H21.3775H21.3472H21.317H21.2869H21.2568H21.2268H21.1969H21.167H21.1372H21.1075H21.0779H21.0483H21.0188H20.9893H20.9599H20.9306H20.9014H20.8723H20.8432H20.8142H20.7852H20.7564H20.7276H20.6989H20.6703H20.6417H20.6132H20.5849H20.5565H20.5283H20.5002H20.4721H20.4441H20.4162H20.3884H20.3607H20.333H20.3055H20.278H20.2506H20.2233H20.1961H20.169H20.1419H20.115H20.0881H20.0614H20.0347H20.0081H19.9816H19.9552H19.9289H19.9027H19.8766H19.8506H19.8247H19.7989H19.7731H19.7475H19.722H19.6966H19.6713H19.646H19.6209H19.5959H19.571H19.5462H19.5215H19.4969H19.4724H19.448H19.4237H19.3995H19.3754H19.3515H19.3276H19.3039H19.2802H19.2567H19.2333H19.21H19.1868H19.1638H19.1408H19.118H19.0952H19.0726H19.0501H19.0277H19.0055H18.9833H18.9613H18.9394H18.9176H18.896H18.8744H18.853H18.8317H18.8105H18.7895H18.7686H18.7478H18.7271H18.7065H18.6861H18.6658H18.6456H18.6256H18.6057H18.5859H18.5663H18.5468H18.5274H18.5081H18.489H18.47H18.4512H18.4325H18.4139H18.3954H18.3771H18.359H18.3409H18.323H18.3053H18.2877H18.2702H18.2529H18.2357H18.2186H18.2017H18.185H18.1683H18.1519H18.1355H18.1194H18.1033H18.0874H18.0717H18.0561H18.0407H18.0254H18.0102H17.9952H17.9804H17.9657H17.9512H17.9368H17.9226H17.9085H17.8946H17.8808H17.8672H17.8538H17.8405H17.8384V22.9844C18.0072 22.9504 18.2304 22.9083 18.504 22.8623C19.1918 22.7467 20.1981 22.6073 21.4619 22.5143C23.9903 22.3282 27.5452 22.328 31.6418 23.0733L32.2313 23.1805V22.5813C32.2313 22.559 32.2323 22.5289 32.2336 22.4913C32.2377 22.3761 32.2442 22.1901 32.2305 21.9366L32.215 21.6489L31.9583 21.5181C29.7481 20.3913 26.8819 19.8241 24.0313 19.8159C21.1807 19.8077 18.2929 20.3584 16.0415 21.5191L15.8584 21.6135L15.795 21.8095C15.4823 22.7747 15.2988 23.5003 15.2943 24.2669C15.2898 25.0325 15.464 25.7998 15.7935 26.8521L15.8647 27.0797L16.0863 27.1676C20.7507 29.0169 26.3985 29.2098 31.9048 27.1717L32.2151 27.0568L32.2307 26.7263C32.24 26.5301 32.2372 26.3843 32.2343 26.2285C32.2328 26.1486 32.2313 26.0661 32.2313 25.9727V25.3912L31.6563 25.4784C27.0217 26.1811 23.4609 26.1799 21.0668 26.0054C19.8696 25.9181 18.9638 25.7875 18.3611 25.6798C18.1492 25.6419 17.9748 25.6069 17.8384 25.5775ZM17.473 25.4912C17.4729 25.4912 17.4729 25.4912 17.473 25.4912L17.473 25.4912Z" stroke="black" stroke-opacity="0.75"/>
<path d="M17.3384 25.9727C17.2032 26.4541 17.2034 26.4542 17.2036 26.4542L17.2042 26.4544L17.2056 26.4548L17.2097 26.4559L17.2236 26.4597C17.2353 26.4628 17.252 26.4672 17.2735 26.4727C17.3166 26.4837 17.3793 26.4992 17.4613 26.5181C17.6255 26.5559 17.8672 26.6074 18.1851 26.6642C18.8209 26.7778 19.7612 26.9129 20.9941 27.0028C23.172 27.1615 26.2622 27.1791 30.1993 26.6891C25.4509 28.1165 20.6842 27.8549 16.6774 26.3245C16.4062 25.4271 16.291 24.8326 16.2943 24.2727C16.2975 23.7109 16.4202 23.1501 16.683 22.3157C16.7344 22.2904 16.7862 22.2655 16.8384 22.2408V22.5813V23.7367V24.2367H17.3384H17.3385H17.3388H17.3393H17.34H17.3409H17.342H17.3433H17.3448H17.3465H17.3484H17.3505H17.3528H17.3553H17.358H17.3609H17.364H17.3673H17.3707H17.3744H17.3782H17.3823H17.3865H17.3909H17.3955H17.4003H17.4053H17.4105H17.4159H17.4214H17.4271H17.4331H17.4392H17.4455H17.4519H17.4586H17.4654H17.4724H17.4796H17.487H17.4946H17.5023H17.5102H17.5183H17.5266H17.535H17.5436H17.5524H17.5614H17.5705H17.5798H17.5893H17.599H17.6088H17.6188H17.629H17.6393H17.6498H17.6605H17.6714H17.6824H17.6936H17.7049H17.7164H17.7281H17.7399H17.7519H17.7641H17.7764H17.7889H17.8016H17.8144H17.8274H17.8405H17.8538H17.8672H17.8808H17.8946H17.9085H17.9226H17.9368H17.9512H17.9657H17.9804H17.9952H18.0102H18.0254H18.0407H18.0561H18.0717H18.0874H18.1033H18.1194H18.1355H18.1519H18.1683H18.185H18.2017H18.2186H18.2357H18.2529H18.2702H18.2877H18.3053H18.323H18.3409H18.359H18.3771H18.3954H18.4139H18.4325H18.4512H18.47H18.489H18.5081H18.5274H18.5468H18.5663H18.5859H18.6057H18.6256H18.6456H18.6658H18.6861H18.7065H18.7271H18.7478H18.7686H18.7895H18.8105H18.8317H18.853H18.8744H18.896H18.9176H18.9394H18.9613H18.9833H19.0055H19.0277H19.0501H19.0726H19.0952H19.118H19.1408H19.1638H19.1868H19.21H19.2333H19.2567H19.2802H19.3039H19.3276H19.3515H19.3754H19.3995H19.4237H19.448H19.4724H19.4969H19.5215H19.5462H19.571H19.5959H19.6209H19.646H19.6713H19.6966H19.722H19.7475H19.7731H19.7989H19.8247H19.8506H19.8766H19.9027H19.9289H19.9552H19.9816H20.0081H20.0347H20.0614H20.0881H20.115H20.1419H20.169H20.1961H20.2233H20.2506H20.278H20.3055H20.333H20.3607H20.3884H20.4162H20.4441H20.4721H20.5002H20.5283H20.5565H20.5849H20.6132H20.6417H20.6703H20.6989H20.7276H20.7564H20.7852H20.8142H20.8432H20.8723H20.9014H20.9306H20.9599H20.9893H21.0188H21.0483H21.0779H21.1075H21.1372H21.167H21.1969H21.2268H21.2568H21.2869H21.317H21.3472H21.3775H21.4078H21.4382H21.4686H21.4991H21.5297H21.5603H21.591H21.6217H21.6525H21.6834H21.7143H21.7453H21.7763H21.8074H21.8385H21.8697H21.901H21.9323H21.9636H21.995H22.0265H22.058H22.0895H22.1211H22.1528H22.1845H22.2162H22.248H22.2799H22.3118H22.3437H22.3757H22.4077H22.4398H22.4719H22.504H22.5362H22.5684H22.6007H22.633H22.6653H22.6977H22.7301H22.7626H22.7951H22.8276H22.8602H22.8928H22.9254H22.9581H22.9908H23.0235H23.0563H23.0891H23.1219H23.1547H23.1876H23.2205H23.2535H23.2864H23.3194H23.3524H23.3855H23.4185H23.4516H23.4847H23.5179H23.551H23.5842H23.6174H23.6506H23.6839H23.7171H23.7504H23.7837H23.817H23.8503H23.8837H23.917H23.9504H23.9838H24.0172H24.0506H24.084H24.1175H24.1509H24.1844H24.2178H24.2513H24.2848H24.3183H24.3518H24.3853H24.4188H24.4523H24.4858H24.5194H24.5529H24.5864H24.62H24.6535H24.687H24.7206H24.7541H24.7876H24.8212H24.8547H24.8882H24.9218H24.9553H24.9888H25.0223H25.0558H25.0893H25.1228H25.1563H25.1898H25.2233H25.2567H25.2902H25.3236H25.357H25.3905H25.4239H25.4573H25.4906H25.524H25.5573H25.5907H25.624H25.6573H25.6906H25.7238H25.7571H25.7903H25.8235H25.8567H25.8899H25.923H25.9561H25.9892H26.0223H26.0553H26.0884H26.1214H26.1543H26.1873H26.2202H26.2531H26.2859H26.3188H26.3516H26.3843H26.4171H26.4498H26.4825H26.5151H26.5477H26.5803H26.6128H26.6453H26.6778H26.7102H26.7426H26.775H26.8073H26.8396H26.8718H26.904H26.9362H26.9683H27.0004H27.0324H27.0644H27.0963H27.1282H27.1601H27.1919H27.2237H27.2554H27.2871H27.3187H27.3502H27.3818H27.4132H27.4447H27.476H27.5073H27.5386H27.5698H27.601H27.6321H27.6631H27.6941H27.725H27.7559H27.7867H27.8175H27.8482H27.8788H27.9094H27.9399H27.9704H28.0008H28.0311H28.0614H28.0916H28.1218H28.1519H28.1819H28.2118H28.2417H28.2715H28.3013H28.3309H28.3605H28.3901H28.4195H28.4489H28.4783H28.5075H28.5367H28.5658H28.5948H28.6238H28.6527H28.6815H28.7102H28.7388H28.7674H28.7959H28.8243H28.8527H28.8809H28.9091H28.9372H28.9652H28.9931H29.021H29.0487H29.0764H29.104H29.1315H29.1589H29.1862H29.2135H29.2406H29.2677H29.2946H29.3215H29.3483H29.375H29.4016H29.4281H29.4546H29.4809H29.5071H29.5333H29.5593H29.5853H29.6111H29.6369H29.6625H29.6881H29.7135H29.7389H29.7641H29.7753C29.7805 24.2689 29.7818 24.2804 29.7821 24.2835C29.7818 24.2866 29.7805 24.2982 29.7753 24.3303H29.7578H29.7322H29.7066H29.6808H29.6549H29.629H29.6029H29.5767H29.5505H29.5242H29.4977H29.4712H29.4446H29.4179H29.3911H29.3642H29.3372H29.3101H29.2829H29.2557H29.2284H29.2009H29.1734H29.1458H29.1182H29.0904H29.0626H29.0346H29.0066H28.9785H28.9504H28.9221H28.8938H28.8654H28.8369H28.8083H28.7797H28.7509H28.7221H28.6933H28.6643H28.6353H28.6062H28.577H28.5478H28.5185H28.4891H28.4596H28.4301H28.4005H28.3708H28.3411H28.3113H28.2814H28.2515H28.2215H28.1914H28.1613H28.1311H28.1009H28.0705H28.0402H28.0097H27.9792H27.9487H27.918H27.8873H27.8566H27.8258H27.7949H27.764H27.7331H27.702H27.671H27.6398H27.6086H27.5774H27.5461H27.5148H27.4834H27.4519H27.4204H27.3889H27.3573H27.3256H27.2939H27.2622H27.2304H27.1986H27.1667H27.1348H27.1028H27.0708H27.0388H27.0067H26.9746H26.9424H26.9102H26.8779H26.8456H26.8133H26.7809H26.7485H26.7161H26.6836H26.6511H26.6186H26.586H26.5534H26.5207H26.488H26.4553H26.4226H26.3898H26.357H26.3242H26.2913H26.2584H26.2255H26.1925H26.1596H26.1266H26.0936H26.0605H26.0274H25.9943H25.9612H25.9281H25.8949H25.8618H25.8286H25.7953H25.7621H25.7288H25.6956H25.6623H25.629H25.5956H25.5623H25.529H25.4956H25.4622H25.4288H25.3954H25.362H25.3286H25.2951H25.2617H25.2282H25.1948H25.1613H25.1278H25.0943H25.0608H25.0273H24.9938H24.9603H24.9268H24.8933H24.8597H24.8262H24.7927H24.7592H24.7257H24.6921H24.6586H24.6251H24.5916H24.5581H24.5246H24.4911H24.4576H24.4241H24.3906H24.3571H24.3236H24.2901H24.2567H24.2232H24.1898H24.1564H24.1229H24.0895H24.0561H24.0227H23.9894H23.956H23.9227H23.8894H23.856H23.8227H23.7895H23.7562H23.723H23.6897H23.6565H23.6234H23.5902H23.5571H23.5239H23.4908H23.4578H23.4247H23.3917H23.3587H23.3257H23.2928H23.2598H23.2269H23.1941H23.1612H23.1284H23.0956H23.0629H23.0302H22.9975H22.9648H22.9322H22.8996H22.8671H22.8346H22.8021H22.7696H22.7372H22.7048H22.6725H22.6402H22.6079H22.5757H22.5435H22.5114H22.4793H22.4472H22.4152H22.3832H22.3513H22.3194H22.2876H22.2558H22.2241H22.1924H22.1607H22.1291H22.0975H22.066H22.0346H22.0032H21.9718H21.9405H21.9093H21.8781H21.8469H21.8158H21.7848H21.7538H21.7229H21.692H21.6612H21.6305H21.5998H21.5691H21.5386H21.508H21.4776H21.4472H21.4169H21.3866H21.3564H21.3262H21.2962H21.2662H21.2362H21.2063H21.1765H21.1468H21.1171H21.0875H21.0579H21.0285H20.9991H20.9697H20.9405H20.9113H20.8822H20.8531H20.8242H20.7953H20.7665H20.7377H20.7091H20.6805H20.652H20.6236H20.5952H20.567H20.5388H20.5107H20.4826H20.4547H20.4268H20.399H20.3714H20.3437H20.3162H20.2888H20.2614H20.2342H20.207H20.1799H20.1529H20.126H20.0992H20.0724H20.0458H20.0193H19.9928H19.9664H19.9402H19.914H19.8879H19.8619H19.836H19.8103H19.7846H19.759H19.7335H19.7081H19.6828H19.6576H19.6325H19.6075H19.5826H19.5578H19.5331H19.5085H19.4841H19.4597H19.4354H19.4113H19.3872H19.3633H19.3394H19.3157H19.2921H19.2686H19.2452H19.2219H19.1987H19.1756H19.1527H19.1299H19.1071H19.0845H19.062H19.0397H19.0174H18.9953H18.9732H18.9513H18.9296H18.9079H18.8863H18.8649H18.8436H18.8224H18.8014H18.7805H18.7596H18.739H18.7184H18.698H18.6777H18.6575H18.6374H18.6175H18.5977H18.5781H18.5585H18.5391H18.5198H18.5007H18.4817H18.4628H18.4441H18.4255H18.407H18.3887H18.3705H18.3524H18.3345H18.3167H18.299H18.2815H18.2642H18.2469H18.2299H18.2129H18.1961H18.1795H18.1629H18.1466H18.1303H18.1143H18.0983H18.0825H18.0669H18.0514H18.036H18.0209H18.0058H17.9909H17.9762H17.9616H17.9471H17.9328H17.9187H17.9047H17.8909H17.8772H17.8637H17.8503H17.8371H17.8241H17.8112H17.7985H17.7859H17.7735H17.7612H17.7492H17.7372H17.7255H17.7139H17.7024H17.6912H17.6801H17.6691H17.6583H17.6477H17.6373H17.627H17.6169H17.607H17.5972H17.5876H17.5782H17.5689H17.5598H17.5509H17.5422H17.5336H17.5253H17.517H17.509H17.5012H17.4935H17.486H17.4786H17.4715H17.4645H17.4577H17.4511H17.4447H17.4385H17.4324H17.4265H17.4208H17.4153H17.41H17.4049H17.3999H17.3951H17.3906H17.3862H17.382H17.3779H17.3741H17.3705H17.367H17.3638H17.3607H17.3579H17.3552H17.3527H17.3504H17.3484H17.3465H17.3448H17.3433H17.342H17.3409H17.34H17.3393H17.3388H17.3385H17.3384H16.8384V24.8303V25.9727V26.3517L17.2032 26.4541L17.3384 25.9727ZM17.2183 22.096L17.0797 22.1302C19.0658 21.2476 21.5396 20.8087 24.0284 20.8159C26.1876 20.8221 28.3252 21.1639 30.1311 21.8175C26.6483 21.3297 23.6285 21.3521 21.3885 21.517C20.0907 21.6125 19.0535 21.756 18.3383 21.8761C17.9807 21.9362 17.7034 21.9905 17.5143 22.0301C17.4197 22.0499 17.3471 22.066 17.2974 22.0773C17.2726 22.083 17.2535 22.0875 17.2403 22.0907L17.2249 22.0944L17.2205 22.0954L17.2191 22.0958L17.2187 22.0959C17.2185 22.0959 17.2183 22.096 17.3384 22.5813L17.2183 22.096Z" fill="url(#paint25_linear)" stroke="url(#paint26_linear)"/>
<defs>
<filter id="filter0_d" x="22.3651" y="11.6367" width="3.39645" height="3.39645" filterUnits="userSpaceOnUse" color-interpolation-filters="sRGB">
<feFlood flood-opacity="0" result="BackgroundImageFix"/>
<feColorMatrix in="SourceAlpha" type="matrix" values="0 0 0 0 0 0 0 0 0 0 0 0 0 0 0 0 0 0 127 0"/>
<feMorphology radius="1" operator="dilate" in="SourceAlpha" result="effect1_dropShadow"/>
<feOffset/>
<feColorMatrix type="matrix" values="0 0 0 0 0 0 0 0 0 0 0 0 0 0 0 0 0 0 0.15 0"/>
<feBlend mode="normal" in2="BackgroundImageFix" result="effect1_dropShadow"/>
<feBlend mode="normal" in="SourceGraphic" in2="effect1_dropShadow" result="shape"/>
</filter>
<filter id="filter1_d" x="22.3651" y="33.411" width="3.39645" height="3.39645" filterUnits="userSpaceOnUse" color-interpolation-filters="sRGB">
<feFlood flood-opacity="0" result="BackgroundImageFix"/>
<feColorMatrix in="SourceAlpha" type="matrix" values="0 0 0 0 0 0 0 0 0 0 0 0 0 0 0 0 0 0 127 0"/>
<feMorphology radius="1" operator="dilate" in="SourceAlpha" result="effect1_dropShadow"/>
<feOffset/>
<feColorMatrix type="matrix" values="0 0 0 0 0 0 0 0 0 0 0 0 0 0 0 0 0 0 0.15 0"/>
<feBlend mode="normal" in2="BackgroundImageFix" result="effect1_dropShadow"/>
<feBlend mode="normal" in="SourceGraphic" in2="effect1_dropShadow" result="shape"/>
</filter>
<radialGradient id="paint0_radial" cx="0" cy="0" r="1" gradientUnits="userSpaceOnUse" gradientTransform="translate(24 40.8739) scale(18 5.25031)">
<stop/>
<stop offset="1" stop-opacity="0"/>
</radialGradient>
<radialGradient id="paint1_radial" cx="0" cy="0" r="1" gradientUnits="userSpaceOnUse" gradientTransform="translate(24 42.3742) scale(12 3.74983)">
<stop/>
<stop offset="1" stop-opacity="0"/>
</radialGradient>
<linearGradient id="paint2_linear" x1="24" y1="3.75" x2="24" y2="45" gradientUnits="userSpaceOnUse">
<stop stop-color="#EFEFEF"/>
<stop offset="1" stop-color="#C5C5C5"/>
</linearGradient>
<linearGradient id="paint3_linear" x1="22.3683" y1="3.38897" x2="22.3683" y2="45.5808" gradientUnits="userSpaceOnUse">
<stop stop-color="white"/>
<stop offset="0.424479" stop-color="white" stop-opacity="0.28"/>
<stop offset="0.820899" stop-color="white" stop-opacity="0.156863"/>
<stop offset="1" stop-color="white" stop-opacity="0.392157"/>
</linearGradient>
<linearGradient id="paint4_linear" x1="24" y1="8.42914" x2="24" y2="40.3209" gradientUnits="userSpaceOnUse">
<stop stop-color="#4D4D4D"/>
<stop offset="1" stop-color="#1A1A1A"/>
</linearGradient>
<linearGradient id="paint5_linear" x1="22.7152" y1="7.84955" x2="22.7152" y2="41.0735" gradientUnits="userSpaceOnUse">
<stop stop-color="white"/>
<stop offset="0.424479" stop-color="white" stop-opacity="0.235294"/>
<stop offset="0.820899" stop-color="white" stop-opacity="0.156863"/>
<stop offset="1" stop-color="white" stop-opacity="0.392157"/>
</linearGradient>
<linearGradient id="paint6_linear" x1="24" y1="15.75" x2="24" y2="33" gradientUnits="userSpaceOnUse">
<stop stop-color="#333333"/>
<stop offset="1" stop-color="#1A1A1A"/>
</linearGradient>
<linearGradient id="paint7_linear" x1="23.305" y1="15.4365" x2="23.305" y2="33.4071" gradientUnits="userSpaceOnUse">
<stop stop-color="white"/>
<stop offset="0.424479" stop-color="white" stop-opacity="0.235294"/>
<stop offset="0.820899" stop-color="white" stop-opacity="0.156863"/>
<stop offset="1" stop-color="white" stop-opacity="0.392157"/>
</linearGradient>
<linearGradient id="paint8_linear" x1="24.0634" y1="12.6367" x2="24.0634" y2="14.0331" gradientUnits="userSpaceOnUse">
<stop stop-color="white"/>
<stop offset="1" stop-color="white" stop-opacity="0"/>
</linearGradient>
<linearGradient id="paint9_linear" x1="24.0607" y1="16.2519" x2="24.0607" y2="17.0458" gradientUnits="userSpaceOnUse">
<stop stop-color="#FFF394"/>
<stop offset="1" stop-color="#F9C440"/>
</linearGradient>
<linearGradient id="paint10_linear" x1="24.0634" y1="31.4955" x2="24.0634" y2="32.2894" gradientUnits="userSpaceOnUse">
<stop stop-color="#FFF394"/>
<stop offset="1" stop-color="#F9C440"/>
</linearGradient>
<linearGradient id="paint11_linear" x1="20.9928" y1="30.7016" x2="20.9928" y2="31.4955" gradientUnits="userSpaceOnUse">
<stop stop-color="#FFF394"/>
<stop offset="1" stop-color="#F9C440"/>
</linearGradient>
<linearGradient id="paint12_linear" x1="26.9426" y1="30.7016" x2="26.9426" y2="31.4955" gradientUnits="userSpaceOnUse">
<stop stop-color="#FFF394"/>
<stop offset="1" stop-color="#F9C440"/>
</linearGradient>
<linearGradient id="paint13_linear" x1="29.4437" y1="18.5588" x2="29.4437" y2="19.3527" gradientUnits="userSpaceOnUse">
<stop stop-color="#FFF394"/>
<stop offset="1" stop-color="#F9C440"/>
</linearGradient>
<linearGradient id="paint14_linear" x1="29.4437" y1="28.8515" x2="29.4437" y2="29.6454" gradientUnits="userSpaceOnUse">
<stop stop-color="#FFF394"/>
<stop offset="1" stop-color="#F9C440"/>
</linearGradient>
<linearGradient id="paint15_linear" x1="18.7541" y1="18.5588" x2="18.7541" y2="19.3527" gradientUnits="userSpaceOnUse">
<stop stop-color="#FFF394"/>
<stop offset="1" stop-color="#F9C440"/>
</linearGradient>
<linearGradient id="paint16_linear" x1="21.1789" y1="16.8926" x2="21.1789" y2="17.6865" gradientUnits="userSpaceOnUse">
<stop stop-color="#FFF394"/>
<stop offset="1" stop-color="#F9C440"/>
</linearGradient>
<linearGradient id="paint17_linear" x1="26.9426" y1="16.8926" x2="26.9426" y2="17.6865" gradientUnits="userSpaceOnUse">
<stop stop-color="#FFF394"/>
<stop offset="1" stop-color="#F9C440"/>
</linearGradient>
<linearGradient id="paint18_linear" x1="18.5563" y1="28.8515" x2="18.5563" y2="29.6454" gradientUnits="userSpaceOnUse">
<stop stop-color="#FFF394"/>
<stop offset="1" stop-color="#F9C440"/>
</linearGradient>
<linearGradient id="paint19_linear" x1="24.0634" y1="34.411" x2="24.0634" y2="35.8075" gradientUnits="userSpaceOnUse">
<stop stop-color="white"/>
<stop offset="1" stop-color="white" stop-opacity="0"/>
</linearGradient>
<linearGradient id="paint20_linear" x1="24" y1="17.9769" x2="24" y2="30.4011" gradientUnits="userSpaceOnUse">
<stop stop-color="#112251"/>
<stop offset="1" stop-color="#020D2C"/>
</linearGradient>
<linearGradient id="paint21_linear" x1="24" y1="17.9769" x2="24" y2="30.4011" gradientUnits="userSpaceOnUse">
<stop stop-color="#CDE8FD"/>
<stop offset="1" stop-color="#A4C5FC"/>
</linearGradient>
<linearGradient id="paint22_linear" x1="10.8973" y1="23.6759" x2="10.8973" y2="24.9735" gradientUnits="userSpaceOnUse">
<stop stop-color="white"/>
<stop offset="1" stop-color="#C5C5C5"/>
</linearGradient>
<linearGradient id="paint23_linear" x1="36.8121" y1="23.6759" x2="36.8121" y2="24.9735" gradientUnits="userSpaceOnUse">
<stop stop-color="white"/>
<stop offset="1" stop-color="#C5C5C5"/>
</linearGradient>
<linearGradient id="paint24_linear" x1="23.7666" y1="20.1008" x2="23.7666" y2="28.1284" gradientUnits="userSpaceOnUse">
<stop stop-color="#CDE8FD"/>
<stop offset="1" stop-color="#A4C5FC"/>
</linearGradient>
<linearGradient id="paint25_linear" x1="23.7666" y1="20.1008" x2="23.7666" y2="28.1284" gradientUnits="userSpaceOnUse">
<stop stop-color="#CDE8FD"/>
<stop offset="1" stop-color="#A4C5FC"/>
</linearGradient>
<linearGradient id="paint26_linear" x1="23.7666" y1="20.3158" x2="23.7666" y2="28.1284" gradientUnits="userSpaceOnUse">
<stop stop-color="white"/>
<stop offset="0.453125" stop-color="white" stop-opacity="0"/>
<stop offset="1" stop-color="white" stop-opacity="0.33"/>
</linearGradient>
</defs>
</svg>
