<svg width="24" height="24" viewBox="0 0 24 24" fill="none" xmlns="http://www.w3.org/2000/svg">
<path d="M18 21C18 21.2626 17.8448 21.5227 17.5433 21.7654C17.2417 22.008 16.7998 22.2285 16.2426 22.4142C15.6855 22.5999 15.0241 22.7472 14.2961 22.8478C13.5681 22.9483 12.7879 23 12 23C11.2121 23 10.4319 22.9483 9.7039 22.8478C8.97595 22.7472 8.31451 22.5999 7.75736 22.4142C7.20021 22.2285 6.75825 22.008 6.45672 21.7654C6.15519 21.5227 6 21.2626 6 21C6 20.7374 6.15519 20.4773 6.45672 20.2346C6.75825 19.992 7.20021 19.7715 7.75736 19.5858C8.31451 19.4001 8.97595 19.2528 9.7039 19.1522C10.4319 19.0517 11.2121 19 12 19C12.7879 19 13.5681 19.0517 14.2961 19.1522C15.0241 19.2528 15.6855 19.4001 16.2426 19.5858C16.7998 19.7715 17.2417 19.992 17.5433 20.2346C17.8448 20.4773 18 20.7374 18 21Z" fill="url(#paint0_radial_15_58)"/>
<circle cx="12" cy="13" r="8.5" fill="url(#paint1_linear_15_58)"/>
<circle cx="12" cy="13" r="8.5" stroke="black" stroke-opacity="0.3"/>
<circle cx="12" cy="13" r="7.5" stroke="url(#paint2_linear_15_58)"/>
<mask id="path-5-inside-1_15_58" fill="white">
<path fill-rule="evenodd" clip-rule="evenodd" d="M10 13.2623C10 14.3668 10.8954 15.2623 12 15.2623C13.1046 15.2623 14 14.3668 14 13.2623V10.6C14 10.5985 14 10.5971 14 10.5956C14 9.49102 13.1046 8.59559 12 8.59559C10.8955 8.59559 10 9.49102 10 10.5956L10 10.5956V13.2623Z"/>
</mask>
<path fill-rule="evenodd" clip-rule="evenodd" d="M10 13.2623C10 14.3668 10.8954 15.2623 12 15.2623C13.1046 15.2623 14 14.3668 14 13.2623V10.6C14 10.5985 14 10.5971 14 10.5956C14 9.49102 13.1046 8.59559 12 8.59559C10.8955 8.59559 10 9.49102 10 10.5956L10 10.5956V13.2623Z" fill="url(#paint3_linear_15_58)"/>
<path d="M14 10.6L13 10.5979V10.6H14ZM10 10.5956L10.0493 11.5944L11 11.5475V10.5956H10ZM10 10.5956L9.95078 9.5968L9.00002 9.64367V10.5956H10ZM9.00002 13.2623C9.00002 14.9191 10.3432 16.2623 12 16.2623V14.2623C11.4477 14.2623 11 13.8145 11 13.2623H9.00002ZM12 16.2623C13.6569 16.2623 15 14.9191 15 13.2623H13C13 13.8145 12.5523 14.2623 12 14.2623V16.2623ZM13 10.6V13.2623H15V10.6H13ZM15 10.6021C15 10.6 15 10.5978 15 10.5956H13C13 10.5963 13 10.5971 13 10.5979L15 10.6021ZM15 10.5956C15 8.93873 13.6569 7.59559 12 7.59559V9.59559C12.5523 9.59559 13 10.0433 13 10.5956H15ZM12 7.59559C10.3432 7.59559 9.00002 8.93873 9.00002 10.5956H11C11 10.0433 11.4477 9.59559 12 9.59559V7.59559ZM10.0493 11.5944L10.0493 11.5944L9.95078 9.5968L9.95078 9.5968L10.0493 11.5944ZM11 13.2623V10.5956H9.00002V13.2623H11Z" fill="url(#paint4_linear_15_58)" mask="url(#path-5-inside-1_15_58)"/>
<path d="M15 13.0956C15 14.7524 13.6569 16.0956 12 16.0956C10.3431 16.0956 9 14.7524 9 13.0956" stroke="url(#paint5_linear_15_58)"/>
<path d="M10 17.4044H12M14 17.4044H12M12 16.4044V17.4044" stroke="url(#paint6_linear_15_58)"/>
<defs>
<radialGradient id="paint0_radial_15_58" cx="0" cy="0" r="1" gradientUnits="userSpaceOnUse" gradientTransform="translate(11.9999 21.0002) scale(5.99993 2.00007)">
<stop stop-color="#3D3D3D"/>
<stop offset="0.5" stop-color="#686868" stop-opacity="0.498"/>
<stop offset="1" stop-color="#686868" stop-opacity="0"/>
</radialGradient>
<linearGradient id="paint1_linear_15_58" x1="12" y1="4.5" x2="12" y2="21.5" gradientUnits="userSpaceOnUse">
<stop stop-color="#FAFAFA"/>
<stop offset="1" stop-color="#D4D4D4"/>
</linearGradient>
<linearGradient id="paint2_linear_15_58" x1="12" y1="5" x2="12" y2="21" gradientUnits="userSpaceOnUse">
<stop stop-color="white" stop-opacity="0.3"/>
<stop offset="1" stop-color="white" stop-opacity="0.21"/>
</linearGradient>
<linearGradient id="paint3_linear_15_58" x1="12" y1="8.59559" x2="12" y2="15.2623" gradientUnits="userSpaceOnUse">
<stop stop-color="#FF00C7"/>
<stop offset="1" stop-color="#FFB800"/>
</linearGradient>
<linearGradient id="paint4_linear_15_58" x1="12" y1="8.59559" x2="12" y2="18.015" gradientUnits="userSpaceOnUse">
<stop stop-color="#A6A6A6"/>
<stop offset="1" stop-color="#030303"/>
</linearGradient>
<linearGradient id="paint5_linear_15_58" x1="12" y1="8.59559" x2="12" y2="18.5956" gradientUnits="userSpaceOnUse">
<stop stop-color="#A6A6A6"/>
<stop offset="1" stop-color="#030303"/>
</linearGradient>
<linearGradient id="paint6_linear_15_58" x1="12" y1="16.9044" x2="12" y2="17.9044" gradientUnits="userSpaceOnUse">
<stop stop-color="#242424"/>
<stop offset="1" stop-color="#101010"/>
</linearGradient>
</defs>
</svg>
