<svg width="24" height="24" viewBox="0 0 24 24" fill="none" xmlns="http://www.w3.org/2000/svg">
<path opacity="0.2" d="M21 20.4375C21.0002 20.7822 20.7675 21.1235 20.3153 21.442C19.8631 21.7605 19.2002 22.0499 18.3644 22.2936C17.5287 22.5374 16.5365 22.7308 15.4445 22.8627C14.3524 22.9946 13.182 23.0625 12 23.0625C10.818 23.0625 9.64756 22.9946 8.55555 22.8627C7.46353 22.7308 6.47132 22.5374 5.63558 22.2936C4.79984 22.0499 4.13693 21.7605 3.68471 21.442C3.2325 21.1235 2.99983 20.7822 3 20.4375C2.99983 20.0928 3.2325 19.7515 3.68471 19.433C4.13693 19.1145 4.79984 18.8251 5.63558 18.5814C6.47132 18.3376 7.46353 18.1442 8.55555 18.0123C9.64756 17.8804 10.818 17.8125 12 17.8125C13.182 17.8125 14.3524 17.8804 15.4445 18.0123C16.5365 18.1442 17.5287 18.3376 18.3644 18.5814C19.2002 18.8251 19.8631 19.1145 20.3153 19.433C20.7675 19.7515 21.0002 20.0928 21 20.4375V20.4375Z" fill="url(#paint0_radial)"/>
<path opacity="0.4" d="M18 21.1875C18.0002 21.4337 17.8451 21.6775 17.5437 21.905C17.2423 22.1325 16.8003 22.3392 16.2432 22.5133C15.686 22.6874 15.0245 22.8255 14.2964 22.9198C13.5684 23.014 12.7881 23.0625 12 23.0625C11.2119 23.0625 10.4316 23.014 9.70355 22.9198C8.9755 22.8255 8.314 22.6874 7.75683 22.5133C7.19966 22.3392 6.75773 22.1325 6.45629 21.905C6.15485 21.6775 5.9998 21.4337 6 21.1875C5.9998 20.9413 6.15485 20.6975 6.45629 20.47C6.75773 20.2425 7.19966 20.0358 7.75683 19.8617C8.314 19.6876 8.9755 19.5495 9.70355 19.4552C10.4316 19.361 11.2119 19.3125 12 19.3125C12.7881 19.3125 13.5684 19.361 14.2964 19.4552C15.0245 19.5495 15.686 19.6876 16.2432 19.8617C16.8003 20.0358 17.2423 20.2425 17.5437 20.47C17.8451 20.6975 18.0002 20.9413 18 21.1875Z" fill="url(#paint1_radial)"/>
<path d="M22.2115 12.6325C22.2773 12.495 22.3107 12.3267 22.3125 12.1809C22.3107 12.035 22.2774 11.8801 22.2115 11.7425L22.0234 11.381C21.9531 11.2572 21.912 11.1368 21.8997 11.0288C21.8873 10.9209 21.8995 10.7943 21.94 10.6579C21.9671 10.5744 21.9988 10.4323 22.0402 10.2637C22.0732 10.1149 22.0692 9.94342 22.0346 9.8017C21.9999 9.65998 21.9313 9.51701 21.8362 9.39774L21.5684 9.08876C21.4722 8.98379 21.4032 8.87636 21.3671 8.77387C21.3309 8.67138 21.3113 8.54116 21.3169 8.39897C21.3225 8.31144 21.3242 8.17342 21.3272 7.99992C21.3265 7.8475 21.2797 7.68412 21.2147 7.55348C21.1497 7.42284 21.0434 7.28936 20.9222 7.19672L20.592 6.95955C20.4733 6.88091 20.3825 6.79209 20.3226 6.70132C20.2628 6.61055 20.2162 6.4865 20.1875 6.34713C20.172 6.2608 20.1423 6.12529 20.1035 5.95612C20.0663 5.8083 19.9853 5.65865 19.891 5.54725C19.7967 5.43586 19.6647 5.32928 19.5249 5.26804L19.1538 5.11926C19.021 5.06779 18.9084 4.99919 18.8288 4.92515C18.7491 4.85111 18.6776 4.74579 18.6197 4.61573C18.5874 4.53779 18.5255 4.41412 18.4517 4.26666L18.4428 4.24901C18.3717 4.11418 18.2596 3.98514 18.1416 3.89918C18.0235 3.81322 17.8795 3.7479 17.7298 3.71785L17.3267 3.65313C17.1854 3.63457 17.0636 3.59638 16.97 3.54108C16.8763 3.48578 16.7778 3.39834 16.6906 3.28576C16.6386 3.21505 16.5513 3.1081 16.442 2.9732C16.3434 2.85681 16.2026 2.76138 16.0687 2.70291C15.9349 2.64445 15.7674 2.61001 15.6149 2.61678L15.2153 2.64874C15.0734 2.66133 14.9408 2.65241 14.8365 2.62143C14.7322 2.59045 14.6206 2.52907 14.5108 2.43833C14.4446 2.38072 14.3264 2.2949 14.1874 2.19076C14.0634 2.10194 13.9039 2.03751 13.7598 2.01367C13.6157 1.98982 13.457 1.99631 13.3098 2.03677L12.92 2.16033C12.7856 2.20761 12.6596 2.22799 12.551 2.22112C12.4423 2.21425 12.3144 2.17874 12.1855 2.11814C12.107 2.07882 11.9801 2.02162 11.8212 1.95139C11.6803 1.89273 11.5102 1.86764 11.3644 1.87686C11.2186 1.88609 11.0655 1.92886 10.9312 2.00144L10.5796 2.21093C10.4593 2.28727 10.3412 2.33621 10.2339 2.35397C10.1265 2.37173 9.99434 2.36768 9.85505 2.33762C9.77152 2.31739 9.63938 2.29202 9.47386 2.26025L9.46286 2.25814C9.31237 2.23259 9.14227 2.2492 9.00224 2.29079C8.86221 2.33239 8.71128 2.41253 8.59922 2.51602L8.31449 2.79719C8.21424 2.89833 8.10665 2.97538 8.00694 3.01893C7.90724 3.06248 7.7821 3.08673 7.6396 3.08809C7.55177 3.08674 7.40589 3.09597 7.23238 3.10571C7.08019 3.11755 6.9172 3.16988 6.79144 3.24412C6.66568 3.31836 6.54871 3.42489 6.46188 3.55025L6.2432 3.89485C6.17025 4.01709 6.08714 4.11383 5.99922 4.17786C5.91129 4.24189 5.79235 4.29804 5.6543 4.33335C5.56868 4.35299 5.43608 4.39089 5.2687 4.43761C5.12261 4.4818 4.97997 4.57325 4.87303 4.67265C4.7661 4.77205 4.66913 4.91214 4.61453 5.05448L4.48131 5.43849C4.4394 5.57449 4.38028 5.68697 4.31001 5.76995C4.23975 5.85293 4.1348 5.93341 4.00902 6.00031C3.93049 6.0396 3.80923 6.10672 3.65767 6.19164C3.52619 6.26908 3.40634 6.38979 3.32602 6.51164C3.24569 6.63349 3.18158 6.79089 3.16237 6.94209L3.1251 7.33998C3.11336 7.4818 3.08028 7.60964 3.03185 7.70696C2.98342 7.80427 2.90302 7.90304 2.79464 7.99544C2.72644 8.05071 2.62033 8.15133 2.4936 8.27007C2.38456 8.37674 2.29282 8.52165 2.24428 8.65924C2.19575 8.79684 2.17441 8.95372 2.18871 9.10547L2.24261 9.50999C2.26574 9.6504 2.26403 9.77787 2.23823 9.88344C2.21243 9.98901 2.15604 10.1086 2.07364 10.2247C2.02107 10.295 1.94321 10.4098 1.84602 10.5536C1.7634 10.6818 1.71089 10.8447 1.69429 10.9896C1.6777 11.1345 1.69069 11.305 1.74223 11.4484L1.88891 11.8202C1.94299 11.9518 1.9715 12.0765 1.97012 12.1852C1.96874 12.2939 1.94299 12.4232 1.88891 12.5548C1.85355 12.6351 1.80443 12.7645 1.74223 12.9265C1.69069 13.07 1.6777 13.2405 1.69429 13.3854C1.71089 13.5303 1.76339 13.6932 1.84601 13.8213L2.07364 14.1503C2.15604 14.2664 2.21242 14.3859 2.23822 14.4915C2.26401 14.5971 2.26574 14.7246 2.24261 14.865C2.2262 14.9512 2.2087 15.0971 2.18869 15.2695C2.17439 15.4212 2.19575 15.5782 2.24428 15.7158C2.29282 15.8533 2.38454 15.9982 2.49357 16.1049L2.79464 16.3796C2.90302 16.472 2.98339 16.5707 3.03182 16.668C3.08025 16.7653 3.11336 16.8932 3.1251 17.035C3.13015 17.1226 3.14418 17.2603 3.16233 17.4329C3.18155 17.5841 3.24569 17.7415 3.32602 17.8634C3.40634 17.9852 3.52615 18.1059 3.65763 18.1833L4.00902 18.3747C4.1348 18.4416 4.2397 18.522 4.30997 18.605C4.38024 18.688 4.4394 18.8005 4.48131 18.9365C4.50504 19.021 4.55585 19.1571 4.61449 19.3205C4.66908 19.4628 4.7661 19.603 4.87303 19.7024C4.97997 19.8017 5.12256 19.8932 5.26865 19.9373L5.6543 20.0416C5.79235 20.077 5.91124 20.1331 5.99917 20.1971C6.08709 20.2611 6.17025 20.3579 6.2432 20.4802C6.28627 20.5566 6.36609 20.6799 6.46183 20.8247C6.54865 20.9501 6.66568 21.0566 6.79144 21.1309C6.9172 21.2051 7.08013 21.2574 7.23232 21.2693L7.6396 21.2869C7.7821 21.2883 7.90718 21.3125 8.00688 21.356C8.10659 21.3996 8.21424 21.4767 8.31449 21.5778C8.3747 21.6417 8.47414 21.7384 8.59916 21.859C8.71122 21.9624 8.86221 22.0426 9.00224 22.0842C9.14227 22.1258 9.31231 22.1424 9.46279 22.1168L9.85505 22.0374C9.99434 22.0073 10.1265 22.0033 10.2338 22.021C10.3412 22.0388 10.4593 22.0877 10.5796 22.1641C10.6525 22.213 10.7802 22.2877 10.9312 22.3736C11.0654 22.4461 11.2186 22.4889 11.3644 22.4981C11.5102 22.5074 11.6802 22.4823 11.8211 22.4236L12.1855 22.2569C12.3144 22.1963 12.4423 22.1608 12.5509 22.1539C12.6595 22.147 12.7856 22.1674 12.92 22.2147C13.0021 22.2459 13.1432 22.2886 13.3097 22.3382C13.4569 22.3787 13.6157 22.3852 13.7598 22.3613C13.9039 22.3375 14.0633 22.2731 14.1874 22.1843L14.5108 21.9367C14.6206 21.8459 14.7321 21.7846 14.8364 21.7536C14.9407 21.7226 15.0734 21.7137 15.2153 21.7263C15.3026 21.7362 15.4414 21.7468 15.6148 21.7582C15.7673 21.765 15.9349 21.7306 16.0687 21.6721C16.2026 21.6136 16.3434 21.5182 16.4419 21.4018L16.6906 21.0892C16.7778 20.9767 16.8762 20.8893 16.9699 20.834C17.0636 20.7787 17.1854 20.7404 17.3267 20.7219C17.414 20.7126 17.5587 20.6877 17.7298 20.6572C17.8794 20.6271 18.0235 20.5618 18.1416 20.4758C18.2596 20.3899 18.3716 20.2609 18.4428 20.126L18.6197 19.7593C18.6776 19.6292 18.7491 19.5239 18.8287 19.4499C18.9084 19.3758 19.021 19.3072 19.1538 19.2557C19.2351 19.2266 19.3598 19.1751 19.5164 19.1105L19.5249 19.107C19.6647 19.0458 19.7967 18.9391 19.891 18.8277C19.9853 18.7164 20.0663 18.5667 20.1035 18.4189L20.1875 18.0279C20.2162 17.8885 20.2628 17.7645 20.3226 17.6737C20.3824 17.583 20.4733 17.4941 20.592 17.4155C20.6664 17.3688 20.7819 17.2808 20.9221 17.1783C21.0434 17.0857 21.1497 16.9522 21.2147 16.8215C21.2797 16.6909 21.3265 16.5276 21.3272 16.3751L21.3169 15.976C21.3113 15.8338 21.3309 15.7037 21.3671 15.6012C21.4032 15.4987 21.4722 15.3912 21.5684 15.2862C21.6293 15.223 21.7251 15.1108 21.8362 14.9773C21.9312 14.858 21.9999 14.715 22.0346 14.5733C22.0692 14.4316 22.0732 14.2602 22.0401 14.1114L21.94 13.7171C21.8995 13.5807 21.8873 13.4542 21.8997 13.3463C21.912 13.2383 21.9531 13.1178 22.0234 12.994C22.0686 12.9188 22.1333 12.7875 22.2115 12.6325Z" fill="url(#paint2_linear)"/>
<g opacity="0.5">
<mask id="path-4-inside-1" fill="white">
<path d="M22.2115 12.6325C22.2773 12.495 22.3107 12.3267 22.3125 12.1809C22.3107 12.035 22.2774 11.8801 22.2115 11.7425L22.0234 11.381C21.9531 11.2572 21.912 11.1368 21.8997 11.0288C21.8873 10.9209 21.8995 10.7943 21.94 10.6579C21.9671 10.5744 21.9988 10.4323 22.0402 10.2637C22.0732 10.1149 22.0692 9.94342 22.0346 9.8017C21.9999 9.65998 21.9313 9.51701 21.8362 9.39774L21.5684 9.08876C21.4722 8.98379 21.4032 8.87636 21.3671 8.77387C21.3309 8.67138 21.3113 8.54116 21.3169 8.39897C21.3225 8.31144 21.3242 8.17342 21.3272 7.99992C21.3265 7.8475 21.2797 7.68412 21.2147 7.55348C21.1497 7.42284 21.0434 7.28936 20.9222 7.19672L20.592 6.95955C20.4733 6.88091 20.3825 6.79209 20.3226 6.70132C20.2628 6.61055 20.2162 6.4865 20.1875 6.34713C20.172 6.2608 20.1423 6.12529 20.1035 5.95612C20.0663 5.8083 19.9853 5.65865 19.891 5.54725C19.7967 5.43586 19.6647 5.32928 19.5249 5.26804L19.1538 5.11926C19.021 5.06779 18.9084 4.99919 18.8288 4.92515C18.7491 4.85111 18.6776 4.74579 18.6197 4.61573C18.5874 4.53779 18.5255 4.41412 18.4517 4.26666L18.4428 4.24901C18.3717 4.11418 18.2596 3.98514 18.1416 3.89918C18.0235 3.81322 17.8795 3.7479 17.7298 3.71785L17.3267 3.65313C17.1854 3.63457 17.0636 3.59638 16.97 3.54108C16.8763 3.48578 16.7778 3.39834 16.6906 3.28576C16.6386 3.21505 16.5513 3.1081 16.442 2.9732C16.3434 2.85681 16.2026 2.76138 16.0687 2.70291C15.9349 2.64445 15.7674 2.61001 15.6149 2.61678L15.2153 2.64874C15.0734 2.66133 14.9408 2.65241 14.8365 2.62143C14.7322 2.59045 14.6206 2.52907 14.5108 2.43833C14.4446 2.38072 14.3264 2.2949 14.1874 2.19076C14.0634 2.10194 13.9039 2.03751 13.7598 2.01367C13.6157 1.98982 13.457 1.99631 13.3098 2.03677L12.92 2.16033C12.7856 2.20761 12.6596 2.22799 12.551 2.22112C12.4423 2.21425 12.3144 2.17874 12.1855 2.11814C12.107 2.07882 11.9801 2.02162 11.8212 1.95139C11.6803 1.89273 11.5102 1.86764 11.3644 1.87686C11.2186 1.88609 11.0655 1.92886 10.9312 2.00144L10.5796 2.21093C10.4593 2.28727 10.3412 2.33621 10.2339 2.35397C10.1265 2.37173 9.99434 2.36768 9.85505 2.33762C9.77152 2.31739 9.63938 2.29202 9.47386 2.26025L9.46286 2.25814C9.31237 2.23259 9.14227 2.2492 9.00224 2.29079C8.86221 2.33239 8.71128 2.41253 8.59922 2.51602L8.31449 2.79719C8.21424 2.89833 8.10665 2.97538 8.00694 3.01893C7.90724 3.06248 7.7821 3.08673 7.6396 3.08809C7.55177 3.08674 7.40589 3.09597 7.23238 3.10571C7.08019 3.11755 6.9172 3.16988 6.79144 3.24412C6.66568 3.31836 6.54871 3.42489 6.46188 3.55025L6.2432 3.89485C6.17025 4.01709 6.08714 4.11383 5.99922 4.17786C5.91129 4.24189 5.79235 4.29804 5.6543 4.33335C5.56868 4.35299 5.43608 4.39089 5.2687 4.43761C5.12261 4.4818 4.97997 4.57325 4.87303 4.67265C4.7661 4.77205 4.66913 4.91214 4.61453 5.05448L4.48131 5.43849C4.4394 5.57449 4.38028 5.68697 4.31001 5.76995C4.23975 5.85293 4.1348 5.93341 4.00902 6.00031C3.93049 6.0396 3.80923 6.10672 3.65767 6.19164C3.52619 6.26908 3.40634 6.38979 3.32602 6.51164C3.24569 6.63349 3.18158 6.79089 3.16237 6.94209L3.1251 7.33998C3.11336 7.4818 3.08028 7.60964 3.03185 7.70696C2.98342 7.80427 2.90302 7.90304 2.79464 7.99544C2.72644 8.05071 2.62033 8.15133 2.4936 8.27007C2.38456 8.37674 2.29282 8.52165 2.24428 8.65924C2.19575 8.79684 2.17441 8.95372 2.18871 9.10547L2.24261 9.50999C2.26574 9.6504 2.26403 9.77787 2.23823 9.88344C2.21243 9.98901 2.15604 10.1086 2.07364 10.2247C2.02107 10.295 1.94321 10.4098 1.84602 10.5536C1.7634 10.6818 1.71089 10.8447 1.69429 10.9896C1.6777 11.1345 1.69069 11.305 1.74223 11.4484L1.88891 11.8202C1.94299 11.9518 1.9715 12.0765 1.97012 12.1852C1.96874 12.2939 1.94299 12.4232 1.88891 12.5548C1.85355 12.6351 1.80443 12.7645 1.74223 12.9265C1.69069 13.07 1.6777 13.2405 1.69429 13.3854C1.71089 13.5303 1.76339 13.6932 1.84601 13.8213L2.07364 14.1503C2.15604 14.2664 2.21242 14.3859 2.23822 14.4915C2.26401 14.5971 2.26574 14.7246 2.24261 14.865C2.2262 14.9512 2.2087 15.0971 2.18869 15.2695C2.17439 15.4212 2.19575 15.5782 2.24428 15.7158C2.29282 15.8533 2.38454 15.9982 2.49357 16.1049L2.79464 16.3796C2.90302 16.472 2.98339 16.5707 3.03182 16.668C3.08025 16.7653 3.11336 16.8932 3.1251 17.035C3.13015 17.1226 3.14418 17.2603 3.16233 17.4329C3.18155 17.5841 3.24569 17.7415 3.32602 17.8634C3.40634 17.9852 3.52615 18.1059 3.65763 18.1833L4.00902 18.3747C4.1348 18.4416 4.2397 18.522 4.30997 18.605C4.38024 18.688 4.4394 18.8005 4.48131 18.9365C4.50504 19.021 4.55585 19.1571 4.61449 19.3205C4.66908 19.4628 4.7661 19.603 4.87303 19.7024C4.97997 19.8017 5.12256 19.8932 5.26865 19.9373L5.6543 20.0416C5.79235 20.077 5.91124 20.1331 5.99917 20.1971C6.08709 20.2611 6.17025 20.3579 6.2432 20.4802C6.28627 20.5566 6.36609 20.6799 6.46183 20.8247C6.54865 20.9501 6.66568 21.0566 6.79144 21.1309C6.9172 21.2051 7.08013 21.2574 7.23232 21.2693L7.6396 21.2869C7.7821 21.2883 7.90718 21.3125 8.00688 21.356C8.10659 21.3996 8.21424 21.4767 8.31449 21.5778C8.3747 21.6417 8.47414 21.7384 8.59916 21.859C8.71122 21.9624 8.86221 22.0426 9.00224 22.0842C9.14227 22.1258 9.31231 22.1424 9.46279 22.1168L9.85505 22.0374C9.99434 22.0073 10.1265 22.0033 10.2338 22.021C10.3412 22.0388 10.4593 22.0877 10.5796 22.1641C10.6525 22.213 10.7802 22.2877 10.9312 22.3736C11.0654 22.4461 11.2186 22.4889 11.3644 22.4981C11.5102 22.5074 11.6802 22.4823 11.8211 22.4236L12.1855 22.2569C12.3144 22.1963 12.4423 22.1608 12.5509 22.1539C12.6595 22.147 12.7856 22.1674 12.92 22.2147C13.0021 22.2459 13.1432 22.2886 13.3097 22.3382C13.4569 22.3787 13.6157 22.3852 13.7598 22.3613C13.9039 22.3375 14.0633 22.2731 14.1874 22.1843L14.5108 21.9367C14.6206 21.8459 14.7321 21.7846 14.8364 21.7536C14.9407 21.7226 15.0734 21.7137 15.2153 21.7263C15.3026 21.7362 15.4414 21.7468 15.6148 21.7582C15.7673 21.765 15.9349 21.7306 16.0687 21.6721C16.2026 21.6136 16.3434 21.5182 16.4419 21.4018L16.6906 21.0892C16.7778 20.9767 16.8762 20.8893 16.9699 20.834C17.0636 20.7787 17.1854 20.7404 17.3267 20.7219C17.414 20.7126 17.5587 20.6877 17.7298 20.6572C17.8794 20.6271 18.0235 20.5618 18.1416 20.4758C18.2596 20.3899 18.3716 20.2609 18.4428 20.126L18.6197 19.7593C18.6776 19.6292 18.7491 19.5239 18.8287 19.4499C18.9084 19.3758 19.021 19.3072 19.1538 19.2557C19.2351 19.2266 19.3598 19.1751 19.5164 19.1105L19.5249 19.107C19.6647 19.0458 19.7967 18.9391 19.891 18.8277C19.9853 18.7164 20.0663 18.5667 20.1035 18.4189L20.1875 18.0279C20.2162 17.8885 20.2628 17.7645 20.3226 17.6737C20.3824 17.583 20.4733 17.4941 20.592 17.4155C20.6664 17.3688 20.7819 17.2808 20.9221 17.1783C21.0434 17.0857 21.1497 16.9522 21.2147 16.8215C21.2797 16.6909 21.3265 16.5276 21.3272 16.3751L21.3169 15.976C21.3113 15.8338 21.3309 15.7037 21.3671 15.6012C21.4032 15.4987 21.4722 15.3912 21.5684 15.2862C21.6293 15.223 21.7251 15.1108 21.8362 14.9773C21.9312 14.858 21.9999 14.715 22.0346 14.5733C22.0692 14.4316 22.0732 14.2602 22.0401 14.1114L21.94 13.7171C21.8995 13.5807 21.8873 13.4542 21.8997 13.3463C21.912 13.2383 21.9531 13.1178 22.0234 12.994C22.0686 12.9188 22.1333 12.7875 22.2115 12.6325Z"/>
</mask>
<path d="M22.2115 12.6325C22.2773 12.495 22.3107 12.3267 22.3125 12.1809C22.3107 12.035 22.2774 11.8801 22.2115 11.7425L22.0234 11.381C21.9531 11.2572 21.912 11.1368 21.8997 11.0288C21.8873 10.9209 21.8995 10.7943 21.94 10.6579C21.9671 10.5744 21.9988 10.4323 22.0402 10.2637C22.0732 10.1149 22.0692 9.94342 22.0346 9.8017C21.9999 9.65998 21.9313 9.51701 21.8362 9.39774L21.5684 9.08876C21.4722 8.98379 21.4032 8.87636 21.3671 8.77387C21.3309 8.67138 21.3113 8.54116 21.3169 8.39897C21.3225 8.31144 21.3242 8.17342 21.3272 7.99992C21.3265 7.8475 21.2797 7.68412 21.2147 7.55348C21.1497 7.42284 21.0434 7.28936 20.9222 7.19672L20.592 6.95955C20.4733 6.88091 20.3825 6.79209 20.3226 6.70132C20.2628 6.61055 20.2162 6.4865 20.1875 6.34713C20.172 6.2608 20.1423 6.12529 20.1035 5.95612C20.0663 5.8083 19.9853 5.65865 19.891 5.54725C19.7967 5.43586 19.6647 5.32928 19.5249 5.26804L19.1538 5.11926C19.021 5.06779 18.9084 4.99919 18.8288 4.92515C18.7491 4.85111 18.6776 4.74579 18.6197 4.61573C18.5874 4.53779 18.5255 4.41412 18.4517 4.26666L18.4428 4.24901C18.3717 4.11418 18.2596 3.98514 18.1416 3.89918C18.0235 3.81322 17.8795 3.7479 17.7298 3.71785L17.3267 3.65313C17.1854 3.63457 17.0636 3.59638 16.97 3.54108C16.8763 3.48578 16.7778 3.39834 16.6906 3.28576C16.6386 3.21505 16.5513 3.1081 16.442 2.9732C16.3434 2.85681 16.2026 2.76138 16.0687 2.70291C15.9349 2.64445 15.7674 2.61001 15.6149 2.61678L15.2153 2.64874C15.0734 2.66133 14.9408 2.65241 14.8365 2.62143C14.7322 2.59045 14.6206 2.52907 14.5108 2.43833C14.4446 2.38072 14.3264 2.2949 14.1874 2.19076C14.0634 2.10194 13.9039 2.03751 13.7598 2.01367C13.6157 1.98982 13.457 1.99631 13.3098 2.03677L12.92 2.16033C12.7856 2.20761 12.6596 2.22799 12.551 2.22112C12.4423 2.21425 12.3144 2.17874 12.1855 2.11814C12.107 2.07882 11.9801 2.02162 11.8212 1.95139C11.6803 1.89273 11.5102 1.86764 11.3644 1.87686C11.2186 1.88609 11.0655 1.92886 10.9312 2.00144L10.5796 2.21093C10.4593 2.28727 10.3412 2.33621 10.2339 2.35397C10.1265 2.37173 9.99434 2.36768 9.85505 2.33762C9.77152 2.31739 9.63938 2.29202 9.47386 2.26025L9.46286 2.25814C9.31237 2.23259 9.14227 2.2492 9.00224 2.29079C8.86221 2.33239 8.71128 2.41253 8.59922 2.51602L8.31449 2.79719C8.21424 2.89833 8.10665 2.97538 8.00694 3.01893C7.90724 3.06248 7.7821 3.08673 7.6396 3.08809C7.55177 3.08674 7.40589 3.09597 7.23238 3.10571C7.08019 3.11755 6.9172 3.16988 6.79144 3.24412C6.66568 3.31836 6.54871 3.42489 6.46188 3.55025L6.2432 3.89485C6.17025 4.01709 6.08714 4.11383 5.99922 4.17786C5.91129 4.24189 5.79235 4.29804 5.6543 4.33335C5.56868 4.35299 5.43608 4.39089 5.2687 4.43761C5.12261 4.4818 4.97997 4.57325 4.87303 4.67265C4.7661 4.77205 4.66913 4.91214 4.61453 5.05448L4.48131 5.43849C4.4394 5.57449 4.38028 5.68697 4.31001 5.76995C4.23975 5.85293 4.1348 5.93341 4.00902 6.00031C3.93049 6.0396 3.80923 6.10672 3.65767 6.19164C3.52619 6.26908 3.40634 6.38979 3.32602 6.51164C3.24569 6.63349 3.18158 6.79089 3.16237 6.94209L3.1251 7.33998C3.11336 7.4818 3.08028 7.60964 3.03185 7.70696C2.98342 7.80427 2.90302 7.90304 2.79464 7.99544C2.72644 8.05071 2.62033 8.15133 2.4936 8.27007C2.38456 8.37674 2.29282 8.52165 2.24428 8.65924C2.19575 8.79684 2.17441 8.95372 2.18871 9.10547L2.24261 9.50999C2.26574 9.6504 2.26403 9.77787 2.23823 9.88344C2.21243 9.98901 2.15604 10.1086 2.07364 10.2247C2.02107 10.295 1.94321 10.4098 1.84602 10.5536C1.7634 10.6818 1.71089 10.8447 1.69429 10.9896C1.6777 11.1345 1.69069 11.305 1.74223 11.4484L1.88891 11.8202C1.94299 11.9518 1.9715 12.0765 1.97012 12.1852C1.96874 12.2939 1.94299 12.4232 1.88891 12.5548C1.85355 12.6351 1.80443 12.7645 1.74223 12.9265C1.69069 13.07 1.6777 13.2405 1.69429 13.3854C1.71089 13.5303 1.76339 13.6932 1.84601 13.8213L2.07364 14.1503C2.15604 14.2664 2.21242 14.3859 2.23822 14.4915C2.26401 14.5971 2.26574 14.7246 2.24261 14.865C2.2262 14.9512 2.2087 15.0971 2.18869 15.2695C2.17439 15.4212 2.19575 15.5782 2.24428 15.7158C2.29282 15.8533 2.38454 15.9982 2.49357 16.1049L2.79464 16.3796C2.90302 16.472 2.98339 16.5707 3.03182 16.668C3.08025 16.7653 3.11336 16.8932 3.1251 17.035C3.13015 17.1226 3.14418 17.2603 3.16233 17.4329C3.18155 17.5841 3.24569 17.7415 3.32602 17.8634C3.40634 17.9852 3.52615 18.1059 3.65763 18.1833L4.00902 18.3747C4.1348 18.4416 4.2397 18.522 4.30997 18.605C4.38024 18.688 4.4394 18.8005 4.48131 18.9365C4.50504 19.021 4.55585 19.1571 4.61449 19.3205C4.66908 19.4628 4.7661 19.603 4.87303 19.7024C4.97997 19.8017 5.12256 19.8932 5.26865 19.9373L5.6543 20.0416C5.79235 20.077 5.91124 20.1331 5.99917 20.1971C6.08709 20.2611 6.17025 20.3579 6.2432 20.4802C6.28627 20.5566 6.36609 20.6799 6.46183 20.8247C6.54865 20.9501 6.66568 21.0566 6.79144 21.1309C6.9172 21.2051 7.08013 21.2574 7.23232 21.2693L7.6396 21.2869C7.7821 21.2883 7.90718 21.3125 8.00688 21.356C8.10659 21.3996 8.21424 21.4767 8.31449 21.5778C8.3747 21.6417 8.47414 21.7384 8.59916 21.859C8.71122 21.9624 8.86221 22.0426 9.00224 22.0842C9.14227 22.1258 9.31231 22.1424 9.46279 22.1168L9.85505 22.0374C9.99434 22.0073 10.1265 22.0033 10.2338 22.021C10.3412 22.0388 10.4593 22.0877 10.5796 22.1641C10.6525 22.213 10.7802 22.2877 10.9312 22.3736C11.0654 22.4461 11.2186 22.4889 11.3644 22.4981C11.5102 22.5074 11.6802 22.4823 11.8211 22.4236L12.1855 22.2569C12.3144 22.1963 12.4423 22.1608 12.5509 22.1539C12.6595 22.147 12.7856 22.1674 12.92 22.2147C13.0021 22.2459 13.1432 22.2886 13.3097 22.3382C13.4569 22.3787 13.6157 22.3852 13.7598 22.3613C13.9039 22.3375 14.0633 22.2731 14.1874 22.1843L14.5108 21.9367C14.6206 21.8459 14.7321 21.7846 14.8364 21.7536C14.9407 21.7226 15.0734 21.7137 15.2153 21.7263C15.3026 21.7362 15.4414 21.7468 15.6148 21.7582C15.7673 21.765 15.9349 21.7306 16.0687 21.6721C16.2026 21.6136 16.3434 21.5182 16.4419 21.4018L16.6906 21.0892C16.7778 20.9767 16.8762 20.8893 16.9699 20.834C17.0636 20.7787 17.1854 20.7404 17.3267 20.7219C17.414 20.7126 17.5587 20.6877 17.7298 20.6572C17.8794 20.6271 18.0235 20.5618 18.1416 20.4758C18.2596 20.3899 18.3716 20.2609 18.4428 20.126L18.6197 19.7593C18.6776 19.6292 18.7491 19.5239 18.8287 19.4499C18.9084 19.3758 19.021 19.3072 19.1538 19.2557C19.2351 19.2266 19.3598 19.1751 19.5164 19.1105L19.5249 19.107C19.6647 19.0458 19.7967 18.9391 19.891 18.8277C19.9853 18.7164 20.0663 18.5667 20.1035 18.4189L20.1875 18.0279C20.2162 17.8885 20.2628 17.7645 20.3226 17.6737C20.3824 17.583 20.4733 17.4941 20.592 17.4155C20.6664 17.3688 20.7819 17.2808 20.9221 17.1783C21.0434 17.0857 21.1497 16.9522 21.2147 16.8215C21.2797 16.6909 21.3265 16.5276 21.3272 16.3751L21.3169 15.976C21.3113 15.8338 21.3309 15.7037 21.3671 15.6012C21.4032 15.4987 21.4722 15.3912 21.5684 15.2862C21.6293 15.223 21.7251 15.1108 21.8362 14.9773C21.9312 14.858 21.9999 14.715 22.0346 14.5733C22.0692 14.4316 22.0732 14.2602 22.0401 14.1114L21.94 13.7171C21.8995 13.5807 21.8873 13.4542 21.8997 13.3463C21.912 13.2383 21.9531 13.1178 22.0234 12.994C22.0686 12.9188 22.1333 12.7875 22.2115 12.6325Z" stroke="#0E141F" stroke-opacity="0.75" stroke-width="2" mask="url(#path-4-inside-1)"/>
</g>
<g opacity="0.5">
<mask id="path-5-inside-2" fill="white">
<path d="M22.0259 12.6244C22.0905 12.4894 22.1232 12.3242 22.125 12.181C22.1232 12.0378 22.0905 11.8856 22.0259 11.7506L21.8412 11.3956C21.7722 11.2741 21.7318 11.1559 21.7197 11.0499C21.7075 10.9439 21.7195 10.8196 21.7593 10.6857C21.7858 10.6038 21.817 10.4642 21.8576 10.2987C21.8901 10.1526 21.8861 9.98422 21.8521 9.84507C21.8181 9.70593 21.7507 9.56557 21.6574 9.44846L21.3944 9.1451C21.3 9.04204 21.2323 8.93657 21.1968 8.83594C21.1613 8.73531 21.142 8.60745 21.1475 8.46785C21.153 8.38192 21.1547 8.24641 21.1576 8.07605C21.1569 7.92641 21.111 7.766 21.0472 7.63773C20.9833 7.50947 20.879 7.37842 20.76 7.28746L20.4358 7.0546C20.3192 6.9774 20.23 6.89019 20.1713 6.80107C20.1126 6.71195 20.0668 6.59016 20.0386 6.45331C20.0234 6.36856 19.9942 6.23551 19.9562 6.06942C19.9196 5.92429 19.8401 5.77735 19.7475 5.66798C19.6549 5.55861 19.5253 5.45397 19.3881 5.39385L19.0238 5.24777C18.8933 5.19724 18.7828 5.12989 18.7046 5.0572C18.6264 4.9845 18.5561 4.88109 18.4994 4.7534C18.4676 4.67687 18.4068 4.55542 18.3343 4.41062L18.3257 4.39335C18.2558 4.26096 18.1458 4.13428 18.0299 4.04988C17.914 3.96548 17.7726 3.90135 17.6257 3.87185L17.2298 3.8083C17.0911 3.79008 16.9716 3.75258 16.8796 3.69828C16.7876 3.64399 16.6909 3.55815 16.6053 3.44761C16.5543 3.37818 16.4685 3.27318 16.3612 3.14073C16.2644 3.02646 16.1262 2.93276 15.9948 2.87536C15.8633 2.81796 15.6989 2.78415 15.5491 2.7908L15.1569 2.82217C15.0175 2.83453 14.8873 2.82578 14.7849 2.79536C14.6825 2.76494 14.573 2.70468 14.4652 2.61559C14.4002 2.55903 14.2841 2.47477 14.1476 2.37252C14.0259 2.28532 13.8693 2.22206 13.7278 2.19865C13.5863 2.17524 13.4305 2.1816 13.286 2.22133L12.9033 2.34264C12.7713 2.38906 12.6476 2.40908 12.5409 2.40233C12.4343 2.39558 12.3087 2.36071 12.1821 2.30122C12.105 2.26261 11.9804 2.20645 11.8244 2.1375C11.6861 2.07991 11.5191 2.05527 11.376 2.06433C11.2328 2.07339 11.0825 2.11538 10.9507 2.18664L10.6054 2.39232C10.4873 2.46727 10.3714 2.51532 10.266 2.53276C10.1606 2.5502 10.0308 2.54623 9.89405 2.5167C9.81204 2.49685 9.68231 2.47195 9.51981 2.44075L9.50899 2.43867C9.36124 2.41359 9.19423 2.4299 9.05674 2.47073C8.91926 2.51157 8.77108 2.59026 8.66105 2.69187L8.3815 2.96793C8.28307 3.06722 8.17743 3.14287 8.07954 3.18563C7.98165 3.22839 7.85879 3.2522 7.71888 3.25354C7.63265 3.25221 7.48942 3.26127 7.31906 3.27084C7.16964 3.28246 7.00962 3.33384 6.88614 3.40673C6.76267 3.47962 6.64782 3.58421 6.56258 3.70729L6.34787 4.04562C6.27625 4.16564 6.19465 4.26062 6.10832 4.32349C6.022 4.38636 5.90521 4.44149 5.76967 4.47615C5.68562 4.49543 5.55542 4.53264 5.39109 4.57852C5.24766 4.62191 5.1076 4.71169 5.00261 4.80928C4.89762 4.90687 4.80241 5.04442 4.74881 5.18417L4.61802 5.5612C4.57687 5.69473 4.51882 5.80516 4.44983 5.88663C4.38084 5.9681 4.2778 6.04712 4.15431 6.1128C4.07721 6.15138 3.95815 6.21728 3.80935 6.30066C3.68026 6.37669 3.56259 6.4952 3.48373 6.61484C3.40486 6.73448 3.34191 6.88901 3.32305 7.03746L3.28646 7.42812C3.27493 7.56735 3.24245 7.69288 3.1949 7.78842C3.14736 7.88396 3.06842 7.98094 2.96201 8.07166C2.89505 8.12593 2.79087 8.22471 2.66644 8.3413C2.55939 8.44603 2.46931 8.5883 2.42166 8.72339C2.37401 8.85849 2.35306 9.01252 2.3671 9.16151L2.42002 9.55867C2.44272 9.69653 2.44105 9.82168 2.41572 9.92533C2.39039 10.029 2.33502 10.1464 2.25411 10.2604C2.2025 10.3294 2.12606 10.4421 2.03064 10.5833C1.94952 10.7092 1.89796 10.8691 1.88167 11.0114C1.86538 11.1537 1.87813 11.321 1.92874 11.4619L2.07275 11.8269C2.12585 11.9561 2.15383 12.0786 2.15248 12.1852C2.15113 12.2919 2.12585 12.4189 2.07275 12.5481C2.03803 12.627 1.9898 12.754 1.92873 12.9131C1.87813 13.0539 1.86538 13.2213 1.88167 13.3636C1.89796 13.5059 1.94951 13.6658 2.03063 13.7916L2.25411 14.1146C2.33502 14.2286 2.39037 14.346 2.4157 14.4496C2.44103 14.5533 2.44272 14.6785 2.42002 14.8163C2.4039 14.9009 2.38672 15.0442 2.36708 15.2134C2.35304 15.3624 2.37401 15.5165 2.42166 15.6516C2.46931 15.7867 2.55937 15.9289 2.66642 16.0336L2.96201 16.3033C3.06842 16.3941 3.14733 16.491 3.19488 16.5865C3.24242 16.6821 3.27493 16.8076 3.28646 16.9469C3.29142 17.0329 3.3052 17.168 3.32302 17.3375C3.34188 17.4859 3.40486 17.6405 3.48373 17.7602C3.56259 17.8798 3.68022 17.9983 3.80931 18.0743L4.15431 18.2622C4.2778 18.3279 4.3808 18.4069 4.44979 18.4883C4.51878 18.5698 4.57687 18.6803 4.61802 18.8138C4.64131 18.8967 4.69119 19.0304 4.74877 19.1908C4.80237 19.3305 4.89762 19.4681 5.00261 19.5657C5.1076 19.6633 5.24761 19.7531 5.39104 19.7964L5.76967 19.8988C5.90521 19.9335 6.02195 19.9886 6.10827 20.0515C6.1946 20.1143 6.27625 20.2094 6.34787 20.3294C6.39015 20.4044 6.46852 20.5255 6.56252 20.6677C6.64777 20.7908 6.76267 20.8954 6.88614 20.9683C7.00962 21.0412 7.16959 21.0925 7.319 21.1041L7.71888 21.1215C7.85879 21.1228 7.9816 21.1466 8.07949 21.1893C8.17738 21.2321 8.28307 21.3078 8.3815 21.4071C8.44061 21.4698 8.53825 21.5648 8.66099 21.6831C8.77102 21.7847 8.91926 21.8634 9.05674 21.9043C9.19423 21.9451 9.36117 21.9614 9.50892 21.9363L9.89405 21.8583C10.0308 21.8288 10.1605 21.8248 10.2659 21.8422C10.3713 21.8597 10.4873 21.9077 10.6054 21.9827C10.677 22.0307 10.8024 22.104 10.9506 22.1884C11.0824 22.2596 11.2328 22.3016 11.376 22.3107C11.5191 22.3197 11.686 22.2951 11.8243 22.2375L12.1821 22.0738C12.3087 22.0143 12.4342 21.9794 12.5409 21.9727C12.6475 21.9659 12.7713 21.9859 12.9033 22.0324C12.9839 22.063 13.1224 22.1049 13.2859 22.1537C13.4304 22.1934 13.5863 22.1998 13.7278 22.1764C13.8693 22.1529 14.0258 22.0897 14.1476 22.0025L14.4652 21.7594C14.573 21.6703 14.6824 21.6101 14.7848 21.5797C14.8873 21.5492 15.0175 21.5405 15.1569 21.5528C15.2426 21.5626 15.3788 21.573 15.5491 21.5842C15.6988 21.5909 15.8633 21.557 15.9948 21.4996C16.1262 21.4422 16.2644 21.3486 16.3611 21.2343L16.6053 20.9274C16.6909 20.8169 16.7876 20.731 16.8795 20.6767C16.9715 20.6225 17.0911 20.5849 17.2298 20.5667C17.3156 20.5576 17.4576 20.5332 17.6256 20.5032C17.7725 20.4737 17.914 20.4095 18.0299 20.3251C18.1458 20.2407 18.2558 20.1141 18.3256 19.9817L18.4994 19.6216C18.5561 19.4939 18.6264 19.3905 18.7046 19.3178C18.7828 19.2452 18.8933 19.1778 19.0238 19.1272C19.1035 19.0986 19.2259 19.0481 19.3797 18.9846L19.3881 18.9812C19.5253 18.9211 19.6549 18.8164 19.7475 18.707C19.8401 18.5976 19.9196 18.4508 19.9562 18.3056L20.0386 17.9217C20.0668 17.7848 20.1125 17.6631 20.1713 17.574C20.23 17.4849 20.3192 17.3976 20.4358 17.3204C20.5089 17.2746 20.6222 17.1882 20.7599 17.0876C20.8789 16.9966 20.9833 16.8655 21.0472 16.7373C21.111 16.609 21.1569 16.4487 21.1576 16.299L21.1475 15.9071C21.142 15.7675 21.1612 15.6398 21.1967 15.5391C21.2322 15.4385 21.3 15.333 21.3944 15.2299C21.4542 15.1678 21.5483 15.0576 21.6574 14.9266C21.7507 14.8095 21.8181 14.6691 21.8521 14.5299C21.8861 14.3908 21.8901 14.2225 21.8576 14.0764L21.7593 13.6893C21.7195 13.5554 21.7075 13.4312 21.7197 13.3252C21.7318 13.2192 21.7722 13.1009 21.8412 12.9794C21.8856 12.9055 21.949 12.7766 22.0259 12.6244Z"/>
</mask>
<path d="M22.0259 12.6244C22.0905 12.4894 22.1232 12.3242 22.125 12.181C22.1232 12.0378 22.0905 11.8856 22.0259 11.7506L21.8412 11.3956C21.7722 11.2741 21.7318 11.1559 21.7197 11.0499C21.7075 10.9439 21.7195 10.8196 21.7593 10.6857C21.7858 10.6038 21.817 10.4642 21.8576 10.2987C21.8901 10.1526 21.8861 9.98422 21.8521 9.84507C21.8181 9.70593 21.7507 9.56557 21.6574 9.44846L21.3944 9.1451C21.3 9.04204 21.2323 8.93657 21.1968 8.83594C21.1613 8.73531 21.142 8.60745 21.1475 8.46785C21.153 8.38192 21.1547 8.24641 21.1576 8.07605C21.1569 7.92641 21.111 7.766 21.0472 7.63773C20.9833 7.50947 20.879 7.37842 20.76 7.28746L20.4358 7.0546C20.3192 6.9774 20.23 6.89019 20.1713 6.80107C20.1126 6.71195 20.0668 6.59016 20.0386 6.45331C20.0234 6.36856 19.9942 6.23551 19.9562 6.06942C19.9196 5.92429 19.8401 5.77735 19.7475 5.66798C19.6549 5.55861 19.5253 5.45397 19.3881 5.39385L19.0238 5.24777C18.8933 5.19724 18.7828 5.12989 18.7046 5.0572C18.6264 4.9845 18.5561 4.88109 18.4994 4.7534C18.4676 4.67687 18.4068 4.55542 18.3343 4.41062L18.3257 4.39335C18.2558 4.26096 18.1458 4.13428 18.0299 4.04988C17.914 3.96548 17.7726 3.90135 17.6257 3.87185L17.2298 3.8083C17.0911 3.79008 16.9716 3.75258 16.8796 3.69828C16.7876 3.64399 16.6909 3.55815 16.6053 3.44761C16.5543 3.37818 16.4685 3.27318 16.3612 3.14073C16.2644 3.02646 16.1262 2.93276 15.9948 2.87536C15.8633 2.81796 15.6989 2.78415 15.5491 2.7908L15.1569 2.82217C15.0175 2.83453 14.8873 2.82578 14.7849 2.79536C14.6825 2.76494 14.573 2.70468 14.4652 2.61559C14.4002 2.55903 14.2841 2.47477 14.1476 2.37252C14.0259 2.28532 13.8693 2.22206 13.7278 2.19865C13.5863 2.17524 13.4305 2.1816 13.286 2.22133L12.9033 2.34264C12.7713 2.38906 12.6476 2.40908 12.5409 2.40233C12.4343 2.39558 12.3087 2.36071 12.1821 2.30122C12.105 2.26261 11.9804 2.20645 11.8244 2.1375C11.6861 2.07991 11.5191 2.05527 11.376 2.06433C11.2328 2.07339 11.0825 2.11538 10.9507 2.18664L10.6054 2.39232C10.4873 2.46727 10.3714 2.51532 10.266 2.53276C10.1606 2.5502 10.0308 2.54623 9.89405 2.5167C9.81204 2.49685 9.68231 2.47195 9.51981 2.44075L9.50899 2.43867C9.36124 2.41359 9.19423 2.4299 9.05674 2.47073C8.91926 2.51157 8.77108 2.59026 8.66105 2.69187L8.3815 2.96793C8.28307 3.06722 8.17743 3.14287 8.07954 3.18563C7.98165 3.22839 7.85879 3.2522 7.71888 3.25354C7.63265 3.25221 7.48942 3.26127 7.31906 3.27084C7.16964 3.28246 7.00962 3.33384 6.88614 3.40673C6.76267 3.47962 6.64782 3.58421 6.56258 3.70729L6.34787 4.04562C6.27625 4.16564 6.19465 4.26062 6.10832 4.32349C6.022 4.38636 5.90521 4.44149 5.76967 4.47615C5.68562 4.49543 5.55542 4.53264 5.39109 4.57852C5.24766 4.62191 5.1076 4.71169 5.00261 4.80928C4.89762 4.90687 4.80241 5.04442 4.74881 5.18417L4.61802 5.5612C4.57687 5.69473 4.51882 5.80516 4.44983 5.88663C4.38084 5.9681 4.2778 6.04712 4.15431 6.1128C4.07721 6.15138 3.95815 6.21728 3.80935 6.30066C3.68026 6.37669 3.56259 6.4952 3.48373 6.61484C3.40486 6.73448 3.34191 6.88901 3.32305 7.03746L3.28646 7.42812C3.27493 7.56735 3.24245 7.69288 3.1949 7.78842C3.14736 7.88396 3.06842 7.98094 2.96201 8.07166C2.89505 8.12593 2.79087 8.22471 2.66644 8.3413C2.55939 8.44603 2.46931 8.5883 2.42166 8.72339C2.37401 8.85849 2.35306 9.01252 2.3671 9.16151L2.42002 9.55867C2.44272 9.69653 2.44105 9.82168 2.41572 9.92533C2.39039 10.029 2.33502 10.1464 2.25411 10.2604C2.2025 10.3294 2.12606 10.4421 2.03064 10.5833C1.94952 10.7092 1.89796 10.8691 1.88167 11.0114C1.86538 11.1537 1.87813 11.321 1.92874 11.4619L2.07275 11.8269C2.12585 11.9561 2.15383 12.0786 2.15248 12.1852C2.15113 12.2919 2.12585 12.4189 2.07275 12.5481C2.03803 12.627 1.9898 12.754 1.92873 12.9131C1.87813 13.0539 1.86538 13.2213 1.88167 13.3636C1.89796 13.5059 1.94951 13.6658 2.03063 13.7916L2.25411 14.1146C2.33502 14.2286 2.39037 14.346 2.4157 14.4496C2.44103 14.5533 2.44272 14.6785 2.42002 14.8163C2.4039 14.9009 2.38672 15.0442 2.36708 15.2134C2.35304 15.3624 2.37401 15.5165 2.42166 15.6516C2.46931 15.7867 2.55937 15.9289 2.66642 16.0336L2.96201 16.3033C3.06842 16.3941 3.14733 16.491 3.19488 16.5865C3.24242 16.6821 3.27493 16.8076 3.28646 16.9469C3.29142 17.0329 3.3052 17.168 3.32302 17.3375C3.34188 17.4859 3.40486 17.6405 3.48373 17.7602C3.56259 17.8798 3.68022 17.9983 3.80931 18.0743L4.15431 18.2622C4.2778 18.3279 4.3808 18.4069 4.44979 18.4883C4.51878 18.5698 4.57687 18.6803 4.61802 18.8138C4.64131 18.8967 4.69119 19.0304 4.74877 19.1908C4.80237 19.3305 4.89762 19.4681 5.00261 19.5657C5.1076 19.6633 5.24761 19.7531 5.39104 19.7964L5.76967 19.8988C5.90521 19.9335 6.02195 19.9886 6.10827 20.0515C6.1946 20.1143 6.27625 20.2094 6.34787 20.3294C6.39015 20.4044 6.46852 20.5255 6.56252 20.6677C6.64777 20.7908 6.76267 20.8954 6.88614 20.9683C7.00962 21.0412 7.16959 21.0925 7.319 21.1041L7.71888 21.1215C7.85879 21.1228 7.9816 21.1466 8.07949 21.1893C8.17738 21.2321 8.28307 21.3078 8.3815 21.4071C8.44061 21.4698 8.53825 21.5648 8.66099 21.6831C8.77102 21.7847 8.91926 21.8634 9.05674 21.9043C9.19423 21.9451 9.36117 21.9614 9.50892 21.9363L9.89405 21.8583C10.0308 21.8288 10.1605 21.8248 10.2659 21.8422C10.3713 21.8597 10.4873 21.9077 10.6054 21.9827C10.677 22.0307 10.8024 22.104 10.9506 22.1884C11.0824 22.2596 11.2328 22.3016 11.376 22.3107C11.5191 22.3197 11.686 22.2951 11.8243 22.2375L12.1821 22.0738C12.3087 22.0143 12.4342 21.9794 12.5409 21.9727C12.6475 21.9659 12.7713 21.9859 12.9033 22.0324C12.9839 22.063 13.1224 22.1049 13.2859 22.1537C13.4304 22.1934 13.5863 22.1998 13.7278 22.1764C13.8693 22.1529 14.0258 22.0897 14.1476 22.0025L14.4652 21.7594C14.573 21.6703 14.6824 21.6101 14.7848 21.5797C14.8873 21.5492 15.0175 21.5405 15.1569 21.5528C15.2426 21.5626 15.3788 21.573 15.5491 21.5842C15.6988 21.5909 15.8633 21.557 15.9948 21.4996C16.1262 21.4422 16.2644 21.3486 16.3611 21.2343L16.6053 20.9274C16.6909 20.8169 16.7876 20.731 16.8795 20.6767C16.9715 20.6225 17.0911 20.5849 17.2298 20.5667C17.3156 20.5576 17.4576 20.5332 17.6256 20.5032C17.7725 20.4737 17.914 20.4095 18.0299 20.3251C18.1458 20.2407 18.2558 20.1141 18.3256 19.9817L18.4994 19.6216C18.5561 19.4939 18.6264 19.3905 18.7046 19.3178C18.7828 19.2452 18.8933 19.1778 19.0238 19.1272C19.1035 19.0986 19.2259 19.0481 19.3797 18.9846L19.3881 18.9812C19.5253 18.9211 19.6549 18.8164 19.7475 18.707C19.8401 18.5976 19.9196 18.4508 19.9562 18.3056L20.0386 17.9217C20.0668 17.7848 20.1125 17.6631 20.1713 17.574C20.23 17.4849 20.3192 17.3976 20.4358 17.3204C20.5089 17.2746 20.6222 17.1882 20.7599 17.0876C20.8789 16.9966 20.9833 16.8655 21.0472 16.7373C21.111 16.609 21.1569 16.4487 21.1576 16.299L21.1475 15.9071C21.142 15.7675 21.1612 15.6398 21.1967 15.5391C21.2322 15.4385 21.3 15.333 21.3944 15.2299C21.4542 15.1678 21.5483 15.0576 21.6574 14.9266C21.7507 14.8095 21.8181 14.6691 21.8521 14.5299C21.8861 14.3908 21.8901 14.2225 21.8576 14.0764L21.7593 13.6893C21.7195 13.5554 21.7075 13.4312 21.7197 13.3252C21.7318 13.2192 21.7722 13.1009 21.8412 12.9794C21.8856 12.9055 21.949 12.7766 22.0259 12.6244Z" stroke="url(#paint3_linear)" stroke-width="2" stroke-linecap="round" stroke-linejoin="round" mask="url(#path-5-inside-2)"/>
</g>
<path d="M18 12C18 8.68941 15.3106 6 12 6C8.68941 6 6 8.68941 6 12C6 15.3106 8.68941 18 12 18C15.3106 18 18 15.3106 18 12Z" fill="url(#paint4_linear)"/>
<path d="M12 5.5C8.41326 5.5 5.5 8.41326 5.5 12C5.5 15.5867 8.41326 18.5 12 18.5C15.5867 18.5 18.5 15.5867 18.5 12C18.5 8.41326 15.5867 5.5 12 5.5Z" stroke="black" stroke-opacity="0.8"/>
<path opacity="0.5" d="M17.5 12C17.5 15.0376 15.0376 17.5 12 17.5C8.96244 17.5 6.5 15.0376 6.5 12C6.5 8.96243 8.96244 6.5 12 6.5C15.0376 6.5 17.5 8.96244 17.5 12Z" stroke="url(#paint5_linear)" stroke-linecap="round" stroke-linejoin="round"/>
<path d="M11.8894 9.6212C14.1049 9.59618 16.3365 10.7353 17.2333 11.5267C16.8083 11.8085 16.8176 12.3081 17.2333 12.5744C15.8276 13.5109 14.0864 14.3487 11.8894 14.3331C9.75472 14.3179 7.85938 13.5134 6.70504 12.6002C7.07546 12.309 7.12545 11.8965 6.70504 11.548C7.95575 10.5314 9.7296 9.6456 11.8894 9.6212Z" fill="url(#paint6_linear)"/>
<path fill-rule="evenodd" clip-rule="evenodd" d="M5.84053 12.107C5.82125 10.9706 9.29409 9.38775 11.8894 9.35299C14.5636 9.31718 18.1596 11.098 18.1596 12.107C18.1596 13.1159 14.5446 14.6815 11.8894 14.647C9.3136 14.6135 5.85981 13.2433 5.84053 12.107ZM17.2333 11.5267C16.3365 10.7353 14.1049 9.59618 11.8894 9.6212C9.7296 9.6456 7.95575 10.5314 6.70504 11.548C7.12545 11.8965 7.07546 12.309 6.70504 12.6002C7.85938 13.5134 9.75472 14.3179 11.8894 14.3331C14.0864 14.3487 15.8276 13.5109 17.2333 12.5744C16.8176 12.3081 16.8083 11.8085 17.2333 11.5267Z" fill="url(#paint7_linear)"/>
<circle cx="6.41575" cy="12.0578" r="0.276502" fill="url(#paint8_linear)"/>
<circle cx="17.4604" cy="12.0578" r="0.276502" fill="url(#paint9_linear)"/>
<path d="M8.70582 11.0515C8.44196 11.8661 8.42828 12.1848 8.70582 13.0713C10.6442 13.8399 12.9969 13.922 15.295 13.0713C15.3007 12.95 15.295 12.8945 15.295 12.7602C11.3122 13.3641 9.16087 12.7602 9.16087 12.7602V12.2733H14.6427C14.689 11.961 14.689 12.1196 14.6427 11.8072H9.16087V11.3148C9.16087 11.3148 11.7609 10.6719 15.295 11.3148C15.295 11.2527 15.3025 11.1899 15.295 11.0515C13.4852 10.1289 10.5485 10.1015 8.70582 11.0515Z" fill="url(#paint10_linear)"/>
<path d="M14.2762 10.6564C12.7625 10.2208 10.8724 10.2439 9.40173 10.7554C9.44415 10.7477 9.49011 10.7396 9.53951 10.7313C9.85217 10.6788 10.3031 10.6165 10.866 10.5751C11.7553 10.5096 12.927 10.496 14.2762 10.6564ZM9.05549 10.8882C9.05546 10.8883 9.05543 10.8883 9.0554 10.8883L9.12972 11.1888L9.12972 11.1888C9.08948 11.026 9.06749 10.937 9.05549 10.8882ZM8.66087 11.1935V11.3148V11.7733V11.8072V12.2733V11.1935ZM9.11885 11.4065C9.13279 11.4002 9.1468 11.3938 9.16087 11.3875L9.11885 11.4065ZM14.6427 12.2733V11.8072C14.6658 11.9634 14.6774 12.0018 14.6774 12.0403C14.6774 12.0787 14.6658 12.1171 14.6427 12.2733Z" fill="url(#paint11_linear)" stroke="url(#paint12_linear)"/>
<defs>
<radialGradient id="paint0_radial" cx="0" cy="0" r="1" gradientUnits="userSpaceOnUse" gradientTransform="translate(12 20.4369) scale(9 2.62516)">
<stop/>
<stop offset="1" stop-opacity="0"/>
</radialGradient>
<radialGradient id="paint1_radial" cx="0" cy="0" r="1" gradientUnits="userSpaceOnUse" gradientTransform="translate(12 21.1871) scale(6 1.87491)">
<stop/>
<stop offset="1" stop-opacity="0"/>
</radialGradient>
<linearGradient id="paint2_linear" x1="12" y1="1.875" x2="12" y2="22.5" gradientUnits="userSpaceOnUse">
<stop stop-color="#EFEFEF"/>
<stop offset="1" stop-color="#C5C5C5"/>
</linearGradient>
<linearGradient id="paint3_linear" x1="11.1842" y1="1.69448" x2="11.1842" y2="22.7904" gradientUnits="userSpaceOnUse">
<stop stop-color="white"/>
<stop offset="0.424479" stop-color="white" stop-opacity="0.28"/>
<stop offset="0.820899" stop-color="white" stop-opacity="0.156863"/>
<stop offset="1" stop-color="white" stop-opacity="0.392157"/>
</linearGradient>
<linearGradient id="paint4_linear" x1="12" y1="6" x2="12" y2="18" gradientUnits="userSpaceOnUse">
<stop stop-color="#333333"/>
<stop offset="1" stop-color="#1A1A1A"/>
</linearGradient>
<linearGradient id="paint5_linear" x1="11.5165" y1="5.78192" x2="11.5165" y2="18.2832" gradientUnits="userSpaceOnUse">
<stop stop-color="white"/>
<stop offset="0.424479" stop-color="white" stop-opacity="0.235294"/>
<stop offset="0.820899" stop-color="white" stop-opacity="0.156863"/>
<stop offset="1" stop-color="white" stop-opacity="0.392157"/>
</linearGradient>
<linearGradient id="paint6_linear" x1="12" y1="9.35246" x2="12" y2="14.6475" gradientUnits="userSpaceOnUse">
<stop stop-color="#112251"/>
<stop offset="1" stop-color="#020D2C"/>
</linearGradient>
<linearGradient id="paint7_linear" x1="12" y1="9.35246" x2="12" y2="14.6475" gradientUnits="userSpaceOnUse">
<stop stop-color="#CDE8FD"/>
<stop offset="1" stop-color="#A4C5FC"/>
</linearGradient>
<linearGradient id="paint8_linear" x1="6.41575" y1="11.7813" x2="6.41575" y2="12.3343" gradientUnits="userSpaceOnUse">
<stop stop-color="white"/>
<stop offset="1" stop-color="#C5C5C5"/>
</linearGradient>
<linearGradient id="paint9_linear" x1="17.4604" y1="11.7813" x2="17.4604" y2="12.3343" gradientUnits="userSpaceOnUse">
<stop stop-color="white"/>
<stop offset="1" stop-color="#C5C5C5"/>
</linearGradient>
<linearGradient id="paint10_linear" x1="11.9005" y1="10.2576" x2="11.9005" y2="13.6789" gradientUnits="userSpaceOnUse">
<stop stop-color="#CDE8FD"/>
<stop offset="1" stop-color="#A4C5FC"/>
</linearGradient>
<linearGradient id="paint11_linear" x1="11.9005" y1="10.2576" x2="11.9005" y2="13.6789" gradientUnits="userSpaceOnUse">
<stop stop-color="#CDE8FD"/>
<stop offset="1" stop-color="#A4C5FC"/>
</linearGradient>
<linearGradient id="paint12_linear" x1="11.9005" y1="10.3493" x2="11.9005" y2="13.6789" gradientUnits="userSpaceOnUse">
<stop stop-color="white"/>
<stop offset="0.453125" stop-color="white" stop-opacity="0"/>
<stop offset="1" stop-color="white" stop-opacity="0.33"/>
</linearGradient>
</defs>
</svg>
