<svg width="128" height="128" viewBox="0 0 128 128" fill="none" xmlns="http://www.w3.org/2000/svg">
<path opacity="0.2" d="M112 109C112.001 110.838 110.76 112.659 108.348 114.357C105.936 116.056 102.401 117.599 97.9436 118.899C93.4863 120.199 88.1945 121.231 82.3704 121.934C76.5463 122.638 70.304 123 64 123C57.696 123 51.4537 122.638 45.6296 121.934C39.8055 121.231 34.5137 120.199 30.0564 118.899C25.5991 117.599 22.0636 116.056 19.6518 114.357C17.24 112.659 15.9991 110.838 16 109C15.9991 107.162 17.24 105.341 19.6518 103.643C22.0636 101.944 25.5991 100.401 30.0564 99.1006C34.5137 97.8006 39.8055 96.7693 45.6296 96.0657C51.4537 95.3621 57.696 95 64 95C70.304 95 76.5463 95.3621 82.3704 96.0657C88.1945 96.7693 93.4863 97.8006 97.9436 99.1006C102.401 100.401 105.936 101.944 108.348 103.643C110.76 105.341 112.001 107.162 112 109Z" fill="url(#paint0_radial)"/>
<path opacity="0.4" d="M96 113C96.001 114.313 95.1741 115.613 93.5664 116.827C91.9588 118.04 89.6018 119.142 86.6302 120.071C83.6587 121 80.1307 121.736 76.2477 122.239C72.3648 122.741 68.203 123 64 123C59.797 123 55.6352 122.741 51.7523 122.239C47.8693 121.736 44.3413 121 41.3698 120.071C38.3982 119.142 36.0412 118.04 34.4336 116.827C32.8259 115.613 31.999 114.313 32 113C31.999 111.687 32.8259 110.387 34.4336 109.173C36.0412 107.96 38.3982 106.858 41.3698 105.929C44.3413 105 47.8693 104.264 51.7523 103.761C55.6352 103.259 59.797 103 64 103C68.203 103 72.3648 103.259 76.2477 103.761C80.1307 104.264 83.6587 105 86.6302 105.929C89.6018 106.858 91.9588 107.96 93.5664 109.173C95.1741 110.387 96.001 111.687 96 113Z" fill="url(#paint1_radial)"/>
<path d="M118.462 67.3735C118.813 66.64 118.99 65.7426 119 64.9646C118.99 64.1867 118.813 63.3603 118.462 62.6268L117.458 60.6985C117.083 60.0383 116.864 59.3961 116.798 58.8203C116.732 58.2445 116.797 57.5697 117.013 56.8421C117.158 56.397 117.327 55.6387 117.548 54.7397C117.724 53.9462 117.702 53.0316 117.518 52.2757C117.333 51.5199 116.967 50.7574 116.46 50.1213L115.031 48.4734C114.518 47.9136 114.151 47.3406 113.958 46.794C113.765 46.2473 113.66 45.5528 113.69 44.7945C113.72 44.3277 113.729 43.5916 113.745 42.6662C113.741 41.8533 113.492 40.9819 113.145 40.2852C112.798 39.5885 112.231 38.8766 111.585 38.3825L109.824 37.1176C109.191 36.6982 108.706 36.2245 108.387 35.7404C108.068 35.2563 107.82 34.5947 107.667 33.8513C107.584 33.3909 107.425 32.6682 107.219 31.766C107.02 30.9776 106.588 30.1794 106.085 29.5853C105.582 28.9912 104.878 28.4228 104.133 28.0962L102.154 27.3027C101.445 27.0282 100.845 26.6624 100.42 26.2675C99.9954 25.8726 99.6136 25.3109 99.3053 24.6172C99.1328 24.2016 98.8027 23.5421 98.409 22.7558L98.3618 22.6614C97.9822 21.9423 97.3845 21.2541 96.755 20.7956C96.1255 20.3372 95.3573 19.9888 94.5591 19.8286L92.4089 19.4834C91.6554 19.3844 91.0061 19.1807 90.5065 18.8857C90.0068 18.5908 89.4814 18.1245 89.0166 17.524C88.7394 17.1469 88.2735 16.5766 87.6905 15.8571C87.1649 15.2363 86.4138 14.7274 85.6999 14.4155C84.986 14.1037 84.0926 13.9201 83.2793 13.9562L81.1484 14.1266C80.3914 14.1937 79.6842 14.1462 79.1279 13.981C78.5716 13.8157 77.9766 13.4884 77.3911 13.0044C77.0379 12.6972 76.4077 12.2395 75.6662 11.6841C75.0046 11.2104 74.1543 10.8667 73.3856 10.7396C72.6169 10.6124 71.7705 10.647 70.9856 10.8628L68.9067 11.5218C68.1899 11.7739 67.5177 11.8826 66.9384 11.846C66.3592 11.8093 65.677 11.6199 64.9894 11.2967C64.5706 11.087 63.8938 10.782 63.0462 10.4074C62.2948 10.0946 61.3878 9.96073 60.6102 10.0099C59.8326 10.0591 59.0159 10.2873 58.3 10.6743L56.4243 11.7916C55.7829 12.1988 55.1533 12.4598 54.5807 12.5545C54.0081 12.6492 53.3031 12.6276 52.5603 12.4673C52.1148 12.3594 51.4101 12.2241 50.5274 12.0547L50.4686 12.0434C49.666 11.9072 48.7588 11.9957 48.0119 12.2176C47.2651 12.4394 46.4602 12.8668 45.8625 13.4188L44.3439 14.9184C43.8093 15.4577 43.2354 15.8687 42.7037 16.101C42.1719 16.3332 41.5046 16.4626 40.7446 16.4698C40.2761 16.4626 39.4981 16.5118 38.5727 16.5638C37.761 16.627 36.8917 16.906 36.221 17.302C35.5503 17.6979 34.9264 18.2661 34.4634 18.9347L33.2971 20.7725C32.908 21.4245 32.4648 21.9404 31.9958 22.2819C31.5269 22.6234 30.8925 22.9229 30.1562 23.1112C29.6996 23.2159 28.9924 23.4181 28.0997 23.6673C27.3206 23.903 26.5598 24.3907 25.9895 24.9208C25.4192 25.4509 24.902 26.1981 24.6108 26.9572L23.9003 29.0053C23.6768 29.7306 23.3615 30.3305 22.9867 30.7731C22.612 31.2156 22.0523 31.6448 21.3815 32.0016C20.9626 32.2112 20.3159 32.5692 19.5076 33.0221C18.8064 33.4351 18.1671 34.0789 17.7388 34.7288C17.3104 35.3786 16.9684 36.2181 16.866 37.0245L16.6672 39.1466C16.6046 39.9029 16.4281 40.5848 16.1698 41.1038C15.9116 41.6228 15.4828 42.1496 14.9048 42.6423C14.541 42.9371 13.9751 43.4737 13.2992 44.107C12.7177 44.676 12.2284 45.4488 11.9695 46.1826C11.7107 46.9165 11.5969 47.7532 11.6731 48.5625L11.9606 50.72C12.0839 51.4688 12.0748 52.1487 11.9372 52.7117C11.7996 53.2747 11.4989 53.9126 11.0594 54.5318C10.779 54.9066 10.3638 55.5187 9.84543 56.2859C9.4048 56.9695 9.12473 57.8382 9.03624 58.6112C8.94775 59.3842 9.01701 60.2931 9.29191 61.0583L10.0742 63.041C10.3626 63.7431 10.5146 64.4083 10.5073 64.9878C10.5 65.5672 10.3626 66.2569 10.0742 66.959C9.8856 67.3872 9.62362 68.0772 9.29189 68.9414C9.01699 69.7065 8.94775 70.6158 9.03624 71.3888C9.12473 72.1618 9.40474 73.0302 9.84538 73.7137L11.0594 75.4682C11.4989 76.0874 11.7996 76.725 11.9372 77.288C12.0747 77.851 12.0839 78.5312 11.9606 79.28C11.8731 79.7396 11.7797 80.5178 11.673 81.4372C11.5968 82.2465 11.7107 83.0835 11.9695 83.8174C12.2284 84.5512 12.7175 85.3237 13.2991 85.8926L14.9048 87.3576C15.4828 87.8504 15.9114 88.3769 16.1697 88.8959C16.428 89.4149 16.6046 90.0971 16.6672 90.8534C16.6941 91.3204 16.769 92.0547 16.8658 92.9752C16.9682 93.7816 17.3104 94.6214 17.7388 95.2712C18.1671 95.9211 18.8062 96.5646 19.5074 96.9776L21.3815 97.9984C22.0523 98.3551 22.6118 98.7841 22.9865 99.2267C23.3613 99.6692 23.6768 100.269 23.9003 100.995C24.0269 101.445 24.2978 102.171 24.6106 103.043C24.9018 103.802 25.4192 104.549 25.9895 105.079C26.5598 105.609 27.3203 106.097 28.0995 106.333L30.1562 106.889C30.8925 107.077 31.5266 107.376 31.9956 107.718C32.4645 108.059 32.908 108.576 33.2971 109.227C33.5268 109.635 33.9525 110.293 34.4631 111.065C34.9261 111.734 35.5503 112.302 36.221 112.698C36.8917 113.094 37.7607 113.373 38.5724 113.436L40.7446 113.53C41.5046 113.537 42.1716 113.667 42.7034 113.899C43.2351 114.131 43.8093 114.542 44.3439 115.082C44.6651 115.422 45.1954 115.938 45.8622 116.581C46.4599 117.133 47.2651 117.561 48.0119 117.782C48.7588 118.004 49.6656 118.093 50.4682 117.957L52.5603 117.533C53.3031 117.372 54.0078 117.351 54.5804 117.445C55.153 117.54 55.7829 117.801 56.4243 118.208C56.8133 118.469 57.4943 118.867 58.2996 119.326C59.0155 119.713 59.8326 119.941 60.6102 119.99C61.3878 120.039 62.2944 119.905 63.0458 119.593L64.9894 118.703C65.677 118.38 66.3588 118.191 66.9381 118.154C67.5173 118.117 68.1899 118.226 68.9067 118.478C69.3446 118.645 70.0972 118.872 70.9853 119.137C71.7702 119.353 72.6169 119.388 73.3856 119.26C74.1543 119.133 75.0043 118.79 75.6659 118.316L77.3911 116.996C77.9766 116.512 78.5712 116.184 79.1276 116.019C79.6839 115.854 80.3914 115.806 81.1484 115.873C81.6139 115.926 82.3541 115.983 83.279 116.044C84.0923 116.08 84.986 115.896 85.6999 115.584C86.4138 115.273 87.1645 114.764 87.6902 114.143L89.0166 112.476C89.4814 111.876 90.0065 111.409 90.5062 111.114C91.0058 110.819 91.6554 110.616 92.4089 110.517C92.8748 110.467 93.6464 110.334 94.5589 110.172C95.357 110.011 96.1255 109.663 96.755 109.204C97.3845 108.746 97.9819 108.058 98.3615 107.339L99.3053 105.383C99.6136 104.689 99.9951 104.128 100.42 103.733C100.845 103.338 101.445 102.972 102.154 102.697C102.587 102.542 103.252 102.268 104.087 101.923L104.133 101.904C104.878 101.577 105.582 101.009 106.085 100.415C106.588 99.8206 107.02 99.0227 107.219 98.2343L107.667 96.1487C107.82 95.4053 108.068 94.744 108.387 94.2599C108.706 93.7758 109.191 93.3018 109.824 92.8824C110.221 92.6337 110.837 92.1644 111.585 91.6178C112.231 91.1237 112.798 90.4115 113.145 89.7148C113.492 89.0181 113.741 88.147 113.745 87.3341L113.69 85.2055C113.66 84.4472 113.765 83.753 113.958 83.2063C114.15 82.6597 114.518 82.0864 115.031 81.5266C115.356 81.1895 115.867 80.5908 116.46 79.8791C116.967 79.2429 117.333 78.4801 117.518 77.7243C117.702 76.9685 117.724 76.0542 117.547 75.2606L117.013 73.1579C116.797 72.4303 116.732 71.7558 116.798 71.18C116.864 70.6042 117.083 69.9617 117.458 69.3015C117.699 68.9005 118.044 68.1998 118.462 67.3735Z" fill="url(#paint2_linear)"/>
<g opacity="0.5">
<mask id="path-4-inside-1" fill="white">
<path d="M118.462 67.3735C118.813 66.64 118.99 65.7426 119 64.9646C118.99 64.1867 118.813 63.3603 118.462 62.6268L117.458 60.6985C117.083 60.0383 116.864 59.3961 116.798 58.8203C116.732 58.2445 116.797 57.5697 117.013 56.8421C117.158 56.397 117.327 55.6387 117.548 54.7397C117.724 53.9462 117.702 53.0316 117.518 52.2757C117.333 51.5199 116.967 50.7574 116.46 50.1213L115.031 48.4734C114.518 47.9136 114.151 47.3406 113.958 46.794C113.765 46.2473 113.66 45.5528 113.69 44.7945C113.72 44.3277 113.729 43.5916 113.745 42.6662C113.741 41.8533 113.492 40.9819 113.145 40.2852C112.798 39.5885 112.231 38.8766 111.585 38.3825L109.824 37.1176C109.191 36.6982 108.706 36.2245 108.387 35.7404C108.068 35.2563 107.82 34.5947 107.667 33.8513C107.584 33.3909 107.425 32.6682 107.219 31.766C107.02 30.9776 106.588 30.1794 106.085 29.5853C105.582 28.9912 104.878 28.4228 104.133 28.0962L102.154 27.3027C101.445 27.0282 100.845 26.6624 100.42 26.2675C99.9954 25.8726 99.6136 25.3109 99.3053 24.6172C99.1328 24.2016 98.8027 23.5421 98.409 22.7558L98.3618 22.6614C97.9822 21.9423 97.3845 21.2541 96.755 20.7956C96.1255 20.3372 95.3573 19.9888 94.5591 19.8286L92.4089 19.4834C91.6554 19.3844 91.0061 19.1807 90.5065 18.8857C90.0068 18.5908 89.4814 18.1245 89.0166 17.524C88.7394 17.1469 88.2735 16.5766 87.6905 15.8571C87.1649 15.2363 86.4138 14.7274 85.6999 14.4155C84.986 14.1037 84.0926 13.9201 83.2793 13.9562L81.1484 14.1266C80.3914 14.1937 79.6842 14.1462 79.1279 13.981C78.5716 13.8157 77.9766 13.4884 77.3911 13.0044C77.0379 12.6972 76.4077 12.2395 75.6662 11.6841C75.0046 11.2104 74.1543 10.8667 73.3856 10.7396C72.6169 10.6124 71.7705 10.647 70.9856 10.8628L68.9067 11.5218C68.1899 11.7739 67.5177 11.8826 66.9384 11.846C66.3592 11.8093 65.677 11.6199 64.9894 11.2967C64.5706 11.087 63.8938 10.782 63.0462 10.4074C62.2948 10.0946 61.3878 9.96073 60.6102 10.0099C59.8326 10.0591 59.0159 10.2873 58.3 10.6743L56.4243 11.7916C55.7829 12.1988 55.1533 12.4598 54.5807 12.5545C54.0081 12.6492 53.3031 12.6276 52.5603 12.4673C52.1148 12.3594 51.4101 12.2241 50.5274 12.0547L50.4686 12.0434C49.666 11.9072 48.7588 11.9957 48.0119 12.2176C47.2651 12.4394 46.4602 12.8668 45.8625 13.4188L44.3439 14.9184C43.8093 15.4577 43.2354 15.8687 42.7037 16.101C42.1719 16.3332 41.5046 16.4626 40.7446 16.4698C40.2761 16.4626 39.4981 16.5118 38.5727 16.5638C37.761 16.627 36.8917 16.906 36.221 17.302C35.5503 17.6979 34.9264 18.2661 34.4634 18.9347L33.2971 20.7725C32.908 21.4245 32.4648 21.9404 31.9958 22.2819C31.5269 22.6234 30.8925 22.9229 30.1562 23.1112C29.6996 23.2159 28.9924 23.4181 28.0997 23.6673C27.3206 23.903 26.5598 24.3907 25.9895 24.9208C25.4192 25.4509 24.902 26.1981 24.6108 26.9572L23.9003 29.0053C23.6768 29.7306 23.3615 30.3305 22.9867 30.7731C22.612 31.2156 22.0523 31.6448 21.3815 32.0016C20.9626 32.2112 20.3159 32.5692 19.5076 33.0221C18.8064 33.4351 18.1671 34.0789 17.7388 34.7288C17.3104 35.3786 16.9684 36.2181 16.866 37.0245L16.6672 39.1466C16.6046 39.9029 16.4281 40.5848 16.1698 41.1038C15.9116 41.6228 15.4828 42.1496 14.9048 42.6423C14.541 42.9371 13.9751 43.4737 13.2992 44.107C12.7177 44.676 12.2284 45.4488 11.9695 46.1826C11.7107 46.9165 11.5969 47.7532 11.6731 48.5625L11.9606 50.72C12.0839 51.4688 12.0748 52.1487 11.9372 52.7117C11.7996 53.2747 11.4989 53.9126 11.0594 54.5318C10.779 54.9066 10.3638 55.5187 9.84543 56.2859C9.4048 56.9695 9.12473 57.8382 9.03624 58.6112C8.94775 59.3842 9.01701 60.2931 9.29191 61.0583L10.0742 63.041C10.3626 63.7431 10.5146 64.4083 10.5073 64.9878C10.5 65.5672 10.3626 66.2569 10.0742 66.959C9.8856 67.3872 9.62362 68.0772 9.29189 68.9414C9.01699 69.7065 8.94775 70.6158 9.03624 71.3888C9.12473 72.1618 9.40474 73.0302 9.84538 73.7137L11.0594 75.4682C11.4989 76.0874 11.7996 76.725 11.9372 77.288C12.0747 77.851 12.0839 78.5312 11.9606 79.28C11.8731 79.7396 11.7797 80.5178 11.673 81.4372C11.5968 82.2465 11.7107 83.0835 11.9695 83.8174C12.2284 84.5512 12.7175 85.3237 13.2991 85.8926L14.9048 87.3576C15.4828 87.8504 15.9114 88.3769 16.1697 88.8959C16.428 89.4149 16.6046 90.0971 16.6672 90.8534C16.6941 91.3204 16.769 92.0547 16.8658 92.9752C16.9682 93.7816 17.3104 94.6214 17.7388 95.2712C18.1671 95.9211 18.8062 96.5646 19.5074 96.9776L21.3815 97.9984C22.0523 98.3551 22.6118 98.7841 22.9865 99.2267C23.3613 99.6692 23.6768 100.269 23.9003 100.995C24.0269 101.445 24.2978 102.171 24.6106 103.043C24.9018 103.802 25.4192 104.549 25.9895 105.079C26.5598 105.609 27.3203 106.097 28.0995 106.333L30.1562 106.889C30.8925 107.077 31.5266 107.376 31.9956 107.718C32.4645 108.059 32.908 108.576 33.2971 109.227C33.5268 109.635 33.9525 110.293 34.4631 111.065C34.9261 111.734 35.5503 112.302 36.221 112.698C36.8917 113.094 37.7607 113.373 38.5724 113.436L40.7446 113.53C41.5046 113.537 42.1716 113.667 42.7034 113.899C43.2351 114.131 43.8093 114.542 44.3439 115.082C44.6651 115.422 45.1954 115.938 45.8622 116.581C46.4599 117.133 47.2651 117.561 48.0119 117.782C48.7588 118.004 49.6656 118.093 50.4682 117.957L52.5603 117.533C53.3031 117.372 54.0078 117.351 54.5804 117.445C55.153 117.54 55.7829 117.801 56.4243 118.208C56.8133 118.469 57.4943 118.867 58.2996 119.326C59.0155 119.713 59.8326 119.941 60.6102 119.99C61.3878 120.039 62.2944 119.905 63.0458 119.593L64.9894 118.703C65.677 118.38 66.3588 118.191 66.9381 118.154C67.5173 118.117 68.1899 118.226 68.9067 118.478C69.3446 118.645 70.0972 118.872 70.9853 119.137C71.7702 119.353 72.6169 119.388 73.3856 119.26C74.1543 119.133 75.0043 118.79 75.6659 118.316L77.3911 116.996C77.9766 116.512 78.5712 116.184 79.1276 116.019C79.6839 115.854 80.3914 115.806 81.1484 115.873C81.6139 115.926 82.3541 115.983 83.279 116.044C84.0923 116.08 84.986 115.896 85.6999 115.584C86.4138 115.273 87.1645 114.764 87.6902 114.143L89.0166 112.476C89.4814 111.876 90.0065 111.409 90.5062 111.114C91.0058 110.819 91.6554 110.616 92.4089 110.517C92.8748 110.467 93.6464 110.334 94.5589 110.172C95.357 110.011 96.1255 109.663 96.755 109.204C97.3845 108.746 97.9819 108.058 98.3615 107.339L99.3053 105.383C99.6136 104.689 99.9951 104.128 100.42 103.733C100.845 103.338 101.445 102.972 102.154 102.697C102.587 102.542 103.252 102.268 104.087 101.923L104.133 101.904C104.878 101.577 105.582 101.009 106.085 100.415C106.588 99.8206 107.02 99.0227 107.219 98.2343L107.667 96.1487C107.82 95.4053 108.068 94.744 108.387 94.2599C108.706 93.7758 109.191 93.3018 109.824 92.8824C110.221 92.6337 110.837 92.1644 111.585 91.6178C112.231 91.1237 112.798 90.4115 113.145 89.7148C113.492 89.0181 113.741 88.147 113.745 87.3341L113.69 85.2055C113.66 84.4472 113.765 83.753 113.958 83.2063C114.15 82.6597 114.518 82.0864 115.031 81.5266C115.356 81.1895 115.867 80.5908 116.46 79.8791C116.967 79.2429 117.333 78.4801 117.518 77.7243C117.702 76.9685 117.724 76.0542 117.547 75.2606L117.013 73.1579C116.797 72.4303 116.732 71.7558 116.798 71.18C116.864 70.6042 117.083 69.9617 117.458 69.3015C117.699 68.9005 118.044 68.1998 118.462 67.3735Z"/>
</mask>
<path d="M118.462 67.3735C118.813 66.64 118.99 65.7426 119 64.9646C118.99 64.1867 118.813 63.3603 118.462 62.6268L117.458 60.6985C117.083 60.0383 116.864 59.3961 116.798 58.8203C116.732 58.2445 116.797 57.5697 117.013 56.8421C117.158 56.397 117.327 55.6387 117.548 54.7397C117.724 53.9462 117.702 53.0316 117.518 52.2757C117.333 51.5199 116.967 50.7574 116.46 50.1213L115.031 48.4734C114.518 47.9136 114.151 47.3406 113.958 46.794C113.765 46.2473 113.66 45.5528 113.69 44.7945C113.72 44.3277 113.729 43.5916 113.745 42.6662C113.741 41.8533 113.492 40.9819 113.145 40.2852C112.798 39.5885 112.231 38.8766 111.585 38.3825L109.824 37.1176C109.191 36.6982 108.706 36.2245 108.387 35.7404C108.068 35.2563 107.82 34.5947 107.667 33.8513C107.584 33.3909 107.425 32.6682 107.219 31.766C107.02 30.9776 106.588 30.1794 106.085 29.5853C105.582 28.9912 104.878 28.4228 104.133 28.0962L102.154 27.3027C101.445 27.0282 100.845 26.6624 100.42 26.2675C99.9954 25.8726 99.6136 25.3109 99.3053 24.6172C99.1328 24.2016 98.8027 23.5421 98.409 22.7558L98.3618 22.6614C97.9822 21.9423 97.3845 21.2541 96.755 20.7956C96.1255 20.3372 95.3573 19.9888 94.5591 19.8286L92.4089 19.4834C91.6554 19.3844 91.0061 19.1807 90.5065 18.8857C90.0068 18.5908 89.4814 18.1245 89.0166 17.524C88.7394 17.1469 88.2735 16.5766 87.6905 15.8571C87.1649 15.2363 86.4138 14.7274 85.6999 14.4155C84.986 14.1037 84.0926 13.9201 83.2793 13.9562L81.1484 14.1266C80.3914 14.1937 79.6842 14.1462 79.1279 13.981C78.5716 13.8157 77.9766 13.4884 77.3911 13.0044C77.0379 12.6972 76.4077 12.2395 75.6662 11.6841C75.0046 11.2104 74.1543 10.8667 73.3856 10.7396C72.6169 10.6124 71.7705 10.647 70.9856 10.8628L68.9067 11.5218C68.1899 11.7739 67.5177 11.8826 66.9384 11.846C66.3592 11.8093 65.677 11.6199 64.9894 11.2967C64.5706 11.087 63.8938 10.782 63.0462 10.4074C62.2948 10.0946 61.3878 9.96073 60.6102 10.0099C59.8326 10.0591 59.0159 10.2873 58.3 10.6743L56.4243 11.7916C55.7829 12.1988 55.1533 12.4598 54.5807 12.5545C54.0081 12.6492 53.3031 12.6276 52.5603 12.4673C52.1148 12.3594 51.4101 12.2241 50.5274 12.0547L50.4686 12.0434C49.666 11.9072 48.7588 11.9957 48.0119 12.2176C47.2651 12.4394 46.4602 12.8668 45.8625 13.4188L44.3439 14.9184C43.8093 15.4577 43.2354 15.8687 42.7037 16.101C42.1719 16.3332 41.5046 16.4626 40.7446 16.4698C40.2761 16.4626 39.4981 16.5118 38.5727 16.5638C37.761 16.627 36.8917 16.906 36.221 17.302C35.5503 17.6979 34.9264 18.2661 34.4634 18.9347L33.2971 20.7725C32.908 21.4245 32.4648 21.9404 31.9958 22.2819C31.5269 22.6234 30.8925 22.9229 30.1562 23.1112C29.6996 23.2159 28.9924 23.4181 28.0997 23.6673C27.3206 23.903 26.5598 24.3907 25.9895 24.9208C25.4192 25.4509 24.902 26.1981 24.6108 26.9572L23.9003 29.0053C23.6768 29.7306 23.3615 30.3305 22.9867 30.7731C22.612 31.2156 22.0523 31.6448 21.3815 32.0016C20.9626 32.2112 20.3159 32.5692 19.5076 33.0221C18.8064 33.4351 18.1671 34.0789 17.7388 34.7288C17.3104 35.3786 16.9684 36.2181 16.866 37.0245L16.6672 39.1466C16.6046 39.9029 16.4281 40.5848 16.1698 41.1038C15.9116 41.6228 15.4828 42.1496 14.9048 42.6423C14.541 42.9371 13.9751 43.4737 13.2992 44.107C12.7177 44.676 12.2284 45.4488 11.9695 46.1826C11.7107 46.9165 11.5969 47.7532 11.6731 48.5625L11.9606 50.72C12.0839 51.4688 12.0748 52.1487 11.9372 52.7117C11.7996 53.2747 11.4989 53.9126 11.0594 54.5318C10.779 54.9066 10.3638 55.5187 9.84543 56.2859C9.4048 56.9695 9.12473 57.8382 9.03624 58.6112C8.94775 59.3842 9.01701 60.2931 9.29191 61.0583L10.0742 63.041C10.3626 63.7431 10.5146 64.4083 10.5073 64.9878C10.5 65.5672 10.3626 66.2569 10.0742 66.959C9.8856 67.3872 9.62362 68.0772 9.29189 68.9414C9.01699 69.7065 8.94775 70.6158 9.03624 71.3888C9.12473 72.1618 9.40474 73.0302 9.84538 73.7137L11.0594 75.4682C11.4989 76.0874 11.7996 76.725 11.9372 77.288C12.0747 77.851 12.0839 78.5312 11.9606 79.28C11.8731 79.7396 11.7797 80.5178 11.673 81.4372C11.5968 82.2465 11.7107 83.0835 11.9695 83.8174C12.2284 84.5512 12.7175 85.3237 13.2991 85.8926L14.9048 87.3576C15.4828 87.8504 15.9114 88.3769 16.1697 88.8959C16.428 89.4149 16.6046 90.0971 16.6672 90.8534C16.6941 91.3204 16.769 92.0547 16.8658 92.9752C16.9682 93.7816 17.3104 94.6214 17.7388 95.2712C18.1671 95.9211 18.8062 96.5646 19.5074 96.9776L21.3815 97.9984C22.0523 98.3551 22.6118 98.7841 22.9865 99.2267C23.3613 99.6692 23.6768 100.269 23.9003 100.995C24.0269 101.445 24.2978 102.171 24.6106 103.043C24.9018 103.802 25.4192 104.549 25.9895 105.079C26.5598 105.609 27.3203 106.097 28.0995 106.333L30.1562 106.889C30.8925 107.077 31.5266 107.376 31.9956 107.718C32.4645 108.059 32.908 108.576 33.2971 109.227C33.5268 109.635 33.9525 110.293 34.4631 111.065C34.9261 111.734 35.5503 112.302 36.221 112.698C36.8917 113.094 37.7607 113.373 38.5724 113.436L40.7446 113.53C41.5046 113.537 42.1716 113.667 42.7034 113.899C43.2351 114.131 43.8093 114.542 44.3439 115.082C44.6651 115.422 45.1954 115.938 45.8622 116.581C46.4599 117.133 47.2651 117.561 48.0119 117.782C48.7588 118.004 49.6656 118.093 50.4682 117.957L52.5603 117.533C53.3031 117.372 54.0078 117.351 54.5804 117.445C55.153 117.54 55.7829 117.801 56.4243 118.208C56.8133 118.469 57.4943 118.867 58.2996 119.326C59.0155 119.713 59.8326 119.941 60.6102 119.99C61.3878 120.039 62.2944 119.905 63.0458 119.593L64.9894 118.703C65.677 118.38 66.3588 118.191 66.9381 118.154C67.5173 118.117 68.1899 118.226 68.9067 118.478C69.3446 118.645 70.0972 118.872 70.9853 119.137C71.7702 119.353 72.6169 119.388 73.3856 119.26C74.1543 119.133 75.0043 118.79 75.6659 118.316L77.3911 116.996C77.9766 116.512 78.5712 116.184 79.1276 116.019C79.6839 115.854 80.3914 115.806 81.1484 115.873C81.6139 115.926 82.3541 115.983 83.279 116.044C84.0923 116.08 84.986 115.896 85.6999 115.584C86.4138 115.273 87.1645 114.764 87.6902 114.143L89.0166 112.476C89.4814 111.876 90.0065 111.409 90.5062 111.114C91.0058 110.819 91.6554 110.616 92.4089 110.517C92.8748 110.467 93.6464 110.334 94.5589 110.172C95.357 110.011 96.1255 109.663 96.755 109.204C97.3845 108.746 97.9819 108.058 98.3615 107.339L99.3053 105.383C99.6136 104.689 99.9951 104.128 100.42 103.733C100.845 103.338 101.445 102.972 102.154 102.697C102.587 102.542 103.252 102.268 104.087 101.923L104.133 101.904C104.878 101.577 105.582 101.009 106.085 100.415C106.588 99.8206 107.02 99.0227 107.219 98.2343L107.667 96.1487C107.82 95.4053 108.068 94.744 108.387 94.2599C108.706 93.7758 109.191 93.3018 109.824 92.8824C110.221 92.6337 110.837 92.1644 111.585 91.6178C112.231 91.1237 112.798 90.4115 113.145 89.7148C113.492 89.0181 113.741 88.147 113.745 87.3341L113.69 85.2055C113.66 84.4472 113.765 83.753 113.958 83.2063C114.15 82.6597 114.518 82.0864 115.031 81.5266C115.356 81.1895 115.867 80.5908 116.46 79.8791C116.967 79.2429 117.333 78.4801 117.518 77.7243C117.702 76.9685 117.724 76.0542 117.547 75.2606L117.013 73.1579C116.797 72.4303 116.732 71.7558 116.798 71.18C116.864 70.6042 117.083 69.9617 117.458 69.3015C117.699 68.9005 118.044 68.1998 118.462 67.3735Z" stroke="#0E141F" stroke-opacity="0.75" stroke-width="2" mask="url(#path-4-inside-1)"/>
</g>
<g opacity="0.5">
<mask id="path-5-inside-2" fill="white">
<path d="M117.471 67.3304C117.816 66.6102 117.99 65.7291 118 64.9653C117.99 64.2015 117.816 63.3901 117.471 62.67L116.486 60.7767C116.118 60.1285 115.903 59.498 115.838 58.9327C115.774 58.3674 115.837 57.7048 116.049 56.9904C116.191 56.5535 116.358 55.8089 116.574 54.9263C116.747 54.1471 116.726 53.2492 116.545 52.5071C116.363 51.765 116.004 51.0164 115.506 50.3918L114.104 48.7739C113.6 48.2242 113.239 47.6617 113.049 47.125C112.86 46.5883 112.757 45.9064 112.787 45.1619C112.816 44.7036 112.825 43.9808 112.841 43.0723C112.837 42.2742 112.592 41.4186 112.252 40.7346C111.911 40.0505 111.354 39.3516 110.72 38.8665L108.991 37.6245C108.369 37.2128 107.894 36.7477 107.58 36.2724C107.267 35.7971 107.023 35.1475 106.873 34.4177C106.791 33.9656 106.636 33.2561 106.433 32.3702C106.238 31.5962 105.814 30.8125 105.32 30.2292C104.826 29.6459 104.135 29.0879 103.403 28.7672L101.46 27.9881C100.764 27.7186 100.175 27.3594 99.758 26.9717C99.3409 26.584 98.9661 26.0325 98.6634 25.3515C98.494 24.9435 98.17 24.2961 97.7836 23.5243L97.737 23.4312C97.3643 22.7251 96.7775 22.0495 96.1594 21.5994C95.5414 21.1492 94.7871 20.8072 94.0035 20.6499L91.8924 20.3109C91.1526 20.2138 90.5151 20.0138 90.0245 19.7242C89.534 19.4346 89.0181 18.9768 88.5617 18.3872C88.2896 18.017 87.8322 17.457 87.2598 16.7506C86.7437 16.1411 86.0062 15.6414 85.3054 15.3353C84.6045 15.0291 83.7273 14.8488 82.9288 14.8843L80.8366 15.0516C80.0933 15.1175 79.399 15.0708 78.8528 14.9086C78.3066 14.7464 77.7225 14.425 77.1477 13.9498C76.8008 13.6482 76.1821 13.1988 75.4541 12.6534C74.8045 12.1883 73.9697 11.851 73.2149 11.7261C72.4602 11.6013 71.6293 11.6352 70.8586 11.8471L68.8175 12.4941C68.1137 12.7416 67.4537 12.8484 66.885 12.8124C66.3163 12.7764 65.6465 12.5905 64.9714 12.2732C64.5602 12.0673 63.8957 11.7678 63.0635 11.4C62.3258 11.0928 61.4353 10.9614 60.6719 11.0097C59.9084 11.0581 59.1065 11.282 58.4036 11.6621L56.5621 12.759C55.9323 13.1588 55.3142 13.4151 54.752 13.5081C54.1898 13.6011 53.4976 13.5799 52.7682 13.4224C52.3309 13.3165 51.6389 13.1837 50.7722 13.0173L50.7146 13.0062C49.9266 12.8725 49.0359 12.9594 48.3026 13.1772C47.5694 13.395 46.7791 13.8147 46.1923 14.3566L44.7013 15.8289C44.1764 16.3585 43.613 16.762 43.0909 16.99C42.5688 17.2181 41.9136 17.3451 41.1674 17.3522C40.7075 17.3451 39.9436 17.3934 39.035 17.4445C38.2381 17.5065 37.3846 17.7805 36.7261 18.1692C36.0676 18.558 35.455 19.1158 35.0004 19.7722L33.8553 21.5767C33.4733 22.2168 33.0381 22.7233 32.5777 23.0586C32.1173 23.3939 31.4945 23.6879 30.7716 23.8728C30.3233 23.9756 29.6289 24.1741 28.7525 24.4188C27.9875 24.6502 27.2405 25.129 26.6806 25.6495C26.1207 26.17 25.6129 26.9036 25.327 27.6489L24.6294 29.6597C24.41 30.3719 24.1004 30.9609 23.7324 31.3954C23.3645 31.8299 22.815 32.2513 22.1563 32.6016C21.7451 32.8073 21.1102 33.1588 20.3165 33.6035C19.6281 34.009 19.0005 34.6411 18.5799 35.2791C18.1593 35.9172 17.8235 36.7414 17.7229 37.5331L17.5278 39.6166C17.4663 40.3592 17.2931 41.0287 17.0395 41.5382C16.7859 42.0478 16.3649 42.565 15.7974 43.0489C15.4402 43.3383 14.8846 43.8651 14.221 44.4869C13.6501 45.0455 13.1697 45.8043 12.9155 46.5248C12.6614 47.2453 12.5497 48.0668 12.6245 48.8614L12.9068 50.9796C13.0279 51.7148 13.0189 52.3823 12.8838 52.9351C12.7487 53.4879 12.4534 54.1142 12.0219 54.7221C11.7467 55.0901 11.339 55.6911 10.8301 56.4444C10.3974 57.1155 10.1225 57.9685 10.0356 58.7274C9.9487 59.4863 10.0167 60.3787 10.2866 61.1299L11.0546 63.0766C11.3378 63.766 11.4871 64.419 11.4799 64.988C11.4727 65.5569 11.3378 66.234 11.0546 66.9234C10.8695 67.3438 10.6123 68.0212 10.2866 68.8697C10.0167 69.621 9.9487 70.5137 10.0356 71.2726C10.1225 72.0315 10.3974 72.8842 10.83 73.5553L12.0219 75.2779C12.4534 75.8858 12.7487 76.5118 12.8837 77.0646C13.0188 77.6174 13.0279 78.2851 12.9068 79.0204C12.8208 79.4716 12.7292 80.2357 12.6244 81.1383C12.5496 81.9329 12.6614 82.7547 12.9155 83.4752C13.1697 84.1957 13.65 84.9542 14.2209 85.5128L15.7974 86.9511C16.3649 87.435 16.7857 87.9519 17.0393 88.4615C17.2929 88.971 17.4663 89.6408 17.5278 90.3834C17.5542 90.8419 17.6277 91.5628 17.7228 92.4666C17.8234 93.2583 18.1593 94.0828 18.5799 94.7209C19.0005 95.3589 19.6279 95.9907 20.3163 96.3962L22.1563 97.3984C22.815 97.7487 23.3643 98.1699 23.7322 98.6044C24.1001 99.0389 24.4099 99.6281 24.6294 100.34C24.7537 100.782 25.0197 101.495 25.3268 102.351C25.6126 103.096 26.1207 103.83 26.6806 104.35C27.2405 104.871 27.9872 105.35 28.7522 105.581L30.7716 106.127C31.4945 106.312 32.1171 106.606 32.5775 106.941C33.0379 107.276 33.4733 107.783 33.8553 108.423C34.0808 108.824 34.4988 109.469 35.0001 110.228C35.4548 110.884 36.0676 111.442 36.7261 111.831C37.3846 112.22 38.2378 112.493 39.0347 112.555L41.1674 112.648C41.9136 112.655 42.5685 112.782 43.0906 113.01C43.6127 113.238 44.1764 113.641 44.7013 114.171C45.0166 114.505 45.5373 115.012 46.192 115.643C46.7788 116.185 47.5694 116.605 48.3026 116.823C49.0359 117.041 49.9263 117.127 50.7143 116.994L52.7682 116.578C53.4976 116.42 54.1895 116.399 54.7516 116.492C55.3138 116.585 55.9323 116.841 56.5621 117.241C56.944 117.497 57.6126 117.888 58.4033 118.338C59.1061 118.718 59.9084 118.942 60.6719 118.99C61.4353 119.039 62.3254 118.907 63.0632 118.6L64.9714 117.727C65.6465 117.41 66.3159 117.224 66.8847 117.188C67.4534 117.152 68.1137 117.258 68.8175 117.506C69.2474 117.669 69.9863 117.893 70.8583 118.153C71.6289 118.365 72.4602 118.399 73.2149 118.274C73.9697 118.149 74.8042 117.812 75.4538 117.347L77.1477 116.05C77.7225 115.575 78.3063 115.254 78.8525 115.092C79.3987 114.929 80.0933 114.882 80.8366 114.948C81.2936 115 82.0204 115.056 82.9285 115.116C83.727 115.151 84.6045 114.971 85.3054 114.665C86.0062 114.359 86.7434 113.859 87.2594 113.25L88.5617 111.613C89.0181 111.023 89.5337 110.566 90.0242 110.276C90.5148 109.986 91.1526 109.786 91.8924 109.689C92.3498 109.641 93.1074 109.51 94.0032 109.35C94.7869 109.193 95.5414 108.851 96.1594 108.401C96.7775 107.951 97.364 107.275 97.7367 106.569L98.6634 104.649C98.9661 103.967 99.3407 103.416 99.7578 103.029C100.175 102.641 100.764 102.281 101.46 102.012C101.885 101.859 102.538 101.59 103.358 101.252L103.403 101.233C104.135 100.912 104.826 100.354 105.32 99.7708C105.814 99.1875 106.238 98.4041 106.433 97.63L106.873 95.5823C107.023 94.8525 107.267 94.2032 107.58 93.7279C107.893 93.2526 108.369 92.7872 108.991 92.3755C109.381 92.1313 109.985 91.6705 110.72 91.1338C111.354 90.6487 111.911 89.9495 112.252 89.2654C112.592 88.5814 112.837 87.7261 112.84 86.928L112.787 84.8381C112.757 84.0936 112.86 83.412 113.049 82.8753C113.239 82.3386 113.6 81.7758 114.104 81.2261C114.423 80.8952 114.924 80.3073 115.506 79.6085C116.004 78.984 116.363 78.235 116.545 77.4929C116.726 76.7508 116.747 75.8532 116.574 75.074L116.049 73.0096C115.837 72.2952 115.774 71.633 115.838 71.0676C115.903 70.5023 116.118 69.8715 116.486 69.2233C116.723 68.8296 117.061 68.1416 117.471 67.3304Z"/>
</mask>
<path d="M117.471 67.3304C117.816 66.6102 117.99 65.7291 118 64.9653C117.99 64.2015 117.816 63.3901 117.471 62.67L116.486 60.7767C116.118 60.1285 115.903 59.498 115.838 58.9327C115.774 58.3674 115.837 57.7048 116.049 56.9904C116.191 56.5535 116.358 55.8089 116.574 54.9263C116.747 54.1471 116.726 53.2492 116.545 52.5071C116.363 51.765 116.004 51.0164 115.506 50.3918L114.104 48.7739C113.6 48.2242 113.239 47.6617 113.049 47.125C112.86 46.5883 112.757 45.9064 112.787 45.1619C112.816 44.7036 112.825 43.9808 112.841 43.0723C112.837 42.2742 112.592 41.4186 112.252 40.7346C111.911 40.0505 111.354 39.3516 110.72 38.8665L108.991 37.6245C108.369 37.2128 107.894 36.7477 107.58 36.2724C107.267 35.7971 107.023 35.1475 106.873 34.4177C106.791 33.9656 106.636 33.2561 106.433 32.3702C106.238 31.5962 105.814 30.8125 105.32 30.2292C104.826 29.6459 104.135 29.0879 103.403 28.7672L101.46 27.9881C100.764 27.7186 100.175 27.3594 99.758 26.9717C99.3409 26.584 98.9661 26.0325 98.6634 25.3515C98.494 24.9435 98.17 24.2961 97.7836 23.5243L97.737 23.4312C97.3643 22.7251 96.7775 22.0495 96.1594 21.5994C95.5414 21.1492 94.7871 20.8072 94.0035 20.6499L91.8924 20.3109C91.1526 20.2138 90.5151 20.0138 90.0245 19.7242C89.534 19.4346 89.0181 18.9768 88.5617 18.3872C88.2896 18.017 87.8322 17.457 87.2598 16.7506C86.7437 16.1411 86.0062 15.6414 85.3054 15.3353C84.6045 15.0291 83.7273 14.8488 82.9288 14.8843L80.8366 15.0516C80.0933 15.1175 79.399 15.0708 78.8528 14.9086C78.3066 14.7464 77.7225 14.425 77.1477 13.9498C76.8008 13.6482 76.1821 13.1988 75.4541 12.6534C74.8045 12.1883 73.9697 11.851 73.2149 11.7261C72.4602 11.6013 71.6293 11.6352 70.8586 11.8471L68.8175 12.4941C68.1137 12.7416 67.4537 12.8484 66.885 12.8124C66.3163 12.7764 65.6465 12.5905 64.9714 12.2732C64.5602 12.0673 63.8957 11.7678 63.0635 11.4C62.3258 11.0928 61.4353 10.9614 60.6719 11.0097C59.9084 11.0581 59.1065 11.282 58.4036 11.6621L56.5621 12.759C55.9323 13.1588 55.3142 13.4151 54.752 13.5081C54.1898 13.6011 53.4976 13.5799 52.7682 13.4224C52.3309 13.3165 51.6389 13.1837 50.7722 13.0173L50.7146 13.0062C49.9266 12.8725 49.0359 12.9594 48.3026 13.1772C47.5694 13.395 46.7791 13.8147 46.1923 14.3566L44.7013 15.8289C44.1764 16.3585 43.613 16.762 43.0909 16.99C42.5688 17.2181 41.9136 17.3451 41.1674 17.3522C40.7075 17.3451 39.9436 17.3934 39.035 17.4445C38.2381 17.5065 37.3846 17.7805 36.7261 18.1692C36.0676 18.558 35.455 19.1158 35.0004 19.7722L33.8553 21.5767C33.4733 22.2168 33.0381 22.7233 32.5777 23.0586C32.1173 23.3939 31.4945 23.6879 30.7716 23.8728C30.3233 23.9756 29.6289 24.1741 28.7525 24.4188C27.9875 24.6502 27.2405 25.129 26.6806 25.6495C26.1207 26.17 25.6129 26.9036 25.327 27.6489L24.6294 29.6597C24.41 30.3719 24.1004 30.9609 23.7324 31.3954C23.3645 31.8299 22.815 32.2513 22.1563 32.6016C21.7451 32.8073 21.1102 33.1588 20.3165 33.6035C19.6281 34.009 19.0005 34.6411 18.5799 35.2791C18.1593 35.9172 17.8235 36.7414 17.7229 37.5331L17.5278 39.6166C17.4663 40.3592 17.2931 41.0287 17.0395 41.5382C16.7859 42.0478 16.3649 42.565 15.7974 43.0489C15.4402 43.3383 14.8846 43.8651 14.221 44.4869C13.6501 45.0455 13.1697 45.8043 12.9155 46.5248C12.6614 47.2453 12.5497 48.0668 12.6245 48.8614L12.9068 50.9796C13.0279 51.7148 13.0189 52.3823 12.8838 52.9351C12.7487 53.4879 12.4534 54.1142 12.0219 54.7221C11.7467 55.0901 11.339 55.6911 10.8301 56.4444C10.3974 57.1155 10.1225 57.9685 10.0356 58.7274C9.9487 59.4863 10.0167 60.3787 10.2866 61.1299L11.0546 63.0766C11.3378 63.766 11.4871 64.419 11.4799 64.988C11.4727 65.5569 11.3378 66.234 11.0546 66.9234C10.8695 67.3438 10.6123 68.0212 10.2866 68.8697C10.0167 69.621 9.9487 70.5137 10.0356 71.2726C10.1225 72.0315 10.3974 72.8842 10.83 73.5553L12.0219 75.2779C12.4534 75.8858 12.7487 76.5118 12.8837 77.0646C13.0188 77.6174 13.0279 78.2851 12.9068 79.0204C12.8208 79.4716 12.7292 80.2357 12.6244 81.1383C12.5496 81.9329 12.6614 82.7547 12.9155 83.4752C13.1697 84.1957 13.65 84.9542 14.2209 85.5128L15.7974 86.9511C16.3649 87.435 16.7857 87.9519 17.0393 88.4615C17.2929 88.971 17.4663 89.6408 17.5278 90.3834C17.5542 90.8419 17.6277 91.5628 17.7228 92.4666C17.8234 93.2583 18.1593 94.0828 18.5799 94.7209C19.0005 95.3589 19.6279 95.9907 20.3163 96.3962L22.1563 97.3984C22.815 97.7487 23.3643 98.1699 23.7322 98.6044C24.1001 99.0389 24.4099 99.6281 24.6294 100.34C24.7537 100.782 25.0197 101.495 25.3268 102.351C25.6126 103.096 26.1207 103.83 26.6806 104.35C27.2405 104.871 27.9872 105.35 28.7522 105.581L30.7716 106.127C31.4945 106.312 32.1171 106.606 32.5775 106.941C33.0379 107.276 33.4733 107.783 33.8553 108.423C34.0808 108.824 34.4988 109.469 35.0001 110.228C35.4548 110.884 36.0676 111.442 36.7261 111.831C37.3846 112.22 38.2378 112.493 39.0347 112.555L41.1674 112.648C41.9136 112.655 42.5685 112.782 43.0906 113.01C43.6127 113.238 44.1764 113.641 44.7013 114.171C45.0166 114.505 45.5373 115.012 46.192 115.643C46.7788 116.185 47.5694 116.605 48.3026 116.823C49.0359 117.041 49.9263 117.127 50.7143 116.994L52.7682 116.578C53.4976 116.42 54.1895 116.399 54.7516 116.492C55.3138 116.585 55.9323 116.841 56.5621 117.241C56.944 117.497 57.6126 117.888 58.4033 118.338C59.1061 118.718 59.9084 118.942 60.6719 118.99C61.4353 119.039 62.3254 118.907 63.0632 118.6L64.9714 117.727C65.6465 117.41 66.3159 117.224 66.8847 117.188C67.4534 117.152 68.1137 117.258 68.8175 117.506C69.2474 117.669 69.9863 117.893 70.8583 118.153C71.6289 118.365 72.4602 118.399 73.2149 118.274C73.9697 118.149 74.8042 117.812 75.4538 117.347L77.1477 116.05C77.7225 115.575 78.3063 115.254 78.8525 115.092C79.3987 114.929 80.0933 114.882 80.8366 114.948C81.2936 115 82.0204 115.056 82.9285 115.116C83.727 115.151 84.6045 114.971 85.3054 114.665C86.0062 114.359 86.7434 113.859 87.2594 113.25L88.5617 111.613C89.0181 111.023 89.5337 110.566 90.0242 110.276C90.5148 109.986 91.1526 109.786 91.8924 109.689C92.3498 109.641 93.1074 109.51 94.0032 109.35C94.7869 109.193 95.5414 108.851 96.1594 108.401C96.7775 107.951 97.364 107.275 97.7367 106.569L98.6634 104.649C98.9661 103.967 99.3407 103.416 99.7578 103.029C100.175 102.641 100.764 102.281 101.46 102.012C101.885 101.859 102.538 101.59 103.358 101.252L103.403 101.233C104.135 100.912 104.826 100.354 105.32 99.7708C105.814 99.1875 106.238 98.4041 106.433 97.63L106.873 95.5823C107.023 94.8525 107.267 94.2032 107.58 93.7279C107.893 93.2526 108.369 92.7872 108.991 92.3755C109.381 92.1313 109.985 91.6705 110.72 91.1338C111.354 90.6487 111.911 89.9495 112.252 89.2654C112.592 88.5814 112.837 87.7261 112.84 86.928L112.787 84.8381C112.757 84.0936 112.86 83.412 113.049 82.8753C113.239 82.3386 113.6 81.7758 114.104 81.2261C114.423 80.8952 114.924 80.3073 115.506 79.6085C116.004 78.984 116.363 78.235 116.545 77.4929C116.726 76.7508 116.747 75.8532 116.574 75.074L116.049 73.0096C115.837 72.2952 115.774 71.633 115.838 71.0676C115.903 70.5023 116.118 69.8715 116.486 69.2233C116.723 68.8296 117.061 68.1416 117.471 67.3304Z" stroke="url(#paint3_linear)" stroke-width="2" stroke-linecap="round" stroke-linejoin="round" mask="url(#path-5-inside-2)"/>
</g>
<path d="M54.4831 27.8791L50.4922 35.5905L47.1158 37.3055L43.2825 29.7374L37.516 37.1878V47.5337L34.6809 49.9803L28.1777 44.5704L27.0697 54.6136L31.6376 63.2438L29.591 67.304L23 65.067L26.3287 74.0245L33.2983 78.1882L36.2672 82.4775L28.3718 85.6001L36.2672 91.784L45.5071 91.9828L48.9341 94.8002L43.4911 100.642L53.2631 101.943L59.4528 98.4362L64.9842 97.7493L64.0395 106L73.069 102.464L77.6269 94.6345L81.1791 93.2725L84.6072 100.56L90.5226 93.0823V83.6336L92.87 80.408L99.3906 85.4256L100.694 75.4199L96.1811 67.8423V63.2441L105 65.1601L100.956 55.5998L94.2639 52.1319L91.9489 47.9393L99.4194 44.4247L91.9489 38.5188H83.0847L79.5042 35.5905L84.52 29.3459L74.3911 28.0586L67.2839 32.5855L63.3789 32.3904L63.5894 24L54.4831 27.8791Z" fill="url(#paint4_linear)"/>
<path opacity="0.5" d="M50.7186 36.0363C50.812 35.9888 50.8881 35.9133 50.9362 35.8203L54.8445 28.2686L63.07 24.7647L62.879 32.3779C62.8722 32.6491 63.083 32.8763 63.3539 32.8898L67.259 33.0849C67.3625 33.0901 67.4651 33.063 67.5525 33.0073L74.5074 28.5774L83.5708 29.7293L79.1144 35.2774C78.9425 35.4913 78.9752 35.8038 79.1876 35.9775L82.7682 38.9059C82.8575 38.9789 82.9693 39.0188 83.0847 39.0188H91.7751L98.4757 44.316L91.736 47.4869C91.6109 47.5457 91.5158 47.6537 91.4732 47.7852C91.4306 47.9167 91.4444 48.06 91.5112 48.181L93.8262 52.3736C93.8739 52.46 93.9462 52.5304 94.0339 52.5758L100.566 55.9608L104.164 64.4667L96.2872 62.7555C96.1394 62.7234 95.985 62.7599 95.8673 62.8549C95.7495 62.9498 95.6811 63.0929 95.6811 63.2441V67.8423C95.6811 67.9324 95.7054 68.0208 95.7515 68.0982L100.176 75.527L99.007 84.4995L93.1749 80.0117C93.068 79.9294 92.9324 79.8939 92.7988 79.9131C92.6652 79.9323 92.5451 80.0047 92.4657 80.1138L90.1183 83.3394C90.0561 83.4249 90.0226 83.5279 90.0226 83.6336V92.9085L84.716 99.6169L81.6315 93.0597C81.5201 92.8227 81.2446 92.7119 81.0001 92.8056L77.4479 94.1676C77.3415 94.2085 77.2522 94.2844 77.1948 94.383L72.7245 102.062L64.6308 105.232L65.481 97.8061C65.4984 97.6538 65.445 97.5019 65.3361 97.394C65.2272 97.2861 65.0748 97.2342 64.9226 97.2531L59.3912 97.94C59.3262 97.9481 59.2634 97.9689 59.2064 98.0012L53.1627 101.425L44.5172 100.275L49.2999 95.141C49.394 95.04 49.4422 94.9047 49.433 94.767C49.4239 94.6293 49.3582 94.5015 49.2516 94.4139L45.8246 91.5965C45.738 91.5253 45.6299 91.4853 45.5178 91.4829L36.4444 91.2877L29.3668 85.7443L36.4511 82.9425C36.5929 82.8864 36.7014 82.7686 36.7457 82.6226C36.7899 82.4766 36.7651 82.3184 36.6783 82.193L33.7094 77.9037C33.6687 77.845 33.616 77.7956 33.5547 77.759L26.7361 73.6855L23.8349 65.8784L29.4303 67.7775C29.6663 67.8576 29.9253 67.7516 30.0375 67.529L32.0841 63.4689C32.157 63.3242 32.1553 63.1531 32.0795 63.0099L27.5835 54.5156L28.5727 45.5494L34.3612 50.3647C34.5491 50.5211 34.8225 50.5186 35.0076 50.3589L37.8427 47.9122C37.9527 47.8172 38.016 47.6791 38.016 47.5337V37.3587L43.1938 30.6689L46.6697 37.5315C46.7297 37.6498 46.8343 37.7395 46.9604 37.7808C47.0866 37.822 47.2239 37.8114 47.3422 37.7513L50.7186 36.0363Z" stroke="url(#paint5_linear)" stroke-linecap="round" stroke-linejoin="round"/>
<path d="M50.1221 35.2176L47.3357 36.633L43.7285 29.5115L43.3712 28.8059L42.8871 29.4313L37.1206 36.8817L37.016 37.0169V37.1878V47.3047L34.675 49.325L28.4975 44.1861L27.7827 43.5915L27.6807 44.5156L26.5727 54.5588L26.5558 54.7116L26.6278 54.8475L31.0748 63.2494L29.3401 66.6908L23.1607 64.5935L22.1651 64.2556L22.5313 65.2412L25.86 74.1987L25.9213 74.3635L26.0722 74.4537L32.9488 78.5619L35.4976 82.2442L28.1879 85.1352L27.3768 85.456L28.0635 85.9938L35.9589 92.1776L36.09 92.2803L36.2564 92.2839L45.3232 92.479L48.2056 94.8486L43.1253 100.302L42.4651 101.01L43.4252 101.138L53.1972 102.439L53.3636 102.461L53.5096 102.378L59.613 98.9202L64.4152 98.3238L63.5428 105.943L63.4483 106.768L64.2219 106.466L73.2513 102.93L73.4135 102.866L73.5011 102.716L77.9704 95.0383L80.9244 93.9057L84.1548 100.773L84.4985 101.504L84.9994 100.871L90.9147 93.3925L91.0226 93.2562V93.0823V83.7963L92.9721 81.1174L99.0857 85.8219L99.7742 86.3517L99.8864 85.4902L101.19 75.4845L101.212 75.3128L101.124 75.164L96.6811 67.7047V63.8644L104.894 65.6487L105.836 65.8534L105.46 64.9653L101.417 55.4051L101.346 55.2389L101.186 55.1559L94.6284 51.7576L92.6445 48.1646L99.6322 44.8771L100.363 44.5333L99.7295 44.0324L92.259 38.1266L92.1226 38.0188H91.9489H83.2632L80.2044 35.5172L84.9098 29.659L85.4693 28.9625L84.5831 28.8499L74.4542 27.5626L74.2749 27.5398L74.1225 27.6369L67.1497 32.0782L63.8909 31.9154L64.0892 24.0125L64.1087 23.2353L63.3934 23.54L54.2872 27.4191L54.1217 27.4896L54.0391 27.6493L50.1221 35.2176Z" stroke="black" stroke-opacity="0.8"/>
<path d="M87 65C87 52.3094 76.6906 42 64 42C51.3094 42 41 52.3094 41 65C41 77.6906 51.3094 88 64 88C76.6906 88 87 77.6906 87 65Z" fill="url(#paint6_linear)"/>
<path d="M64 41.5C51.0333 41.5 40.5 52.0333 40.5 65C40.5 77.9668 51.0333 88.5 64 88.5C76.9667 88.5 87.5 77.9668 87.5 65C87.5 52.0333 76.9667 41.5 64 41.5Z" stroke="black" stroke-opacity="0.8"/>
<path opacity="0.5" d="M86.5 65C86.5 77.4264 76.4264 87.5 64 87.5C51.5736 87.5 41.5 77.4264 41.5 65C41.5 52.5736 51.5736 42.5 64 42.5C76.4264 42.5 86.5 52.5736 86.5 65Z" stroke="url(#paint7_linear)" stroke-linecap="round" stroke-linejoin="round"/>
<g filter="url(#filter0_d)">
<circle cx="64" cy="37.5733" r="1.75896" fill="#C4C4C4"/>
<circle cx="64" cy="37.5733" r="1.25896" stroke="url(#paint8_linear)"/>
</g>
<g filter="url(#filter1_d)">
<circle cx="63.9933" cy="45.9219" r="1" fill="url(#paint9_linear)"/>
</g>
<g filter="url(#filter2_d)">
<circle cx="64" cy="84.3231" r="1" fill="url(#paint10_linear)"/>
</g>
<g filter="url(#filter3_d)">
<circle cx="56.2647" cy="82.3231" r="1" fill="url(#paint11_linear)"/>
</g>
<g filter="url(#filter4_d)">
<circle cx="71.2533" cy="82.3231" r="1" fill="url(#paint12_linear)"/>
</g>
<g filter="url(#filter5_d)">
<circle cx="77.554" cy="51.7333" r="1" fill="url(#paint13_linear)"/>
</g>
<g filter="url(#filter6_d)">
<circle cx="77.554" cy="77.6623" r="1" fill="url(#paint14_linear)"/>
</g>
<g filter="url(#filter7_d)">
<circle cx="50.6249" cy="51.7333" r="1" fill="url(#paint15_linear)"/>
</g>
<g filter="url(#filter8_d)">
<circle cx="56.7335" cy="47.5359" r="1" fill="url(#paint16_linear)"/>
</g>
<g filter="url(#filter9_d)">
<circle cx="71.2533" cy="47.5359" r="1" fill="url(#paint17_linear)"/>
</g>
<g filter="url(#filter10_d)">
<circle cx="50.1268" cy="77.6623" r="1" fill="url(#paint18_linear)"/>
</g>
<g filter="url(#filter11_d)">
<circle cx="64" cy="92.427" r="1.75896" fill="#C4C4C4"/>
<circle cx="64" cy="92.427" r="1.25896" stroke="url(#paint19_linear)"/>
</g>
<path d="M63.4154 51.4279C75.1244 51.2956 86.9185 57.3159 91.6582 61.4986C89.4123 62.988 89.4612 65.6285 91.6582 67.0357C84.2291 71.9852 75.0266 76.4128 63.4154 76.3305C52.1336 76.2505 42.1166 71.9984 36.0158 67.172C37.9735 65.633 38.2377 63.4532 36.0158 61.6114C42.6259 56.2383 52.0008 51.5568 63.4154 51.4279Z" fill="url(#paint20_linear)"/>
<path fill-rule="evenodd" clip-rule="evenodd" d="M31.4468 64.5652C31.3449 58.5597 49.6991 50.1941 63.4154 50.0104C77.5487 49.8211 96.5536 59.233 96.5536 64.5652C96.5536 69.8975 77.4486 78.1716 63.4154 77.9895C49.8022 77.8127 31.5487 70.5707 31.4468 64.5652ZM91.6582 61.4986C86.9185 57.3159 75.1244 51.2956 63.4154 51.4279C52.0008 51.5568 42.6259 56.2383 36.0158 61.6114C38.2377 63.4532 37.9735 65.633 36.0158 67.172C42.1166 71.9984 52.1336 76.2505 63.4154 76.3305C75.0266 76.4128 84.2291 71.9852 91.6582 67.0357C89.4612 65.6285 89.4123 62.988 91.6582 61.4986Z" fill="url(#paint21_linear)"/>
<path d="M63.4087 49.5104C56.4668 49.6034 48.3807 51.7625 42.042 54.6496C38.8719 56.0935 36.1142 57.7305 34.1463 59.4022C32.2077 61.0491 30.9173 62.8308 30.9469 64.5737C30.9764 66.3158 32.3017 68.0214 34.2612 69.5643C36.2487 71.1292 39.0109 72.6239 42.1741 73.9255C48.5006 76.5288 56.5296 78.4001 63.4089 78.4894C70.511 78.5816 78.864 76.5377 85.4388 73.807C88.7274 72.4411 91.5955 70.8935 93.6511 69.3365C94.6784 68.5584 95.5185 67.7662 96.1059 66.9796C96.6905 66.1969 97.0536 65.3805 97.0536 64.5652C97.0536 63.7533 96.6947 62.9215 96.1165 62.1108C95.5346 61.2949 94.701 60.4587 93.6788 59.627C91.6335 57.963 88.7765 56.272 85.4933 54.7629C78.9316 51.747 70.572 49.4145 63.4087 49.5104ZM63.4211 51.9279C69.1923 51.8627 75.0017 53.3148 79.9638 55.3091C84.6123 57.1773 88.4854 59.5084 90.8621 61.4761C89.9586 62.2604 89.4859 63.2676 89.4921 64.301C89.4981 65.3012 89.9524 66.2631 90.7928 67.0078C83.5141 71.7673 74.5893 75.9097 63.419 75.8305C52.542 75.7534 42.8573 71.7553 36.8016 67.1488C37.5769 66.3943 38.0496 65.4949 38.0828 64.5223C38.1173 63.5138 37.6761 62.5233 36.7852 61.6349C43.3009 56.4706 52.4026 52.0523 63.4211 51.9279Z" stroke="black" stroke-opacity="0.75"/>
<circle cx="34.4869" cy="64.3056" r="1.46133" fill="url(#paint22_linear)" stroke="black"/>
<circle cx="92.8586" cy="64.3056" r="1.46133" fill="url(#paint23_linear)" stroke="black"/>
<path d="M46.59 58.9872C45.1955 63.2922 45.1232 64.9766 46.59 69.6621C56.8345 73.724 69.2687 74.1577 81.4143 69.6621C81.4446 69.0206 81.4143 68.7276 81.4143 68.0177C60.3651 71.2093 48.995 68.0177 48.995 68.0177V65.4445H77.9668C78.2112 63.7937 78.2112 64.6321 77.9668 62.9813H48.995V60.3788C48.995 60.3788 62.7365 56.9809 81.4143 60.3788C81.4143 60.0503 81.4537 59.7187 81.4143 58.9872C71.8494 54.1111 56.3284 53.9666 46.59 58.9872Z" fill="url(#paint24_linear)"/>
<path d="M49.495 67.6282V65.9445H49.5143H49.5352H49.5564H49.578H49.6H49.6224H49.6452H49.6683H49.6918H49.7157H49.74H49.7646H49.7897H49.8151H49.8408H49.8669H49.8934H49.9203H49.9475H49.9751H50.0031H50.0314H50.0601H50.0891H50.1185H50.1482H50.1783H50.2087H50.2395H50.2707H50.3022H50.334H50.3662H50.3987H50.4316H50.4648H50.4984H50.5323H50.5665H50.6011H50.636H50.6712H50.7068H50.7427H50.7789H50.8154H50.8523H50.8895H50.927H50.9649H51.003H51.0415H51.0803H51.1195H51.1589H51.1986H51.2387H51.2791H51.3198H51.3608H51.4021H51.4437H51.4856H51.5278H51.5703H51.6131H51.6562H51.6996H51.7433H51.7873H51.8316H51.8762H51.9211H51.9663H52.0117H52.0574H52.1035H52.1498H52.1964H52.2432H52.2904H52.3378H52.3855H52.4335H52.4818H52.5303H52.5791H52.6281H52.6775H52.7271H52.777H52.8271H52.8775H52.9281H52.9791H53.0302H53.0817H53.1334H53.1853H53.2375H53.29H53.3427H53.3956H53.4488H53.5023H53.556H53.6099H53.6641H53.7185H53.7732H53.8281H53.8832H53.9386H53.9942H54.05H54.1061H54.1624H54.2189H54.2757H54.3326H54.3899H54.4473H54.5049H54.5628H54.6209H54.6792H54.7377H54.7965H54.8554H54.9146H54.974H55.0336H55.0934H55.1534H55.2136H55.274H55.3346H55.3954H55.4564H55.5177H55.5791H55.6407H55.7025H55.7645H55.8267H55.889H55.9516H56.0144H56.0773H56.1404H56.2037H56.2672H56.3309H56.3948H56.4588H56.523H56.5874H56.6519H56.7167H56.7816H56.8466H56.9119H56.9773H57.0429H57.1086H57.1745H57.2406H57.3068H57.3732H57.4397H57.5064H57.5732H57.6402H57.7074H57.7747H57.8421H57.9097H57.9775H58.0454H58.1134H58.1816H58.2499H58.3184H58.387H58.4557H58.5246H58.5936H58.6627H58.732H58.8014H58.8709H58.9406H59.0104H59.0803H59.1503H59.2205H59.2907H59.3611H59.4316H59.5023H59.573H59.6439H59.7148H59.7859H59.8571H59.9284H59.9998H60.0713H60.1429H60.2146H60.2864H60.3583H60.4304H60.5025H60.5747H60.647H60.7194H60.7919H60.8644H60.9371H61.0099H61.0827H61.1556H61.2286H61.3017H61.3749H61.4481H61.5215H61.5949H61.6683H61.7419H61.8155H61.8892H61.963H62.0368H62.1107H62.1847H62.2587H62.3328H62.407H62.4812H62.5555H62.6298H62.7042H62.7786H62.8531H62.9277H63.0023H63.0769H63.1516H63.2264H63.3012H63.376H63.4509H63.5258H63.6007H63.6757H63.7508H63.8258H63.9009H63.9761H64.0512H64.1264H64.2017H64.2769H64.3522H64.4275H64.5028H64.5782H64.6535H64.7289H64.8043H64.8797H64.9552H65.0306H65.1061H65.1815H65.257H65.3325H65.408H65.4835H65.559H65.6345H65.71H65.7855H65.861H65.9365H66.012H66.0875H66.163H66.2385H66.314H66.3894H66.4649H66.5403H66.6157H66.6911H66.7665H66.8419H66.9172H66.9925H67.0678H67.1431H67.2183H67.2936H67.3687H67.4439H67.519H67.5941H67.6692H67.7442H67.8192H67.8941H67.969H68.0439H68.1187H68.1935H68.2682H68.3429H68.4176H68.4922H68.5667H68.6412H68.7156H68.79H68.8643H68.9386H69.0128H69.0869H69.161H69.235H69.309H69.3829H69.4567H69.5305H69.6041H69.6778H69.7513H69.8248H69.8982H69.9715H70.0447H70.1179H70.1909H70.2639H70.3368H70.4096H70.4824H70.555H70.6276H70.7001H70.7724H70.8447H70.9169H70.989H71.061H71.1329H71.2047H71.2764H71.348H71.4195H71.4908H71.5621H71.6333H71.7043H71.7753H71.8461H71.9168H71.9874H72.0579H72.1283H72.1985H72.2687H72.3387H72.4085H72.4783H72.5479H72.6174H72.6868H72.7561H72.8252H72.8941H72.963H73.0317H73.1003H73.1687H73.237H73.3051H73.3732H73.441H73.5087H73.5763H73.6437H73.711H73.7781H73.8451H73.9119H73.9786H74.0451H74.1114H74.1776H74.2437H74.3095H74.3752H74.4408H74.5061H74.5713H74.6364H74.7012H74.7659H74.8305H74.8948H74.959H75.023H75.0868H75.1504H75.2139H75.2772H75.3403H75.4032H75.4659H75.5284H75.5907H75.6529H75.7149H75.7766H75.8382H75.8996H75.9607H76.0217H76.0825H76.1431H76.2034H76.2636H76.3236H76.3833H76.4429H76.5022H76.5613H76.6202H76.6789H76.7374H76.7957H76.8537H76.9116H76.9692H77.0266H77.0837H77.1407H77.1974H77.2539H77.3101H77.3661H77.4219H77.4775H77.5328H77.5879H77.6428H77.6974H77.7517H77.8059H77.8598H77.9134H77.9668H78.3982L78.4614 65.5178C78.5129 65.1699 78.5532 64.9357 78.583 64.7619C78.588 64.7328 78.5928 64.7053 78.5972 64.6793C78.6267 64.506 78.6501 64.3634 78.6501 64.2129C78.6501 64.0624 78.6267 63.9198 78.5972 63.7465C78.5928 63.7205 78.588 63.6931 78.583 63.6639C78.5532 63.4901 78.5129 63.2559 78.4614 62.908L78.3982 62.4813H77.9668H77.9142H77.8614H77.8084H77.7551H77.7015H77.6477H77.5937H77.5394H77.4848H77.4301H77.3751H77.3198H77.2643H77.2086H77.1526H77.0964H77.04H76.9834H76.9265H76.8694H76.8121H76.7545H76.6967H76.6387H76.5805H76.5221H76.4634H76.4045H76.3454H76.2861H76.2266H76.1669H76.107H76.0468H75.9865H75.9259H75.8652H75.8042H75.7431H75.6817H75.6201H75.5584H75.4964H75.4343H75.372H75.3094H75.2467H75.1838H75.1207H75.0575H74.994H74.9304H74.8665H74.8025H74.7384H74.674H74.6095H74.5448H74.4799H74.4148H74.3496H74.2842H74.2187H74.1529H74.0871H74.021H73.9548H73.8884H73.8219H73.7552H73.6884H73.6214H73.5542H73.4869H73.4194H73.3518H73.2841H73.2162H73.1481H73.0799H73.0116H72.9431H72.8745H72.8058H72.7369H72.6679H72.5987H72.5294H72.46H72.3905H72.3208H72.251H72.181H72.111H72.0408H71.9705H71.9001H71.8296H71.7589H71.6881H71.6172H71.5462H71.4751H71.4039H71.3326H71.2612H71.1896H71.118H71.0462H70.9744H70.9024H70.8303H70.7582H70.6859H70.6136H70.5412H70.4686H70.396H70.3233H70.2505H70.1776H70.1047H70.0316H69.9585H69.8853H69.812H69.7386H69.6651H69.5916H69.518H69.4443H69.3706H69.2968H69.2229H69.149H69.0749H69.0009H68.9267H68.8525H68.7782H68.7039H68.6295H68.5551H68.4806H68.4061H68.3315H68.2568H68.1821H68.1074H68.0326H67.9577H67.8829H67.8079H67.733H67.658H67.5829H67.5078H67.4327H67.3576H67.2824H67.2072H67.132H67.0567H66.9814H66.9061H66.8307H66.7554H66.68H66.6046H66.5291H66.4537H66.3782H66.3028H66.2273H66.1518H66.0763H66.0007H65.9252H65.8497H65.7741H65.6986H65.6231H65.5475H65.472H65.3964H65.3209H65.2454H65.1698H65.0943H65.0188H64.9433H64.8678H64.7924H64.7169H64.6415H64.5661H64.4907H64.4153H64.3399H64.2646H64.1893H64.114H64.0387H63.9635H63.8883H63.8131H63.738H63.6629H63.5878H63.5128H63.4378H63.3628H63.2879H63.2131H63.1382H63.0635H62.9887H62.914H62.8394H62.7648H62.6903H62.6158H62.5414H62.467H62.3927H62.3185H62.2443H62.1702H62.0961H62.0221H61.9482H61.8743H61.8005H61.7268H61.6531H61.5796H61.5061H61.4326H61.3593H61.286H61.2128H61.1397H61.0667H60.9937H60.9209H60.8481H60.7754H60.7028H60.6303H60.5579H60.4856H60.4134H60.3413H60.2693H60.1973H60.1255H60.0538H59.9822H59.9107H59.8393H59.768H59.6968H59.6257H59.5547H59.4839H59.4131H59.3425H59.272H59.2016H59.1314H59.0612H58.9912H58.9213H58.8516H58.7819H58.7124H58.643H58.5738H58.5047H58.4357H58.3668H58.2981H58.2296H58.1611H58.0928H58.0247H57.9567H57.8888H57.8211H57.7536H57.6862H57.6189H57.5518H57.4848H57.418H57.3514H57.2849H57.2186H57.1524H57.0864H57.0206H56.9549H56.8894H56.8241H56.7589H56.6939H56.6291H56.5644H56.4999H56.4356H56.3715H56.3076H56.2438H56.1802H56.1168H56.0536H55.9906H55.9277H55.8651H55.8026H55.7403H55.6782H55.6164H55.5547H55.4932H55.4319H55.3708H55.3099H55.2492H55.1887H55.1284H55.0683H55.0085H54.9488H54.8893H54.8301H54.7711H54.7123H54.6537H54.5953H54.5372H54.4792H54.4215H54.364H54.3068H54.2497H54.1929H54.1363H54.08H54.0239H53.968H53.9123H53.8569H53.8017H53.7468H53.6921H53.6376H53.5834H53.5294H53.4757H53.4222H53.369H53.316H53.2633H53.2108H53.1586H53.1066H53.0549H53.0034H52.9523H52.9013H52.8507H52.8002H52.7501H52.7002H52.6506H52.6013H52.5522H52.5034H52.4549H52.4066H52.3587H52.311H52.2636H52.2164H52.1696H52.123H52.0767H52.0307H51.985H51.9396H51.8945H51.8496H51.8051H51.7608H51.7169H51.6732H51.6298H51.5868H51.544H51.5015H51.4594H51.4175H51.376H51.3348H51.2938H51.2532H51.2129H51.1729H51.1332H51.0939H51.0549H51.0161H50.9777H50.9397H50.9019H50.8645H50.8274H50.7906H50.7541H50.718H50.6822H50.6468H50.6117H50.5769H50.5425H50.5084H50.4746H50.4412H50.4081H50.3753H50.343H50.3109H50.2792H50.2479H50.2169H50.1862H50.156H50.126H50.0965H50.0672H50.0384H50.0099H49.9818H49.954H49.9266H49.8995H49.8729H49.8466H49.8206H49.7951H49.7699H49.7451H49.7207H49.6966H49.6729H49.6496H49.6267H49.6042H49.5821H49.5603H49.5389H49.5179H49.4973H49.495V60.7777C49.5627 60.763 49.6392 60.7467 49.7243 60.7288C50.1304 60.6438 50.7336 60.5256 51.5168 60.3941C53.0832 60.1309 55.3691 59.8144 58.2372 59.6032C63.9739 59.1809 72.0354 59.1808 81.3248 60.8707L81.9143 60.978V60.3788C81.9143 60.3033 81.9173 60.218 81.9208 60.1185C81.9299 59.8574 81.9425 59.4983 81.9135 58.9603L81.8981 58.6726L81.6414 58.5418C76.7719 56.0594 70.4185 54.7942 64.0686 54.7759C57.7189 54.7577 51.3197 55.9863 46.3609 58.5428L46.1778 58.6372L46.1143 58.8331C45.414 60.9952 45.0265 62.5535 45.017 64.1791C45.0075 65.8037 45.3756 67.4564 46.1128 69.8115L46.1841 70.039L46.4057 70.1269C56.7664 74.2348 69.3281 74.6689 81.5878 70.131L81.8981 70.0161L81.9137 69.6857C81.9337 69.2625 81.928 68.969 81.9216 68.6328C81.918 68.4497 81.9143 68.254 81.9143 68.0177V67.4362L81.3393 67.5234C70.8527 69.1134 62.7852 69.1122 57.3475 68.7159C54.6286 68.5177 52.5667 68.2207 51.1884 67.9744C50.4993 67.8512 49.981 67.7406 49.6368 67.6614C49.5857 67.6496 49.5384 67.6385 49.495 67.6282Z" stroke="black" stroke-opacity="0.75"/>
<path d="M48.995 68.0177C48.8599 68.4991 48.8601 68.4992 48.8603 68.4993L48.8611 68.4995L48.8633 68.5001L48.871 68.5022L48.8987 68.5097C48.9228 68.5162 48.9579 68.5254 49.004 68.5372C49.0963 68.5608 49.2326 68.5945 49.4125 68.6359C49.7724 68.7187 50.3068 68.8326 51.0125 68.9587C52.4238 69.211 54.5201 69.5125 57.2748 69.7132C62.6852 70.1076 70.634 70.1135 80.9203 68.5972C80.921 68.6299 80.9216 68.6618 80.9223 68.693C80.9266 68.9064 80.9302 69.0876 80.926 69.3085C69.0827 73.6069 56.9935 73.1846 46.9962 69.2846C46.3162 67.0812 46.0087 65.6017 46.017 64.1849C46.0253 62.766 46.3504 61.3731 47.0022 59.3382C51.7572 56.9369 57.9086 55.7583 64.0658 55.7759C70.1879 55.7935 76.2647 56.9937 80.9274 59.3021C80.9333 59.4953 80.9329 59.6496 80.9301 59.7843C71.7835 58.1791 63.8486 58.1875 58.1637 58.6059C55.2617 58.8196 52.9449 59.1401 51.3511 59.4079C50.5542 59.5418 49.9379 59.6625 49.5195 59.75C49.3103 59.7938 49.1505 59.8293 49.0424 59.8541C48.9883 59.8664 48.9472 59.8761 48.9192 59.8828L48.8871 59.8905L48.8785 59.8925L48.8761 59.8931L48.8754 59.8933C48.8751 59.8934 48.875 59.8934 48.995 60.3788L48.875 59.8934L48.495 59.9874V60.3788V62.9813V63.4813H48.995H48.9952H48.9959H48.997H48.9986H49.0007H49.0032H49.0061H49.0095H49.0134H49.0177H49.0224H49.0276H49.0332H49.0393H49.0458H49.0527H49.0601H49.0679H49.0761H49.0848H49.0939H49.1034H49.1134H49.1238H49.1346H49.1458H49.1575H49.1696H49.1821H49.195H49.2083H49.2221H49.2362H49.2508H49.2658H49.2812H49.297H49.3132H49.3298H49.3468H49.3642H49.3821H49.4003H49.4189H49.4379H49.4573H49.4771H49.4973H49.5179H49.5389H49.5603H49.5821H49.6042H49.6267H49.6496H49.6729H49.6966H49.7207H49.7451H49.7699H49.7951H49.8206H49.8466H49.8729H49.8995H49.9266H49.954H49.9818H50.0099H50.0384H50.0672H50.0965H50.126H50.156H50.1862H50.2169H50.2479H50.2792H50.3109H50.343H50.3753H50.4081H50.4412H50.4746H50.5084H50.5425H50.5769H50.6117H50.6468H50.6822H50.718H50.7541H50.7906H50.8274H50.8645H50.9019H50.9397H50.9777H51.0161H51.0549H51.0939H51.1332H51.1729H51.2129H51.2532H51.2938H51.3348H51.376H51.4175H51.4594H51.5015H51.544H51.5868H51.6298H51.6732H51.7169H51.7608H51.8051H51.8496H51.8945H51.9396H51.985H52.0307H52.0767H52.123H52.1696H52.2164H52.2636H52.311H52.3587H52.4066H52.4549H52.5034H52.5522H52.6013H52.6506H52.7002H52.7501H52.8002H52.8507H52.9013H52.9523H53.0034H53.0549H53.1066H53.1586H53.2108H53.2633H53.316H53.369H53.4222H53.4757H53.5294H53.5834H53.6376H53.6921H53.7468H53.8017H53.8569H53.9123H53.968H54.0239H54.08H54.1363H54.1929H54.2497H54.3068H54.364H54.4215H54.4792H54.5372H54.5953H54.6537H54.7123H54.7711H54.8301H54.8893H54.9488H55.0085H55.0683H55.1284H55.1887H55.2492H55.3099H55.3708H55.4319H55.4932H55.5547H55.6164H55.6782H55.7403H55.8026H55.8651H55.9277H55.9906H56.0536H56.1168H56.1802H56.2438H56.3076H56.3715H56.4356H56.4999H56.5644H56.6291H56.6939H56.7589H56.8241H56.8894H56.9549H57.0206H57.0864H57.1524H57.2186H57.2849H57.3514H57.418H57.4848H57.5518H57.6189H57.6862H57.7536H57.8211H57.8888H57.9567H58.0247H58.0928H58.1611H58.2296H58.2981H58.3668H58.4357H58.5047H58.5738H58.643H58.7124H58.7819H58.8516H58.9213H58.9912H59.0612H59.1314H59.2016H59.272H59.3425H59.4131H59.4839H59.5547H59.6257H59.6968H59.768H59.8393H59.9107H59.9822H60.0538H60.1255H60.1973H60.2693H60.3413H60.4134H60.4856H60.5579H60.6303H60.7028H60.7754H60.8481H60.9209H60.9937H61.0667H61.1397H61.2128H61.286H61.3593H61.4326H61.5061H61.5796H61.6531H61.7268H61.8005H61.8743H61.9482H62.0221H62.0961H62.1702H62.2443H62.3185H62.3927H62.467H62.5414H62.6158H62.6903H62.7648H62.8394H62.914H62.9887H63.0635H63.1382H63.2131H63.2879H63.3628H63.4378H63.5128H63.5878H63.6629H63.738H63.8131H63.8883H63.9635H64.0387H64.114H64.1893H64.2646H64.3399H64.4153H64.4907H64.5661H64.6415H64.7169H64.7924H64.8678H64.9433H65.0188H65.0943H65.1698H65.2454H65.3209H65.3964H65.472H65.5475H65.6231H65.6986H65.7741H65.8497H65.9252H66.0007H66.0763H66.1518H66.2273H66.3028H66.3782H66.4537H66.5291H66.6046H66.68H66.7554H66.8307H66.9061H66.9814H67.0567H67.132H67.2072H67.2824H67.3576H67.4327H67.5078H67.5829H67.658H67.733H67.8079H67.8829H67.9577H68.0326H68.1074H68.1821H68.2568H68.3315H68.4061H68.4806H68.5551H68.6295H68.7039H68.7782H68.8525H68.9267H69.0009H69.0749H69.149H69.2229H69.2968H69.3706H69.4443H69.518H69.5916H69.6651H69.7386H69.812H69.8853H69.9585H70.0316H70.1047H70.1776H70.2505H70.3233H70.396H70.4686H70.5412H70.6136H70.6859H70.7582H70.8303H70.9024H70.9744H71.0462H71.118H71.1896H71.2612H71.3326H71.4039H71.4751H71.5462H71.6172H71.6881H71.7589H71.8296H71.9001H71.9705H72.0408H72.111H72.181H72.251H72.3208H72.3905H72.46H72.5294H72.5987H72.6679H72.7369H72.8058H72.8745H72.9431H73.0116H73.0799H73.1481H73.2162H73.2841H73.3518H73.4194H73.4869H73.5542H73.6214H73.6884H73.7552H73.8219H73.8884H73.9548H74.021H74.0871H74.1529H74.2187H74.2842H74.3496H74.4148H74.4799H74.5448H74.6095H74.674H74.7384H74.8025H74.8665H74.9304H74.994H75.0575H75.1207H75.1838H75.2467H75.3094H75.372H75.4343H75.4964H75.5584H75.6201H75.6817H75.7431H75.8042H75.8652H75.9259H75.9865H76.0468H76.107H76.1669H76.2266H76.2861H76.3454H76.4045H76.4634H76.5221H76.5805H76.6387H76.6967H76.7545H76.8121H76.8694H76.9265H76.9834H77.04H77.0964H77.1526H77.2086H77.2643H77.3198H77.3751H77.4301H77.4848H77.5383C77.5615 63.624 77.5813 63.739 77.5975 63.8334C77.6025 63.8623 77.6071 63.8892 77.6114 63.9144C77.643 64.0998 77.6501 64.1603 77.6501 64.2129C77.6501 64.2655 77.643 64.326 77.6114 64.5114C77.6071 64.5366 77.6025 64.5635 77.5975 64.5924C77.5813 64.6868 77.5615 64.8018 77.5383 64.9445H77.5328H77.4775H77.4219H77.3661H77.3101H77.2539H77.1974H77.1407H77.0837H77.0266H76.9692H76.9116H76.8537H76.7957H76.7374H76.6789H76.6202H76.5613H76.5022H76.4429H76.3833H76.3236H76.2636H76.2034H76.1431H76.0825H76.0217H75.9607H75.8996H75.8382H75.7766H75.7149H75.6529H75.5907H75.5284H75.4659H75.4032H75.3403H75.2772H75.2139H75.1504H75.0868H75.023H74.959H74.8948H74.8305H74.7659H74.7012H74.6364H74.5713H74.5061H74.4408H74.3752H74.3095H74.2437H74.1776H74.1114H74.0451H73.9786H73.9119H73.8451H73.7781H73.711H73.6437H73.5763H73.5087H73.441H73.3732H73.3051H73.237H73.1687H73.1003H73.0317H72.963H72.8941H72.8252H72.7561H72.6868H72.6174H72.5479H72.4783H72.4085H72.3387H72.2687H72.1985H72.1283H72.0579H71.9874H71.9168H71.8461H71.7753H71.7043H71.6333H71.5621H71.4908H71.4195H71.348H71.2764H71.2047H71.1329H71.061H70.989H70.9169H70.8447H70.7724H70.7001H70.6276H70.555H70.4824H70.4096H70.3368H70.2639H70.1909H70.1179H70.0447H69.9715H69.8982H69.8248H69.7513H69.6778H69.6041H69.5305H69.4567H69.3829H69.309H69.235H69.161H69.0869H69.0128H68.9386H68.8643H68.79H68.7156H68.6412H68.5667H68.4922H68.4176H68.3429H68.2682H68.1935H68.1187H68.0439H67.969H67.8941H67.8192H67.7442H67.6692H67.5941H67.519H67.4439H67.3687H67.2936H67.2183H67.1431H67.0678H66.9925H66.9172H66.8419H66.7665H66.6911H66.6157H66.5403H66.4649H66.3894H66.314H66.2385H66.163H66.0875H66.012H65.9365H65.861H65.7855H65.71H65.6345H65.559H65.4835H65.408H65.3325H65.257H65.1815H65.1061H65.0306H64.9552H64.8797H64.8043H64.7289H64.6535H64.5782H64.5028H64.4275H64.3522H64.2769H64.2017H64.1264H64.0512H63.9761H63.9009H63.8258H63.7508H63.6757H63.6007H63.5258H63.4509H63.376H63.3012H63.2264H63.1516H63.0769H63.0023H62.9277H62.8531H62.7786H62.7042H62.6298H62.5555H62.4812H62.407H62.3328H62.2587H62.1847H62.1107H62.0368H61.963H61.8892H61.8155H61.7419H61.6683H61.5949H61.5215H61.4481H61.3749H61.3017H61.2286H61.1556H61.0827H61.0099H60.9371H60.8644H60.7919H60.7194H60.647H60.5747H60.5025H60.4304H60.3583H60.2864H60.2146H60.1429H60.0713H59.9998H59.9284H59.8571H59.7859H59.7148H59.6439H59.573H59.5023H59.4316H59.3611H59.2907H59.2205H59.1503H59.0803H59.0104H58.9406H58.8709H58.8014H58.732H58.6627H58.5936H58.5246H58.4557H58.387H58.3184H58.2499H58.1816H58.1134H58.0454H57.9775H57.9097H57.8421H57.7747H57.7074H57.6402H57.5732H57.5064H57.4397H57.3732H57.3068H57.2406H57.1745H57.1086H57.0429H56.9773H56.9119H56.8466H56.7816H56.7167H56.6519H56.5874H56.523H56.4588H56.3948H56.3309H56.2672H56.2037H56.1404H56.0773H56.0144H55.9516H55.889H55.8267H55.7645H55.7025H55.6407H55.5791H55.5177H55.4564H55.3954H55.3346H55.274H55.2136H55.1534H55.0934H55.0336H54.974H54.9146H54.8554H54.7965H54.7377H54.6792H54.6209H54.5628H54.5049H54.4473H54.3899H54.3326H54.2757H54.2189H54.1624H54.1061H54.05H53.9942H53.9386H53.8832H53.8281H53.7732H53.7185H53.6641H53.6099H53.556H53.5023H53.4488H53.3956H53.3427H53.29H53.2375H53.1853H53.1334H53.0817H53.0302H52.9791H52.9281H52.8775H52.8271H52.777H52.7271H52.6775H52.6281H52.5791H52.5303H52.4818H52.4335H52.3855H52.3378H52.2904H52.2432H52.1964H52.1498H52.1035H52.0574H52.0117H51.9663H51.9211H51.8762H51.8316H51.7873H51.7433H51.6996H51.6562H51.6131H51.5703H51.5278H51.4856H51.4437H51.4021H51.3608H51.3198H51.2791H51.2387H51.1986H51.1589H51.1195H51.0803H51.0415H51.003H50.9649H50.927H50.8895H50.8523H50.8154H50.7789H50.7427H50.7068H50.6712H50.636H50.6011H50.5665H50.5323H50.4984H50.4648H50.4316H50.3987H50.3662H50.334H50.3022H50.2707H50.2395H50.2087H50.1783H50.1482H50.1185H50.0891H50.0601H50.0314H50.0031H49.9751H49.9475H49.9203H49.8934H49.8669H49.8408H49.8151H49.7897H49.7646H49.74H49.7157H49.6918H49.6683H49.6452H49.6224H49.6H49.578H49.5564H49.5352H49.5143H49.4939H49.4738H49.4541H49.4349H49.416H49.3975H49.3794H49.3617H49.3444H49.3275H49.311H49.2949H49.2792H49.2639H49.249H49.2345H49.2205H49.2068H49.1936H49.1807H49.1683H49.1563H49.1448H49.1336H49.1229H49.1126H49.1027H49.0932H49.0842H49.0756H49.0674H49.0596H49.0523H49.0454H49.039H49.0329H49.0274H49.0222H49.0175H49.0133H49.0094H49.0061H49.0031H49.0006H48.9986H48.997H48.9959H48.9952H48.995H48.495V65.4445V68.0177V68.3967L48.8599 68.4991L48.995 68.0177Z" fill="url(#paint25_linear)" stroke="url(#paint26_linear)"/>
<defs>
<filter id="filter0_d" x="61.241" y="34.8143" width="5.51791" height="5.51791" filterUnits="userSpaceOnUse" color-interpolation-filters="sRGB">
<feFlood flood-opacity="0" result="BackgroundImageFix"/>
<feColorMatrix in="SourceAlpha" type="matrix" values="0 0 0 0 0 0 0 0 0 0 0 0 0 0 0 0 0 0 127 0"/>
<feMorphology radius="1" operator="dilate" in="SourceAlpha" result="effect1_dropShadow"/>
<feOffset/>
<feColorMatrix type="matrix" values="0 0 0 0 0 0 0 0 0 0 0 0 0 0 0 0 0 0 0.15 0"/>
<feBlend mode="normal" in2="BackgroundImageFix" result="effect1_dropShadow"/>
<feBlend mode="normal" in="SourceGraphic" in2="effect1_dropShadow" result="shape"/>
</filter>
<filter id="filter1_d" x="61.9933" y="43.9219" width="4" height="4" filterUnits="userSpaceOnUse" color-interpolation-filters="sRGB">
<feFlood flood-opacity="0" result="BackgroundImageFix"/>
<feColorMatrix in="SourceAlpha" type="matrix" values="0 0 0 0 0 0 0 0 0 0 0 0 0 0 0 0 0 0 127 0"/>
<feMorphology radius="1" operator="dilate" in="SourceAlpha" result="effect1_dropShadow"/>
<feOffset/>
<feColorMatrix type="matrix" values="0 0 0 0 0 0 0 0 0 0 0 0 0 0 0 0 0 0 0.5 0"/>
<feBlend mode="normal" in2="BackgroundImageFix" result="effect1_dropShadow"/>
<feBlend mode="normal" in="SourceGraphic" in2="effect1_dropShadow" result="shape"/>
</filter>
<filter id="filter2_d" x="62" y="82.3231" width="4" height="4" filterUnits="userSpaceOnUse" color-interpolation-filters="sRGB">
<feFlood flood-opacity="0" result="BackgroundImageFix"/>
<feColorMatrix in="SourceAlpha" type="matrix" values="0 0 0 0 0 0 0 0 0 0 0 0 0 0 0 0 0 0 127 0"/>
<feMorphology radius="1" operator="dilate" in="SourceAlpha" result="effect1_dropShadow"/>
<feOffset/>
<feColorMatrix type="matrix" values="0 0 0 0 0 0 0 0 0 0 0 0 0 0 0 0 0 0 0.5 0"/>
<feBlend mode="normal" in2="BackgroundImageFix" result="effect1_dropShadow"/>
<feBlend mode="normal" in="SourceGraphic" in2="effect1_dropShadow" result="shape"/>
</filter>
<filter id="filter3_d" x="54.2647" y="80.3231" width="4" height="4" filterUnits="userSpaceOnUse" color-interpolation-filters="sRGB">
<feFlood flood-opacity="0" result="BackgroundImageFix"/>
<feColorMatrix in="SourceAlpha" type="matrix" values="0 0 0 0 0 0 0 0 0 0 0 0 0 0 0 0 0 0 127 0"/>
<feMorphology radius="1" operator="dilate" in="SourceAlpha" result="effect1_dropShadow"/>
<feOffset/>
<feColorMatrix type="matrix" values="0 0 0 0 0 0 0 0 0 0 0 0 0 0 0 0 0 0 0.5 0"/>
<feBlend mode="normal" in2="BackgroundImageFix" result="effect1_dropShadow"/>
<feBlend mode="normal" in="SourceGraphic" in2="effect1_dropShadow" result="shape"/>
</filter>
<filter id="filter4_d" x="69.2533" y="80.3231" width="4" height="4" filterUnits="userSpaceOnUse" color-interpolation-filters="sRGB">
<feFlood flood-opacity="0" result="BackgroundImageFix"/>
<feColorMatrix in="SourceAlpha" type="matrix" values="0 0 0 0 0 0 0 0 0 0 0 0 0 0 0 0 0 0 127 0"/>
<feMorphology radius="1" operator="dilate" in="SourceAlpha" result="effect1_dropShadow"/>
<feOffset/>
<feColorMatrix type="matrix" values="0 0 0 0 0 0 0 0 0 0 0 0 0 0 0 0 0 0 0.5 0"/>
<feBlend mode="normal" in2="BackgroundImageFix" result="effect1_dropShadow"/>
<feBlend mode="normal" in="SourceGraphic" in2="effect1_dropShadow" result="shape"/>
</filter>
<filter id="filter5_d" x="75.554" y="49.7333" width="4" height="4" filterUnits="userSpaceOnUse" color-interpolation-filters="sRGB">
<feFlood flood-opacity="0" result="BackgroundImageFix"/>
<feColorMatrix in="SourceAlpha" type="matrix" values="0 0 0 0 0 0 0 0 0 0 0 0 0 0 0 0 0 0 127 0"/>
<feMorphology radius="1" operator="dilate" in="SourceAlpha" result="effect1_dropShadow"/>
<feOffset/>
<feColorMatrix type="matrix" values="0 0 0 0 0 0 0 0 0 0 0 0 0 0 0 0 0 0 0.5 0"/>
<feBlend mode="normal" in2="BackgroundImageFix" result="effect1_dropShadow"/>
<feBlend mode="normal" in="SourceGraphic" in2="effect1_dropShadow" result="shape"/>
</filter>
<filter id="filter6_d" x="75.554" y="75.6623" width="4" height="4" filterUnits="userSpaceOnUse" color-interpolation-filters="sRGB">
<feFlood flood-opacity="0" result="BackgroundImageFix"/>
<feColorMatrix in="SourceAlpha" type="matrix" values="0 0 0 0 0 0 0 0 0 0 0 0 0 0 0 0 0 0 127 0"/>
<feMorphology radius="1" operator="dilate" in="SourceAlpha" result="effect1_dropShadow"/>
<feOffset/>
<feColorMatrix type="matrix" values="0 0 0 0 0 0 0 0 0 0 0 0 0 0 0 0 0 0 0.5 0"/>
<feBlend mode="normal" in2="BackgroundImageFix" result="effect1_dropShadow"/>
<feBlend mode="normal" in="SourceGraphic" in2="effect1_dropShadow" result="shape"/>
</filter>
<filter id="filter7_d" x="48.6249" y="49.7333" width="4" height="4" filterUnits="userSpaceOnUse" color-interpolation-filters="sRGB">
<feFlood flood-opacity="0" result="BackgroundImageFix"/>
<feColorMatrix in="SourceAlpha" type="matrix" values="0 0 0 0 0 0 0 0 0 0 0 0 0 0 0 0 0 0 127 0"/>
<feMorphology radius="1" operator="dilate" in="SourceAlpha" result="effect1_dropShadow"/>
<feOffset/>
<feColorMatrix type="matrix" values="0 0 0 0 0 0 0 0 0 0 0 0 0 0 0 0 0 0 0.5 0"/>
<feBlend mode="normal" in2="BackgroundImageFix" result="effect1_dropShadow"/>
<feBlend mode="normal" in="SourceGraphic" in2="effect1_dropShadow" result="shape"/>
</filter>
<filter id="filter8_d" x="54.7335" y="45.5359" width="4" height="4" filterUnits="userSpaceOnUse" color-interpolation-filters="sRGB">
<feFlood flood-opacity="0" result="BackgroundImageFix"/>
<feColorMatrix in="SourceAlpha" type="matrix" values="0 0 0 0 0 0 0 0 0 0 0 0 0 0 0 0 0 0 127 0"/>
<feMorphology radius="1" operator="dilate" in="SourceAlpha" result="effect1_dropShadow"/>
<feOffset/>
<feColorMatrix type="matrix" values="0 0 0 0 0 0 0 0 0 0 0 0 0 0 0 0 0 0 0.5 0"/>
<feBlend mode="normal" in2="BackgroundImageFix" result="effect1_dropShadow"/>
<feBlend mode="normal" in="SourceGraphic" in2="effect1_dropShadow" result="shape"/>
</filter>
<filter id="filter9_d" x="69.2533" y="45.5359" width="4" height="4" filterUnits="userSpaceOnUse" color-interpolation-filters="sRGB">
<feFlood flood-opacity="0" result="BackgroundImageFix"/>
<feColorMatrix in="SourceAlpha" type="matrix" values="0 0 0 0 0 0 0 0 0 0 0 0 0 0 0 0 0 0 127 0"/>
<feMorphology radius="1" operator="dilate" in="SourceAlpha" result="effect1_dropShadow"/>
<feOffset/>
<feColorMatrix type="matrix" values="0 0 0 0 0 0 0 0 0 0 0 0 0 0 0 0 0 0 0.5 0"/>
<feBlend mode="normal" in2="BackgroundImageFix" result="effect1_dropShadow"/>
<feBlend mode="normal" in="SourceGraphic" in2="effect1_dropShadow" result="shape"/>
</filter>
<filter id="filter10_d" x="48.1268" y="75.6623" width="4" height="4" filterUnits="userSpaceOnUse" color-interpolation-filters="sRGB">
<feFlood flood-opacity="0" result="BackgroundImageFix"/>
<feColorMatrix in="SourceAlpha" type="matrix" values="0 0 0 0 0 0 0 0 0 0 0 0 0 0 0 0 0 0 127 0"/>
<feMorphology radius="1" operator="dilate" in="SourceAlpha" result="effect1_dropShadow"/>
<feOffset/>
<feColorMatrix type="matrix" values="0 0 0 0 0 0 0 0 0 0 0 0 0 0 0 0 0 0 0.5 0"/>
<feBlend mode="normal" in2="BackgroundImageFix" result="effect1_dropShadow"/>
<feBlend mode="normal" in="SourceGraphic" in2="effect1_dropShadow" result="shape"/>
</filter>
<filter id="filter11_d" x="61.241" y="89.668" width="5.51791" height="5.51791" filterUnits="userSpaceOnUse" color-interpolation-filters="sRGB">
<feFlood flood-opacity="0" result="BackgroundImageFix"/>
<feColorMatrix in="SourceAlpha" type="matrix" values="0 0 0 0 0 0 0 0 0 0 0 0 0 0 0 0 0 0 127 0"/>
<feMorphology radius="1" operator="dilate" in="SourceAlpha" result="effect1_dropShadow"/>
<feOffset/>
<feColorMatrix type="matrix" values="0 0 0 0 0 0 0 0 0 0 0 0 0 0 0 0 0 0 0.15 0"/>
<feBlend mode="normal" in2="BackgroundImageFix" result="effect1_dropShadow"/>
<feBlend mode="normal" in="SourceGraphic" in2="effect1_dropShadow" result="shape"/>
</filter>
<radialGradient id="paint0_radial" cx="0" cy="0" r="1" gradientUnits="userSpaceOnUse" gradientTransform="translate(64 108.997) scale(48 14.0008)">
<stop/>
<stop offset="1" stop-opacity="0"/>
</radialGradient>
<radialGradient id="paint1_radial" cx="0" cy="0" r="1" gradientUnits="userSpaceOnUse" gradientTransform="translate(64 112.998) scale(32 9.99954)">
<stop/>
<stop offset="1" stop-opacity="0"/>
</radialGradient>
<linearGradient id="paint2_linear" x1="64" y1="10" x2="64" y2="120" gradientUnits="userSpaceOnUse">
<stop stop-color="#EFEFEF"/>
<stop offset="1" stop-color="#C5C5C5"/>
</linearGradient>
<linearGradient id="paint3_linear" x1="59.6489" y1="9.03724" x2="59.6489" y2="121.549" gradientUnits="userSpaceOnUse">
<stop stop-color="white"/>
<stop offset="0.424479" stop-color="white" stop-opacity="0.28"/>
<stop offset="0.820899" stop-color="white" stop-opacity="0.156863"/>
<stop offset="1" stop-color="white" stop-opacity="0.392157"/>
</linearGradient>
<linearGradient id="paint4_linear" x1="64" y1="24" x2="64" y2="106" gradientUnits="userSpaceOnUse">
<stop stop-color="#4D4D4D"/>
<stop offset="1" stop-color="#1A1A1A"/>
</linearGradient>
<linearGradient id="paint5_linear" x1="60.6964" y1="22.5098" x2="60.6964" y2="107.935" gradientUnits="userSpaceOnUse">
<stop stop-color="white"/>
<stop offset="0.424479" stop-color="white" stop-opacity="0.235294"/>
<stop offset="0.820899" stop-color="white" stop-opacity="0.156863"/>
<stop offset="1" stop-color="white" stop-opacity="0.392157"/>
</linearGradient>
<linearGradient id="paint6_linear" x1="64" y1="42" x2="64" y2="88" gradientUnits="userSpaceOnUse">
<stop stop-color="#333333"/>
<stop offset="1" stop-color="#1A1A1A"/>
</linearGradient>
<linearGradient id="paint7_linear" x1="62.1468" y1="41.164" x2="62.1468" y2="89.0856" gradientUnits="userSpaceOnUse">
<stop stop-color="white"/>
<stop offset="0.424479" stop-color="white" stop-opacity="0.235294"/>
<stop offset="0.820899" stop-color="white" stop-opacity="0.156863"/>
<stop offset="1" stop-color="white" stop-opacity="0.392157"/>
</linearGradient>
<linearGradient id="paint8_linear" x1="64" y1="35.8143" x2="64" y2="39.3323" gradientUnits="userSpaceOnUse">
<stop stop-color="white"/>
<stop offset="1" stop-color="white" stop-opacity="0"/>
</linearGradient>
<linearGradient id="paint9_linear" x1="63.9933" y1="44.9219" x2="63.9933" y2="46.9219" gradientUnits="userSpaceOnUse">
<stop stop-color="#FFF394"/>
<stop offset="1" stop-color="#F9C440"/>
</linearGradient>
<linearGradient id="paint10_linear" x1="64" y1="83.3231" x2="64" y2="85.3231" gradientUnits="userSpaceOnUse">
<stop stop-color="#FFF394"/>
<stop offset="1" stop-color="#F9C440"/>
</linearGradient>
<linearGradient id="paint11_linear" x1="56.2647" y1="81.3231" x2="56.2647" y2="83.3231" gradientUnits="userSpaceOnUse">
<stop stop-color="#FFF394"/>
<stop offset="1" stop-color="#F9C440"/>
</linearGradient>
<linearGradient id="paint12_linear" x1="71.2533" y1="81.3231" x2="71.2533" y2="83.3231" gradientUnits="userSpaceOnUse">
<stop stop-color="#FFF394"/>
<stop offset="1" stop-color="#F9C440"/>
</linearGradient>
<linearGradient id="paint13_linear" x1="77.554" y1="50.7333" x2="77.554" y2="52.7333" gradientUnits="userSpaceOnUse">
<stop stop-color="#FFF394"/>
<stop offset="1" stop-color="#F9C440"/>
</linearGradient>
<linearGradient id="paint14_linear" x1="77.554" y1="76.6623" x2="77.554" y2="78.6623" gradientUnits="userSpaceOnUse">
<stop stop-color="#FFF394"/>
<stop offset="1" stop-color="#F9C440"/>
</linearGradient>
<linearGradient id="paint15_linear" x1="50.6249" y1="50.7333" x2="50.6249" y2="52.7333" gradientUnits="userSpaceOnUse">
<stop stop-color="#FFF394"/>
<stop offset="1" stop-color="#F9C440"/>
</linearGradient>
<linearGradient id="paint16_linear" x1="56.7335" y1="46.5359" x2="56.7335" y2="48.5359" gradientUnits="userSpaceOnUse">
<stop stop-color="#FFF394"/>
<stop offset="1" stop-color="#F9C440"/>
</linearGradient>
<linearGradient id="paint17_linear" x1="71.2533" y1="46.5359" x2="71.2533" y2="48.5359" gradientUnits="userSpaceOnUse">
<stop stop-color="#FFF394"/>
<stop offset="1" stop-color="#F9C440"/>
</linearGradient>
<linearGradient id="paint18_linear" x1="50.1268" y1="76.6623" x2="50.1268" y2="78.6623" gradientUnits="userSpaceOnUse">
<stop stop-color="#FFF394"/>
<stop offset="1" stop-color="#F9C440"/>
</linearGradient>
<linearGradient id="paint19_linear" x1="64" y1="90.668" x2="64" y2="94.1859" gradientUnits="userSpaceOnUse">
<stop stop-color="white"/>
<stop offset="1" stop-color="white" stop-opacity="0"/>
</linearGradient>
<linearGradient id="paint20_linear" x1="64" y1="50.0076" x2="64" y2="77.9924" gradientUnits="userSpaceOnUse">
<stop stop-color="#112251"/>
<stop offset="1" stop-color="#020D2C"/>
</linearGradient>
<linearGradient id="paint21_linear" x1="64" y1="50.0076" x2="64" y2="77.9924" gradientUnits="userSpaceOnUse">
<stop stop-color="#CDE8FD"/>
<stop offset="1" stop-color="#A4C5FC"/>
</linearGradient>
<linearGradient id="paint22_linear" x1="34.4869" y1="62.8443" x2="34.4869" y2="65.7669" gradientUnits="userSpaceOnUse">
<stop stop-color="white"/>
<stop offset="1" stop-color="#C5C5C5"/>
</linearGradient>
<linearGradient id="paint23_linear" x1="92.8585" y1="62.8443" x2="92.8585" y2="65.7669" gradientUnits="userSpaceOnUse">
<stop stop-color="white"/>
<stop offset="1" stop-color="#C5C5C5"/>
</linearGradient>
<linearGradient id="paint24_linear" x1="63.4743" y1="54.7914" x2="63.4743" y2="72.8732" gradientUnits="userSpaceOnUse">
<stop stop-color="#CDE8FD"/>
<stop offset="1" stop-color="#A4C5FC"/>
</linearGradient>
<linearGradient id="paint25_linear" x1="63.4743" y1="54.7914" x2="63.4743" y2="72.8732" gradientUnits="userSpaceOnUse">
<stop stop-color="#CDE8FD"/>
<stop offset="1" stop-color="#A4C5FC"/>
</linearGradient>
<linearGradient id="paint26_linear" x1="63.4743" y1="55.2757" x2="63.4743" y2="72.8732" gradientUnits="userSpaceOnUse">
<stop stop-color="white"/>
<stop offset="0.453125" stop-color="white" stop-opacity="0"/>
<stop offset="1" stop-color="white" stop-opacity="0.33"/>
</linearGradient>
</defs>
</svg>
