<svg width="32" height="32" viewBox="0 0 32 32" fill="none" xmlns="http://www.w3.org/2000/svg">
<path d="M24 28C24 28.394 23.7931 28.7841 23.391 29.148C22.989 29.512 22.3997 29.8427 21.6569 30.1213C20.914 30.3999 20.0321 30.6209 19.0615 30.7716C18.0909 30.9224 17.0506 31 16 31C14.9494 31 13.9091 30.9224 12.9385 30.7716C11.9679 30.6209 11.086 30.3999 10.3431 30.1213C9.60028 29.8427 9.011 29.512 8.60896 29.148C8.20693 28.7841 8 28.394 8 28C8 27.606 8.20693 27.2159 8.60896 26.852C9.011 26.488 9.60028 26.1573 10.3431 25.8787C11.086 25.6001 11.9679 25.3791 12.9385 25.2284C13.9091 25.0776 14.9494 25 16 25C17.0506 25 18.0909 25.0776 19.0615 25.2284C20.0321 25.3791 20.914 25.6001 21.6569 25.8787C22.3997 26.1573 22.989 26.488 23.391 26.852C23.7931 27.2159 24 27.606 24 28Z" fill="url(#paint0_radial_15_2)"/>
<circle cx="16" cy="18" r="11.5" fill="url(#paint1_linear_15_2)"/>
<circle cx="16" cy="18" r="11.5" stroke="black" stroke-opacity="0.3"/>
<circle cx="16" cy="18" r="10.5" stroke="url(#paint2_linear_15_2)"/>
<g filter="url(#filter0_i_15_2)">
<path d="M15.3333 17.8333C16.6667 22.6667 23.8333 19.9097 21.0764 22.6667C19.9011 23.7039 18.3574 24.3333 16.6667 24.3333C12.9848 24.3333 10 21.3486 10 17.6667C10 13.9848 12.9848 11 16.6667 11C20.3486 11 14 13 15.3333 17.8333Z" fill="url(#paint3_radial_15_2)"/>
</g>
<path d="M16.6667 23.8333C13.2609 23.8333 10.5 21.0724 10.5 17.6667C10.5 14.2609 13.2609 11.5 16.6667 11.5C16.881 11.5 17.0445 11.5074 17.1675 11.5186C17.1549 11.5342 17.1415 11.5504 17.1274 11.5673C17.0333 11.68 16.9302 11.7952 16.8122 11.9272C16.7195 12.0309 16.6175 12.1448 16.5034 12.2761C15.5244 13.4018 14.1128 15.289 14.8513 17.9663C15.6072 20.7064 18.0457 21.2628 19.6593 21.5223C19.8252 21.549 19.9784 21.5719 20.1214 21.5934C20.3459 21.627 20.5453 21.6569 20.73 21.6916C20.9366 21.7305 21.0722 21.7672 21.1571 21.7988C21.097 21.8994 20.9728 22.062 20.7338 22.3021C19.6479 23.2557 18.2254 23.8333 16.6667 23.8333ZM17.4608 11.5732C17.4608 11.5732 17.4598 11.5728 17.4579 11.5717C17.46 11.5727 17.4609 11.5732 17.4608 11.5732Z" stroke="url(#paint4_linear_15_2)"/>
<path d="M21.4072 23.0415L21.4189 23.0312L21.4299 23.0202C21.7793 22.6709 22.0455 22.3411 22.1507 22.0223C22.2083 21.8475 22.2277 21.6458 22.1553 21.443C22.0836 21.242 21.9447 21.1045 21.8083 21.0129C21.5604 20.8465 21.2186 20.7659 20.9147 20.7088C20.7152 20.6713 20.4813 20.6362 20.2401 20.5999C20.1002 20.5789 19.9578 20.5574 19.8181 20.535C18.2043 20.2754 16.3928 19.7936 15.8153 17.7004C15.2205 15.5443 16.3165 14.0149 17.258 12.9323C17.3492 12.8274 17.4449 12.7201 17.5378 12.6161C17.6696 12.4685 17.7956 12.3272 17.8951 12.2081C17.9846 12.1008 18.0708 11.9906 18.1407 11.8821C18.2075 11.7784 18.2803 11.6449 18.313 11.4932C18.349 11.3257 18.3379 11.1187 18.2068 10.9305C18.0885 10.7609 17.9177 10.6732 17.7785 10.624C17.5085 10.5285 17.1278 10.5 16.6667 10.5C12.7086 10.5 9.5 13.7086 9.5 17.6667C9.5 21.6247 12.7086 24.8333 16.6667 24.8333C18.4839 24.8333 20.1442 24.1563 21.4072 23.0415Z" stroke="black" stroke-opacity="0.25"/>
<path d="M21.7381 23.4164L21.7615 23.3958L21.7835 23.3738C22.1375 23.0197 22.4805 22.6186 22.6255 22.1789C22.7082 21.9284 22.7453 21.6087 22.6262 21.2749C22.5084 20.9448 22.2835 20.7297 22.087 20.5978C21.7437 20.3674 21.306 20.2736 21.0071 20.2174C20.7999 20.1785 20.5476 20.1405 20.2987 20.103C20.1612 20.0823 20.0247 20.0618 19.8975 20.0413C18.2836 19.7818 16.7855 19.3371 16.2973 17.5674C15.7744 15.6719 16.7126 14.3214 17.6353 13.2604C17.7157 13.1679 17.8073 13.0652 17.8993 12.9621C18.0376 12.807 18.1766 12.6511 18.2789 12.5286C18.3736 12.4151 18.4749 12.2867 18.5611 12.1528C18.641 12.0287 18.7506 11.836 18.8018 11.5983C18.8597 11.3291 18.8453 10.9722 18.617 10.6446C18.4145 10.3541 18.1329 10.219 17.9451 10.1526C17.5866 10.0258 17.1287 10 16.6667 10C12.4325 10 9 13.4325 9 17.6667C9 21.9008 12.4325 25.3333 16.6667 25.3333C18.6103 25.3333 20.3872 24.6087 21.7381 23.4164Z" stroke="black" stroke-opacity="0.07" stroke-width="2"/>
<mask id="path-9-inside-1_15_2" fill="white">
<path fill-rule="evenodd" clip-rule="evenodd" d="M19.9333 15.9333C19.9333 16.5224 20.4109 17 21 17C21.5891 17 22.0667 16.5224 22.0667 15.9333V14.5137C22.0667 14.5128 22.0667 14.512 22.0667 14.5111C22.0667 13.922 21.5891 13.4444 21 13.4444C20.4109 13.4444 19.9333 13.922 19.9333 14.5111L19.9333 14.5111V15.9333Z"/>
</mask>
<path d="M22.0667 14.5137L21.0667 14.5112V14.5137H22.0667ZM19.9333 14.5111L20.155 15.4862L20.9333 15.3093V14.5111H19.9333ZM19.9333 14.5111L19.7117 13.536L18.9333 13.7129V14.5111H19.9333ZM18.9333 15.9333C18.9333 17.0747 19.8586 18 21 18V16C20.9632 16 20.9333 15.9702 20.9333 15.9333H18.9333ZM21 18C22.1414 18 23.0667 17.0747 23.0667 15.9333H21.0667C21.0667 15.9702 21.0368 16 21 16V18ZM21.0667 14.5137V15.9333H23.0667V14.5137H21.0667ZM23.0667 14.5162C23.0667 14.5144 23.0667 14.5127 23.0667 14.5111H21.0667L21.0667 14.5112L23.0667 14.5162ZM23.0667 14.5111C23.0667 13.3697 22.1414 12.4444 21 12.4444V14.4444C21.0368 14.4444 21.0667 14.4743 21.0667 14.5111H23.0667ZM21 12.4444C19.8586 12.4444 18.9333 13.3697 18.9333 14.5111H20.9333C20.9333 14.4743 20.9632 14.4444 21 14.4444V12.4444ZM20.155 15.4862L20.155 15.4862L19.7117 13.536L19.7117 13.536L20.155 15.4862ZM20.9333 15.9333V14.5111H18.9333V15.9333H20.9333Z" fill="url(#paint5_linear_15_2)" mask="url(#path-9-inside-1_15_2)"/>
<path d="M23 16C23 17.1046 22.1046 18 21 18C19.8954 18 19 17.1046 19 16" stroke="url(#paint6_linear_15_2)"/>
<defs>
<filter id="filter0_i_15_2" x="10" y="11" width="11.7021" height="15.3333" filterUnits="userSpaceOnUse" color-interpolation-filters="sRGB">
<feFlood flood-opacity="0" result="BackgroundImageFix"/>
<feBlend mode="normal" in="SourceGraphic" in2="BackgroundImageFix" result="shape"/>
<feColorMatrix in="SourceAlpha" type="matrix" values="0 0 0 0 0 0 0 0 0 0 0 0 0 0 0 0 0 0 127 0" result="hardAlpha"/>
<feOffset dy="4"/>
<feGaussianBlur stdDeviation="1"/>
<feComposite in2="hardAlpha" operator="arithmetic" k2="-1" k3="1"/>
<feColorMatrix type="matrix" values="0 0 0 0 0 0 0 0 0 0 0 0 0 0 0 0 0 0 0.25 0"/>
<feBlend mode="normal" in2="shape" result="effect1_innerShadow_15_2"/>
</filter>
<radialGradient id="paint0_radial_15_2" cx="0" cy="0" r="1" gradientUnits="userSpaceOnUse" gradientTransform="translate(15.9999 28.0002) scale(7.99991 3.00011)">
<stop stop-color="#3D3D3D"/>
<stop offset="0.5" stop-color="#686868" stop-opacity="0.498"/>
<stop offset="1" stop-color="#686868" stop-opacity="0"/>
</radialGradient>
<linearGradient id="paint1_linear_15_2" x1="16" y1="6.5" x2="16" y2="29.5" gradientUnits="userSpaceOnUse">
<stop stop-color="#FAFAFA"/>
<stop offset="1" stop-color="#D4D4D4"/>
</linearGradient>
<linearGradient id="paint2_linear_15_2" x1="16" y1="7" x2="16" y2="29" gradientUnits="userSpaceOnUse">
<stop stop-color="white" stop-opacity="0.3"/>
<stop offset="1" stop-color="white" stop-opacity="0.21"/>
</linearGradient>
<radialGradient id="paint3_radial_15_2" cx="0" cy="0" r="1" gradientUnits="userSpaceOnUse" gradientTransform="translate(13.4151 16.5206) rotate(72.6831) scale(8.1837 7.18251)">
<stop stop-color="#FF00B8"/>
<stop offset="1" stop-color="#FF9900"/>
</radialGradient>
<linearGradient id="paint4_linear_15_2" x1="15.8511" y1="11" x2="15.8511" y2="24.3333" gradientUnits="userSpaceOnUse">
<stop stop-color="white"/>
<stop offset="1" stop-color="#BDBDBD"/>
</linearGradient>
<linearGradient id="paint5_linear_15_2" x1="21" y1="13.4444" x2="21" y2="18.4681" gradientUnits="userSpaceOnUse">
<stop stop-color="#A6A6A6"/>
<stop offset="1" stop-color="#030303"/>
</linearGradient>
<linearGradient id="paint6_linear_15_2" x1="21" y1="13" x2="21" y2="18.5" gradientUnits="userSpaceOnUse">
<stop stop-color="#A6A6A6"/>
<stop offset="1" stop-color="#030303"/>
</linearGradient>
</defs>
</svg>
