<svg width="16" height="16" viewBox="0 0 16 16" fill="none" xmlns="http://www.w3.org/2000/svg">
<path opacity="0.2" d="M14 13.625C14.0001 13.8548 13.845 14.0824 13.5435 14.2947C13.242 14.507 12.8001 14.6999 12.2429 14.8624C11.6858 15.0249 11.0243 15.1538 10.2963 15.2418C9.56829 15.3297 8.788 15.375 8 15.375C7.212 15.375 6.43171 15.3297 5.7037 15.2418C4.97569 15.1538 4.31422 15.0249 3.75705 14.8624C3.19989 14.6999 2.75795 14.507 2.45647 14.2947C2.155 14.0824 1.99989 13.8548 2 13.625C1.99989 13.3952 2.155 13.1676 2.45647 12.9553C2.75795 12.743 3.19989 12.5501 3.75705 12.3876C4.31422 12.2251 4.97569 12.0962 5.7037 12.0082C6.43171 11.9203 7.212 11.875 8 11.875C8.788 11.875 9.56829 11.9203 10.2963 12.0082C11.0243 12.0962 11.6858 12.2251 12.2429 12.3876C12.8001 12.5501 13.242 12.743 13.5435 12.9553C13.845 13.1676 14.0001 13.3952 14 13.625V13.625Z" fill="url(#paint0_radial)"/>
<path opacity="0.4" d="M12 14.125C12.0001 14.2891 11.8968 14.4517 11.6958 14.6033C11.4948 14.755 11.2002 14.8928 10.8288 15.0089C10.4573 15.1249 10.0163 15.217 9.53096 15.2798C9.0456 15.3427 8.52537 15.375 8 15.375C7.47463 15.375 6.9544 15.3427 6.46904 15.2798C5.98367 15.217 5.54267 15.1249 5.17122 15.0089C4.79977 14.8928 4.50515 14.755 4.30419 14.6033C4.10323 14.4517 3.99987 14.2891 4 14.125C3.99987 13.9609 4.10323 13.7983 4.30419 13.6467C4.50515 13.495 4.79977 13.3572 5.17122 13.2411C5.54267 13.1251 5.98367 13.033 6.46904 12.9702C6.9544 12.9073 7.47463 12.875 8 12.875C8.52537 12.875 9.0456 12.9073 9.53096 12.9702C10.0163 13.033 10.4573 13.1251 10.8288 13.2411C11.2002 13.3572 11.4948 13.495 11.6958 13.6467C11.8968 13.7983 12.0001 13.9609 12 14.125Z" fill="url(#paint1_radial)"/>
<path d="M14.8077 8.42169C14.8516 8.33001 14.8738 8.21783 14.875 8.12058C14.8738 8.02334 14.8516 7.92004 14.8077 7.82835L14.6823 7.58731C14.6354 7.50479 14.608 7.42452 14.5998 7.35254C14.5915 7.28057 14.5997 7.19621 14.6267 7.10526C14.6447 7.04963 14.6659 6.95484 14.6934 6.84247C14.7155 6.74327 14.7128 6.62894 14.6897 6.53446C14.6666 6.43998 14.6208 6.34468 14.5575 6.26516L14.3789 6.05918C14.3148 5.9892 14.2688 5.91758 14.2447 5.84925C14.2206 5.78092 14.2075 5.6941 14.2113 5.59931C14.215 5.54096 14.2162 5.44895 14.2181 5.33328C14.2177 5.23167 14.1865 5.12274 14.1431 5.03565C14.0998 4.94856 14.0289 4.85958 13.9481 4.79781L13.728 4.6397C13.6488 4.58728 13.5883 4.52806 13.5484 4.46755C13.5085 4.40704 13.4775 4.32434 13.4583 4.23142C13.448 4.17387 13.4282 4.08352 13.4024 3.97075C13.3775 3.8722 13.3235 3.77243 13.2607 3.69817C13.1978 3.6239 13.1098 3.55285 13.0166 3.51203L12.7692 3.41284C12.6807 3.37853 12.6056 3.3328 12.5525 3.28344C12.4994 3.23408 12.4517 3.16386 12.4132 3.07716C12.3916 3.0252 12.3503 2.94276 12.3011 2.84447L12.2952 2.83268C12.2478 2.74278 12.1731 2.65676 12.0944 2.59946C12.0157 2.54215 11.9197 2.4986 11.8199 2.47857L11.5511 2.43542C11.4569 2.42305 11.3758 2.39759 11.3133 2.36072C11.2509 2.32385 11.1852 2.26556 11.1271 2.19051C11.0924 2.14336 11.0342 2.07207 10.9613 1.98213C10.8956 1.90454 10.8017 1.84092 10.7125 1.80194C10.6233 1.76296 10.5116 1.74001 10.4099 1.74452L10.1436 1.76582C10.0489 1.77422 9.96053 1.76828 9.89099 1.74762C9.82145 1.72697 9.74707 1.68605 9.67389 1.62555C9.62973 1.58715 9.55096 1.52993 9.45828 1.46051C9.37558 1.40129 9.26929 1.35834 9.1732 1.34245C9.07711 1.32655 8.97132 1.33087 8.87321 1.35785L8.61334 1.44022C8.52373 1.47174 8.43971 1.48533 8.3673 1.48075C8.2949 1.47617 8.20963 1.45249 8.12367 1.41209C8.07133 1.38588 7.98672 1.34775 7.88077 1.30093C7.78685 1.26182 7.67348 1.24509 7.57628 1.25124C7.47908 1.25739 7.37698 1.28591 7.2875 1.33429L7.05304 1.47395C6.97287 1.52485 6.89417 1.55747 6.82259 1.56931C6.75102 1.58116 6.66289 1.57846 6.57003 1.55841C6.51435 1.54493 6.42626 1.52802 6.31592 1.50684L6.30857 1.50542C6.20825 1.4884 6.09485 1.49947 6.00149 1.5272C5.90814 1.55492 5.80752 1.60836 5.73281 1.67735L5.54299 1.8648C5.47616 1.93222 5.40443 1.98358 5.33796 2.01262C5.27149 2.04165 5.18807 2.05782 5.09307 2.05873C5.03452 2.05783 4.93726 2.06398 4.82158 2.07048C4.72013 2.07837 4.61147 2.11326 4.52763 2.16275C4.44379 2.21224 4.3658 2.28326 4.30792 2.36683L4.16213 2.59657C4.1135 2.67806 4.0581 2.74255 3.99948 2.78524C3.94086 2.82793 3.86156 2.86536 3.76953 2.8889C3.71246 2.90199 3.62405 2.92726 3.51247 2.95841C3.41508 2.98787 3.31998 3.04884 3.24869 3.1151C3.1774 3.18137 3.11275 3.27476 3.07636 3.36965L2.98754 3.62566C2.9596 3.71633 2.92019 3.79131 2.87334 3.84663C2.8265 3.90195 2.75653 3.95561 2.67268 4.00021C2.62033 4.0264 2.53949 4.07115 2.43845 4.12776C2.35079 4.17939 2.27089 4.25986 2.21734 4.34109C2.1638 4.42233 2.12105 4.52726 2.10824 4.62806L2.0834 4.89332C2.07557 4.98786 2.05352 5.0731 2.02123 5.13797C1.98894 5.20284 1.93535 5.26869 1.86309 5.33029C1.81762 5.36714 1.74689 5.43422 1.6624 5.51338C1.58971 5.5845 1.52855 5.6811 1.49619 5.77283C1.46383 5.86456 1.44961 5.96915 1.45914 6.07031L1.49507 6.33999C1.51049 6.4336 1.50935 6.51858 1.49215 6.58896C1.47495 6.65934 1.43736 6.73908 1.38242 6.81647C1.34738 6.86332 1.29548 6.93984 1.23068 7.03574C1.1756 7.12118 1.14059 7.22978 1.12953 7.3264C1.11847 7.42303 1.12713 7.53664 1.16149 7.63228L1.25927 7.88013C1.29533 7.96789 1.31433 8.05103 1.31341 8.12347C1.31249 8.19591 1.29533 8.28211 1.25927 8.36987C1.2357 8.4234 1.20295 8.50965 1.16149 8.61767C1.12712 8.71332 1.11847 8.82697 1.12953 8.9236C1.14059 9.02022 1.17559 9.12877 1.23067 9.21421L1.38242 9.43353C1.43736 9.51092 1.47494 9.59062 1.49214 9.661C1.50934 9.73138 1.51049 9.8164 1.49507 9.91C1.48413 9.96745 1.47247 10.0647 1.45913 10.1796C1.4496 10.2808 1.46383 10.3854 1.49619 10.4772C1.52855 10.5689 1.58969 10.6655 1.66238 10.7366L1.86309 10.9197C1.93535 10.9813 1.98893 11.0471 2.02121 11.112C2.0535 11.1769 2.07557 11.2621 2.0834 11.3567C2.08677 11.4151 2.09612 11.5068 2.10822 11.6219C2.12103 11.7227 2.16379 11.8277 2.21734 11.9089C2.27089 11.9901 2.35077 12.0706 2.43842 12.1222L2.67268 12.2498C2.75653 12.2944 2.82647 12.348 2.87331 12.4033C2.92016 12.4587 2.9596 12.5337 2.98754 12.6243C3.00336 12.6806 3.03723 12.7714 3.07633 12.8803C3.11272 12.9752 3.1774 13.0686 3.24869 13.1349C3.31998 13.2012 3.41504 13.2621 3.51243 13.2916L3.76953 13.3611C3.86156 13.3846 3.94083 13.422 3.99945 13.4647C4.05806 13.5074 4.1135 13.5719 4.16213 13.6534C4.19084 13.7044 4.24406 13.7866 4.30789 13.8831C4.36577 13.9667 4.44379 14.0378 4.52763 14.0873C4.61147 14.1367 4.72009 14.1716 4.82155 14.1795L5.09307 14.1913C5.18807 14.1922 5.27145 14.2083 5.33792 14.2374C5.40439 14.2664 5.47616 14.3178 5.54299 14.3852C5.58313 14.4278 5.64943 14.4923 5.73277 14.5726C5.80748 14.6416 5.90814 14.6951 6.00149 14.7228C6.09485 14.7505 6.2082 14.7616 6.30853 14.7446L6.57003 14.6916C6.66289 14.6715 6.75097 14.6688 6.82255 14.6807C6.89412 14.6925 6.97287 14.7252 7.05304 14.776C7.10166 14.8086 7.18678 14.8584 7.28745 14.9157C7.37694 14.9641 7.47908 14.9926 7.57628 14.9988C7.67348 15.0049 7.7868 14.9882 7.88073 14.9491L8.12367 14.8379C8.20963 14.7975 8.29485 14.7738 8.36726 14.7693C8.43966 14.7647 8.52373 14.7783 8.61334 14.8098C8.66807 14.8306 8.76215 14.859 8.87316 14.8922C8.97128 14.9191 9.07711 14.9235 9.1732 14.9076C9.26929 14.8917 9.37554 14.8487 9.45824 14.7895L9.67389 14.6244C9.74707 14.564 9.82141 14.523 9.89094 14.5024C9.96048 14.4817 10.0489 14.4758 10.1436 14.4842C10.2017 14.4908 10.2943 14.4979 10.4099 14.5055C10.5115 14.51 10.6233 14.487 10.7125 14.4481C10.8017 14.4091 10.8956 14.3455 10.9613 14.2679L11.1271 14.0595C11.1852 13.9844 11.2508 13.9262 11.3133 13.8893C11.3757 13.8524 11.4569 13.827 11.5511 13.8146C11.6093 13.8084 11.7058 13.7918 11.8199 13.7715C11.9196 13.7514 12.0157 13.7079 12.0944 13.6505C12.1731 13.5932 12.2477 13.5072 12.2952 13.4174L12.4132 13.1728C12.4517 13.0861 12.4994 13.016 12.5525 12.9666C12.6056 12.9172 12.6807 12.8715 12.7692 12.8372C12.8233 12.8177 12.9064 12.7834 13.0108 12.7404L13.0166 12.738C13.1098 12.6972 13.1978 12.6261 13.2607 12.5518C13.3235 12.4776 13.3775 12.3778 13.4023 12.2793L13.4583 12.0186C13.4775 11.9257 13.5085 11.843 13.5484 11.7825C13.5883 11.722 13.6488 11.6627 13.728 11.6103C13.7776 11.5792 13.8546 11.5205 13.9481 11.4522C14.0289 11.3905 14.0998 11.3014 14.1431 11.2143C14.1865 11.1273 14.2176 11.0184 14.2181 10.9168L14.2113 10.6507C14.2075 10.5559 14.2206 10.4691 14.2447 10.4008C14.2688 10.3325 14.3148 10.2608 14.3789 10.1908C14.4195 10.1487 14.4834 10.0738 14.5575 9.98488C14.6208 9.90536 14.6666 9.81002 14.6897 9.71554C14.7128 9.62106 14.7155 9.50677 14.6934 9.40758L14.6267 9.14474C14.5997 9.05379 14.5915 8.96947 14.5998 8.8975C14.608 8.82553 14.6354 8.74521 14.6823 8.66269C14.7124 8.61256 14.7555 8.52498 14.8077 8.42169Z" fill="url(#paint2_linear)"/>
<g opacity="0.5">
<mask id="path-4-inside-1" fill="white">
<path d="M14.8077 8.42169C14.8516 8.33001 14.8738 8.21783 14.875 8.12058C14.8738 8.02334 14.8516 7.92004 14.8077 7.82835L14.6823 7.58731C14.6354 7.50479 14.608 7.42452 14.5998 7.35254C14.5915 7.28057 14.5997 7.19621 14.6267 7.10526C14.6447 7.04963 14.6659 6.95484 14.6934 6.84247C14.7155 6.74327 14.7128 6.62894 14.6897 6.53446C14.6666 6.43998 14.6208 6.34468 14.5575 6.26516L14.3789 6.05918C14.3148 5.9892 14.2688 5.91758 14.2447 5.84925C14.2206 5.78092 14.2075 5.6941 14.2113 5.59931C14.215 5.54096 14.2162 5.44895 14.2181 5.33328C14.2177 5.23167 14.1865 5.12274 14.1431 5.03565C14.0998 4.94856 14.0289 4.85958 13.9481 4.79781L13.728 4.6397C13.6488 4.58728 13.5883 4.52806 13.5484 4.46755C13.5085 4.40704 13.4775 4.32434 13.4583 4.23142C13.448 4.17387 13.4282 4.08352 13.4024 3.97075C13.3775 3.8722 13.3235 3.77243 13.2607 3.69817C13.1978 3.6239 13.1098 3.55285 13.0166 3.51203L12.7692 3.41284C12.6807 3.37853 12.6056 3.3328 12.5525 3.28344C12.4994 3.23408 12.4517 3.16386 12.4132 3.07716C12.3916 3.0252 12.3503 2.94276 12.3011 2.84447L12.2952 2.83268C12.2478 2.74278 12.1731 2.65676 12.0944 2.59946C12.0157 2.54215 11.9197 2.4986 11.8199 2.47857L11.5511 2.43542C11.4569 2.42305 11.3758 2.39759 11.3133 2.36072C11.2509 2.32385 11.1852 2.26556 11.1271 2.19051C11.0924 2.14336 11.0342 2.07207 10.9613 1.98213C10.8956 1.90454 10.8017 1.84092 10.7125 1.80194C10.6233 1.76296 10.5116 1.74001 10.4099 1.74452L10.1436 1.76582C10.0489 1.77422 9.96053 1.76828 9.89099 1.74762C9.82145 1.72697 9.74707 1.68605 9.67389 1.62555C9.62973 1.58715 9.55096 1.52993 9.45828 1.46051C9.37558 1.40129 9.26929 1.35834 9.1732 1.34245C9.07711 1.32655 8.97132 1.33087 8.87321 1.35785L8.61334 1.44022C8.52373 1.47174 8.43971 1.48533 8.3673 1.48075C8.2949 1.47617 8.20963 1.45249 8.12367 1.41209C8.07133 1.38588 7.98672 1.34775 7.88077 1.30093C7.78685 1.26182 7.67348 1.24509 7.57628 1.25124C7.47908 1.25739 7.37698 1.28591 7.2875 1.33429L7.05304 1.47395C6.97287 1.52485 6.89417 1.55747 6.82259 1.56931C6.75102 1.58116 6.66289 1.57846 6.57003 1.55841C6.51435 1.54493 6.42626 1.52802 6.31592 1.50684L6.30857 1.50542C6.20825 1.4884 6.09485 1.49947 6.00149 1.5272C5.90814 1.55492 5.80752 1.60836 5.73281 1.67735L5.54299 1.8648C5.47616 1.93222 5.40443 1.98358 5.33796 2.01262C5.27149 2.04165 5.18807 2.05782 5.09307 2.05873C5.03452 2.05783 4.93726 2.06398 4.82158 2.07048C4.72013 2.07837 4.61147 2.11326 4.52763 2.16275C4.44379 2.21224 4.3658 2.28326 4.30792 2.36683L4.16213 2.59657C4.1135 2.67806 4.0581 2.74255 3.99948 2.78524C3.94086 2.82793 3.86156 2.86536 3.76953 2.8889C3.71246 2.90199 3.62405 2.92726 3.51247 2.95841C3.41508 2.98787 3.31998 3.04884 3.24869 3.1151C3.1774 3.18137 3.11275 3.27476 3.07636 3.36965L2.98754 3.62566C2.9596 3.71633 2.92019 3.79131 2.87334 3.84663C2.8265 3.90195 2.75653 3.95561 2.67268 4.00021C2.62033 4.0264 2.53949 4.07115 2.43845 4.12776C2.35079 4.17939 2.27089 4.25986 2.21734 4.34109C2.1638 4.42233 2.12105 4.52726 2.10824 4.62806L2.0834 4.89332C2.07557 4.98786 2.05352 5.0731 2.02123 5.13797C1.98894 5.20284 1.93535 5.26869 1.86309 5.33029C1.81762 5.36714 1.74689 5.43422 1.6624 5.51338C1.58971 5.5845 1.52855 5.6811 1.49619 5.77283C1.46383 5.86456 1.44961 5.96915 1.45914 6.07031L1.49507 6.33999C1.51049 6.4336 1.50935 6.51858 1.49215 6.58896C1.47495 6.65934 1.43736 6.73908 1.38242 6.81647C1.34738 6.86332 1.29548 6.93984 1.23068 7.03574C1.1756 7.12118 1.14059 7.22978 1.12953 7.3264C1.11847 7.42303 1.12713 7.53664 1.16149 7.63228L1.25927 7.88013C1.29533 7.96789 1.31433 8.05103 1.31341 8.12347C1.31249 8.19591 1.29533 8.28211 1.25927 8.36987C1.2357 8.4234 1.20295 8.50965 1.16149 8.61767C1.12712 8.71332 1.11847 8.82697 1.12953 8.9236C1.14059 9.02022 1.17559 9.12877 1.23067 9.21421L1.38242 9.43353C1.43736 9.51092 1.47494 9.59062 1.49214 9.661C1.50934 9.73138 1.51049 9.8164 1.49507 9.91C1.48413 9.96745 1.47247 10.0647 1.45913 10.1796C1.4496 10.2808 1.46383 10.3854 1.49619 10.4772C1.52855 10.5689 1.58969 10.6655 1.66238 10.7366L1.86309 10.9197C1.93535 10.9813 1.98893 11.0471 2.02121 11.112C2.0535 11.1769 2.07557 11.2621 2.0834 11.3567C2.08677 11.4151 2.09612 11.5068 2.10822 11.6219C2.12103 11.7227 2.16379 11.8277 2.21734 11.9089C2.27089 11.9901 2.35077 12.0706 2.43842 12.1222L2.67268 12.2498C2.75653 12.2944 2.82647 12.348 2.87331 12.4033C2.92016 12.4587 2.9596 12.5337 2.98754 12.6243C3.00336 12.6806 3.03723 12.7714 3.07633 12.8803C3.11272 12.9752 3.1774 13.0686 3.24869 13.1349C3.31998 13.2012 3.41504 13.2621 3.51243 13.2916L3.76953 13.3611C3.86156 13.3846 3.94083 13.422 3.99945 13.4647C4.05806 13.5074 4.1135 13.5719 4.16213 13.6534C4.19084 13.7044 4.24406 13.7866 4.30789 13.8831C4.36577 13.9667 4.44379 14.0378 4.52763 14.0873C4.61147 14.1367 4.72009 14.1716 4.82155 14.1795L5.09307 14.1913C5.18807 14.1922 5.27145 14.2083 5.33792 14.2374C5.40439 14.2664 5.47616 14.3178 5.54299 14.3852C5.58313 14.4278 5.64943 14.4923 5.73277 14.5726C5.80748 14.6416 5.90814 14.6951 6.00149 14.7228C6.09485 14.7505 6.2082 14.7616 6.30853 14.7446L6.57003 14.6916C6.66289 14.6715 6.75097 14.6688 6.82255 14.6807C6.89412 14.6925 6.97287 14.7252 7.05304 14.776C7.10166 14.8086 7.18678 14.8584 7.28745 14.9157C7.37694 14.9641 7.47908 14.9926 7.57628 14.9988C7.67348 15.0049 7.7868 14.9882 7.88073 14.9491L8.12367 14.8379C8.20963 14.7975 8.29485 14.7738 8.36726 14.7693C8.43966 14.7647 8.52373 14.7783 8.61334 14.8098C8.66807 14.8306 8.76215 14.859 8.87316 14.8922C8.97128 14.9191 9.07711 14.9235 9.1732 14.9076C9.26929 14.8917 9.37554 14.8487 9.45824 14.7895L9.67389 14.6244C9.74707 14.564 9.82141 14.523 9.89094 14.5024C9.96048 14.4817 10.0489 14.4758 10.1436 14.4842C10.2017 14.4908 10.2943 14.4979 10.4099 14.5055C10.5115 14.51 10.6233 14.487 10.7125 14.4481C10.8017 14.4091 10.8956 14.3455 10.9613 14.2679L11.1271 14.0595C11.1852 13.9844 11.2508 13.9262 11.3133 13.8893C11.3757 13.8524 11.4569 13.827 11.5511 13.8146C11.6093 13.8084 11.7058 13.7918 11.8199 13.7715C11.9196 13.7514 12.0157 13.7079 12.0944 13.6505C12.1731 13.5932 12.2477 13.5072 12.2952 13.4174L12.4132 13.1728C12.4517 13.0861 12.4994 13.016 12.5525 12.9666C12.6056 12.9172 12.6807 12.8715 12.7692 12.8372C12.8233 12.8177 12.9064 12.7834 13.0108 12.7404L13.0166 12.738C13.1098 12.6972 13.1978 12.6261 13.2607 12.5518C13.3235 12.4776 13.3775 12.3778 13.4023 12.2793L13.4583 12.0186C13.4775 11.9257 13.5085 11.843 13.5484 11.7825C13.5883 11.722 13.6488 11.6627 13.728 11.6103C13.7776 11.5792 13.8546 11.5205 13.9481 11.4522C14.0289 11.3905 14.0998 11.3014 14.1431 11.2143C14.1865 11.1273 14.2176 11.0184 14.2181 10.9168L14.2113 10.6507C14.2075 10.5559 14.2206 10.4691 14.2447 10.4008C14.2688 10.3325 14.3148 10.2608 14.3789 10.1908C14.4195 10.1487 14.4834 10.0738 14.5575 9.98488C14.6208 9.90536 14.6666 9.81002 14.6897 9.71554C14.7128 9.62106 14.7155 9.50677 14.6934 9.40758L14.6267 9.14474C14.5997 9.05379 14.5915 8.96947 14.5998 8.8975C14.608 8.82553 14.6354 8.74521 14.6823 8.66269C14.7124 8.61256 14.7555 8.52498 14.8077 8.42169Z"/>
</mask>
<path d="M14.8077 8.42169C14.8516 8.33001 14.8738 8.21783 14.875 8.12058C14.8738 8.02334 14.8516 7.92004 14.8077 7.82835L14.6823 7.58731C14.6354 7.50479 14.608 7.42452 14.5998 7.35254C14.5915 7.28057 14.5997 7.19621 14.6267 7.10526C14.6447 7.04963 14.6659 6.95484 14.6934 6.84247C14.7155 6.74327 14.7128 6.62894 14.6897 6.53446C14.6666 6.43998 14.6208 6.34468 14.5575 6.26516L14.3789 6.05918C14.3148 5.9892 14.2688 5.91758 14.2447 5.84925C14.2206 5.78092 14.2075 5.6941 14.2113 5.59931C14.215 5.54096 14.2162 5.44895 14.2181 5.33328C14.2177 5.23167 14.1865 5.12274 14.1431 5.03565C14.0998 4.94856 14.0289 4.85958 13.9481 4.79781L13.728 4.6397C13.6488 4.58728 13.5883 4.52806 13.5484 4.46755C13.5085 4.40704 13.4775 4.32434 13.4583 4.23142C13.448 4.17387 13.4282 4.08352 13.4024 3.97075C13.3775 3.8722 13.3235 3.77243 13.2607 3.69817C13.1978 3.6239 13.1098 3.55285 13.0166 3.51203L12.7692 3.41284C12.6807 3.37853 12.6056 3.3328 12.5525 3.28344C12.4994 3.23408 12.4517 3.16386 12.4132 3.07716C12.3916 3.0252 12.3503 2.94276 12.3011 2.84447L12.2952 2.83268C12.2478 2.74278 12.1731 2.65676 12.0944 2.59946C12.0157 2.54215 11.9197 2.4986 11.8199 2.47857L11.5511 2.43542C11.4569 2.42305 11.3758 2.39759 11.3133 2.36072C11.2509 2.32385 11.1852 2.26556 11.1271 2.19051C11.0924 2.14336 11.0342 2.07207 10.9613 1.98213C10.8956 1.90454 10.8017 1.84092 10.7125 1.80194C10.6233 1.76296 10.5116 1.74001 10.4099 1.74452L10.1436 1.76582C10.0489 1.77422 9.96053 1.76828 9.89099 1.74762C9.82145 1.72697 9.74707 1.68605 9.67389 1.62555C9.62973 1.58715 9.55096 1.52993 9.45828 1.46051C9.37558 1.40129 9.26929 1.35834 9.1732 1.34245C9.07711 1.32655 8.97132 1.33087 8.87321 1.35785L8.61334 1.44022C8.52373 1.47174 8.43971 1.48533 8.3673 1.48075C8.2949 1.47617 8.20963 1.45249 8.12367 1.41209C8.07133 1.38588 7.98672 1.34775 7.88077 1.30093C7.78685 1.26182 7.67348 1.24509 7.57628 1.25124C7.47908 1.25739 7.37698 1.28591 7.2875 1.33429L7.05304 1.47395C6.97287 1.52485 6.89417 1.55747 6.82259 1.56931C6.75102 1.58116 6.66289 1.57846 6.57003 1.55841C6.51435 1.54493 6.42626 1.52802 6.31592 1.50684L6.30857 1.50542C6.20825 1.4884 6.09485 1.49947 6.00149 1.5272C5.90814 1.55492 5.80752 1.60836 5.73281 1.67735L5.54299 1.8648C5.47616 1.93222 5.40443 1.98358 5.33796 2.01262C5.27149 2.04165 5.18807 2.05782 5.09307 2.05873C5.03452 2.05783 4.93726 2.06398 4.82158 2.07048C4.72013 2.07837 4.61147 2.11326 4.52763 2.16275C4.44379 2.21224 4.3658 2.28326 4.30792 2.36683L4.16213 2.59657C4.1135 2.67806 4.0581 2.74255 3.99948 2.78524C3.94086 2.82793 3.86156 2.86536 3.76953 2.8889C3.71246 2.90199 3.62405 2.92726 3.51247 2.95841C3.41508 2.98787 3.31998 3.04884 3.24869 3.1151C3.1774 3.18137 3.11275 3.27476 3.07636 3.36965L2.98754 3.62566C2.9596 3.71633 2.92019 3.79131 2.87334 3.84663C2.8265 3.90195 2.75653 3.95561 2.67268 4.00021C2.62033 4.0264 2.53949 4.07115 2.43845 4.12776C2.35079 4.17939 2.27089 4.25986 2.21734 4.34109C2.1638 4.42233 2.12105 4.52726 2.10824 4.62806L2.0834 4.89332C2.07557 4.98786 2.05352 5.0731 2.02123 5.13797C1.98894 5.20284 1.93535 5.26869 1.86309 5.33029C1.81762 5.36714 1.74689 5.43422 1.6624 5.51338C1.58971 5.5845 1.52855 5.6811 1.49619 5.77283C1.46383 5.86456 1.44961 5.96915 1.45914 6.07031L1.49507 6.33999C1.51049 6.4336 1.50935 6.51858 1.49215 6.58896C1.47495 6.65934 1.43736 6.73908 1.38242 6.81647C1.34738 6.86332 1.29548 6.93984 1.23068 7.03574C1.1756 7.12118 1.14059 7.22978 1.12953 7.3264C1.11847 7.42303 1.12713 7.53664 1.16149 7.63228L1.25927 7.88013C1.29533 7.96789 1.31433 8.05103 1.31341 8.12347C1.31249 8.19591 1.29533 8.28211 1.25927 8.36987C1.2357 8.4234 1.20295 8.50965 1.16149 8.61767C1.12712 8.71332 1.11847 8.82697 1.12953 8.9236C1.14059 9.02022 1.17559 9.12877 1.23067 9.21421L1.38242 9.43353C1.43736 9.51092 1.47494 9.59062 1.49214 9.661C1.50934 9.73138 1.51049 9.8164 1.49507 9.91C1.48413 9.96745 1.47247 10.0647 1.45913 10.1796C1.4496 10.2808 1.46383 10.3854 1.49619 10.4772C1.52855 10.5689 1.58969 10.6655 1.66238 10.7366L1.86309 10.9197C1.93535 10.9813 1.98893 11.0471 2.02121 11.112C2.0535 11.1769 2.07557 11.2621 2.0834 11.3567C2.08677 11.4151 2.09612 11.5068 2.10822 11.6219C2.12103 11.7227 2.16379 11.8277 2.21734 11.9089C2.27089 11.9901 2.35077 12.0706 2.43842 12.1222L2.67268 12.2498C2.75653 12.2944 2.82647 12.348 2.87331 12.4033C2.92016 12.4587 2.9596 12.5337 2.98754 12.6243C3.00336 12.6806 3.03723 12.7714 3.07633 12.8803C3.11272 12.9752 3.1774 13.0686 3.24869 13.1349C3.31998 13.2012 3.41504 13.2621 3.51243 13.2916L3.76953 13.3611C3.86156 13.3846 3.94083 13.422 3.99945 13.4647C4.05806 13.5074 4.1135 13.5719 4.16213 13.6534C4.19084 13.7044 4.24406 13.7866 4.30789 13.8831C4.36577 13.9667 4.44379 14.0378 4.52763 14.0873C4.61147 14.1367 4.72009 14.1716 4.82155 14.1795L5.09307 14.1913C5.18807 14.1922 5.27145 14.2083 5.33792 14.2374C5.40439 14.2664 5.47616 14.3178 5.54299 14.3852C5.58313 14.4278 5.64943 14.4923 5.73277 14.5726C5.80748 14.6416 5.90814 14.6951 6.00149 14.7228C6.09485 14.7505 6.2082 14.7616 6.30853 14.7446L6.57003 14.6916C6.66289 14.6715 6.75097 14.6688 6.82255 14.6807C6.89412 14.6925 6.97287 14.7252 7.05304 14.776C7.10166 14.8086 7.18678 14.8584 7.28745 14.9157C7.37694 14.9641 7.47908 14.9926 7.57628 14.9988C7.67348 15.0049 7.7868 14.9882 7.88073 14.9491L8.12367 14.8379C8.20963 14.7975 8.29485 14.7738 8.36726 14.7693C8.43966 14.7647 8.52373 14.7783 8.61334 14.8098C8.66807 14.8306 8.76215 14.859 8.87316 14.8922C8.97128 14.9191 9.07711 14.9235 9.1732 14.9076C9.26929 14.8917 9.37554 14.8487 9.45824 14.7895L9.67389 14.6244C9.74707 14.564 9.82141 14.523 9.89094 14.5024C9.96048 14.4817 10.0489 14.4758 10.1436 14.4842C10.2017 14.4908 10.2943 14.4979 10.4099 14.5055C10.5115 14.51 10.6233 14.487 10.7125 14.4481C10.8017 14.4091 10.8956 14.3455 10.9613 14.2679L11.1271 14.0595C11.1852 13.9844 11.2508 13.9262 11.3133 13.8893C11.3757 13.8524 11.4569 13.827 11.5511 13.8146C11.6093 13.8084 11.7058 13.7918 11.8199 13.7715C11.9196 13.7514 12.0157 13.7079 12.0944 13.6505C12.1731 13.5932 12.2477 13.5072 12.2952 13.4174L12.4132 13.1728C12.4517 13.0861 12.4994 13.016 12.5525 12.9666C12.6056 12.9172 12.6807 12.8715 12.7692 12.8372C12.8233 12.8177 12.9064 12.7834 13.0108 12.7404L13.0166 12.738C13.1098 12.6972 13.1978 12.6261 13.2607 12.5518C13.3235 12.4776 13.3775 12.3778 13.4023 12.2793L13.4583 12.0186C13.4775 11.9257 13.5085 11.843 13.5484 11.7825C13.5883 11.722 13.6488 11.6627 13.728 11.6103C13.7776 11.5792 13.8546 11.5205 13.9481 11.4522C14.0289 11.3905 14.0998 11.3014 14.1431 11.2143C14.1865 11.1273 14.2176 11.0184 14.2181 10.9168L14.2113 10.6507C14.2075 10.5559 14.2206 10.4691 14.2447 10.4008C14.2688 10.3325 14.3148 10.2608 14.3789 10.1908C14.4195 10.1487 14.4834 10.0738 14.5575 9.98488C14.6208 9.90536 14.6666 9.81002 14.6897 9.71554C14.7128 9.62106 14.7155 9.50677 14.6934 9.40758L14.6267 9.14474C14.5997 9.05379 14.5915 8.96947 14.5998 8.8975C14.608 8.82553 14.6354 8.74521 14.6823 8.66269C14.7124 8.61256 14.7555 8.52498 14.8077 8.42169Z" stroke="#0E141F" stroke-opacity="0.75" stroke-width="2" mask="url(#path-4-inside-1)"/>
</g>
<g opacity="0.5">
<mask id="path-5-inside-2" fill="white">
<path d="M14.6839 8.4163C14.727 8.32628 14.7488 8.21614 14.75 8.12066C14.7488 8.02518 14.727 7.92376 14.6839 7.83375L14.5608 7.59708C14.5148 7.51606 14.4879 7.43725 14.4798 7.36659C14.4717 7.29592 14.4797 7.2131 14.5062 7.1238C14.5239 7.06918 14.5447 6.97612 14.5717 6.86579C14.5934 6.76839 14.5908 6.65615 14.5681 6.56338C14.5454 6.47062 14.5005 6.37705 14.4383 6.29897L14.263 6.09674C14.2 6.02803 14.1548 5.95771 14.1312 5.89062C14.1075 5.82354 14.0947 5.7383 14.0983 5.64524C14.102 5.58794 14.1031 5.4976 14.1051 5.38404C14.1046 5.28427 14.074 5.17733 14.0315 5.09182C13.9889 5.00631 13.9193 4.91895 13.84 4.85831L13.6239 4.70307C13.5461 4.6516 13.4867 4.59346 13.4475 4.53405C13.4084 4.47464 13.3779 4.39344 13.3591 4.30221C13.3489 4.2457 13.3295 4.15701 13.3041 4.04628C13.2798 3.94952 13.2268 3.85157 13.165 3.77866C13.1033 3.70574 13.0169 3.63598 12.9254 3.5959L12.6825 3.49851C12.5956 3.46483 12.5219 3.41993 12.4698 3.37146C12.4176 3.323 12.3708 3.25406 12.3329 3.16893C12.3118 3.11793 12.2712 3.03701 12.2229 2.94053L12.2171 2.9289C12.1705 2.84064 12.0972 2.75618 12.0199 2.69992C11.9427 2.64365 11.8484 2.6009 11.7504 2.58123L11.4866 2.53887C11.3941 2.52672 11.3144 2.50172 11.2531 2.46552C11.1917 2.42933 11.1273 2.3721 11.0702 2.29841C11.0362 2.25212 10.979 2.18212 10.9075 2.09382C10.843 2.01764 10.7508 1.95518 10.6632 1.91691C10.5756 1.87864 10.4659 1.8561 10.3661 1.86053L10.1046 1.88145C10.0117 1.88969 9.92488 1.88385 9.8566 1.86357C9.78833 1.84329 9.71531 1.80312 9.64346 1.74372C9.6001 1.70602 9.52276 1.64984 9.43176 1.58168C9.35057 1.52354 9.24621 1.48137 9.15187 1.46577C9.05753 1.45016 8.95366 1.4544 8.85733 1.48089L8.60219 1.56176C8.51421 1.59271 8.43171 1.60605 8.36062 1.60155C8.28953 1.59705 8.20582 1.57381 8.12142 1.53415C8.07003 1.50841 7.98696 1.47097 7.88294 1.425C7.79072 1.3866 7.67942 1.37018 7.58398 1.37622C7.48855 1.38226 7.38831 1.41025 7.30045 1.45776L7.07026 1.59488C6.99154 1.64485 6.91427 1.67688 6.844 1.68851C6.77372 1.70013 6.6872 1.69748 6.59603 1.6778C6.54136 1.66457 6.45486 1.64796 6.34652 1.62716L6.33932 1.62578C6.24082 1.60906 6.12949 1.61993 6.03783 1.64716C5.94617 1.67438 5.84739 1.72684 5.77403 1.79458L5.58766 1.97862C5.52205 2.04481 5.45162 2.09525 5.38636 2.12375C5.3211 2.15226 5.2392 2.16813 5.14592 2.16903C5.08843 2.16814 4.99295 2.17418 4.87937 2.18056C4.77976 2.18831 4.67308 2.22256 4.59076 2.27115C4.50844 2.31975 4.43188 2.38947 4.37505 2.47153L4.23191 2.69708C4.18417 2.77709 4.12977 2.84042 4.07222 2.88233C4.01467 2.92424 3.93681 2.96099 3.84645 2.9841C3.79041 2.99696 3.70361 3.02176 3.59406 3.05235C3.49844 3.08127 3.40507 3.14113 3.33508 3.20619C3.26508 3.27125 3.20161 3.36295 3.16588 3.45611L3.07868 3.70747C3.05124 3.79649 3.01255 3.87011 2.96655 3.92442C2.92056 3.97873 2.85187 4.03141 2.76954 4.0752C2.71814 4.10092 2.63877 4.14485 2.53957 4.20044C2.45351 4.25112 2.37506 4.33013 2.32248 4.40989C2.26991 4.48965 2.22794 4.59267 2.21537 4.69164L2.19097 4.95208C2.18329 5.0449 2.16164 5.12859 2.12994 5.19228C2.09824 5.25597 2.04561 5.32063 1.97467 5.38111C1.93003 5.41728 1.86058 5.48314 1.77763 5.56086C1.70626 5.63069 1.64621 5.72553 1.61444 5.8156C1.58267 5.90566 1.56871 6.00834 1.57807 6.10767L1.61335 6.37245C1.62848 6.46435 1.62737 6.54779 1.61048 6.61689C1.59359 6.68599 1.55668 6.76427 1.50274 6.84026C1.46834 6.88626 1.41738 6.96138 1.35376 7.05555C1.29968 7.13944 1.26531 7.24606 1.25445 7.34092C1.24359 7.43579 1.25209 7.54734 1.28583 7.64124L1.38183 7.88458C1.41723 7.97075 1.43589 8.05238 1.43499 8.1235C1.43409 8.19462 1.41723 8.27925 1.38183 8.36542C1.35869 8.41798 1.32654 8.50265 1.28582 8.60872C1.25208 8.70262 1.24359 8.81421 1.25445 8.90908C1.26531 9.00394 1.29967 9.11052 1.35375 9.19441L1.50274 9.40973C1.55668 9.48572 1.59358 9.56397 1.61047 9.63307C1.62736 9.70217 1.62848 9.78564 1.61335 9.87755C1.6026 9.93395 1.59115 10.0295 1.57805 10.1423C1.56869 10.2416 1.58267 10.3443 1.61444 10.4344C1.64621 10.5245 1.70624 10.6193 1.77761 10.6891L1.97467 10.8689C2.04561 10.9294 2.09822 10.994 2.12992 11.0577C2.16162 11.1214 2.18329 11.2051 2.19097 11.2979C2.19428 11.3552 2.20347 11.4454 2.21535 11.5583C2.22792 11.6573 2.26991 11.7604 2.32248 11.8401C2.37506 11.9199 2.45348 11.9988 2.53954 12.0495L2.76954 12.1748C2.85187 12.2186 2.92053 12.2712 2.96653 12.3255C3.01252 12.3799 3.05124 12.4535 3.07868 12.5425C3.09421 12.5978 3.12746 12.6869 3.16585 12.7939C3.20158 12.887 3.26508 12.9788 3.33508 13.0438C3.40507 13.1089 3.49841 13.1687 3.59403 13.1976L3.84645 13.2659C3.93681 13.289 4.01463 13.3257 4.07218 13.3676C4.12973 13.4096 4.18417 13.4729 4.23191 13.5529C4.2601 13.603 4.31235 13.6837 4.37502 13.7784C4.43184 13.8605 4.50844 13.9303 4.59076 13.9788C4.67308 14.0274 4.77972 14.0617 4.87934 14.0694L5.14592 14.081C5.2392 14.0819 5.32106 14.0977 5.38632 14.1262C5.45158 14.1547 5.52205 14.2052 5.58766 14.2714C5.62708 14.3132 5.69217 14.3765 5.77399 14.4554C5.84735 14.5231 5.94617 14.5756 6.03783 14.6028C6.12949 14.6301 6.24078 14.6409 6.33928 14.6242L6.59603 14.5722C6.6872 14.5525 6.77368 14.5499 6.84396 14.5615C6.91423 14.5731 6.99154 14.6052 7.07026 14.6551C7.118 14.6871 7.20157 14.736 7.30041 14.7922C7.38827 14.8397 7.48855 14.8677 7.58398 14.8738C7.67942 14.8798 7.79068 14.8634 7.8829 14.825L8.12142 14.7159C8.20582 14.6762 8.28949 14.6529 8.36058 14.6485C8.43167 14.644 8.51421 14.6573 8.60219 14.6882C8.65592 14.7087 8.74829 14.7366 8.85729 14.7691C8.95362 14.7956 9.05753 14.7998 9.15187 14.7842C9.24621 14.7686 9.35053 14.7265 9.43172 14.6683L9.64346 14.5063C9.71531 14.4469 9.78829 14.4067 9.85656 14.3864C9.92484 14.3662 10.0117 14.3603 10.1046 14.3686C10.1617 14.3751 10.2526 14.382 10.3661 14.3895C10.4659 14.3939 10.5756 14.3714 10.6632 14.3331C10.7508 14.2948 10.8429 14.2324 10.9074 14.1562L11.0702 13.9516C11.1273 13.8779 11.1917 13.8207 11.253 13.7845C11.3143 13.7483 11.3941 13.7233 11.4866 13.7111C11.5437 13.7051 11.6384 13.6888 11.7504 13.6688C11.8484 13.6491 11.9427 13.6063 12.0199 13.5501C12.0972 13.4938 12.1705 13.4094 12.2171 13.3211L12.3329 13.0811C12.3708 12.9959 12.4176 12.927 12.4697 12.8786C12.5219 12.8301 12.5956 12.7852 12.6825 12.7515C12.7356 12.7324 12.8172 12.6987 12.9197 12.6565L12.9254 12.6541C13.0169 12.614 13.1033 12.5443 13.165 12.4713C13.2268 12.3984 13.2797 12.3005 13.3041 12.2038L13.3591 11.9478C13.3779 11.8566 13.4083 11.7754 13.4475 11.716C13.4867 11.6566 13.5461 11.5984 13.6239 11.5469C13.6726 11.5164 13.7481 11.4588 13.8399 11.3917C13.9193 11.3311 13.9889 11.2437 14.0315 11.1582C14.074 11.0727 14.1046 10.9658 14.1051 10.866L14.0983 10.6048C14.0947 10.5117 14.1075 10.4265 14.1312 10.3594C14.1548 10.2923 14.2 10.222 14.263 10.1533C14.3028 10.1119 14.3655 10.0384 14.4382 9.95107C14.5004 9.87299 14.5454 9.77938 14.5681 9.68662C14.5908 9.59386 14.5934 9.48165 14.5717 9.38426L14.5062 9.1262C14.4797 9.0369 14.4717 8.95412 14.4798 8.88345C14.4879 8.81279 14.5148 8.73394 14.5608 8.65292C14.5904 8.6037 14.6327 8.51771 14.6839 8.4163Z"/>
</mask>
<path d="M14.6839 8.4163C14.727 8.32628 14.7488 8.21614 14.75 8.12066C14.7488 8.02518 14.727 7.92376 14.6839 7.83375L14.5608 7.59708C14.5148 7.51606 14.4879 7.43725 14.4798 7.36659C14.4717 7.29592 14.4797 7.2131 14.5062 7.1238C14.5239 7.06918 14.5447 6.97612 14.5717 6.86579C14.5934 6.76839 14.5908 6.65615 14.5681 6.56338C14.5454 6.47062 14.5005 6.37705 14.4383 6.29897L14.263 6.09674C14.2 6.02803 14.1548 5.95771 14.1312 5.89062C14.1075 5.82354 14.0947 5.7383 14.0983 5.64524C14.102 5.58794 14.1031 5.4976 14.1051 5.38404C14.1046 5.28427 14.074 5.17733 14.0315 5.09182C13.9889 5.00631 13.9193 4.91895 13.84 4.85831L13.6239 4.70307C13.5461 4.6516 13.4867 4.59346 13.4475 4.53405C13.4084 4.47464 13.3779 4.39344 13.3591 4.30221C13.3489 4.2457 13.3295 4.15701 13.3041 4.04628C13.2798 3.94952 13.2268 3.85157 13.165 3.77866C13.1033 3.70574 13.0169 3.63598 12.9254 3.5959L12.6825 3.49851C12.5956 3.46483 12.5219 3.41993 12.4698 3.37146C12.4176 3.323 12.3708 3.25406 12.3329 3.16893C12.3118 3.11793 12.2712 3.03701 12.2229 2.94053L12.2171 2.9289C12.1705 2.84064 12.0972 2.75618 12.0199 2.69992C11.9427 2.64365 11.8484 2.6009 11.7504 2.58123L11.4866 2.53887C11.3941 2.52672 11.3144 2.50172 11.2531 2.46552C11.1917 2.42933 11.1273 2.3721 11.0702 2.29841C11.0362 2.25212 10.979 2.18212 10.9075 2.09382C10.843 2.01764 10.7508 1.95518 10.6632 1.91691C10.5756 1.87864 10.4659 1.8561 10.3661 1.86053L10.1046 1.88145C10.0117 1.88969 9.92488 1.88385 9.8566 1.86357C9.78833 1.84329 9.71531 1.80312 9.64346 1.74372C9.6001 1.70602 9.52276 1.64984 9.43176 1.58168C9.35057 1.52354 9.24621 1.48137 9.15187 1.46577C9.05753 1.45016 8.95366 1.4544 8.85733 1.48089L8.60219 1.56176C8.51421 1.59271 8.43171 1.60605 8.36062 1.60155C8.28953 1.59705 8.20582 1.57381 8.12142 1.53415C8.07003 1.50841 7.98696 1.47097 7.88294 1.425C7.79072 1.3866 7.67942 1.37018 7.58398 1.37622C7.48855 1.38226 7.38831 1.41025 7.30045 1.45776L7.07026 1.59488C6.99154 1.64485 6.91427 1.67688 6.844 1.68851C6.77372 1.70013 6.6872 1.69748 6.59603 1.6778C6.54136 1.66457 6.45486 1.64796 6.34652 1.62716L6.33932 1.62578C6.24082 1.60906 6.12949 1.61993 6.03783 1.64716C5.94617 1.67438 5.84739 1.72684 5.77403 1.79458L5.58766 1.97862C5.52205 2.04481 5.45162 2.09525 5.38636 2.12375C5.3211 2.15226 5.2392 2.16813 5.14592 2.16903C5.08843 2.16814 4.99295 2.17418 4.87937 2.18056C4.77976 2.18831 4.67308 2.22256 4.59076 2.27115C4.50844 2.31975 4.43188 2.38947 4.37505 2.47153L4.23191 2.69708C4.18417 2.77709 4.12977 2.84042 4.07222 2.88233C4.01467 2.92424 3.93681 2.96099 3.84645 2.9841C3.79041 2.99696 3.70361 3.02176 3.59406 3.05235C3.49844 3.08127 3.40507 3.14113 3.33508 3.20619C3.26508 3.27125 3.20161 3.36295 3.16588 3.45611L3.07868 3.70747C3.05124 3.79649 3.01255 3.87011 2.96655 3.92442C2.92056 3.97873 2.85187 4.03141 2.76954 4.0752C2.71814 4.10092 2.63877 4.14485 2.53957 4.20044C2.45351 4.25112 2.37506 4.33013 2.32248 4.40989C2.26991 4.48965 2.22794 4.59267 2.21537 4.69164L2.19097 4.95208C2.18329 5.0449 2.16164 5.12859 2.12994 5.19228C2.09824 5.25597 2.04561 5.32063 1.97467 5.38111C1.93003 5.41728 1.86058 5.48314 1.77763 5.56086C1.70626 5.63069 1.64621 5.72553 1.61444 5.8156C1.58267 5.90566 1.56871 6.00834 1.57807 6.10767L1.61335 6.37245C1.62848 6.46435 1.62737 6.54779 1.61048 6.61689C1.59359 6.68599 1.55668 6.76427 1.50274 6.84026C1.46834 6.88626 1.41738 6.96138 1.35376 7.05555C1.29968 7.13944 1.26531 7.24606 1.25445 7.34092C1.24359 7.43579 1.25209 7.54734 1.28583 7.64124L1.38183 7.88458C1.41723 7.97075 1.43589 8.05238 1.43499 8.1235C1.43409 8.19462 1.41723 8.27925 1.38183 8.36542C1.35869 8.41798 1.32654 8.50265 1.28582 8.60872C1.25208 8.70262 1.24359 8.81421 1.25445 8.90908C1.26531 9.00394 1.29967 9.11052 1.35375 9.19441L1.50274 9.40973C1.55668 9.48572 1.59358 9.56397 1.61047 9.63307C1.62736 9.70217 1.62848 9.78564 1.61335 9.87755C1.6026 9.93395 1.59115 10.0295 1.57805 10.1423C1.56869 10.2416 1.58267 10.3443 1.61444 10.4344C1.64621 10.5245 1.70624 10.6193 1.77761 10.6891L1.97467 10.8689C2.04561 10.9294 2.09822 10.994 2.12992 11.0577C2.16162 11.1214 2.18329 11.2051 2.19097 11.2979C2.19428 11.3552 2.20347 11.4454 2.21535 11.5583C2.22792 11.6573 2.26991 11.7604 2.32248 11.8401C2.37506 11.9199 2.45348 11.9988 2.53954 12.0495L2.76954 12.1748C2.85187 12.2186 2.92053 12.2712 2.96653 12.3255C3.01252 12.3799 3.05124 12.4535 3.07868 12.5425C3.09421 12.5978 3.12746 12.6869 3.16585 12.7939C3.20158 12.887 3.26508 12.9788 3.33508 13.0438C3.40507 13.1089 3.49841 13.1687 3.59403 13.1976L3.84645 13.2659C3.93681 13.289 4.01463 13.3257 4.07218 13.3676C4.12973 13.4096 4.18417 13.4729 4.23191 13.5529C4.2601 13.603 4.31235 13.6837 4.37502 13.7784C4.43184 13.8605 4.50844 13.9303 4.59076 13.9788C4.67308 14.0274 4.77972 14.0617 4.87934 14.0694L5.14592 14.081C5.2392 14.0819 5.32106 14.0977 5.38632 14.1262C5.45158 14.1547 5.52205 14.2052 5.58766 14.2714C5.62708 14.3132 5.69217 14.3765 5.77399 14.4554C5.84735 14.5231 5.94617 14.5756 6.03783 14.6028C6.12949 14.6301 6.24078 14.6409 6.33928 14.6242L6.59603 14.5722C6.6872 14.5525 6.77368 14.5499 6.84396 14.5615C6.91423 14.5731 6.99154 14.6052 7.07026 14.6551C7.118 14.6871 7.20157 14.736 7.30041 14.7922C7.38827 14.8397 7.48855 14.8677 7.58398 14.8738C7.67942 14.8798 7.79068 14.8634 7.8829 14.825L8.12142 14.7159C8.20582 14.6762 8.28949 14.6529 8.36058 14.6485C8.43167 14.644 8.51421 14.6573 8.60219 14.6882C8.65592 14.7087 8.74829 14.7366 8.85729 14.7691C8.95362 14.7956 9.05753 14.7998 9.15187 14.7842C9.24621 14.7686 9.35053 14.7265 9.43172 14.6683L9.64346 14.5063C9.71531 14.4469 9.78829 14.4067 9.85656 14.3864C9.92484 14.3662 10.0117 14.3603 10.1046 14.3686C10.1617 14.3751 10.2526 14.382 10.3661 14.3895C10.4659 14.3939 10.5756 14.3714 10.6632 14.3331C10.7508 14.2948 10.8429 14.2324 10.9074 14.1562L11.0702 13.9516C11.1273 13.8779 11.1917 13.8207 11.253 13.7845C11.3143 13.7483 11.3941 13.7233 11.4866 13.7111C11.5437 13.7051 11.6384 13.6888 11.7504 13.6688C11.8484 13.6491 11.9427 13.6063 12.0199 13.5501C12.0972 13.4938 12.1705 13.4094 12.2171 13.3211L12.3329 13.0811C12.3708 12.9959 12.4176 12.927 12.4697 12.8786C12.5219 12.8301 12.5956 12.7852 12.6825 12.7515C12.7356 12.7324 12.8172 12.6987 12.9197 12.6565L12.9254 12.6541C13.0169 12.614 13.1033 12.5443 13.165 12.4713C13.2268 12.3984 13.2797 12.3005 13.3041 12.2038L13.3591 11.9478C13.3779 11.8566 13.4083 11.7754 13.4475 11.716C13.4867 11.6566 13.5461 11.5984 13.6239 11.5469C13.6726 11.5164 13.7481 11.4588 13.8399 11.3917C13.9193 11.3311 13.9889 11.2437 14.0315 11.1582C14.074 11.0727 14.1046 10.9658 14.1051 10.866L14.0983 10.6048C14.0947 10.5117 14.1075 10.4265 14.1312 10.3594C14.1548 10.2923 14.2 10.222 14.263 10.1533C14.3028 10.1119 14.3655 10.0384 14.4382 9.95107C14.5004 9.87299 14.5454 9.77938 14.5681 9.68662C14.5908 9.59386 14.5934 9.48165 14.5717 9.38426L14.5062 9.1262C14.4797 9.0369 14.4717 8.95412 14.4798 8.88345C14.4879 8.81279 14.5148 8.73394 14.5608 8.65292C14.5904 8.6037 14.6327 8.51771 14.6839 8.4163Z" stroke="url(#paint3_linear)" stroke-width="2" stroke-linecap="round" stroke-linejoin="round" mask="url(#path-5-inside-2)"/>
</g>
<path d="M12 8C12 5.79294 10.2071 4 8 4C5.79294 4 4 5.79294 4 8C4 10.2071 5.79294 12 8 12C10.2071 12 12 10.2071 12 8Z" fill="url(#paint4_linear)"/>
<path d="M8 3.5C5.5168 3.5 3.5 5.5168 3.5 8C3.5 10.4832 5.5168 12.5 8 12.5C10.4832 12.5 12.5 10.4832 12.5 8C12.5 5.5168 10.4832 3.5 8 3.5Z" stroke="black" stroke-opacity="0.8"/>
<path opacity="0.5" d="M11.5 8C11.5 9.933 9.93299 11.5 8 11.5C6.067 11.5 4.5 9.933 4.5 8C4.5 6.067 6.067 4.5 8 4.5C9.93299 4.5 11.5 6.067 11.5 8Z" stroke="url(#paint5_linear)" stroke-linecap="round" stroke-linejoin="round"/>
<path d="M7.88938 5.6212C10.1049 5.59618 12.3365 6.73528 13.2333 7.5267C12.8083 7.80853 12.8176 8.30814 13.2333 8.5744C11.8276 9.51091 10.0864 10.3487 7.88938 10.3331C5.75471 10.3179 3.85937 9.51339 2.70503 8.60018C3.07545 8.30899 3.12544 7.89655 2.70503 7.54804C3.95575 6.5314 5.72959 5.6456 7.88938 5.6212Z" fill="url(#paint6_linear)"/>
<path fill-rule="evenodd" clip-rule="evenodd" d="M1.84052 8.10695C1.82124 6.97064 5.29408 5.38775 7.88938 5.35299C10.5636 5.31718 14.1595 7.09802 14.1595 8.10695C14.1595 9.11588 10.5446 10.6815 7.88938 10.647C5.31359 10.6135 1.8598 9.24326 1.84052 8.10695ZM13.2333 7.5267C12.3365 6.73528 10.1049 5.59618 7.88938 5.6212C5.72959 5.6456 3.95575 6.5314 2.70503 7.54804C3.12544 7.89655 3.07545 8.30899 2.70503 8.60018C3.85937 9.51339 5.75471 10.3179 7.88938 10.3331C10.0864 10.3487 11.8276 9.51091 13.2333 8.5744C12.8176 8.30814 12.8083 7.80853 13.2333 7.5267Z" fill="url(#paint7_linear)"/>
<circle cx="2.41575" cy="8.05781" r="0.276502" fill="url(#paint8_linear)"/>
<circle cx="13.4604" cy="8.05781" r="0.276502" fill="url(#paint9_linear)"/>
<path d="M4.7058 7.05152C4.44194 7.86607 4.42826 8.18479 4.7058 9.07133C6.64419 9.83989 8.99689 9.92196 11.295 9.07133C11.3007 8.94996 11.295 8.89451 11.295 8.7602C7.31222 9.36408 5.16086 8.7602 5.16086 8.7602V8.27332H10.6427C10.6889 7.96097 10.6889 8.11959 10.6427 7.80724H5.16086V7.31482C5.16086 7.31482 7.76092 6.67189 11.295 7.31482C11.295 7.25266 11.3024 7.18993 11.295 7.05152C9.48519 6.1289 6.54844 6.10154 4.7058 7.05152Z" fill="url(#paint10_linear)"/>
<path d="M10.2762 6.65639C8.76251 6.22076 6.87234 6.24395 5.40171 6.75537C5.44413 6.74768 5.49009 6.73962 5.5395 6.73132C5.85215 6.67879 6.30306 6.61651 6.86594 6.57507C7.75531 6.50961 8.92697 6.496 10.2762 6.65639ZM5.05547 6.88824C5.05544 6.88826 5.05541 6.88827 5.05539 6.88828L5.1297 7.18883L5.12971 7.18883C5.08946 7.02603 5.06747 6.93697 5.05547 6.88824ZM4.66086 7.19354V7.31482V7.77332V7.80724V8.27332V7.19354ZM5.11884 7.40654C5.13278 7.40015 5.14678 7.39382 5.16086 7.38754L5.11884 7.40654ZM10.6427 8.27332V7.80724C10.6658 7.96342 10.6774 8.00185 10.6774 8.04028C10.6774 8.07871 10.6658 8.11715 10.6427 8.27332Z" fill="url(#paint11_linear)" stroke="url(#paint12_linear)"/>
<defs>
<radialGradient id="paint0_radial" cx="0" cy="0" r="1" gradientUnits="userSpaceOnUse" gradientTransform="translate(8 13.6246) scale(6 1.7501)">
<stop/>
<stop offset="1" stop-opacity="0"/>
</radialGradient>
<radialGradient id="paint1_radial" cx="0" cy="0" r="1" gradientUnits="userSpaceOnUse" gradientTransform="translate(8 14.1247) scale(4 1.24994)">
<stop/>
<stop offset="1" stop-opacity="0"/>
</radialGradient>
<linearGradient id="paint2_linear" x1="8" y1="1.25" x2="8" y2="15" gradientUnits="userSpaceOnUse">
<stop stop-color="#EFEFEF"/>
<stop offset="1" stop-color="#C5C5C5"/>
</linearGradient>
<linearGradient id="paint3_linear" x1="7.45611" y1="1.12966" x2="7.45611" y2="15.1936" gradientUnits="userSpaceOnUse">
<stop stop-color="white"/>
<stop offset="0.424479" stop-color="white" stop-opacity="0.28"/>
<stop offset="0.820899" stop-color="white" stop-opacity="0.156863"/>
<stop offset="1" stop-color="white" stop-opacity="0.392157"/>
</linearGradient>
<linearGradient id="paint4_linear" x1="8" y1="4" x2="8" y2="12" gradientUnits="userSpaceOnUse">
<stop stop-color="#333333"/>
<stop offset="1" stop-color="#1A1A1A"/>
</linearGradient>
<linearGradient id="paint5_linear" x1="7.6777" y1="3.85461" x2="7.6777" y2="12.1888" gradientUnits="userSpaceOnUse">
<stop stop-color="white"/>
<stop offset="0.424479" stop-color="white" stop-opacity="0.235294"/>
<stop offset="0.820899" stop-color="white" stop-opacity="0.156863"/>
<stop offset="1" stop-color="white" stop-opacity="0.392157"/>
</linearGradient>
<linearGradient id="paint6_linear" x1="7.99999" y1="5.35246" x2="7.99999" y2="10.6475" gradientUnits="userSpaceOnUse">
<stop stop-color="#112251"/>
<stop offset="1" stop-color="#020D2C"/>
</linearGradient>
<linearGradient id="paint7_linear" x1="7.99999" y1="5.35246" x2="7.99999" y2="10.6475" gradientUnits="userSpaceOnUse">
<stop stop-color="#CDE8FD"/>
<stop offset="1" stop-color="#A4C5FC"/>
</linearGradient>
<linearGradient id="paint8_linear" x1="2.41575" y1="7.78131" x2="2.41575" y2="8.33432" gradientUnits="userSpaceOnUse">
<stop stop-color="white"/>
<stop offset="1" stop-color="#C5C5C5"/>
</linearGradient>
<linearGradient id="paint9_linear" x1="13.4604" y1="7.78131" x2="13.4604" y2="8.33432" gradientUnits="userSpaceOnUse">
<stop stop-color="white"/>
<stop offset="1" stop-color="#C5C5C5"/>
</linearGradient>
<linearGradient id="paint10_linear" x1="7.90053" y1="6.25762" x2="7.90053" y2="9.67892" gradientUnits="userSpaceOnUse">
<stop stop-color="#CDE8FD"/>
<stop offset="1" stop-color="#A4C5FC"/>
</linearGradient>
<linearGradient id="paint11_linear" x1="7.90053" y1="6.25762" x2="7.90053" y2="9.67892" gradientUnits="userSpaceOnUse">
<stop stop-color="#CDE8FD"/>
<stop offset="1" stop-color="#A4C5FC"/>
</linearGradient>
<linearGradient id="paint12_linear" x1="7.90053" y1="6.34926" x2="7.90053" y2="9.67892" gradientUnits="userSpaceOnUse">
<stop stop-color="white"/>
<stop offset="0.453125" stop-color="white" stop-opacity="0"/>
<stop offset="1" stop-color="white" stop-opacity="0.33"/>
</linearGradient>
</defs>
</svg>
