<svg width="16" height="16" viewBox="0 0 16 16" fill="none" xmlns="http://www.w3.org/2000/svg">
<mask id="path-1-inside-1_158_2" fill="white">
<path fill-rule="evenodd" clip-rule="evenodd" d="M9.44904 6.76648C9.44904 7.74704 10.2439 8.54195 11.2245 8.54195C12.2051 8.54195 13 7.74704 13 6.76647V4.39917C13 3.4186 12.2051 2.6237 11.2245 2.6237C10.2439 2.6237 9.44904 3.4186 9.44904 4.39917V6.76647"/>
</mask>
<path d="M8.94904 6.76647V6.76648H9.94904V6.76647H8.94904ZM8.44904 6.76648C8.44904 8.29933 9.69166 9.54195 11.2245 9.54195V7.54195C10.7962 7.54195 10.449 7.19476 10.449 6.76647L8.44904 6.76648ZM11.2245 9.54195C12.7574 9.54195 14 8.29933 14 6.76647H12C12 7.19476 11.6528 7.54195 11.2245 7.54195V9.54195ZM12 4.39917V6.76647H14V4.39917H12ZM14 4.39917C14 2.86632 12.7574 1.6237 11.2245 1.6237V3.6237C11.6528 3.6237 12 3.97089 12 4.39917H14ZM11.2245 1.6237C9.69166 1.6237 8.44904 2.86632 8.44904 4.39917H10.449C10.449 3.97089 10.7962 3.6237 11.2245 3.6237V1.6237ZM10.449 6.76647V4.39917H8.44904V6.76647H10.449Z" fill="#666666" mask="url(#path-1-inside-1_158_2)"/>
<path d="M14.4491 6.83681C14.4491 8.61768 13.0054 10.0614 11.2245 10.0614C9.44368 10.0614 8 8.61768 8 6.83681" stroke="#666666"/>
<path d="M6.46908 8.175C7.83635 13.25 15.1854 10.3552 12.3583 13.25C11.1532 14.3391 9.57013 15 7.83635 15C4.06074 15 1 11.866 1 8C1 4.13401 4.06074 1 7.83635 1C11.612 1 5.10181 3.1 6.46908 8.175Z" fill="#666666"/>
</svg>
