<svg width="16" height="16" viewBox="0 0 16 16" fill="none" xmlns="http://www.w3.org/2000/svg">
<mask id="path-1-outside-1_15_29" maskUnits="userSpaceOnUse" x="4.72957" y="2" width="7" height="10" fill="black">
<rect fill="white" x="4.72957" y="2" width="7" height="10"/>
<path fill-rule="evenodd" clip-rule="evenodd" d="M5.72957 8.29772C5.72957 9.55165 6.74608 10.5682 8.00002 10.5682C9.25395 10.5682 10.2705 9.55165 10.2705 8.29772V5.27343C10.2705 5.27243 10.2705 5.27144 10.2705 5.27045C10.2705 4.01652 9.25396 3 8.00002 3C6.74608 3 5.72957 4.01652 5.72957 5.27045V8.29772Z"/>
</mask>
<path d="M10.2705 5.27343L9.27047 5.27198V5.27343H10.2705ZM4.72957 8.29772C4.72957 10.1039 6.1938 11.5682 8.00002 11.5682V9.56817C7.29837 9.56817 6.72957 8.99937 6.72957 8.29772H4.72957ZM8.00002 11.5682C9.80624 11.5682 11.2705 10.1039 11.2705 8.29772H9.27047C9.27047 8.99937 8.70167 9.56817 8.00002 9.56817V11.5682ZM9.27047 5.27343V8.29772H11.2705V5.27343H9.27047ZM11.2705 5.27487C11.2705 5.27325 11.2705 5.27175 11.2705 5.27045H9.27047C9.27047 5.27114 9.27047 5.27162 9.27047 5.27198L11.2705 5.27487ZM11.2705 5.27045C11.2705 3.46423 9.80624 2 8.00002 2V4C8.70167 4 9.27047 4.5688 9.27047 5.27045H11.2705ZM8.00002 2C6.1938 2 4.72957 3.46423 4.72957 5.27045H6.72957C6.72957 4.5688 7.29837 4 8.00002 4V2ZM6.72957 8.29772V5.27045H4.72957V8.29772H6.72957Z" fill="black" fill-opacity="0.07" mask="url(#path-1-outside-1_15_29)"/>
<path d="M11.4057 8.10851C11.4057 9.98942 9.88091 11.5142 8.00001 11.5142C6.1191 11.5142 4.59433 9.98942 4.59433 8.10851" stroke="black" stroke-opacity="0.07" stroke-width="3"/>
<path d="M5.72955 13H8M10.2705 13H8M8 11.8648V13" stroke="black" stroke-opacity="0.07" stroke-width="2"/>
<mask id="path-5-inside-2_15_29" fill="white">
<path fill-rule="evenodd" clip-rule="evenodd" d="M5.72957 8.29772C5.72957 9.55165 6.74608 10.5682 8.00002 10.5682C9.25395 10.5682 10.2705 9.55165 10.2705 8.29772V5.27343C10.2705 5.27243 10.2705 5.27144 10.2705 5.27045C10.2705 4.01652 9.25396 3 8.00002 3C6.74608 3 5.72957 4.01652 5.72957 5.27045V8.29772Z"/>
</mask>
<path fill-rule="evenodd" clip-rule="evenodd" d="M5.72957 8.29772C5.72957 9.55165 6.74608 10.5682 8.00002 10.5682C9.25395 10.5682 10.2705 9.55165 10.2705 8.29772V5.27343C10.2705 5.27243 10.2705 5.27144 10.2705 5.27045C10.2705 4.01652 9.25396 3 8.00002 3C6.74608 3 5.72957 4.01652 5.72957 5.27045V8.29772Z" fill="url(#paint0_linear_15_29)"/>
<path d="M10.2705 5.27343L9.27047 5.27198V5.27343H10.2705ZM4.72957 8.29772C4.72957 10.1039 6.1938 11.5682 8.00002 11.5682V9.56817C7.29837 9.56817 6.72957 8.99937 6.72957 8.29772H4.72957ZM8.00002 11.5682C9.80624 11.5682 11.2705 10.1039 11.2705 8.29772H9.27047C9.27047 8.99937 8.70167 9.56817 8.00002 9.56817V11.5682ZM9.27047 5.27343V8.29772H11.2705V5.27343H9.27047ZM11.2705 5.27487C11.2705 5.27325 11.2705 5.27175 11.2705 5.27045H9.27047C9.27047 5.27114 9.27047 5.27162 9.27047 5.27198L11.2705 5.27487ZM11.2705 5.27045C11.2705 3.46423 9.80624 2 8.00002 2V4C8.70167 4 9.27047 4.5688 9.27047 5.27045H11.2705ZM8.00002 2C6.1938 2 4.72957 3.46423 4.72957 5.27045H6.72957C6.72957 4.5688 7.29837 4 8.00002 4V2ZM6.72957 8.29772V5.27045H4.72957V8.29772H6.72957Z" fill="url(#paint1_linear_15_29)" mask="url(#path-5-inside-2_15_29)"/>
<path d="M11.4057 8.10851C11.4057 9.98942 9.88091 11.5142 8.00001 11.5142C6.1191 11.5142 4.59433 9.98942 4.59433 8.10851" stroke="url(#paint2_linear_15_29)"/>
<path d="M5.72955 13H8M10.2705 13H8M8 11.8648V13" stroke="url(#paint3_linear_15_29)"/>
<defs>
<linearGradient id="paint0_linear_15_29" x1="8.00002" y1="3" x2="8.00002" y2="10.5682" gradientUnits="userSpaceOnUse">
<stop stop-color="#FF00C7"/>
<stop offset="1" stop-color="#FFB800"/>
</linearGradient>
<linearGradient id="paint1_linear_15_29" x1="8.00002" y1="3" x2="8.00002" y2="13.6932" gradientUnits="userSpaceOnUse">
<stop stop-color="#EEEEEE"/>
<stop offset="1" stop-color="#383838"/>
</linearGradient>
<linearGradient id="paint2_linear_15_29" x1="8.00001" y1="3" x2="8" y2="12" gradientUnits="userSpaceOnUse">
<stop stop-color="white"/>
<stop offset="1" stop-color="#707070"/>
</linearGradient>
<linearGradient id="paint3_linear_15_29" x1="8" y1="2" x2="8" y2="13.5676" gradientUnits="userSpaceOnUse">
<stop stop-color="#212121"/>
<stop offset="1" stop-color="#808080"/>
</linearGradient>
</defs>
</svg>
