<svg width="32" height="32" viewBox="0 0 32 32" fill="none" xmlns="http://www.w3.org/2000/svg">
<path opacity="0.2" d="M28 27.25C28.0002 27.7096 27.69 28.1647 27.0871 28.5894C26.4841 29.014 25.6002 29.3998 24.4859 29.7248C23.3716 30.0499 22.0486 30.3077 20.5926 30.4836C19.1366 30.6595 17.576 30.75 16 30.75C14.424 30.75 12.8634 30.6595 11.4074 30.4836C9.95138 30.3077 8.62843 30.0499 7.51411 29.7248C6.39978 29.3998 5.5159 29.014 4.91295 28.5894C4.30999 28.1647 3.99977 27.7096 4 27.25C3.99977 26.7904 4.30999 26.3353 4.91295 25.9106C5.5159 25.486 6.39978 25.1002 7.51411 24.7752C8.62843 24.4501 9.95138 24.1923 11.4074 24.0164C12.8634 23.8405 14.424 23.75 16 23.75C17.576 23.75 19.1366 23.8405 20.5926 24.0164C22.0486 24.1923 23.3716 24.4501 24.4859 24.7752C25.6002 25.1002 26.4841 25.486 27.0871 25.9106C27.69 26.3353 28.0002 26.7904 28 27.25V27.25Z" fill="url(#paint0_radial)"/>
<path opacity="0.4" d="M24 28.25C24.0003 28.5783 23.7935 28.9034 23.3916 29.2067C22.9897 29.51 22.4005 29.7856 21.6576 30.0177C20.9147 30.2499 20.0327 30.434 19.0619 30.5597C18.0912 30.6853 17.0507 30.75 16 30.75C14.9493 30.75 13.9088 30.6853 12.9381 30.5597C11.9673 30.434 11.0853 30.2499 10.3424 30.0177C9.59954 29.7856 9.01031 29.51 8.60839 29.2067C8.20647 28.9034 7.99974 28.5783 8 28.25C7.99974 27.9217 8.20647 27.5966 8.60839 27.2933C9.01031 26.99 9.59954 26.7144 10.3424 26.4823C11.0853 26.2501 11.9673 26.066 12.9381 25.9403C13.9088 25.8147 14.9493 25.75 16 25.75C17.0507 25.75 18.0912 25.8147 19.0619 25.9403C20.0327 26.066 20.9147 26.2501 21.6576 26.4823C22.4005 26.7144 22.9897 26.99 23.3916 27.2933C23.7935 27.5966 24.0003 27.9217 24 28.25Z" fill="url(#paint1_radial)"/>
<path d="M29.6154 16.8434C29.7031 16.66 29.7475 16.4357 29.75 16.2412C29.7475 16.0467 29.7031 15.8401 29.6154 15.6567L29.3646 15.1746C29.2708 15.0096 29.216 14.849 29.1996 14.7051C29.1831 14.5611 29.1993 14.3924 29.2533 14.2105C29.2894 14.0993 29.3318 13.9097 29.3869 13.6849C29.431 13.4865 29.4256 13.2579 29.3794 13.0689C29.3333 12.88 29.2417 12.6894 29.115 12.5303L28.7579 12.1184C28.6296 11.9784 28.5376 11.8352 28.4894 11.6985C28.4412 11.5618 28.4151 11.3882 28.4225 11.1986C28.4301 11.0819 28.4323 10.8979 28.4363 10.6666C28.4353 10.4633 28.373 10.2455 28.2863 10.0713C28.1996 9.89712 28.0578 9.71915 27.8962 9.59563L27.456 9.2794C27.2977 9.17455 27.1766 9.05612 27.0968 8.9351C27.0171 8.81407 26.955 8.64867 26.9167 8.46283C26.8959 8.34773 26.8564 8.16705 26.8047 7.94149C26.7551 7.7444 26.6471 7.54486 26.5213 7.39633C26.3955 7.24781 26.2196 7.1057 26.0332 7.02406L25.5385 6.82568C25.3613 6.75705 25.2113 6.66559 25.1051 6.56687C24.9989 6.46815 24.9034 6.32772 24.8263 6.15431C24.7832 6.0504 24.7007 5.88553 24.6023 5.68895L24.5904 5.66535C24.4955 5.48557 24.3461 5.31352 24.1887 5.19891C24.0314 5.0843 23.8393 4.9972 23.6398 4.95714L23.1022 4.87084C22.9138 4.84609 22.7515 4.79517 22.6266 4.72144C22.5017 4.6477 22.3704 4.53112 22.2541 4.38101C22.1849 4.28673 22.0684 4.14414 21.9226 3.96427C21.7912 3.80908 21.6034 3.68184 21.425 3.60388C21.2465 3.52593 21.0232 3.48002 20.8198 3.48905L20.2871 3.53165C20.0978 3.54844 19.9211 3.53655 19.782 3.49524C19.6429 3.45393 19.4941 3.3721 19.3478 3.2511C19.2595 3.1743 19.1019 3.05987 18.9166 2.92101C18.7512 2.80259 18.5386 2.71668 18.3464 2.68489C18.1542 2.6531 17.9426 2.66175 17.7464 2.7157L17.2267 2.88044C17.0475 2.94347 16.8794 2.97066 16.7346 2.96149C16.5898 2.95233 16.4193 2.90498 16.2473 2.82418C16.1427 2.77176 15.9734 2.69549 15.7615 2.60186C15.5737 2.52364 15.347 2.49018 15.1526 2.50248C14.9582 2.51478 14.754 2.57182 14.575 2.66859L14.1061 2.9479C13.9457 3.04969 13.7883 3.11495 13.6452 3.13863C13.502 3.16231 13.3258 3.15691 13.1401 3.11682C13.0287 3.08986 12.8525 3.05604 12.6318 3.01367L12.6171 3.01085C12.4165 2.97679 12.1897 2.99893 12.003 3.05439C11.8163 3.10985 11.615 3.21671 11.4656 3.3547L11.086 3.72959C10.9523 3.86444 10.8089 3.96717 10.6759 4.02524C10.543 4.08331 10.3761 4.11564 10.1861 4.11746C10.069 4.11566 9.87453 4.12795 9.64317 4.14095C9.44026 4.15674 9.22294 4.22651 9.05525 4.3255C8.88757 4.42448 8.73161 4.56652 8.61585 4.73367L8.32427 5.19313C8.227 5.35612 8.11619 5.48511 7.99896 5.57048C7.88173 5.65586 7.72313 5.73072 7.53906 5.7778C7.42491 5.80398 7.2481 5.85452 7.02493 5.91681C6.83015 5.97574 6.63996 6.09767 6.49738 6.2302C6.3548 6.36273 6.2255 6.54952 6.15271 6.73931L5.97508 7.25132C5.9192 7.43266 5.84037 7.58263 5.74668 7.69327C5.65299 7.8039 5.51307 7.91121 5.34537 8.00041C5.24065 8.0528 5.07897 8.1423 4.87689 8.25552C4.70159 8.35877 4.54179 8.51972 4.43469 8.68219C4.32759 8.84466 4.24211 9.05451 4.21649 9.25612L4.1668 9.78664C4.15114 9.97573 4.10703 10.1462 4.04246 10.2759C3.97789 10.4057 3.87069 10.5374 3.72619 10.6606C3.63525 10.7343 3.49377 10.8684 3.3248 11.0268C3.17942 11.169 3.05709 11.3622 2.99238 11.5457C2.92767 11.7291 2.89922 11.9383 2.91828 12.1406L2.99015 12.68C3.02098 12.8672 3.01871 13.0372 2.98431 13.1779C2.94991 13.3187 2.87472 13.4782 2.76485 13.6329C2.69476 13.7266 2.59095 13.8797 2.46136 14.0715C2.3512 14.2424 2.28118 14.4596 2.25906 14.6528C2.23694 14.8461 2.25425 15.0733 2.32298 15.2646L2.51854 15.7603C2.59066 15.9358 2.62866 16.1021 2.62682 16.2469C2.62499 16.3918 2.59066 16.5642 2.51854 16.7397C2.4714 16.8468 2.40591 17.0193 2.32297 17.2353C2.25425 17.4266 2.23694 17.6539 2.25906 17.8472C2.28118 18.0404 2.35119 18.2575 2.46134 18.4284L2.76485 18.8671C2.87472 19.0218 2.94989 19.1812 2.98429 19.322C3.01869 19.4628 3.02098 19.6328 2.99015 19.82C2.96827 19.9349 2.94493 20.1294 2.91826 20.3593C2.89919 20.5616 2.92767 20.7709 2.99238 20.9543C3.05709 21.1378 3.17939 21.3309 3.32476 21.4732L3.72619 21.8394C3.87069 21.9626 3.97785 22.0942 4.04242 22.224C4.107 22.3537 4.15114 22.5243 4.1668 22.7134C4.17353 22.8301 4.19225 23.0137 4.21645 23.2438C4.24206 23.4454 4.32759 23.6553 4.43469 23.8178C4.54179 23.9803 4.70154 24.1412 4.87684 24.2444L5.34537 24.4996C5.51307 24.5888 5.65294 24.696 5.74663 24.8067C5.84032 24.9173 5.9192 25.0673 5.97508 25.2487C6.00672 25.3613 6.07446 25.5428 6.15265 25.7606C6.22544 25.9504 6.3548 26.1373 6.49738 26.2698C6.63995 26.4023 6.83008 26.5242 7.02487 26.5831L7.53906 26.7222C7.72313 26.7693 7.88166 26.8441 7.99889 26.9295C8.11612 27.0148 8.227 27.1439 8.32427 27.3069C8.38169 27.4088 8.48812 27.5732 8.61577 27.7663C8.73153 27.9334 8.88757 28.0755 9.05525 28.1745C9.22294 28.2735 9.44018 28.3432 9.64309 28.359L10.1861 28.3825C10.3761 28.3844 10.5429 28.4167 10.6758 28.4747C10.8088 28.5328 10.9523 28.6356 11.086 28.7704C11.1663 28.8556 11.2989 28.9845 11.4655 29.1453C11.615 29.2833 11.8163 29.3902 12.003 29.4456C12.1897 29.5011 12.4164 29.5232 12.6171 29.4891L13.1401 29.3832C13.3258 29.3431 13.5019 29.3377 13.6451 29.3614C13.7882 29.385 13.9457 29.4503 14.1061 29.5521C14.2033 29.6173 14.3736 29.7169 14.5749 29.8314C14.7539 29.9282 14.9582 29.9852 15.1526 29.9975C15.347 30.0098 15.5736 29.9764 15.7615 29.8981L16.2473 29.6758C16.4193 29.595 16.5897 29.5477 16.7345 29.5385C16.8793 29.5293 17.0475 29.5565 17.2267 29.6196C17.3361 29.6612 17.5243 29.7181 17.7463 29.7843C17.9426 29.8383 18.1542 29.8469 18.3464 29.8151C18.5386 29.7833 18.7511 29.6974 18.9165 29.579L19.3478 29.2489C19.4941 29.1279 19.6428 29.0461 19.7819 29.0048C19.921 28.9635 20.0978 28.9516 20.2871 28.9684C20.4035 28.9816 20.5885 28.9957 20.8197 29.011C21.0231 29.02 21.2465 28.9741 21.425 28.8961C21.6034 28.8182 21.7911 28.691 21.9225 28.5358L22.2541 28.119C22.3704 27.9689 22.5016 27.8523 22.6265 27.7786C22.7514 27.7049 22.9138 27.6539 23.1022 27.6292C23.2187 27.6168 23.4116 27.5836 23.6397 27.5429C23.8392 27.5028 24.0314 27.4157 24.1887 27.3011C24.3461 27.1865 24.4955 27.0145 24.5904 26.8347L24.8263 26.3457C24.9034 26.1723 24.9988 26.0319 25.105 25.9332C25.2112 25.8345 25.3613 25.7429 25.5385 25.6743C25.6467 25.6355 25.8129 25.5669 26.0216 25.4808L26.0332 25.476C26.2195 25.3944 26.3955 25.2522 26.5213 25.1037C26.6471 24.9551 26.755 24.7557 26.8047 24.5586L26.9167 24.0372C26.955 23.8513 27.017 23.686 27.0968 23.565C27.1766 23.444 27.2977 23.3254 27.456 23.2206C27.5552 23.1584 27.7092 23.0411 27.8962 22.9044C28.0578 22.7809 28.1996 22.6029 28.2863 22.4287C28.373 22.2545 28.4353 22.0368 28.4362 21.8335L28.4225 21.3014C28.4151 21.1118 28.4412 20.9382 28.4894 20.8016C28.5376 20.6649 28.6296 20.5216 28.7579 20.3817C28.8391 20.2974 28.9668 20.1477 29.1149 19.9698C29.2417 19.8107 29.3333 19.62 29.3794 19.4311C29.4256 19.2421 29.431 19.0135 29.3869 18.8152L29.2533 18.2895C29.1993 18.1076 29.1831 17.9389 29.1996 17.795C29.216 17.6511 29.2708 17.4904 29.3646 17.3254C29.4249 17.2251 29.511 17.05 29.6154 16.8434Z" fill="url(#paint2_linear)"/>
<g opacity="0.5">
<mask id="path-4-inside-1" fill="white">
<path d="M29.6154 16.8434C29.7031 16.66 29.7475 16.4357 29.75 16.2412C29.7475 16.0467 29.7031 15.8401 29.6154 15.6567L29.3646 15.1746C29.2708 15.0096 29.216 14.849 29.1996 14.7051C29.1831 14.5611 29.1993 14.3924 29.2533 14.2105C29.2894 14.0993 29.3318 13.9097 29.3869 13.6849C29.431 13.4865 29.4256 13.2579 29.3794 13.0689C29.3333 12.88 29.2417 12.6894 29.115 12.5303L28.7579 12.1184C28.6296 11.9784 28.5376 11.8352 28.4894 11.6985C28.4412 11.5618 28.4151 11.3882 28.4225 11.1986C28.4301 11.0819 28.4323 10.8979 28.4363 10.6666C28.4353 10.4633 28.373 10.2455 28.2863 10.0713C28.1996 9.89712 28.0578 9.71915 27.8962 9.59563L27.456 9.2794C27.2977 9.17455 27.1766 9.05612 27.0968 8.9351C27.0171 8.81407 26.955 8.64867 26.9167 8.46283C26.8959 8.34773 26.8564 8.16705 26.8047 7.94149C26.7551 7.7444 26.6471 7.54486 26.5213 7.39633C26.3955 7.24781 26.2196 7.1057 26.0332 7.02406L25.5385 6.82568C25.3613 6.75705 25.2113 6.66559 25.1051 6.56687C24.9989 6.46815 24.9034 6.32772 24.8263 6.15431C24.7832 6.0504 24.7007 5.88553 24.6023 5.68895L24.5904 5.66535C24.4955 5.48557 24.3461 5.31352 24.1887 5.19891C24.0314 5.0843 23.8393 4.9972 23.6398 4.95714L23.1022 4.87084C22.9138 4.84609 22.7515 4.79517 22.6266 4.72144C22.5017 4.6477 22.3704 4.53112 22.2541 4.38101C22.1849 4.28673 22.0684 4.14414 21.9226 3.96427C21.7912 3.80908 21.6034 3.68184 21.425 3.60388C21.2465 3.52593 21.0232 3.48002 20.8198 3.48905L20.2871 3.53165C20.0978 3.54844 19.9211 3.53655 19.782 3.49524C19.6429 3.45393 19.4941 3.3721 19.3478 3.2511C19.2595 3.1743 19.1019 3.05987 18.9166 2.92101C18.7512 2.80259 18.5386 2.71668 18.3464 2.68489C18.1542 2.6531 17.9426 2.66175 17.7464 2.7157L17.2267 2.88044C17.0475 2.94347 16.8794 2.97066 16.7346 2.96149C16.5898 2.95233 16.4193 2.90498 16.2473 2.82418C16.1427 2.77176 15.9734 2.69549 15.7615 2.60186C15.5737 2.52364 15.347 2.49018 15.1526 2.50248C14.9582 2.51478 14.754 2.57182 14.575 2.66859L14.1061 2.9479C13.9457 3.04969 13.7883 3.11495 13.6452 3.13863C13.502 3.16231 13.3258 3.15691 13.1401 3.11682C13.0287 3.08986 12.8525 3.05604 12.6318 3.01367L12.6171 3.01085C12.4165 2.97679 12.1897 2.99893 12.003 3.05439C11.8163 3.10985 11.615 3.21671 11.4656 3.3547L11.086 3.72959C10.9523 3.86444 10.8089 3.96717 10.6759 4.02524C10.543 4.08331 10.3761 4.11564 10.1861 4.11746C10.069 4.11566 9.87453 4.12795 9.64317 4.14095C9.44026 4.15674 9.22294 4.22651 9.05525 4.3255C8.88757 4.42448 8.73161 4.56652 8.61585 4.73367L8.32427 5.19313C8.227 5.35612 8.11619 5.48511 7.99896 5.57048C7.88173 5.65586 7.72313 5.73072 7.53906 5.7778C7.42491 5.80398 7.2481 5.85452 7.02493 5.91681C6.83015 5.97574 6.63996 6.09767 6.49738 6.2302C6.3548 6.36273 6.2255 6.54952 6.15271 6.73931L5.97508 7.25132C5.9192 7.43266 5.84037 7.58263 5.74668 7.69327C5.65299 7.8039 5.51307 7.91121 5.34537 8.00041C5.24065 8.0528 5.07897 8.1423 4.87689 8.25552C4.70159 8.35877 4.54179 8.51972 4.43469 8.68219C4.32759 8.84466 4.24211 9.05451 4.21649 9.25612L4.1668 9.78664C4.15114 9.97573 4.10703 10.1462 4.04246 10.2759C3.97789 10.4057 3.87069 10.5374 3.72619 10.6606C3.63525 10.7343 3.49377 10.8684 3.3248 11.0268C3.17942 11.169 3.05709 11.3622 2.99238 11.5457C2.92767 11.7291 2.89922 11.9383 2.91828 12.1406L2.99015 12.68C3.02098 12.8672 3.01871 13.0372 2.98431 13.1779C2.94991 13.3187 2.87472 13.4782 2.76485 13.6329C2.69476 13.7266 2.59095 13.8797 2.46136 14.0715C2.3512 14.2424 2.28118 14.4596 2.25906 14.6528C2.23694 14.8461 2.25425 15.0733 2.32298 15.2646L2.51854 15.7603C2.59066 15.9358 2.62866 16.1021 2.62682 16.2469C2.62499 16.3918 2.59066 16.5642 2.51854 16.7397C2.4714 16.8468 2.40591 17.0193 2.32297 17.2353C2.25425 17.4266 2.23694 17.6539 2.25906 17.8472C2.28118 18.0404 2.35119 18.2575 2.46134 18.4284L2.76485 18.8671C2.87472 19.0218 2.94989 19.1812 2.98429 19.322C3.01869 19.4628 3.02098 19.6328 2.99015 19.82C2.96827 19.9349 2.94493 20.1294 2.91826 20.3593C2.89919 20.5616 2.92767 20.7709 2.99238 20.9543C3.05709 21.1378 3.17939 21.3309 3.32476 21.4732L3.72619 21.8394C3.87069 21.9626 3.97785 22.0942 4.04242 22.224C4.107 22.3537 4.15114 22.5243 4.1668 22.7134C4.17353 22.8301 4.19225 23.0137 4.21645 23.2438C4.24206 23.4454 4.32759 23.6553 4.43469 23.8178C4.54179 23.9803 4.70154 24.1412 4.87684 24.2444L5.34537 24.4996C5.51307 24.5888 5.65294 24.696 5.74663 24.8067C5.84032 24.9173 5.9192 25.0673 5.97508 25.2487C6.00672 25.3613 6.07446 25.5428 6.15265 25.7606C6.22544 25.9504 6.3548 26.1373 6.49738 26.2698C6.63995 26.4023 6.83008 26.5242 7.02487 26.5831L7.53906 26.7222C7.72313 26.7693 7.88166 26.8441 7.99889 26.9295C8.11612 27.0148 8.227 27.1439 8.32427 27.3069C8.38169 27.4088 8.48812 27.5732 8.61577 27.7663C8.73153 27.9334 8.88757 28.0755 9.05525 28.1745C9.22294 28.2735 9.44018 28.3432 9.64309 28.359L10.1861 28.3825C10.3761 28.3844 10.5429 28.4167 10.6758 28.4747C10.8088 28.5328 10.9523 28.6356 11.086 28.7704C11.1663 28.8556 11.2989 28.9845 11.4655 29.1453C11.615 29.2833 11.8163 29.3902 12.003 29.4456C12.1897 29.5011 12.4164 29.5232 12.6171 29.4891L13.1401 29.3832C13.3258 29.3431 13.5019 29.3377 13.6451 29.3614C13.7882 29.385 13.9457 29.4503 14.1061 29.5521C14.2033 29.6173 14.3736 29.7169 14.5749 29.8314C14.7539 29.9282 14.9582 29.9852 15.1526 29.9975C15.347 30.0098 15.5736 29.9764 15.7615 29.8981L16.2473 29.6758C16.4193 29.595 16.5897 29.5477 16.7345 29.5385C16.8793 29.5293 17.0475 29.5565 17.2267 29.6196C17.3361 29.6612 17.5243 29.7181 17.7463 29.7843C17.9426 29.8383 18.1542 29.8469 18.3464 29.8151C18.5386 29.7833 18.7511 29.6974 18.9165 29.579L19.3478 29.2489C19.4941 29.1279 19.6428 29.0461 19.7819 29.0048C19.921 28.9635 20.0978 28.9516 20.2871 28.9684C20.4035 28.9816 20.5885 28.9957 20.8197 29.011C21.0231 29.02 21.2465 28.9741 21.425 28.8961C21.6034 28.8182 21.7911 28.691 21.9225 28.5358L22.2541 28.119C22.3704 27.9689 22.5016 27.8523 22.6265 27.7786C22.7514 27.7049 22.9138 27.6539 23.1022 27.6292C23.2187 27.6168 23.4116 27.5836 23.6397 27.5429C23.8392 27.5028 24.0314 27.4157 24.1887 27.3011C24.3461 27.1865 24.4955 27.0145 24.5904 26.8347L24.8263 26.3457C24.9034 26.1723 24.9988 26.0319 25.105 25.9332C25.2112 25.8345 25.3613 25.7429 25.5385 25.6743C25.6467 25.6355 25.8129 25.5669 26.0216 25.4808L26.0332 25.476C26.2195 25.3944 26.3955 25.2522 26.5213 25.1037C26.6471 24.9551 26.755 24.7557 26.8047 24.5586L26.9167 24.0372C26.955 23.8513 27.017 23.686 27.0968 23.565C27.1766 23.444 27.2977 23.3254 27.456 23.2206C27.5552 23.1584 27.7092 23.0411 27.8962 22.9044C28.0578 22.7809 28.1996 22.6029 28.2863 22.4287C28.373 22.2545 28.4353 22.0368 28.4362 21.8335L28.4225 21.3014C28.4151 21.1118 28.4412 20.9382 28.4894 20.8016C28.5376 20.6649 28.6296 20.5216 28.7579 20.3817C28.8391 20.2974 28.9668 20.1477 29.1149 19.9698C29.2417 19.8107 29.3333 19.62 29.3794 19.4311C29.4256 19.2421 29.431 19.0135 29.3869 18.8152L29.2533 18.2895C29.1993 18.1076 29.1831 17.9389 29.1996 17.795C29.216 17.6511 29.2708 17.4904 29.3646 17.3254C29.4249 17.2251 29.511 17.05 29.6154 16.8434Z"/>
</mask>
<path d="M29.6154 16.8434C29.7031 16.66 29.7475 16.4357 29.75 16.2412C29.7475 16.0467 29.7031 15.8401 29.6154 15.6567L29.3646 15.1746C29.2708 15.0096 29.216 14.849 29.1996 14.7051C29.1831 14.5611 29.1993 14.3924 29.2533 14.2105C29.2894 14.0993 29.3318 13.9097 29.3869 13.6849C29.431 13.4865 29.4256 13.2579 29.3794 13.0689C29.3333 12.88 29.2417 12.6894 29.115 12.5303L28.7579 12.1184C28.6296 11.9784 28.5376 11.8352 28.4894 11.6985C28.4412 11.5618 28.4151 11.3882 28.4225 11.1986C28.4301 11.0819 28.4323 10.8979 28.4363 10.6666C28.4353 10.4633 28.373 10.2455 28.2863 10.0713C28.1996 9.89712 28.0578 9.71915 27.8962 9.59563L27.456 9.2794C27.2977 9.17455 27.1766 9.05612 27.0968 8.9351C27.0171 8.81407 26.955 8.64867 26.9167 8.46283C26.8959 8.34773 26.8564 8.16705 26.8047 7.94149C26.7551 7.7444 26.6471 7.54486 26.5213 7.39633C26.3955 7.24781 26.2196 7.1057 26.0332 7.02406L25.5385 6.82568C25.3613 6.75705 25.2113 6.66559 25.1051 6.56687C24.9989 6.46815 24.9034 6.32772 24.8263 6.15431C24.7832 6.0504 24.7007 5.88553 24.6023 5.68895L24.5904 5.66535C24.4955 5.48557 24.3461 5.31352 24.1887 5.19891C24.0314 5.0843 23.8393 4.9972 23.6398 4.95714L23.1022 4.87084C22.9138 4.84609 22.7515 4.79517 22.6266 4.72144C22.5017 4.6477 22.3704 4.53112 22.2541 4.38101C22.1849 4.28673 22.0684 4.14414 21.9226 3.96427C21.7912 3.80908 21.6034 3.68184 21.425 3.60388C21.2465 3.52593 21.0232 3.48002 20.8198 3.48905L20.2871 3.53165C20.0978 3.54844 19.9211 3.53655 19.782 3.49524C19.6429 3.45393 19.4941 3.3721 19.3478 3.2511C19.2595 3.1743 19.1019 3.05987 18.9166 2.92101C18.7512 2.80259 18.5386 2.71668 18.3464 2.68489C18.1542 2.6531 17.9426 2.66175 17.7464 2.7157L17.2267 2.88044C17.0475 2.94347 16.8794 2.97066 16.7346 2.96149C16.5898 2.95233 16.4193 2.90498 16.2473 2.82418C16.1427 2.77176 15.9734 2.69549 15.7615 2.60186C15.5737 2.52364 15.347 2.49018 15.1526 2.50248C14.9582 2.51478 14.754 2.57182 14.575 2.66859L14.1061 2.9479C13.9457 3.04969 13.7883 3.11495 13.6452 3.13863C13.502 3.16231 13.3258 3.15691 13.1401 3.11682C13.0287 3.08986 12.8525 3.05604 12.6318 3.01367L12.6171 3.01085C12.4165 2.97679 12.1897 2.99893 12.003 3.05439C11.8163 3.10985 11.615 3.21671 11.4656 3.3547L11.086 3.72959C10.9523 3.86444 10.8089 3.96717 10.6759 4.02524C10.543 4.08331 10.3761 4.11564 10.1861 4.11746C10.069 4.11566 9.87453 4.12795 9.64317 4.14095C9.44026 4.15674 9.22294 4.22651 9.05525 4.3255C8.88757 4.42448 8.73161 4.56652 8.61585 4.73367L8.32427 5.19313C8.227 5.35612 8.11619 5.48511 7.99896 5.57048C7.88173 5.65586 7.72313 5.73072 7.53906 5.7778C7.42491 5.80398 7.2481 5.85452 7.02493 5.91681C6.83015 5.97574 6.63996 6.09767 6.49738 6.2302C6.3548 6.36273 6.2255 6.54952 6.15271 6.73931L5.97508 7.25132C5.9192 7.43266 5.84037 7.58263 5.74668 7.69327C5.65299 7.8039 5.51307 7.91121 5.34537 8.00041C5.24065 8.0528 5.07897 8.1423 4.87689 8.25552C4.70159 8.35877 4.54179 8.51972 4.43469 8.68219C4.32759 8.84466 4.24211 9.05451 4.21649 9.25612L4.1668 9.78664C4.15114 9.97573 4.10703 10.1462 4.04246 10.2759C3.97789 10.4057 3.87069 10.5374 3.72619 10.6606C3.63525 10.7343 3.49377 10.8684 3.3248 11.0268C3.17942 11.169 3.05709 11.3622 2.99238 11.5457C2.92767 11.7291 2.89922 11.9383 2.91828 12.1406L2.99015 12.68C3.02098 12.8672 3.01871 13.0372 2.98431 13.1779C2.94991 13.3187 2.87472 13.4782 2.76485 13.6329C2.69476 13.7266 2.59095 13.8797 2.46136 14.0715C2.3512 14.2424 2.28118 14.4596 2.25906 14.6528C2.23694 14.8461 2.25425 15.0733 2.32298 15.2646L2.51854 15.7603C2.59066 15.9358 2.62866 16.1021 2.62682 16.2469C2.62499 16.3918 2.59066 16.5642 2.51854 16.7397C2.4714 16.8468 2.40591 17.0193 2.32297 17.2353C2.25425 17.4266 2.23694 17.6539 2.25906 17.8472C2.28118 18.0404 2.35119 18.2575 2.46134 18.4284L2.76485 18.8671C2.87472 19.0218 2.94989 19.1812 2.98429 19.322C3.01869 19.4628 3.02098 19.6328 2.99015 19.82C2.96827 19.9349 2.94493 20.1294 2.91826 20.3593C2.89919 20.5616 2.92767 20.7709 2.99238 20.9543C3.05709 21.1378 3.17939 21.3309 3.32476 21.4732L3.72619 21.8394C3.87069 21.9626 3.97785 22.0942 4.04242 22.224C4.107 22.3537 4.15114 22.5243 4.1668 22.7134C4.17353 22.8301 4.19225 23.0137 4.21645 23.2438C4.24206 23.4454 4.32759 23.6553 4.43469 23.8178C4.54179 23.9803 4.70154 24.1412 4.87684 24.2444L5.34537 24.4996C5.51307 24.5888 5.65294 24.696 5.74663 24.8067C5.84032 24.9173 5.9192 25.0673 5.97508 25.2487C6.00672 25.3613 6.07446 25.5428 6.15265 25.7606C6.22544 25.9504 6.3548 26.1373 6.49738 26.2698C6.63995 26.4023 6.83008 26.5242 7.02487 26.5831L7.53906 26.7222C7.72313 26.7693 7.88166 26.8441 7.99889 26.9295C8.11612 27.0148 8.227 27.1439 8.32427 27.3069C8.38169 27.4088 8.48812 27.5732 8.61577 27.7663C8.73153 27.9334 8.88757 28.0755 9.05525 28.1745C9.22294 28.2735 9.44018 28.3432 9.64309 28.359L10.1861 28.3825C10.3761 28.3844 10.5429 28.4167 10.6758 28.4747C10.8088 28.5328 10.9523 28.6356 11.086 28.7704C11.1663 28.8556 11.2989 28.9845 11.4655 29.1453C11.615 29.2833 11.8163 29.3902 12.003 29.4456C12.1897 29.5011 12.4164 29.5232 12.6171 29.4891L13.1401 29.3832C13.3258 29.3431 13.5019 29.3377 13.6451 29.3614C13.7882 29.385 13.9457 29.4503 14.1061 29.5521C14.2033 29.6173 14.3736 29.7169 14.5749 29.8314C14.7539 29.9282 14.9582 29.9852 15.1526 29.9975C15.347 30.0098 15.5736 29.9764 15.7615 29.8981L16.2473 29.6758C16.4193 29.595 16.5897 29.5477 16.7345 29.5385C16.8793 29.5293 17.0475 29.5565 17.2267 29.6196C17.3361 29.6612 17.5243 29.7181 17.7463 29.7843C17.9426 29.8383 18.1542 29.8469 18.3464 29.8151C18.5386 29.7833 18.7511 29.6974 18.9165 29.579L19.3478 29.2489C19.4941 29.1279 19.6428 29.0461 19.7819 29.0048C19.921 28.9635 20.0978 28.9516 20.2871 28.9684C20.4035 28.9816 20.5885 28.9957 20.8197 29.011C21.0231 29.02 21.2465 28.9741 21.425 28.8961C21.6034 28.8182 21.7911 28.691 21.9225 28.5358L22.2541 28.119C22.3704 27.9689 22.5016 27.8523 22.6265 27.7786C22.7514 27.7049 22.9138 27.6539 23.1022 27.6292C23.2187 27.6168 23.4116 27.5836 23.6397 27.5429C23.8392 27.5028 24.0314 27.4157 24.1887 27.3011C24.3461 27.1865 24.4955 27.0145 24.5904 26.8347L24.8263 26.3457C24.9034 26.1723 24.9988 26.0319 25.105 25.9332C25.2112 25.8345 25.3613 25.7429 25.5385 25.6743C25.6467 25.6355 25.8129 25.5669 26.0216 25.4808L26.0332 25.476C26.2195 25.3944 26.3955 25.2522 26.5213 25.1037C26.6471 24.9551 26.755 24.7557 26.8047 24.5586L26.9167 24.0372C26.955 23.8513 27.017 23.686 27.0968 23.565C27.1766 23.444 27.2977 23.3254 27.456 23.2206C27.5552 23.1584 27.7092 23.0411 27.8962 22.9044C28.0578 22.7809 28.1996 22.6029 28.2863 22.4287C28.373 22.2545 28.4353 22.0368 28.4362 21.8335L28.4225 21.3014C28.4151 21.1118 28.4412 20.9382 28.4894 20.8016C28.5376 20.6649 28.6296 20.5216 28.7579 20.3817C28.8391 20.2974 28.9668 20.1477 29.1149 19.9698C29.2417 19.8107 29.3333 19.62 29.3794 19.4311C29.4256 19.2421 29.431 19.0135 29.3869 18.8152L29.2533 18.2895C29.1993 18.1076 29.1831 17.9389 29.1996 17.795C29.216 17.6511 29.2708 17.4904 29.3646 17.3254C29.4249 17.2251 29.511 17.05 29.6154 16.8434Z" stroke="#0E141F" stroke-opacity="0.75" stroke-width="2" mask="url(#path-4-inside-1)"/>
</g>
<g opacity="0.5">
<mask id="path-5-inside-2" fill="white">
<path d="M29.3678 16.8326C29.454 16.6526 29.4976 16.4323 29.5 16.2413C29.4976 16.0504 29.454 15.8475 29.3678 15.6675L29.1216 15.1942C29.0296 15.0321 28.9757 14.8745 28.9596 14.7332C28.9434 14.5918 28.9593 14.4262 29.0124 14.2476C29.0478 14.1384 29.0894 13.9522 29.1435 13.7316C29.1868 13.5368 29.1815 13.3123 29.1362 13.1268C29.0908 12.9412 29.0009 12.7541 28.8765 12.5979L28.5259 12.1935C28.4 12.0561 28.3097 11.9154 28.2623 11.7812C28.215 11.6471 28.1893 11.4766 28.1967 11.2905C28.2041 11.1759 28.2063 10.9952 28.2101 10.7681C28.2092 10.5685 28.148 10.3547 28.0629 10.1836C27.9778 10.0126 27.8386 9.83789 27.6799 9.71661L27.2477 9.40614C27.0923 9.3032 26.9734 9.18692 26.8951 9.06809C26.8167 8.94927 26.7558 8.78688 26.7182 8.60442C26.6978 8.49141 26.659 8.31401 26.6083 8.09256C26.5595 7.89905 26.4535 7.70314 26.33 7.55731C26.2065 7.41148 26.0338 7.27196 25.8508 7.1918L25.365 6.99703C25.1911 6.92965 25.0438 6.83986 24.9395 6.74293C24.8352 6.646 24.7415 6.50813 24.6658 6.33787C24.6235 6.23586 24.5425 6.07403 24.4459 5.88106L24.4343 5.8578C24.3411 5.68128 24.1944 5.51237 24.0399 5.39984C23.8853 5.28731 23.6968 5.2018 23.5009 5.16246L22.9731 5.07773C22.7881 5.05344 22.6288 5.00344 22.5061 4.93105C22.3835 4.85865 22.2545 4.74419 22.1404 4.59681C22.0724 4.50424 21.958 4.36425 21.8149 4.18765C21.6859 4.03528 21.5016 3.91035 21.3263 3.83381C21.1511 3.75727 20.9318 3.7122 20.7322 3.72106L20.2092 3.76289C20.0233 3.77938 19.8498 3.76771 19.7132 3.72715C19.5767 3.68659 19.4306 3.60624 19.2869 3.48745C19.2002 3.41204 19.0455 3.29969 18.8635 3.16336C18.7011 3.04709 18.4924 2.96274 18.3037 2.93153C18.1151 2.90032 17.9073 2.90881 17.7147 2.96178L17.2044 3.12352C17.0284 3.18541 16.8634 3.2121 16.7212 3.2031C16.5791 3.19411 16.4116 3.14762 16.2428 3.06829C16.1401 3.01681 15.9739 2.94194 15.7659 2.85C15.5814 2.77321 15.3588 2.74036 15.168 2.75244C14.9771 2.76452 14.7766 2.82051 14.6009 2.91552L14.1405 3.18976C13.9831 3.2897 13.8285 3.35377 13.688 3.37702C13.5474 3.40027 13.3744 3.39497 13.1921 3.35561C13.0827 3.32913 12.9097 3.29592 12.693 3.25433L12.6786 3.25156C12.4816 3.21812 12.259 3.23986 12.0757 3.29431C11.8923 3.34876 11.6948 3.45368 11.5481 3.58916L11.1753 3.95723C11.0441 4.08963 10.9032 4.19049 10.7727 4.24751C10.6422 4.30452 10.4784 4.33627 10.2918 4.33805C10.1769 4.33628 9.9859 4.34836 9.75875 4.36112C9.55952 4.37662 9.34616 4.44512 9.18152 4.54231C9.01689 4.63949 8.86376 4.77894 8.7501 4.94306L8.46383 5.39417C8.36833 5.55419 8.25953 5.68083 8.14443 5.76466C8.02933 5.84848 7.87362 5.92198 7.6929 5.96821C7.58082 5.99391 7.40723 6.04353 7.18812 6.10469C6.99687 6.16254 6.81014 6.28226 6.67015 6.41238C6.53017 6.5425 6.40322 6.72589 6.33175 6.91223L6.15735 7.41493C6.10249 7.59297 6.02509 7.74022 5.93311 7.84884C5.84112 7.95747 5.70374 8.06283 5.53909 8.1504C5.43628 8.20184 5.27754 8.28971 5.07913 8.40088C4.90701 8.50225 4.75012 8.66027 4.64497 8.81979C4.53982 8.9793 4.45589 9.18534 4.43074 9.38329L4.38195 9.90416C4.36658 10.0898 4.32327 10.2572 4.25987 10.3846C4.19647 10.5119 4.09122 10.6413 3.94935 10.7622C3.86006 10.8346 3.72116 10.9663 3.55525 11.1217C3.41252 11.2614 3.29242 11.4511 3.22888 11.6312C3.16535 11.8113 3.13741 12.0167 3.15613 12.2153L3.22669 12.7449C3.25696 12.9287 3.25473 13.0956 3.22096 13.2338C3.18718 13.372 3.11336 13.5285 3.00549 13.6805C2.93667 13.7725 2.83475 13.9228 2.70752 14.1111C2.59936 14.2789 2.53062 14.4921 2.5089 14.6818C2.48717 14.8716 2.50418 15.0947 2.57165 15.2825L2.76366 15.7692C2.83446 15.9415 2.87178 16.1048 2.86997 16.247C2.86817 16.3892 2.83446 16.5585 2.76366 16.7308C2.71738 16.836 2.65307 17.0053 2.57165 17.2174C2.50417 17.4052 2.48717 17.6284 2.5089 17.8182C2.53062 18.0079 2.59935 18.221 2.7075 18.3888L3.00549 18.8195C3.11336 18.9714 3.18716 19.1279 3.22094 19.2661C3.25471 19.4043 3.25696 19.5713 3.22669 19.7551C3.20521 19.8679 3.1823 20.0589 3.15611 20.2846C3.13739 20.4832 3.16535 20.6887 3.22888 20.8688C3.29242 21.0489 3.41249 21.2386 3.55522 21.3782L3.94935 21.7378C4.09122 21.8587 4.19644 21.988 4.25983 22.1154C4.32323 22.2428 4.36658 22.4102 4.38195 22.5958C4.38856 22.7105 4.40693 22.8907 4.43069 23.1166C4.45584 23.3146 4.53982 23.5207 4.64497 23.6802C4.75012 23.8397 4.90696 23.9977 5.07908 24.0991L5.53909 24.3496C5.70374 24.4372 5.84107 24.5425 5.93305 24.6511C6.02504 24.7597 6.10249 24.907 6.15735 25.0851C6.18842 25.1956 6.25493 25.3739 6.33169 25.5877C6.40316 25.774 6.53017 25.9575 6.67015 26.0876C6.81014 26.2177 6.99681 26.3374 7.18805 26.3953L7.6929 26.5318C7.87362 26.578 8.02926 26.6515 8.14437 26.7353C8.25947 26.8191 8.36833 26.9458 8.46383 27.1058C8.5202 27.2059 8.6247 27.3673 8.75003 27.5569C8.86369 27.721 9.01689 27.8605 9.18152 27.9577C9.34615 28.0549 9.55945 28.1233 9.75867 28.1388L10.2918 28.1619C10.4784 28.1637 10.6421 28.1954 10.7726 28.2525C10.9032 28.3095 11.0441 28.4104 11.1753 28.5428C11.2542 28.6264 11.3843 28.753 11.548 28.9108C11.6947 29.0463 11.8923 29.1512 12.0757 29.2057C12.259 29.2601 12.4816 29.2819 12.6786 29.2484L13.1921 29.1444C13.3744 29.105 13.5474 29.0997 13.6879 29.123C13.8285 29.1462 13.9831 29.2103 14.1405 29.3102C14.236 29.3742 14.4031 29.472 14.6008 29.5845C14.7765 29.6795 14.9771 29.7355 15.168 29.7476C15.3588 29.7596 15.5814 29.7268 15.7658 29.65L16.2428 29.4317C16.4116 29.3524 16.579 29.3059 16.7212 29.2969C16.8633 29.2879 17.0284 29.3146 17.2044 29.3765C17.3118 29.4173 17.4966 29.4732 17.7146 29.5382C17.9072 29.5912 18.1151 29.5997 18.3037 29.5685C18.4924 29.5373 18.7011 29.4529 18.8634 29.3367L19.2869 29.0126C19.4306 28.8938 19.5766 28.8134 19.7131 28.7729C19.8497 28.7323 20.0233 28.7206 20.2092 28.7371C20.3234 28.7501 20.5051 28.764 20.7321 28.779C20.9317 28.7878 21.1511 28.7427 21.3263 28.6662C21.5016 28.5896 21.6858 28.4648 21.8149 28.3124L22.1404 27.9032C22.2545 27.7558 22.3834 27.6414 22.5061 27.569C22.6287 27.4966 22.7881 27.4466 22.9731 27.4223C23.0875 27.4101 23.2768 27.3776 23.5008 27.3376C23.6967 27.2983 23.8853 27.2127 24.0399 27.1002C24.1944 26.9876 24.341 26.8188 24.4342 26.6423L24.6658 26.1621C24.7415 25.9919 24.8352 25.8541 24.9394 25.7571C25.0437 25.6602 25.1911 25.5703 25.365 25.503C25.4713 25.4648 25.6345 25.3975 25.8394 25.3129L25.8507 25.3083C26.0337 25.2281 26.2065 25.0885 26.33 24.9427C26.4535 24.7969 26.5595 24.601 26.6082 24.4075L26.7182 23.8956C26.7558 23.7131 26.8167 23.5508 26.895 23.432C26.9734 23.3132 27.0923 23.1968 27.2477 23.0939C27.3451 23.0328 27.4963 22.9176 27.6799 22.7835C27.8386 22.6622 27.9778 22.4874 28.0629 22.3164C28.148 22.1453 28.2092 21.9315 28.2101 21.732L28.1967 21.2095C28.1893 21.0234 28.215 20.853 28.2623 20.7188C28.3096 20.5847 28.4 20.4439 28.5259 20.3065C28.6056 20.2238 28.7311 20.0768 28.8765 19.9021C29.0009 19.746 29.0908 19.5588 29.1362 19.3732C29.1815 19.1877 29.1868 18.9633 29.1435 18.7685L29.0124 18.2524C28.9593 18.0738 28.9434 17.9082 28.9596 17.7669C28.9757 17.6256 29.0296 17.4679 29.1216 17.3058C29.1808 17.2074 29.2654 17.0354 29.3678 16.8326Z"/>
</mask>
<path d="M29.3678 16.8326C29.454 16.6526 29.4976 16.4323 29.5 16.2413C29.4976 16.0504 29.454 15.8475 29.3678 15.6675L29.1216 15.1942C29.0296 15.0321 28.9757 14.8745 28.9596 14.7332C28.9434 14.5918 28.9593 14.4262 29.0124 14.2476C29.0478 14.1384 29.0894 13.9522 29.1435 13.7316C29.1868 13.5368 29.1815 13.3123 29.1362 13.1268C29.0908 12.9412 29.0009 12.7541 28.8765 12.5979L28.5259 12.1935C28.4 12.0561 28.3097 11.9154 28.2623 11.7812C28.215 11.6471 28.1893 11.4766 28.1967 11.2905C28.2041 11.1759 28.2063 10.9952 28.2101 10.7681C28.2092 10.5685 28.148 10.3547 28.0629 10.1836C27.9778 10.0126 27.8386 9.83789 27.6799 9.71661L27.2477 9.40614C27.0923 9.3032 26.9734 9.18692 26.8951 9.06809C26.8167 8.94927 26.7558 8.78688 26.7182 8.60442C26.6978 8.49141 26.659 8.31401 26.6083 8.09256C26.5595 7.89905 26.4535 7.70314 26.33 7.55731C26.2065 7.41148 26.0338 7.27196 25.8508 7.1918L25.365 6.99703C25.1911 6.92965 25.0438 6.83986 24.9395 6.74293C24.8352 6.646 24.7415 6.50813 24.6658 6.33787C24.6235 6.23586 24.5425 6.07403 24.4459 5.88106L24.4343 5.8578C24.3411 5.68128 24.1944 5.51237 24.0399 5.39984C23.8853 5.28731 23.6968 5.2018 23.5009 5.16246L22.9731 5.07773C22.7881 5.05344 22.6288 5.00344 22.5061 4.93105C22.3835 4.85865 22.2545 4.74419 22.1404 4.59681C22.0724 4.50424 21.958 4.36425 21.8149 4.18765C21.6859 4.03528 21.5016 3.91035 21.3263 3.83381C21.1511 3.75727 20.9318 3.7122 20.7322 3.72106L20.2092 3.76289C20.0233 3.77938 19.8498 3.76771 19.7132 3.72715C19.5767 3.68659 19.4306 3.60624 19.2869 3.48745C19.2002 3.41204 19.0455 3.29969 18.8635 3.16336C18.7011 3.04709 18.4924 2.96274 18.3037 2.93153C18.1151 2.90032 17.9073 2.90881 17.7147 2.96178L17.2044 3.12352C17.0284 3.18541 16.8634 3.2121 16.7212 3.2031C16.5791 3.19411 16.4116 3.14762 16.2428 3.06829C16.1401 3.01681 15.9739 2.94194 15.7659 2.85C15.5814 2.77321 15.3588 2.74036 15.168 2.75244C14.9771 2.76452 14.7766 2.82051 14.6009 2.91552L14.1405 3.18976C13.9831 3.2897 13.8285 3.35377 13.688 3.37702C13.5474 3.40027 13.3744 3.39497 13.1921 3.35561C13.0827 3.32913 12.9097 3.29592 12.693 3.25433L12.6786 3.25156C12.4816 3.21812 12.259 3.23986 12.0757 3.29431C11.8923 3.34876 11.6948 3.45368 11.5481 3.58916L11.1753 3.95723C11.0441 4.08963 10.9032 4.19049 10.7727 4.24751C10.6422 4.30452 10.4784 4.33627 10.2918 4.33805C10.1769 4.33628 9.9859 4.34836 9.75875 4.36112C9.55952 4.37662 9.34616 4.44512 9.18152 4.54231C9.01689 4.63949 8.86376 4.77894 8.7501 4.94306L8.46383 5.39417C8.36833 5.55419 8.25953 5.68083 8.14443 5.76466C8.02933 5.84848 7.87362 5.92198 7.6929 5.96821C7.58082 5.99391 7.40723 6.04353 7.18812 6.10469C6.99687 6.16254 6.81014 6.28226 6.67015 6.41238C6.53017 6.5425 6.40322 6.72589 6.33175 6.91223L6.15735 7.41493C6.10249 7.59297 6.02509 7.74022 5.93311 7.84884C5.84112 7.95747 5.70374 8.06283 5.53909 8.1504C5.43628 8.20184 5.27754 8.28971 5.07913 8.40088C4.90701 8.50225 4.75012 8.66027 4.64497 8.81979C4.53982 8.9793 4.45589 9.18534 4.43074 9.38329L4.38195 9.90416C4.36658 10.0898 4.32327 10.2572 4.25987 10.3846C4.19647 10.5119 4.09122 10.6413 3.94935 10.7622C3.86006 10.8346 3.72116 10.9663 3.55525 11.1217C3.41252 11.2614 3.29242 11.4511 3.22888 11.6312C3.16535 11.8113 3.13741 12.0167 3.15613 12.2153L3.22669 12.7449C3.25696 12.9287 3.25473 13.0956 3.22096 13.2338C3.18718 13.372 3.11336 13.5285 3.00549 13.6805C2.93667 13.7725 2.83475 13.9228 2.70752 14.1111C2.59936 14.2789 2.53062 14.4921 2.5089 14.6818C2.48717 14.8716 2.50418 15.0947 2.57165 15.2825L2.76366 15.7692C2.83446 15.9415 2.87178 16.1048 2.86997 16.247C2.86817 16.3892 2.83446 16.5585 2.76366 16.7308C2.71738 16.836 2.65307 17.0053 2.57165 17.2174C2.50417 17.4052 2.48717 17.6284 2.5089 17.8182C2.53062 18.0079 2.59935 18.221 2.7075 18.3888L3.00549 18.8195C3.11336 18.9714 3.18716 19.1279 3.22094 19.2661C3.25471 19.4043 3.25696 19.5713 3.22669 19.7551C3.20521 19.8679 3.1823 20.0589 3.15611 20.2846C3.13739 20.4832 3.16535 20.6887 3.22888 20.8688C3.29242 21.0489 3.41249 21.2386 3.55522 21.3782L3.94935 21.7378C4.09122 21.8587 4.19644 21.988 4.25983 22.1154C4.32323 22.2428 4.36658 22.4102 4.38195 22.5958C4.38856 22.7105 4.40693 22.8907 4.43069 23.1166C4.45584 23.3146 4.53982 23.5207 4.64497 23.6802C4.75012 23.8397 4.90696 23.9977 5.07908 24.0991L5.53909 24.3496C5.70374 24.4372 5.84107 24.5425 5.93305 24.6511C6.02504 24.7597 6.10249 24.907 6.15735 25.0851C6.18842 25.1956 6.25493 25.3739 6.33169 25.5877C6.40316 25.774 6.53017 25.9575 6.67015 26.0876C6.81014 26.2177 6.99681 26.3374 7.18805 26.3953L7.6929 26.5318C7.87362 26.578 8.02926 26.6515 8.14437 26.7353C8.25947 26.8191 8.36833 26.9458 8.46383 27.1058C8.5202 27.2059 8.6247 27.3673 8.75003 27.5569C8.86369 27.721 9.01689 27.8605 9.18152 27.9577C9.34615 28.0549 9.55945 28.1233 9.75867 28.1388L10.2918 28.1619C10.4784 28.1637 10.6421 28.1954 10.7726 28.2525C10.9032 28.3095 11.0441 28.4104 11.1753 28.5428C11.2542 28.6264 11.3843 28.753 11.548 28.9108C11.6947 29.0463 11.8923 29.1512 12.0757 29.2057C12.259 29.2601 12.4816 29.2819 12.6786 29.2484L13.1921 29.1444C13.3744 29.105 13.5474 29.0997 13.6879 29.123C13.8285 29.1462 13.9831 29.2103 14.1405 29.3102C14.236 29.3742 14.4031 29.472 14.6008 29.5845C14.7765 29.6795 14.9771 29.7355 15.168 29.7476C15.3588 29.7596 15.5814 29.7268 15.7658 29.65L16.2428 29.4317C16.4116 29.3524 16.579 29.3059 16.7212 29.2969C16.8633 29.2879 17.0284 29.3146 17.2044 29.3765C17.3118 29.4173 17.4966 29.4732 17.7146 29.5382C17.9072 29.5912 18.1151 29.5997 18.3037 29.5685C18.4924 29.5373 18.7011 29.4529 18.8634 29.3367L19.2869 29.0126C19.4306 28.8938 19.5766 28.8134 19.7131 28.7729C19.8497 28.7323 20.0233 28.7206 20.2092 28.7371C20.3234 28.7501 20.5051 28.764 20.7321 28.779C20.9317 28.7878 21.1511 28.7427 21.3263 28.6662C21.5016 28.5896 21.6858 28.4648 21.8149 28.3124L22.1404 27.9032C22.2545 27.7558 22.3834 27.6414 22.5061 27.569C22.6287 27.4966 22.7881 27.4466 22.9731 27.4223C23.0875 27.4101 23.2768 27.3776 23.5008 27.3376C23.6967 27.2983 23.8853 27.2127 24.0399 27.1002C24.1944 26.9876 24.341 26.8188 24.4342 26.6423L24.6658 26.1621C24.7415 25.9919 24.8352 25.8541 24.9394 25.7571C25.0437 25.6602 25.1911 25.5703 25.365 25.503C25.4713 25.4648 25.6345 25.3975 25.8394 25.3129L25.8507 25.3083C26.0337 25.2281 26.2065 25.0885 26.33 24.9427C26.4535 24.7969 26.5595 24.601 26.6082 24.4075L26.7182 23.8956C26.7558 23.7131 26.8167 23.5508 26.895 23.432C26.9734 23.3132 27.0923 23.1968 27.2477 23.0939C27.3451 23.0328 27.4963 22.9176 27.6799 22.7835C27.8386 22.6622 27.9778 22.4874 28.0629 22.3164C28.148 22.1453 28.2092 21.9315 28.2101 21.732L28.1967 21.2095C28.1893 21.0234 28.215 20.853 28.2623 20.7188C28.3096 20.5847 28.4 20.4439 28.5259 20.3065C28.6056 20.2238 28.7311 20.0768 28.8765 19.9021C29.0009 19.746 29.0908 19.5588 29.1362 19.3732C29.1815 19.1877 29.1868 18.9633 29.1435 18.7685L29.0124 18.2524C28.9593 18.0738 28.9434 17.9082 28.9596 17.7669C28.9757 17.6256 29.0296 17.4679 29.1216 17.3058C29.1808 17.2074 29.2654 17.0354 29.3678 16.8326Z" stroke="url(#paint3_linear)" stroke-width="2" stroke-linecap="round" stroke-linejoin="round" mask="url(#path-5-inside-2)"/>
</g>
<path d="M13.5359 6.63887L12.5026 8.63546L11.6284 9.07951L10.6359 7.12001L9.14292 9.04902V11.7277L8.40888 12.3612L6.7251 10.9605L6.43821 13.5608L7.6209 15.7953L7.09102 16.8465L5.38451 16.2674L6.24636 18.5866L8.05088 19.6646L8.81958 20.7752L6.77535 21.5837L8.81958 23.1848L11.2119 23.2362L12.0992 23.9657L10.69 25.4784L13.2201 25.8152L14.8227 24.9071L16.2548 24.7293L16.0102 26.8655L18.3481 25.95L19.5282 23.9228L20.4479 23.5702L21.3355 25.4571L22.8671 23.5209V21.0745L23.4749 20.2394L25.1631 21.5385L25.5006 18.9479L24.3321 16.9859V15.7954L26.6155 16.2914L25.5685 13.8162L23.8358 12.9183L23.2364 11.8327L25.1706 10.9228L23.2364 9.39365H20.9413L20.0143 8.63546L21.3129 7.01866L18.6904 6.68536L16.8503 7.85744L15.8392 7.80692L15.8937 5.63452L13.5359 6.63887Z" fill="url(#paint4_linear)"/>
<path opacity="0.5" d="M12.7291 9.08125C12.8224 9.03382 12.8985 8.95828 12.9467 8.86528L13.8973 7.0284L15.3743 6.39923L15.3393 7.79438C15.3325 8.0656 15.5433 8.29276 15.8142 8.3063L16.8253 8.35682C16.9288 8.36199 17.0314 8.33485 17.1189 8.27916L18.8066 7.20415L20.3637 7.40204L19.6244 8.32235C19.4526 8.5363 19.4853 8.84877 19.6977 9.0225L20.6248 9.7807C20.7141 9.85375 20.8259 9.89365 20.9413 9.89365H23.0626L24.2269 10.8141L23.0235 11.3803C22.8984 11.4392 22.8033 11.5472 22.7607 11.6787C22.7181 11.8102 22.7318 11.9534 22.7987 12.0744L23.3981 13.16C23.4458 13.2464 23.518 13.3168 23.6057 13.3622L25.1782 14.1771L25.7793 15.5981L24.4383 15.3068C24.2905 15.2747 24.1361 15.3112 24.0184 15.4061C23.9006 15.501 23.8321 15.6441 23.8321 15.7954V16.9859C23.8321 17.076 23.8565 17.1644 23.9026 17.2418L24.9824 19.055L24.7796 20.6124L23.7798 19.8431C23.6728 19.7608 23.5372 19.7252 23.4036 19.7445C23.2701 19.7637 23.15 19.8361 23.0706 19.9451L22.4628 20.7803C22.4006 20.8658 22.3671 20.9688 22.3671 21.0745V23.3471L21.4443 24.5137L20.9004 23.3573C20.7889 23.1204 20.5134 23.0095 20.2689 23.1033L19.3492 23.4559C19.2427 23.4968 19.1534 23.5727 19.0961 23.6713L18.0036 25.548L16.6015 26.097L16.7516 24.7861C16.769 24.6338 16.7156 24.4819 16.6067 24.374C16.4978 24.2661 16.3454 24.2142 16.1932 24.2331L14.761 24.4109C14.696 24.419 14.6332 24.4398 14.5762 24.4721L13.1196 25.2974L11.716 25.1105L12.4651 24.3065C12.5591 24.2056 12.6073 24.0702 12.5981 23.9325C12.589 23.7949 12.5233 23.6671 12.4167 23.5795L11.5294 22.85C11.4428 22.7788 11.3348 22.7388 11.2227 22.7364L8.9968 22.6885L7.77032 21.7279L9.00347 21.2401C9.14533 21.184 9.25381 21.0662 9.29807 20.9203C9.34233 20.7743 9.31752 20.6161 9.2307 20.4906L8.462 19.3801C8.42136 19.3213 8.36862 19.272 8.30731 19.2354L6.65378 18.2475L6.21944 17.0787L6.93032 17.32C7.16634 17.4001 7.42531 17.2942 7.5375 17.0716L8.06739 16.0204C8.14032 15.8757 8.13862 15.7046 8.06282 15.5614L6.95206 13.4628L7.12012 11.9395L8.08912 12.7456C8.27705 12.9019 8.55048 12.8995 8.73555 12.7397L9.46959 12.1063C9.57965 12.0113 9.64292 11.8731 9.64292 11.7277V9.21992L10.5473 8.05149L11.1824 9.30544C11.2424 9.42383 11.3469 9.51352 11.4731 9.55476C11.5992 9.596 11.7366 9.5854 11.8549 9.5253L12.7291 9.08125Z" stroke="url(#paint5_linear)" stroke-linecap="round" stroke-linejoin="round"/>
<path d="M12.1326 8.26261L11.8483 8.40703L11.082 6.89409L10.7246 6.18853L10.2405 6.81398L8.74752 8.74299L8.64292 8.87813V9.04902V11.4988L8.40294 11.7059L7.04486 10.5761L6.33007 9.98151L6.22811 10.9057L5.94122 13.506L5.92436 13.6588L5.99629 13.7947L7.05815 15.8009L6.84016 16.2334L5.54521 15.7939L4.54959 15.456L4.91583 16.4415L5.77767 18.7607L5.83894 18.9256L5.98992 19.0158L7.70143 20.0383L8.04999 20.5419L6.59146 21.1187L5.78038 21.4395L6.46705 21.9773L8.51127 23.5784L8.64236 23.6811L8.80882 23.6846L11.0281 23.7324L11.3708 24.0141L10.3241 25.1375L9.66391 25.8462L10.624 25.974L13.1541 26.3108L13.3205 26.3329L13.4666 26.2502L14.9828 25.3911L15.6858 25.3038L15.5135 26.8086L15.419 27.634L16.1925 27.3311L18.5304 26.4156L18.6926 26.3521L18.7802 26.2016L19.8717 24.3266L20.1932 24.2033L20.8831 25.6699L21.2267 26.4005L21.7277 25.7673L23.2592 23.8311L23.3671 23.6948V23.5209V21.2372L23.5769 20.9488L24.8582 21.9347L25.5467 22.4646L25.659 21.6031L25.9964 19.0125L26.0188 18.8408L25.9302 18.692L24.8321 16.8483V16.4157L26.5093 16.7801L27.4516 16.9848L27.076 16.0967L26.029 13.6214L25.9587 13.4552L25.7985 13.3722L24.2003 12.544L23.9319 12.0581L25.3834 11.3752L26.1142 11.0314L25.4807 10.5305L23.5464 9.00142L23.4101 8.89365H23.2364H21.1197L20.7144 8.56218L21.7027 7.33177L22.2622 6.63528L21.376 6.52265L18.7535 6.18935L18.5742 6.16656L18.4218 6.26364L16.7161 7.35011L16.3513 7.33188L16.3935 5.64706L16.413 4.86982L15.6977 5.17452L13.34 6.17887L13.1745 6.24935L13.0919 6.40906L12.1326 8.26261Z" stroke="black" stroke-opacity="0.8"/>
<path d="M21.75 16.25C21.75 13.0773 19.1727 10.5 16 10.5C12.8273 10.5 10.25 13.0773 10.25 16.25C10.25 19.4227 12.8273 22 16 22C19.1727 22 21.75 19.4227 21.75 16.25Z" fill="url(#paint6_linear)"/>
<path d="M16 10C12.5512 10 9.75 12.8012 9.75 16.25C9.75 19.6988 12.5512 22.5 16 22.5C19.4488 22.5 22.25 19.6988 22.25 16.25C22.25 12.8012 19.4488 10 16 10Z" stroke="black" stroke-opacity="0.8"/>
<path opacity="0.5" d="M21.25 16.25C21.25 19.1495 18.8995 21.5 16 21.5C13.1005 21.5 10.75 19.1495 10.75 16.25C10.75 13.3505 13.1005 11 16 11C18.8995 11 21.25 13.3505 21.25 16.25Z" stroke="url(#paint7_linear)" stroke-linecap="round" stroke-linejoin="round"/>
<path d="M15.8272 12.4104C19.2879 12.3713 22.7737 14.1507 24.1745 15.3869C23.5107 15.8271 23.5252 16.6075 24.1745 17.0234C21.9788 18.4862 19.2589 19.7948 15.8272 19.7705C12.4928 19.7469 9.53226 18.4901 7.72916 17.0637C8.30776 16.6088 8.38585 15.9646 7.72916 15.4202C9.6828 13.8322 12.4536 12.4485 15.8272 12.4104Z" fill="url(#paint8_linear)"/>
<path fill-rule="evenodd" clip-rule="evenodd" d="M6.37877 16.2932C6.34866 14.5183 11.7733 12.0458 15.8272 11.9915C20.0044 11.9356 25.6214 14.7173 25.6214 16.2932C25.6214 17.8692 19.9748 20.3147 15.8272 20.2608C11.8038 20.2086 6.40889 18.0682 6.37877 16.2932ZM24.1745 15.3869C22.7737 14.1507 19.2879 12.3713 15.8272 12.4104C12.4536 12.4485 9.6828 13.8322 7.72916 15.4202C8.38585 15.9646 8.30776 16.6088 7.72916 17.0637C9.53226 18.4901 12.4928 19.7469 15.8272 19.7705C19.2589 19.7948 21.9788 18.4862 24.1745 17.0234C23.5252 16.6075 23.5107 15.8271 24.1745 15.3869Z" fill="url(#paint9_linear)"/>
<circle cx="7.27729" cy="16.2165" r="0.431903" fill="url(#paint10_linear)"/>
<circle cx="24.5293" cy="16.2165" r="0.431903" fill="url(#paint11_linear)"/>
<path d="M10.8544 14.6446C10.4422 15.917 10.4209 16.4148 10.8544 17.7996C13.8822 19.0001 17.5572 19.1283 21.1469 17.7996C21.1558 17.6101 21.1469 17.5234 21.1469 17.3136C14.9257 18.2569 11.5652 17.3136 11.5652 17.3136V16.5531H20.1279C20.2002 16.0652 20.2002 16.313 20.1279 15.8251H11.5652V15.0559C11.5652 15.0559 15.6266 14.0517 21.1469 15.0559C21.1469 14.9588 21.1585 14.8608 21.1469 14.6446C18.3199 13.2035 13.7326 13.1608 10.8544 14.6446Z" fill="url(#paint12_linear)"/>
<path d="M11.5652 17.3136C11.5435 17.3912 11.5252 17.4562 11.5099 17.5107C11.5099 17.5107 11.5099 17.5107 11.5099 17.5107L11.5652 17.3136ZM11.0373 16.1829C11.038 16.0655 11.047 15.9476 11.0652 15.8219V15.8251V16.0531V16.3251V16.5531V16.5792C11.0453 16.4376 11.0365 16.3084 11.0373 16.1829ZM11.5652 15.0559L11.5221 14.8815C11.5221 14.8815 11.5221 14.8815 11.5221 14.8815C11.5344 14.9312 11.5487 14.989 11.5652 15.0559ZM14.2492 14.1807C14.1363 14.189 14.0263 14.1978 13.9194 14.2071C14.5989 14.0991 15.307 14.0457 16.0184 14.0478C16.5503 14.0493 17.0795 14.0818 17.5953 14.1442C16.3128 14.0803 15.1806 14.1121 14.2492 14.1807ZM16.8547 18.2177C16.2349 18.2589 15.622 18.2586 15.02 18.2194C15.5708 18.2366 16.1829 18.2387 16.8547 18.2177Z" fill="url(#paint13_linear)" stroke="url(#paint14_linear)"/>
<defs>
<radialGradient id="paint0_radial" cx="0" cy="0" r="1" gradientUnits="userSpaceOnUse" gradientTransform="translate(16 27.2492) scale(12 3.50021)">
<stop/>
<stop offset="1" stop-opacity="0"/>
</radialGradient>
<radialGradient id="paint1_radial" cx="0" cy="0" r="1" gradientUnits="userSpaceOnUse" gradientTransform="translate(16 28.2495) scale(8 2.49989)">
<stop/>
<stop offset="1" stop-opacity="0"/>
</radialGradient>
<linearGradient id="paint2_linear" x1="16" y1="2.5" x2="16" y2="30" gradientUnits="userSpaceOnUse">
<stop stop-color="#EFEFEF"/>
<stop offset="1" stop-color="#C5C5C5"/>
</linearGradient>
<linearGradient id="paint3_linear" x1="14.9122" y1="2.25931" x2="14.9122" y2="30.3872" gradientUnits="userSpaceOnUse">
<stop stop-color="white"/>
<stop offset="0.424479" stop-color="white" stop-opacity="0.28"/>
<stop offset="0.820899" stop-color="white" stop-opacity="0.156863"/>
<stop offset="1" stop-color="white" stop-opacity="0.392157"/>
</linearGradient>
<linearGradient id="paint4_linear" x1="16" y1="5.63452" x2="16" y2="26.8655" gradientUnits="userSpaceOnUse">
<stop stop-color="#4D4D4D"/>
<stop offset="1" stop-color="#1A1A1A"/>
</linearGradient>
<linearGradient id="paint5_linear" x1="15.1447" y1="5.24868" x2="15.1447" y2="27.3665" gradientUnits="userSpaceOnUse">
<stop stop-color="white"/>
<stop offset="0.424479" stop-color="white" stop-opacity="0.235294"/>
<stop offset="0.820899" stop-color="white" stop-opacity="0.156863"/>
<stop offset="1" stop-color="white" stop-opacity="0.392157"/>
</linearGradient>
<linearGradient id="paint6_linear" x1="16" y1="10.5" x2="16" y2="22" gradientUnits="userSpaceOnUse">
<stop stop-color="#333333"/>
<stop offset="1" stop-color="#1A1A1A"/>
</linearGradient>
<linearGradient id="paint7_linear" x1="15.5367" y1="10.291" x2="15.5367" y2="22.2714" gradientUnits="userSpaceOnUse">
<stop stop-color="white"/>
<stop offset="0.424479" stop-color="white" stop-opacity="0.235294"/>
<stop offset="0.820899" stop-color="white" stop-opacity="0.156863"/>
<stop offset="1" stop-color="white" stop-opacity="0.392157"/>
</linearGradient>
<linearGradient id="paint8_linear" x1="16" y1="11.9907" x2="16" y2="20.2617" gradientUnits="userSpaceOnUse">
<stop stop-color="#112251"/>
<stop offset="1" stop-color="#020D2C"/>
</linearGradient>
<linearGradient id="paint9_linear" x1="16" y1="11.9907" x2="16" y2="20.2617" gradientUnits="userSpaceOnUse">
<stop stop-color="#CDE8FD"/>
<stop offset="1" stop-color="#A4C5FC"/>
</linearGradient>
<linearGradient id="paint10_linear" x1="7.27729" y1="15.7846" x2="7.27729" y2="16.6484" gradientUnits="userSpaceOnUse">
<stop stop-color="white"/>
<stop offset="1" stop-color="#C5C5C5"/>
</linearGradient>
<linearGradient id="paint11_linear" x1="24.5293" y1="15.7846" x2="24.5293" y2="16.6484" gradientUnits="userSpaceOnUse">
<stop stop-color="white"/>
<stop offset="1" stop-color="#C5C5C5"/>
</linearGradient>
<linearGradient id="paint12_linear" x1="15.8446" y1="13.4046" x2="15.8446" y2="18.7487" gradientUnits="userSpaceOnUse">
<stop stop-color="#CDE8FD"/>
<stop offset="1" stop-color="#A4C5FC"/>
</linearGradient>
<linearGradient id="paint13_linear" x1="15.8446" y1="13.4046" x2="15.8446" y2="18.7487" gradientUnits="userSpaceOnUse">
<stop stop-color="#CDE8FD"/>
<stop offset="1" stop-color="#A4C5FC"/>
</linearGradient>
<linearGradient id="paint14_linear" x1="15.8446" y1="13.5477" x2="15.8446" y2="18.7487" gradientUnits="userSpaceOnUse">
<stop stop-color="white"/>
<stop offset="0.453125" stop-color="white" stop-opacity="0"/>
<stop offset="1" stop-color="white" stop-opacity="0.33"/>
</linearGradient>
</defs>
</svg>
