<svg width="36" height="36" viewBox="0 0 36 36" fill="none" xmlns="http://www.w3.org/2000/svg">
<g clip-path="url(#clip0_1_27)">
<circle cx="8" cy="27" r="4" fill="#667885"/>
<circle cx="28" cy="25" r="4" fill="#95A3AB"/>
<circle cx="21" cy="26" r="6" fill="#667885"/>
<g filter="url(#filter0_d_1_27)">
<path fill-rule="evenodd" clip-rule="evenodd" d="M22.8663 5.11988C20.3084 5.65566 18.3875 7.92405 18.3875 10.6411C18.3875 13.7566 20.9131 16.2822 24.0286 16.2822C26.1809 16.2822 28.0516 15.0769 29.0027 13.3044C28.6111 17.0905 25.4111 20.0429 21.5215 20.0429C17.3675 20.0429 14 16.6755 14 12.5215C14 8.36748 17.3675 5 21.5215 5C21.9805 5 22.4299 5.04112 22.8663 5.11988Z" fill="white"/>
</g>
<circle cx="14" cy="23" r="8" fill="#95A3AB"/>
<circle cx="13" cy="24" r="8" fill="#667885"/>
</g>
<defs>
<filter id="filter0_d_1_27" x="8" y="-1" width="27.0027" height="27.0429" filterUnits="userSpaceOnUse" color-interpolation-filters="sRGB">
<feFlood flood-opacity="0" result="BackgroundImageFix"/>
<feColorMatrix in="SourceAlpha" type="matrix" values="0 0 0 0 0 0 0 0 0 0 0 0 0 0 0 0 0 0 127 0" result="hardAlpha"/>
<feOffset/>
<feGaussianBlur stdDeviation="3"/>
<feComposite in2="hardAlpha" operator="out"/>
<feColorMatrix type="matrix" values="0 0 0 0 1 0 0 0 0 1 0 0 0 0 1 0 0 0 0.5 0"/>
<feBlend mode="normal" in2="BackgroundImageFix" result="effect1_dropShadow_1_27"/>
<feBlend mode="normal" in="SourceGraphic" in2="effect1_dropShadow_1_27" result="shape"/>
</filter>
<clipPath id="clip0_1_27">
<rect width="36" height="36" fill="white"/>
</clipPath>
</defs>
</svg>
