<svg width="36" height="36" viewBox="0 0 36 36" fill="none" xmlns="http://www.w3.org/2000/svg">
<g filter="url(#filter0_d_1_124)">
<path fill-rule="evenodd" clip-rule="evenodd" d="M23.8663 4.11988C21.3084 4.65566 19.3875 6.92405 19.3875 9.6411C19.3875 12.7566 21.9131 15.2822 25.0286 15.2822C27.1809 15.2822 29.0516 14.0769 30.0027 12.3044C29.6111 16.0905 26.4111 19.0429 22.5215 19.0429C18.3675 19.0429 15 15.6755 15 11.5215C15 7.36748 18.3675 4 22.5215 4C22.9805 4 23.4299 4.04112 23.8663 4.11988Z" fill="white"/>
</g>
<circle cx="28.5" cy="19.5" r="3.5" fill="#485A6C"/>
<circle cx="8" cy="21" r="4" fill="#667885"/>
<circle cx="22.5" cy="19.5" r="5.5" fill="#667885"/>
<circle cx="15" cy="17" r="7" fill="#95A3AB"/>
<circle cx="14" cy="18" r="7" fill="#667885"/>
<line x1="8.60391" y1="27.366" x2="7.36604" y2="29.5101" stroke="#979A9B" stroke-width="2" stroke-linecap="round"/>
<line x1="14.6039" y1="29.366" x2="13.366" y2="31.5101" stroke="#979A9B" stroke-width="2" stroke-linecap="round"/>
<line x1="22.6039" y1="27.366" x2="21.366" y2="29.5101" stroke="#979A9B" stroke-width="2" stroke-linecap="round"/>
<defs>
<filter id="filter0_d_1_124" x="11" y="0" width="23.0027" height="23.0429" filterUnits="userSpaceOnUse" color-interpolation-filters="sRGB">
<feFlood flood-opacity="0" result="BackgroundImageFix"/>
<feColorMatrix in="SourceAlpha" type="matrix" values="0 0 0 0 0 0 0 0 0 0 0 0 0 0 0 0 0 0 127 0" result="hardAlpha"/>
<feOffset/>
<feGaussianBlur stdDeviation="2"/>
<feComposite in2="hardAlpha" operator="out"/>
<feColorMatrix type="matrix" values="0 0 0 0 1 0 0 0 0 1 0 0 0 0 1 0 0 0 0.5 0"/>
<feBlend mode="normal" in2="BackgroundImageFix" result="effect1_dropShadow_1_124"/>
<feBlend mode="normal" in="SourceGraphic" in2="effect1_dropShadow_1_124" result="shape"/>
</filter>
</defs>
</svg>
