<svg width="36" height="36" viewBox="0 0 36 36" fill="none" xmlns="http://www.w3.org/2000/svg">
<path fill-rule="evenodd" clip-rule="evenodd" d="M16.7434 7.11761L29.1539 9.30769C30.0035 9.30771 30.6923 10.5131 30.6923 12C30.6923 13.4869 30.0035 14.6923 29.1539 14.6923L16.7434 16.8824C16.5288 16.9594 16.3058 17 16.0769 17H16.0769C14.3776 17 13 14.7614 13 12C13 9.23858 14.3776 7 16.0769 7H16.0769C16.3058 7 16.5288 7.0406 16.7434 7.11761ZM16.5 15C17.3284 15 18 13.6569 18 12C18 10.3431 17.3284 9 16.5 9C15.6716 9 15 10.3431 15 12C15 13.6569 15.6716 15 16.5 15Z" fill="white"/>
<path fill-rule="evenodd" clip-rule="evenodd" d="M9 4C10.1046 4 11 4.89543 11 6V30C11 31.1046 10.1046 32 9 32C7.89543 32 7 31.1046 7 30V6C7 4.89543 7.89543 4 9 4Z" fill="white"/>
<line x1="9.67991" y1="12.6159" x2="15.6799" y2="7.61589" stroke="white"/>
<line x1="10.2774" y1="12.584" x2="16.2773" y2="16.584" stroke="white"/>
</svg>
