<svg width="64" height="64" viewBox="0 0 64 64" fill="none" xmlns="http://www.w3.org/2000/svg">
<path opacity="0.2" d="M56 54.5C56.0005 55.4192 55.38 56.3294 54.1741 57.1787C52.9682 58.028 51.2004 58.7997 48.9718 59.4497C46.7431 60.0997 44.0972 60.6153 41.1852 60.9671C38.2732 61.3189 35.152 61.5 32 61.5C28.848 61.5 25.7268 61.3189 22.8148 60.9671C19.9028 60.6153 17.2569 60.0997 15.0282 59.4497C12.7996 58.7997 11.0318 58.028 9.8259 57.1787C8.61999 56.3294 7.99955 55.4192 8 54.5C7.99955 53.5808 8.61999 52.6706 9.8259 51.8213C11.0318 50.972 12.7996 50.2003 15.0282 49.5503C17.2569 48.9003 19.9028 48.3847 22.8148 48.0329C25.7268 47.6811 28.848 47.5 32 47.5C35.152 47.5 38.2732 47.6811 41.1852 48.0329C44.0972 48.3847 46.7431 48.9003 48.9718 49.5503C51.2004 50.2003 52.9682 50.972 54.1741 51.8213C55.38 52.6706 56.0005 53.5808 56 54.5V54.5Z" fill="url(#paint0_radial)"/>
<path opacity="0.4" d="M48 56.5C48.0005 57.1566 47.5871 57.8067 46.7832 58.4133C45.9794 59.0199 44.8009 59.5712 43.3151 60.0355C41.8293 60.4998 40.0653 60.8681 38.1239 61.1194C36.1824 61.3707 34.1015 61.5 32 61.5C29.8985 61.5 27.8176 61.3707 25.8761 61.1194C23.9347 60.8681 22.1707 60.4998 20.6849 60.0355C19.1991 59.5712 18.0206 59.0199 17.2168 58.4133C16.4129 57.8067 15.9995 57.1566 16 56.5C15.9995 55.8434 16.4129 55.1933 17.2168 54.5867C18.0206 53.9801 19.1991 53.4288 20.6849 52.9645C22.1707 52.5002 23.9347 52.1319 25.8761 51.8806C27.8176 51.6293 29.8985 51.5 32 51.5C34.1015 51.5 36.1824 51.6293 38.1239 51.8806C40.0653 52.1319 41.8293 52.5002 43.3151 52.9645C44.8009 53.4288 45.9794 53.9801 46.7832 54.5867C47.5871 55.1933 48.0005 55.8434 48 56.5Z" fill="url(#paint1_radial)"/>
<path d="M59.2308 33.6868C59.4063 33.32 59.4951 32.8713 59.5 32.4823C59.4951 32.0933 59.4063 31.6802 59.2308 31.3134L58.7291 30.3492C58.5417 30.0191 58.4321 29.6981 58.3991 29.4102C58.3662 29.1223 58.3986 28.7848 58.5067 28.421C58.5788 28.1985 58.6636 27.8194 58.7738 27.3699C58.862 26.9731 58.8512 26.5158 58.7589 26.1379C58.6665 25.7599 58.4834 25.3787 58.2299 25.0606L57.5157 24.2367C57.2592 23.9568 57.0753 23.6703 56.9789 23.397C56.8825 23.1237 56.8301 22.7764 56.8451 22.3973C56.8601 22.1638 56.8647 21.7958 56.8725 21.3331C56.8706 20.9267 56.746 20.491 56.5726 20.1426C56.3992 19.7942 56.1157 19.4383 55.7925 19.1913L54.9121 18.5588C54.5954 18.3491 54.3532 18.1122 54.1937 17.8702C54.0341 17.6281 53.9099 17.2973 53.8333 16.9257C53.7919 16.6955 53.7127 16.3341 53.6094 15.883C53.5102 15.4888 53.2942 15.0897 53.0426 14.7927C52.7911 14.4956 52.4392 14.2114 52.0665 14.0481L51.0769 13.6514C50.7226 13.5141 50.4225 13.3312 50.2101 13.1337C49.9977 12.9363 49.8068 12.6554 49.6526 12.3086C49.5664 12.1008 49.4013 11.7711 49.2045 11.3779L49.1809 11.3307C48.9911 10.9711 48.6923 10.627 48.3775 10.3978C48.0627 10.1686 47.6786 9.9944 47.2796 9.91428L46.2045 9.74168C45.8277 9.69219 45.503 9.59034 45.2532 9.44287C45.0034 9.2954 44.7407 9.06225 44.5083 8.76202C44.3697 8.57346 44.1368 8.28828 43.8452 7.92854C43.5824 7.61816 43.2069 7.36368 42.85 7.20777C42.493 7.05185 42.0463 6.96004 41.6397 6.97809L40.5742 7.0633C40.1957 7.09687 39.8421 7.0731 39.5639 6.99048C39.2858 6.90786 38.9883 6.74419 38.6956 6.50221C38.5189 6.3486 38.2038 6.11974 37.8331 5.84203C37.5023 5.60518 37.0771 5.43337 36.6928 5.36978C36.3084 5.3062 35.8853 5.32349 35.4928 5.4314L34.4534 5.76088C34.0949 5.88695 33.7588 5.94132 33.4692 5.92299C33.1796 5.90466 32.8385 5.80996 32.4947 5.64837C32.2853 5.54351 31.9469 5.39099 31.5231 5.20371C31.1474 5.04728 30.6939 4.98036 30.3051 5.00497C29.9163 5.02957 29.5079 5.14363 29.15 5.33717L28.2122 5.89581C27.8915 6.09938 27.5767 6.22989 27.2904 6.27726C27.0041 6.32462 26.6516 6.31382 26.2801 6.23364C26.0574 6.17972 25.705 6.11207 25.2637 6.02734L25.2343 6.0217C24.833 5.95358 24.3794 5.99787 24.006 6.10878C23.6326 6.2197 23.2301 6.43342 22.9313 6.7094L22.172 7.45918C21.9046 7.72887 21.6177 7.93434 21.3518 8.05048C21.086 8.16662 20.7523 8.23129 20.3723 8.23492C20.1381 8.23132 19.7491 8.25591 19.2863 8.2819C18.8805 8.31348 18.4459 8.45302 18.1105 8.651C17.7751 8.84897 17.4632 9.13303 17.2317 9.46734L16.6485 10.3863C16.454 10.7122 16.2324 10.9702 15.9979 11.141C15.7635 11.3117 15.4463 11.4614 15.0781 11.5556C14.8498 11.608 14.4962 11.709 14.0499 11.8336C13.6603 11.9515 13.2799 12.1953 12.9948 12.4604C12.7096 12.7255 12.451 13.099 12.3054 13.4786L11.9502 14.5026C11.8384 14.8653 11.6807 15.1653 11.4934 15.3865C11.306 15.6078 11.0261 15.8224 10.6907 16.0008C10.4813 16.1056 10.1579 16.2846 9.75378 16.511C9.40318 16.7175 9.08357 17.0394 8.86938 17.3644C8.65518 17.6893 8.48421 18.109 8.43298 18.5122L8.3336 19.5733C8.30229 19.9515 8.21407 20.2924 8.08492 20.5519C7.95578 20.8114 7.74138 21.0748 7.45238 21.3212C7.27049 21.4686 6.98754 21.7369 6.64959 22.0535C6.35884 22.338 6.11419 22.7244 5.98476 23.0913C5.85533 23.4582 5.79844 23.8766 5.83656 24.2813L5.9803 25.36C6.04196 25.7344 6.03741 26.0743 5.96862 26.3558C5.89982 26.6373 5.74943 26.9563 5.52969 27.2659C5.38952 27.4533 5.1819 27.7593 4.92272 28.143C4.7024 28.4847 4.56237 28.9191 4.51812 29.3056C4.47387 29.6921 4.50851 30.1466 4.64596 30.5291L5.03709 31.5205C5.18131 31.8716 5.25732 32.2041 5.25365 32.4939C5.24998 32.7836 5.18131 33.1284 5.03709 33.4795C4.9428 33.6936 4.81181 34.0386 4.64595 34.4707C4.50849 34.8533 4.47387 35.3079 4.51812 35.6944C4.56237 36.0809 4.70237 36.5151 4.92269 36.8569L5.52969 37.7341C5.74943 38.0437 5.89978 38.3625 5.96858 38.644C6.03737 38.9255 6.04196 39.2656 5.9803 39.64C5.93653 39.8698 5.88986 40.2589 5.83651 40.7186C5.79838 41.1232 5.85533 41.5418 5.98476 41.9087C6.11419 42.2756 6.35877 42.6619 6.64953 42.9463L7.45238 43.6788C7.74138 43.9252 7.9557 44.1885 8.08485 44.448C8.21399 44.7075 8.30229 45.0485 8.3336 45.4267C8.34706 45.6602 8.38449 46.0274 8.43289 46.4876C8.48412 46.8908 8.65518 47.3107 8.86938 47.6356C9.08357 47.9606 9.40308 48.2823 9.75368 48.4888L10.6907 48.9992C11.0261 49.1776 11.3059 49.3921 11.4933 49.6133C11.6806 49.8346 11.8384 50.1347 11.9502 50.4974C12.0134 50.7226 12.1489 51.0856 12.3053 51.5213C12.4509 51.9008 12.7096 52.2745 12.9948 52.5396C13.2799 52.8047 13.6602 53.0484 14.0497 53.1663L15.0781 53.4444C15.4463 53.5385 15.7633 53.6882 15.9978 53.8589C16.2322 54.0297 16.454 54.2878 16.6485 54.6137C16.7634 54.8176 16.9762 55.1464 17.2315 55.5326C17.4631 55.8669 17.7751 56.151 18.1105 56.349C18.4459 56.547 18.8804 56.6864 19.2862 56.718L20.3723 56.7651C20.7523 56.7687 21.0858 56.8333 21.3517 56.9495C21.6176 57.0656 21.9046 57.2711 22.172 57.5408C22.3325 57.7111 22.5977 57.9691 22.9311 58.2905C23.2299 58.5665 23.6326 58.7803 24.006 58.8912C24.3794 59.0021 24.8328 59.0464 25.2341 58.9783L26.2801 58.7664C26.6516 58.6862 27.0039 58.6754 27.2902 58.7227C27.5765 58.7701 27.8915 58.9006 28.2122 59.1042C28.4066 59.2346 28.7471 59.4337 29.1498 59.6628C29.5078 59.8564 29.9163 59.9704 30.3051 59.995C30.6939 60.0196 31.1472 59.9527 31.5229 59.7963L32.4947 59.3516C32.8385 59.19 33.1794 59.0953 33.469 59.077C33.7587 59.0587 34.0949 59.1131 34.4534 59.2391C34.6723 59.3223 35.0486 59.4362 35.4927 59.5686C35.8851 59.6765 36.3084 59.6938 36.6928 59.6302C37.0771 59.5666 37.5021 59.3949 37.8329 59.158L38.6956 58.4978C38.9883 58.2558 39.2856 58.0922 39.5638 58.0096C39.8419 57.9269 40.1957 57.9031 40.5742 57.9367C40.8069 57.9632 41.1771 57.9914 41.6395 58.022C42.0462 58.04 42.493 57.9481 42.85 57.7922C43.2069 57.6363 43.5823 57.3819 43.8451 57.0715L44.5083 56.238C44.7407 55.9378 45.0033 55.7047 45.2531 55.5572C45.5029 55.4097 45.8277 55.3078 46.2045 55.2583C46.4374 55.2336 46.8232 55.1672 47.2794 55.0858C47.6785 55.0057 48.0627 54.8314 48.3775 54.6022C48.6923 54.373 48.9909 54.029 49.1807 53.6694L49.6526 52.6914C49.8068 52.3446 49.9976 52.0638 50.21 51.8664C50.4224 51.6689 50.7226 51.4859 51.0769 51.3487C51.2934 51.271 51.6258 51.1338 52.0433 50.9615L52.0663 50.952C52.4391 50.7887 52.7911 50.5044 53.0426 50.2073C53.2942 49.9103 53.5101 49.5113 53.6093 49.1172L53.8333 48.0743C53.9099 47.7027 54.034 47.372 54.1936 47.13C54.3531 46.8879 54.5954 46.6509 54.9121 46.4412C55.1105 46.3169 55.4184 46.0822 55.7924 45.8089C56.1156 45.5618 56.3992 45.2058 56.5726 44.8574C56.746 44.509 56.8705 44.0735 56.8724 43.6671L56.8451 42.6027C56.8301 42.2236 56.8824 41.8765 56.9788 41.6032C57.0752 41.3299 57.2592 41.0432 57.5157 40.7633C57.6782 40.5948 57.9336 40.2954 58.2299 39.9395C58.4833 39.6215 58.6665 39.2401 58.7589 38.8621C58.8512 38.4842 58.8619 38.0271 58.7737 37.6303L58.5067 36.579C58.3987 36.2152 58.3661 35.8779 58.3991 35.59C58.4321 35.3021 58.5417 34.9809 58.7291 34.6508C58.8497 34.4503 59.022 34.0999 59.2308 33.6868Z" fill="url(#paint2_linear)"/>
<g opacity="0.5">
<mask id="path-4-inside-1" fill="white">
<path d="M59.2308 33.6868C59.4063 33.32 59.4951 32.8713 59.5 32.4823C59.4951 32.0933 59.4063 31.6802 59.2308 31.3134L58.7291 30.3492C58.5417 30.0191 58.4321 29.6981 58.3991 29.4102C58.3662 29.1223 58.3986 28.7848 58.5067 28.421C58.5788 28.1985 58.6636 27.8194 58.7738 27.3699C58.862 26.9731 58.8512 26.5158 58.7589 26.1379C58.6665 25.7599 58.4834 25.3787 58.2299 25.0606L57.5157 24.2367C57.2592 23.9568 57.0753 23.6703 56.9789 23.397C56.8825 23.1237 56.8301 22.7764 56.8451 22.3973C56.8601 22.1638 56.8647 21.7958 56.8725 21.3331C56.8706 20.9267 56.746 20.491 56.5726 20.1426C56.3992 19.7942 56.1157 19.4383 55.7925 19.1913L54.9121 18.5588C54.5954 18.3491 54.3532 18.1122 54.1937 17.8702C54.0341 17.6281 53.9099 17.2973 53.8333 16.9257C53.7919 16.6955 53.7127 16.3341 53.6094 15.883C53.5102 15.4888 53.2942 15.0897 53.0426 14.7927C52.7911 14.4956 52.4392 14.2114 52.0665 14.0481L51.0769 13.6514C50.7226 13.5141 50.4225 13.3312 50.2101 13.1337C49.9977 12.9363 49.8068 12.6554 49.6526 12.3086C49.5664 12.1008 49.4013 11.7711 49.2045 11.3779L49.1809 11.3307C48.9911 10.9711 48.6923 10.627 48.3775 10.3978C48.0627 10.1686 47.6786 9.9944 47.2796 9.91428L46.2045 9.74168C45.8277 9.69219 45.503 9.59034 45.2532 9.44287C45.0034 9.2954 44.7407 9.06225 44.5083 8.76202C44.3697 8.57346 44.1368 8.28828 43.8452 7.92854C43.5824 7.61816 43.2069 7.36368 42.85 7.20777C42.493 7.05185 42.0463 6.96004 41.6397 6.97809L40.5742 7.0633C40.1957 7.09687 39.8421 7.0731 39.5639 6.99048C39.2858 6.90786 38.9883 6.74419 38.6956 6.50221C38.5189 6.3486 38.2038 6.11974 37.8331 5.84203C37.5023 5.60518 37.0771 5.43337 36.6928 5.36978C36.3084 5.3062 35.8853 5.32349 35.4928 5.4314L34.4534 5.76088C34.0949 5.88695 33.7588 5.94132 33.4692 5.92299C33.1796 5.90466 32.8385 5.80996 32.4947 5.64837C32.2853 5.54351 31.9469 5.39099 31.5231 5.20371C31.1474 5.04728 30.6939 4.98036 30.3051 5.00497C29.9163 5.02957 29.5079 5.14363 29.15 5.33717L28.2122 5.89581C27.8915 6.09938 27.5767 6.22989 27.2904 6.27726C27.0041 6.32462 26.6516 6.31382 26.2801 6.23364C26.0574 6.17972 25.705 6.11207 25.2637 6.02734L25.2343 6.0217C24.833 5.95358 24.3794 5.99787 24.006 6.10878C23.6326 6.2197 23.2301 6.43342 22.9313 6.7094L22.172 7.45918C21.9046 7.72887 21.6177 7.93434 21.3518 8.05048C21.086 8.16662 20.7523 8.23129 20.3723 8.23492C20.1381 8.23132 19.7491 8.25591 19.2863 8.2819C18.8805 8.31348 18.4459 8.45302 18.1105 8.651C17.7751 8.84897 17.4632 9.13303 17.2317 9.46734L16.6485 10.3863C16.454 10.7122 16.2324 10.9702 15.9979 11.141C15.7635 11.3117 15.4463 11.4614 15.0781 11.5556C14.8498 11.608 14.4962 11.709 14.0499 11.8336C13.6603 11.9515 13.2799 12.1953 12.9948 12.4604C12.7096 12.7255 12.451 13.099 12.3054 13.4786L11.9502 14.5026C11.8384 14.8653 11.6807 15.1653 11.4934 15.3865C11.306 15.6078 11.0261 15.8224 10.6907 16.0008C10.4813 16.1056 10.1579 16.2846 9.75378 16.511C9.40318 16.7175 9.08357 17.0394 8.86938 17.3644C8.65518 17.6893 8.48421 18.109 8.43298 18.5122L8.3336 19.5733C8.30229 19.9515 8.21407 20.2924 8.08492 20.5519C7.95578 20.8114 7.74138 21.0748 7.45238 21.3212C7.27049 21.4686 6.98754 21.7369 6.64959 22.0535C6.35884 22.338 6.11419 22.7244 5.98476 23.0913C5.85533 23.4582 5.79844 23.8766 5.83656 24.2813L5.9803 25.36C6.04196 25.7344 6.03741 26.0743 5.96862 26.3558C5.89982 26.6373 5.74943 26.9563 5.52969 27.2659C5.38952 27.4533 5.1819 27.7593 4.92272 28.143C4.7024 28.4847 4.56237 28.9191 4.51812 29.3056C4.47387 29.6921 4.50851 30.1466 4.64596 30.5291L5.03709 31.5205C5.18131 31.8716 5.25732 32.2041 5.25365 32.4939C5.24998 32.7836 5.18131 33.1284 5.03709 33.4795C4.9428 33.6936 4.81181 34.0386 4.64595 34.4707C4.50849 34.8533 4.47387 35.3079 4.51812 35.6944C4.56237 36.0809 4.70237 36.5151 4.92269 36.8569L5.52969 37.7341C5.74943 38.0437 5.89978 38.3625 5.96858 38.644C6.03737 38.9255 6.04196 39.2656 5.9803 39.64C5.93653 39.8698 5.88986 40.2589 5.83651 40.7186C5.79838 41.1232 5.85533 41.5418 5.98476 41.9087C6.11419 42.2756 6.35877 42.6619 6.64953 42.9463L7.45238 43.6788C7.74138 43.9252 7.9557 44.1885 8.08485 44.448C8.21399 44.7075 8.30229 45.0485 8.3336 45.4267C8.34706 45.6602 8.38449 46.0274 8.43289 46.4876C8.48412 46.8908 8.65518 47.3107 8.86938 47.6356C9.08357 47.9606 9.40308 48.2823 9.75368 48.4888L10.6907 48.9992C11.0261 49.1776 11.3059 49.3921 11.4933 49.6133C11.6806 49.8346 11.8384 50.1347 11.9502 50.4974C12.0134 50.7226 12.1489 51.0856 12.3053 51.5213C12.4509 51.9008 12.7096 52.2745 12.9948 52.5396C13.2799 52.8047 13.6602 53.0484 14.0497 53.1663L15.0781 53.4444C15.4463 53.5385 15.7633 53.6882 15.9978 53.8589C16.2322 54.0297 16.454 54.2878 16.6485 54.6137C16.7634 54.8176 16.9762 55.1464 17.2315 55.5326C17.4631 55.8669 17.7751 56.151 18.1105 56.349C18.4459 56.547 18.8804 56.6864 19.2862 56.718L20.3723 56.7651C20.7523 56.7687 21.0858 56.8333 21.3517 56.9495C21.6176 57.0656 21.9046 57.2711 22.172 57.5408C22.3325 57.7111 22.5977 57.9691 22.9311 58.2905C23.2299 58.5665 23.6326 58.7803 24.006 58.8912C24.3794 59.0021 24.8328 59.0464 25.2341 58.9783L26.2801 58.7664C26.6516 58.6862 27.0039 58.6754 27.2902 58.7227C27.5765 58.7701 27.8915 58.9006 28.2122 59.1042C28.4066 59.2346 28.7471 59.4337 29.1498 59.6628C29.5078 59.8564 29.9163 59.9704 30.3051 59.995C30.6939 60.0196 31.1472 59.9527 31.5229 59.7963L32.4947 59.3516C32.8385 59.19 33.1794 59.0953 33.469 59.077C33.7587 59.0587 34.0949 59.1131 34.4534 59.2391C34.6723 59.3223 35.0486 59.4362 35.4927 59.5686C35.8851 59.6765 36.3084 59.6938 36.6928 59.6302C37.0771 59.5666 37.5021 59.3949 37.8329 59.158L38.6956 58.4978C38.9883 58.2558 39.2856 58.0922 39.5638 58.0096C39.8419 57.9269 40.1957 57.9031 40.5742 57.9367C40.8069 57.9632 41.1771 57.9914 41.6395 58.022C42.0462 58.04 42.493 57.9481 42.85 57.7922C43.2069 57.6363 43.5823 57.3819 43.8451 57.0715L44.5083 56.238C44.7407 55.9378 45.0033 55.7047 45.2531 55.5572C45.5029 55.4097 45.8277 55.3078 46.2045 55.2583C46.4374 55.2336 46.8232 55.1672 47.2794 55.0858C47.6785 55.0057 48.0627 54.8314 48.3775 54.6022C48.6923 54.373 48.9909 54.029 49.1807 53.6694L49.6526 52.6914C49.8068 52.3446 49.9976 52.0638 50.21 51.8664C50.4224 51.6689 50.7226 51.4859 51.0769 51.3487C51.2934 51.271 51.6258 51.1338 52.0433 50.9615L52.0663 50.952C52.4391 50.7887 52.7911 50.5044 53.0426 50.2073C53.2942 49.9103 53.5101 49.5113 53.6093 49.1172L53.8333 48.0743C53.9099 47.7027 54.034 47.372 54.1936 47.13C54.3531 46.8879 54.5954 46.6509 54.9121 46.4412C55.1105 46.3169 55.4184 46.0822 55.7924 45.8089C56.1156 45.5618 56.3992 45.2058 56.5726 44.8574C56.746 44.509 56.8705 44.0735 56.8724 43.6671L56.8451 42.6027C56.8301 42.2236 56.8824 41.8765 56.9788 41.6032C57.0752 41.3299 57.2592 41.0432 57.5157 40.7633C57.6782 40.5948 57.9336 40.2954 58.2299 39.9395C58.4833 39.6215 58.6665 39.2401 58.7589 38.8621C58.8512 38.4842 58.8619 38.0271 58.7737 37.6303L58.5067 36.579C58.3987 36.2152 58.3661 35.8779 58.3991 35.59C58.4321 35.3021 58.5417 34.9809 58.7291 34.6508C58.8497 34.4503 59.022 34.0999 59.2308 33.6868Z"/>
</mask>
<path d="M59.2308 33.6868C59.4063 33.32 59.4951 32.8713 59.5 32.4823C59.4951 32.0933 59.4063 31.6802 59.2308 31.3134L58.7291 30.3492C58.5417 30.0191 58.4321 29.6981 58.3991 29.4102C58.3662 29.1223 58.3986 28.7848 58.5067 28.421C58.5788 28.1985 58.6636 27.8194 58.7738 27.3699C58.862 26.9731 58.8512 26.5158 58.7589 26.1379C58.6665 25.7599 58.4834 25.3787 58.2299 25.0606L57.5157 24.2367C57.2592 23.9568 57.0753 23.6703 56.9789 23.397C56.8825 23.1237 56.8301 22.7764 56.8451 22.3973C56.8601 22.1638 56.8647 21.7958 56.8725 21.3331C56.8706 20.9267 56.746 20.491 56.5726 20.1426C56.3992 19.7942 56.1157 19.4383 55.7925 19.1913L54.9121 18.5588C54.5954 18.3491 54.3532 18.1122 54.1937 17.8702C54.0341 17.6281 53.9099 17.2973 53.8333 16.9257C53.7919 16.6955 53.7127 16.3341 53.6094 15.883C53.5102 15.4888 53.2942 15.0897 53.0426 14.7927C52.7911 14.4956 52.4392 14.2114 52.0665 14.0481L51.0769 13.6514C50.7226 13.5141 50.4225 13.3312 50.2101 13.1337C49.9977 12.9363 49.8068 12.6554 49.6526 12.3086C49.5664 12.1008 49.4013 11.7711 49.2045 11.3779L49.1809 11.3307C48.9911 10.9711 48.6923 10.627 48.3775 10.3978C48.0627 10.1686 47.6786 9.9944 47.2796 9.91428L46.2045 9.74168C45.8277 9.69219 45.503 9.59034 45.2532 9.44287C45.0034 9.2954 44.7407 9.06225 44.5083 8.76202C44.3697 8.57346 44.1368 8.28828 43.8452 7.92854C43.5824 7.61816 43.2069 7.36368 42.85 7.20777C42.493 7.05185 42.0463 6.96004 41.6397 6.97809L40.5742 7.0633C40.1957 7.09687 39.8421 7.0731 39.5639 6.99048C39.2858 6.90786 38.9883 6.74419 38.6956 6.50221C38.5189 6.3486 38.2038 6.11974 37.8331 5.84203C37.5023 5.60518 37.0771 5.43337 36.6928 5.36978C36.3084 5.3062 35.8853 5.32349 35.4928 5.4314L34.4534 5.76088C34.0949 5.88695 33.7588 5.94132 33.4692 5.92299C33.1796 5.90466 32.8385 5.80996 32.4947 5.64837C32.2853 5.54351 31.9469 5.39099 31.5231 5.20371C31.1474 5.04728 30.6939 4.98036 30.3051 5.00497C29.9163 5.02957 29.5079 5.14363 29.15 5.33717L28.2122 5.89581C27.8915 6.09938 27.5767 6.22989 27.2904 6.27726C27.0041 6.32462 26.6516 6.31382 26.2801 6.23364C26.0574 6.17972 25.705 6.11207 25.2637 6.02734L25.2343 6.0217C24.833 5.95358 24.3794 5.99787 24.006 6.10878C23.6326 6.2197 23.2301 6.43342 22.9313 6.7094L22.172 7.45918C21.9046 7.72887 21.6177 7.93434 21.3518 8.05048C21.086 8.16662 20.7523 8.23129 20.3723 8.23492C20.1381 8.23132 19.7491 8.25591 19.2863 8.2819C18.8805 8.31348 18.4459 8.45302 18.1105 8.651C17.7751 8.84897 17.4632 9.13303 17.2317 9.46734L16.6485 10.3863C16.454 10.7122 16.2324 10.9702 15.9979 11.141C15.7635 11.3117 15.4463 11.4614 15.0781 11.5556C14.8498 11.608 14.4962 11.709 14.0499 11.8336C13.6603 11.9515 13.2799 12.1953 12.9948 12.4604C12.7096 12.7255 12.451 13.099 12.3054 13.4786L11.9502 14.5026C11.8384 14.8653 11.6807 15.1653 11.4934 15.3865C11.306 15.6078 11.0261 15.8224 10.6907 16.0008C10.4813 16.1056 10.1579 16.2846 9.75378 16.511C9.40318 16.7175 9.08357 17.0394 8.86938 17.3644C8.65518 17.6893 8.48421 18.109 8.43298 18.5122L8.3336 19.5733C8.30229 19.9515 8.21407 20.2924 8.08492 20.5519C7.95578 20.8114 7.74138 21.0748 7.45238 21.3212C7.27049 21.4686 6.98754 21.7369 6.64959 22.0535C6.35884 22.338 6.11419 22.7244 5.98476 23.0913C5.85533 23.4582 5.79844 23.8766 5.83656 24.2813L5.9803 25.36C6.04196 25.7344 6.03741 26.0743 5.96862 26.3558C5.89982 26.6373 5.74943 26.9563 5.52969 27.2659C5.38952 27.4533 5.1819 27.7593 4.92272 28.143C4.7024 28.4847 4.56237 28.9191 4.51812 29.3056C4.47387 29.6921 4.50851 30.1466 4.64596 30.5291L5.03709 31.5205C5.18131 31.8716 5.25732 32.2041 5.25365 32.4939C5.24998 32.7836 5.18131 33.1284 5.03709 33.4795C4.9428 33.6936 4.81181 34.0386 4.64595 34.4707C4.50849 34.8533 4.47387 35.3079 4.51812 35.6944C4.56237 36.0809 4.70237 36.5151 4.92269 36.8569L5.52969 37.7341C5.74943 38.0437 5.89978 38.3625 5.96858 38.644C6.03737 38.9255 6.04196 39.2656 5.9803 39.64C5.93653 39.8698 5.88986 40.2589 5.83651 40.7186C5.79838 41.1232 5.85533 41.5418 5.98476 41.9087C6.11419 42.2756 6.35877 42.6619 6.64953 42.9463L7.45238 43.6788C7.74138 43.9252 7.9557 44.1885 8.08485 44.448C8.21399 44.7075 8.30229 45.0485 8.3336 45.4267C8.34706 45.6602 8.38449 46.0274 8.43289 46.4876C8.48412 46.8908 8.65518 47.3107 8.86938 47.6356C9.08357 47.9606 9.40308 48.2823 9.75368 48.4888L10.6907 48.9992C11.0261 49.1776 11.3059 49.3921 11.4933 49.6133C11.6806 49.8346 11.8384 50.1347 11.9502 50.4974C12.0134 50.7226 12.1489 51.0856 12.3053 51.5213C12.4509 51.9008 12.7096 52.2745 12.9948 52.5396C13.2799 52.8047 13.6602 53.0484 14.0497 53.1663L15.0781 53.4444C15.4463 53.5385 15.7633 53.6882 15.9978 53.8589C16.2322 54.0297 16.454 54.2878 16.6485 54.6137C16.7634 54.8176 16.9762 55.1464 17.2315 55.5326C17.4631 55.8669 17.7751 56.151 18.1105 56.349C18.4459 56.547 18.8804 56.6864 19.2862 56.718L20.3723 56.7651C20.7523 56.7687 21.0858 56.8333 21.3517 56.9495C21.6176 57.0656 21.9046 57.2711 22.172 57.5408C22.3325 57.7111 22.5977 57.9691 22.9311 58.2905C23.2299 58.5665 23.6326 58.7803 24.006 58.8912C24.3794 59.0021 24.8328 59.0464 25.2341 58.9783L26.2801 58.7664C26.6516 58.6862 27.0039 58.6754 27.2902 58.7227C27.5765 58.7701 27.8915 58.9006 28.2122 59.1042C28.4066 59.2346 28.7471 59.4337 29.1498 59.6628C29.5078 59.8564 29.9163 59.9704 30.3051 59.995C30.6939 60.0196 31.1472 59.9527 31.5229 59.7963L32.4947 59.3516C32.8385 59.19 33.1794 59.0953 33.469 59.077C33.7587 59.0587 34.0949 59.1131 34.4534 59.2391C34.6723 59.3223 35.0486 59.4362 35.4927 59.5686C35.8851 59.6765 36.3084 59.6938 36.6928 59.6302C37.0771 59.5666 37.5021 59.3949 37.8329 59.158L38.6956 58.4978C38.9883 58.2558 39.2856 58.0922 39.5638 58.0096C39.8419 57.9269 40.1957 57.9031 40.5742 57.9367C40.8069 57.9632 41.1771 57.9914 41.6395 58.022C42.0462 58.04 42.493 57.9481 42.85 57.7922C43.2069 57.6363 43.5823 57.3819 43.8451 57.0715L44.5083 56.238C44.7407 55.9378 45.0033 55.7047 45.2531 55.5572C45.5029 55.4097 45.8277 55.3078 46.2045 55.2583C46.4374 55.2336 46.8232 55.1672 47.2794 55.0858C47.6785 55.0057 48.0627 54.8314 48.3775 54.6022C48.6923 54.373 48.9909 54.029 49.1807 53.6694L49.6526 52.6914C49.8068 52.3446 49.9976 52.0638 50.21 51.8664C50.4224 51.6689 50.7226 51.4859 51.0769 51.3487C51.2934 51.271 51.6258 51.1338 52.0433 50.9615L52.0663 50.952C52.4391 50.7887 52.7911 50.5044 53.0426 50.2073C53.2942 49.9103 53.5101 49.5113 53.6093 49.1172L53.8333 48.0743C53.9099 47.7027 54.034 47.372 54.1936 47.13C54.3531 46.8879 54.5954 46.6509 54.9121 46.4412C55.1105 46.3169 55.4184 46.0822 55.7924 45.8089C56.1156 45.5618 56.3992 45.2058 56.5726 44.8574C56.746 44.509 56.8705 44.0735 56.8724 43.6671L56.8451 42.6027C56.8301 42.2236 56.8824 41.8765 56.9788 41.6032C57.0752 41.3299 57.2592 41.0432 57.5157 40.7633C57.6782 40.5948 57.9336 40.2954 58.2299 39.9395C58.4833 39.6215 58.6665 39.2401 58.7589 38.8621C58.8512 38.4842 58.8619 38.0271 58.7737 37.6303L58.5067 36.579C58.3987 36.2152 58.3661 35.8779 58.3991 35.59C58.4321 35.3021 58.5417 34.9809 58.7291 34.6508C58.8497 34.4503 59.022 34.0999 59.2308 33.6868Z" stroke="#0E141F" stroke-opacity="0.75" stroke-width="2" mask="url(#path-4-inside-1)"/>
</g>
<g opacity="0.5">
<mask id="path-5-inside-2" fill="white">
<path d="M58.7357 33.6652C58.908 33.3051 58.9952 32.8646 59 32.4826C58.9952 32.1007 58.908 31.6951 58.7357 31.335L58.2431 30.3883C58.0591 30.0643 57.9515 29.749 57.9191 29.4663C57.8868 29.1837 57.9187 28.8524 58.0247 28.4952C58.0956 28.2767 58.1788 27.9045 58.287 27.4631C58.3736 27.0736 58.363 26.6246 58.2723 26.2535C58.1817 25.8825 58.0018 25.5082 57.753 25.1959L57.0518 24.3869C56.7999 24.1121 56.6194 23.8308 56.5247 23.5625C56.43 23.2942 56.3786 22.9532 56.3933 22.5809C56.4081 22.3518 56.4126 21.9904 56.4203 21.5361C56.4184 21.1371 56.296 20.7093 56.1258 20.3673C55.9556 20.0253 55.6772 19.6758 55.3599 19.4332L54.4955 18.8123C54.1845 18.6064 53.9468 18.3738 53.7901 18.1362C53.6335 17.8985 53.5115 17.5738 53.4364 17.2088C53.3957 16.9828 53.318 16.628 53.2165 16.1851C53.1191 15.7981 52.907 15.4063 52.6601 15.1146C52.4131 14.823 52.0676 14.5439 51.7016 14.3836L50.7301 13.9941C50.3822 13.8593 50.0876 13.6797 49.879 13.4859C49.6705 13.292 49.4831 13.0163 49.3317 12.6757C49.247 12.4717 49.085 12.1481 48.8918 11.7621L48.8685 11.7156C48.6822 11.3626 48.3888 11.0247 48.0797 10.7997C47.7707 10.5746 47.3936 10.4036 47.0018 10.3249L45.9462 10.1555C45.5763 10.1069 45.2575 10.0069 45.0123 9.86209C44.767 9.7173 44.5091 9.48839 44.2809 9.19362C44.1448 9.00848 43.9161 8.72849 43.6299 8.37529C43.3718 8.07055 43.0031 7.8207 42.6527 7.66763C42.3022 7.51455 41.8637 7.4244 41.4644 7.44213L40.4183 7.52578C40.0467 7.55875 39.6995 7.53541 39.4264 7.45429C39.1533 7.37318 38.8612 7.21248 38.5738 6.97489C38.4004 6.82408 38.091 6.59938 37.7271 6.32672C37.4023 6.09417 36.9848 5.92549 36.6075 5.86306C36.2301 5.80063 35.8146 5.81761 35.4293 5.92356L34.4088 6.24704C34.0568 6.37082 33.7268 6.4242 33.4425 6.40621C33.1581 6.38821 32.8233 6.29524 32.4857 6.13658C32.2801 6.03363 31.9478 5.88388 31.5318 5.70001C31.1629 5.54642 30.7177 5.48072 30.3359 5.50487C29.9542 5.52903 29.5532 5.64102 29.2018 5.83104L28.281 6.37952C27.9662 6.57939 27.6571 6.70753 27.376 6.75404C27.0949 6.80054 26.7488 6.78993 26.3841 6.71121C26.1654 6.65827 25.8195 6.59185 25.3861 6.50865L25.3573 6.50312C24.9633 6.43625 24.5179 6.47972 24.1513 6.58862C23.7847 6.69752 23.3895 6.90736 23.0961 7.17832L22.3507 7.91447C22.0882 8.17926 21.8065 8.38099 21.5454 8.49502C21.2844 8.60904 20.9568 8.67254 20.5837 8.6761C20.3537 8.67256 19.9718 8.69671 19.5175 8.72223C19.119 8.75323 18.6923 8.89024 18.363 9.08461C18.0338 9.27899 17.7275 9.55789 17.5002 9.88611L16.9277 10.7883C16.7367 11.1084 16.5191 11.3617 16.2889 11.5293C16.0587 11.697 15.7472 11.844 15.3858 11.9364C15.1616 11.9878 14.8145 12.0871 14.3762 12.2094C13.9937 12.3251 13.6203 12.5645 13.3403 12.8248C13.0603 13.085 12.8064 13.4518 12.6635 13.8245L12.3147 14.8299C12.205 15.1859 12.0502 15.4804 11.8662 15.6977C11.6822 15.9149 11.4075 16.1257 11.0782 16.3008C10.8726 16.4037 10.5551 16.5794 10.1583 16.8018C9.81403 17.0045 9.50024 17.3205 9.28993 17.6396C9.07963 17.9586 8.91177 18.3707 8.86147 18.7666L8.7639 19.8083C8.73315 20.1796 8.64654 20.5143 8.51974 20.7691C8.39295 21.0239 8.18245 21.2825 7.8987 21.5244C7.72012 21.6691 7.44232 21.9326 7.11051 22.2435C6.82504 22.5227 6.58484 22.9021 6.45776 23.2624C6.33069 23.6226 6.27483 24.0334 6.31226 24.4307L6.45338 25.4898C6.51393 25.8574 6.50946 26.1912 6.44191 26.4676C6.37437 26.7439 6.22671 27.0571 6.01097 27.3611C5.87335 27.545 5.6695 27.8455 5.41503 28.2222C5.19872 28.5577 5.06123 28.9842 5.01779 29.3637C4.97435 29.7432 5.00835 30.1893 5.1433 30.565L5.52732 31.5383C5.66892 31.883 5.74355 32.2095 5.73995 32.494C5.73634 32.7785 5.66892 33.117 5.52732 33.4617C5.43475 33.6719 5.30614 34.0106 5.14329 34.4349C5.00834 34.8105 4.97435 35.2568 5.01779 35.6363C5.06123 36.0158 5.19869 36.4421 5.415 36.7776L6.01097 37.6389C6.22671 37.9429 6.37433 38.2559 6.44187 38.5323C6.50942 38.8087 6.51393 39.1426 6.45338 39.5102C6.41041 39.7358 6.36459 40.1178 6.31221 40.5692C6.27478 40.9665 6.33069 41.3774 6.45776 41.7376C6.58484 42.0979 6.82498 42.4771 7.11044 42.7564L7.8987 43.4756C8.18245 43.7175 8.39287 43.9759 8.51967 44.2307C8.64646 44.4855 8.73315 44.8204 8.76389 45.1917C8.77711 45.4209 8.81387 45.7814 8.86138 46.2333C8.91168 46.6292 9.07963 47.0414 9.28993 47.3604C9.50024 47.6795 9.81393 47.9954 10.1582 48.1981L11.0782 48.6992C11.4075 48.8743 11.6821 49.0849 11.8661 49.3022C12.0501 49.5194 12.205 49.8141 12.3147 50.1701C12.3768 50.3912 12.5099 50.7477 12.6634 51.1754C12.8063 51.5481 13.0603 51.915 13.3403 52.1752C13.6203 52.4355 13.9936 52.6748 14.3761 52.7905L15.3858 53.0636C15.7472 53.156 16.0585 53.3029 16.2887 53.4706C16.5189 53.6382 16.7367 53.8916 16.9277 54.2117C17.0404 54.4118 17.2494 54.7346 17.5001 55.1138C17.7274 55.442 18.0338 55.721 18.363 55.9154C18.6923 56.1098 19.1189 56.2467 19.5173 56.2777L20.5837 56.3239C20.9568 56.3275 21.2843 56.3909 21.5453 56.5049C21.8063 56.6189 22.0882 56.8207 22.3507 57.0855C22.5083 57.2527 22.7687 57.506 23.096 57.8216C23.3894 58.0926 23.7847 58.3025 24.1513 58.4114C24.5179 58.5203 24.9631 58.5637 25.3571 58.4968L26.3841 58.2888C26.7488 58.2101 27.0947 58.1994 27.3758 58.2459C27.6569 58.2924 27.9662 58.4206 28.281 58.6205C28.472 58.7485 28.8063 58.944 29.2016 59.1689C29.5531 59.359 29.9542 59.471 30.3359 59.4951C30.7177 59.5193 31.1627 59.4536 31.5316 59.3L32.4857 58.8634C32.8233 58.7048 33.158 58.6118 33.4423 58.5938C33.7267 58.5758 34.0568 58.6292 34.4088 58.753C34.6237 58.8346 34.9932 58.9464 35.4292 59.0765C35.8145 59.1824 36.2301 59.1994 36.6075 59.1369C36.9848 59.0745 37.4021 58.9059 37.7269 58.6733L38.5738 58.0251C38.8612 57.7875 39.1532 57.6269 39.4263 57.5458C39.6994 57.4646 40.0467 57.4412 40.4183 57.4742C40.6468 57.5002 41.0102 57.528 41.4642 57.5579C41.8635 57.5757 42.3022 57.4855 42.6527 57.3324C43.0031 57.1793 43.3717 56.9295 43.6297 56.6248L44.2809 55.8064C44.5091 55.5116 44.7668 55.2828 45.0121 55.138C45.2574 54.9932 45.5763 54.8931 45.9462 54.8445C46.1749 54.8203 46.5537 54.7551 47.0016 54.6752C47.3934 54.5965 47.7707 54.4254 48.0797 54.2003C48.3888 53.9753 48.682 53.6375 48.8684 53.2845L49.3317 52.3243C49.4831 51.9837 49.6703 51.7081 49.8789 51.5143C50.0874 51.3204 50.3822 51.1407 50.7301 51.0059C50.9426 50.9297 51.269 50.795 51.6789 50.6259L51.7015 50.6165C52.0675 50.4562 52.4131 50.177 52.6601 49.8854C52.907 49.5937 53.119 49.202 53.2164 48.815L53.4364 47.7912C53.5115 47.4262 53.6334 47.1016 53.7901 46.864C53.9467 46.6263 54.1845 46.3936 54.4955 46.1877C54.6903 46.0656 54.9926 45.8352 55.3598 45.5669C55.6771 45.3244 55.9556 44.9747 56.1258 44.6327C56.296 44.2907 56.4183 43.8631 56.4202 43.464L56.3933 42.4191C56.3786 42.0468 56.43 41.706 56.5246 41.4377C56.6193 41.1693 56.7999 40.8879 57.0518 40.6131C57.2113 40.4476 57.4621 40.1536 57.753 39.8043C58.0018 39.492 58.1817 39.1175 58.2723 38.7465C58.363 38.3754 58.3735 37.9266 58.2869 37.537L58.0247 36.5048C57.9187 36.1476 57.8868 35.8165 57.9191 35.5338C57.9515 35.2512 58.0591 34.9357 58.2431 34.6117C58.3615 34.4148 58.5307 34.0708 58.7357 33.6652Z"/>
</mask>
<path d="M58.7357 33.6652C58.908 33.3051 58.9952 32.8646 59 32.4826C58.9952 32.1007 58.908 31.6951 58.7357 31.335L58.2431 30.3883C58.0591 30.0643 57.9515 29.749 57.9191 29.4663C57.8868 29.1837 57.9187 28.8524 58.0247 28.4952C58.0956 28.2767 58.1788 27.9045 58.287 27.4631C58.3736 27.0736 58.363 26.6246 58.2723 26.2535C58.1817 25.8825 58.0018 25.5082 57.753 25.1959L57.0518 24.3869C56.7999 24.1121 56.6194 23.8308 56.5247 23.5625C56.43 23.2942 56.3786 22.9532 56.3933 22.5809C56.4081 22.3518 56.4126 21.9904 56.4203 21.5361C56.4184 21.1371 56.296 20.7093 56.1258 20.3673C55.9556 20.0253 55.6772 19.6758 55.3599 19.4332L54.4955 18.8123C54.1845 18.6064 53.9468 18.3738 53.7901 18.1362C53.6335 17.8985 53.5115 17.5738 53.4364 17.2088C53.3957 16.9828 53.318 16.628 53.2165 16.1851C53.1191 15.7981 52.907 15.4063 52.6601 15.1146C52.4131 14.823 52.0676 14.5439 51.7016 14.3836L50.7301 13.9941C50.3822 13.8593 50.0876 13.6797 49.879 13.4859C49.6705 13.292 49.4831 13.0163 49.3317 12.6757C49.247 12.4717 49.085 12.1481 48.8918 11.7621L48.8685 11.7156C48.6822 11.3626 48.3888 11.0247 48.0797 10.7997C47.7707 10.5746 47.3936 10.4036 47.0018 10.3249L45.9462 10.1555C45.5763 10.1069 45.2575 10.0069 45.0123 9.86209C44.767 9.7173 44.5091 9.48839 44.2809 9.19362C44.1448 9.00848 43.9161 8.72849 43.6299 8.37529C43.3718 8.07055 43.0031 7.8207 42.6527 7.66763C42.3022 7.51455 41.8637 7.4244 41.4644 7.44213L40.4183 7.52578C40.0467 7.55875 39.6995 7.53541 39.4264 7.45429C39.1533 7.37318 38.8612 7.21248 38.5738 6.97489C38.4004 6.82408 38.091 6.59938 37.7271 6.32672C37.4023 6.09417 36.9848 5.92549 36.6075 5.86306C36.2301 5.80063 35.8146 5.81761 35.4293 5.92356L34.4088 6.24704C34.0568 6.37082 33.7268 6.4242 33.4425 6.40621C33.1581 6.38821 32.8233 6.29524 32.4857 6.13658C32.2801 6.03363 31.9478 5.88388 31.5318 5.70001C31.1629 5.54642 30.7177 5.48072 30.3359 5.50487C29.9542 5.52903 29.5532 5.64102 29.2018 5.83104L28.281 6.37952C27.9662 6.57939 27.6571 6.70753 27.376 6.75404C27.0949 6.80054 26.7488 6.78993 26.3841 6.71121C26.1654 6.65827 25.8195 6.59185 25.3861 6.50865L25.3573 6.50312C24.9633 6.43625 24.5179 6.47972 24.1513 6.58862C23.7847 6.69752 23.3895 6.90736 23.0961 7.17832L22.3507 7.91447C22.0882 8.17926 21.8065 8.38099 21.5454 8.49502C21.2844 8.60904 20.9568 8.67254 20.5837 8.6761C20.3537 8.67256 19.9718 8.69671 19.5175 8.72223C19.119 8.75323 18.6923 8.89024 18.363 9.08461C18.0338 9.27899 17.7275 9.55789 17.5002 9.88611L16.9277 10.7883C16.7367 11.1084 16.5191 11.3617 16.2889 11.5293C16.0587 11.697 15.7472 11.844 15.3858 11.9364C15.1616 11.9878 14.8145 12.0871 14.3762 12.2094C13.9937 12.3251 13.6203 12.5645 13.3403 12.8248C13.0603 13.085 12.8064 13.4518 12.6635 13.8245L12.3147 14.8299C12.205 15.1859 12.0502 15.4804 11.8662 15.6977C11.6822 15.9149 11.4075 16.1257 11.0782 16.3008C10.8726 16.4037 10.5551 16.5794 10.1583 16.8018C9.81403 17.0045 9.50024 17.3205 9.28993 17.6396C9.07963 17.9586 8.91177 18.3707 8.86147 18.7666L8.7639 19.8083C8.73315 20.1796 8.64654 20.5143 8.51974 20.7691C8.39295 21.0239 8.18245 21.2825 7.8987 21.5244C7.72012 21.6691 7.44232 21.9326 7.11051 22.2435C6.82504 22.5227 6.58484 22.9021 6.45776 23.2624C6.33069 23.6226 6.27483 24.0334 6.31226 24.4307L6.45338 25.4898C6.51393 25.8574 6.50946 26.1912 6.44191 26.4676C6.37437 26.7439 6.22671 27.0571 6.01097 27.3611C5.87335 27.545 5.6695 27.8455 5.41503 28.2222C5.19872 28.5577 5.06123 28.9842 5.01779 29.3637C4.97435 29.7432 5.00835 30.1893 5.1433 30.565L5.52732 31.5383C5.66892 31.883 5.74355 32.2095 5.73995 32.494C5.73634 32.7785 5.66892 33.117 5.52732 33.4617C5.43475 33.6719 5.30614 34.0106 5.14329 34.4349C5.00834 34.8105 4.97435 35.2568 5.01779 35.6363C5.06123 36.0158 5.19869 36.4421 5.415 36.7776L6.01097 37.6389C6.22671 37.9429 6.37433 38.2559 6.44187 38.5323C6.50942 38.8087 6.51393 39.1426 6.45338 39.5102C6.41041 39.7358 6.36459 40.1178 6.31221 40.5692C6.27478 40.9665 6.33069 41.3774 6.45776 41.7376C6.58484 42.0979 6.82498 42.4771 7.11044 42.7564L7.8987 43.4756C8.18245 43.7175 8.39287 43.9759 8.51967 44.2307C8.64646 44.4855 8.73315 44.8204 8.76389 45.1917C8.77711 45.4209 8.81387 45.7814 8.86138 46.2333C8.91168 46.6292 9.07963 47.0414 9.28993 47.3604C9.50024 47.6795 9.81393 47.9954 10.1582 48.1981L11.0782 48.6992C11.4075 48.8743 11.6821 49.0849 11.8661 49.3022C12.0501 49.5194 12.205 49.8141 12.3147 50.1701C12.3768 50.3912 12.5099 50.7477 12.6634 51.1754C12.8063 51.5481 13.0603 51.915 13.3403 52.1752C13.6203 52.4355 13.9936 52.6748 14.3761 52.7905L15.3858 53.0636C15.7472 53.156 16.0585 53.3029 16.2887 53.4706C16.5189 53.6382 16.7367 53.8916 16.9277 54.2117C17.0404 54.4118 17.2494 54.7346 17.5001 55.1138C17.7274 55.442 18.0338 55.721 18.363 55.9154C18.6923 56.1098 19.1189 56.2467 19.5173 56.2777L20.5837 56.3239C20.9568 56.3275 21.2843 56.3909 21.5453 56.5049C21.8063 56.6189 22.0882 56.8207 22.3507 57.0855C22.5083 57.2527 22.7687 57.506 23.096 57.8216C23.3894 58.0926 23.7847 58.3025 24.1513 58.4114C24.5179 58.5203 24.9631 58.5637 25.3571 58.4968L26.3841 58.2888C26.7488 58.2101 27.0947 58.1994 27.3758 58.2459C27.6569 58.2924 27.9662 58.4206 28.281 58.6205C28.472 58.7485 28.8063 58.944 29.2016 59.1689C29.5531 59.359 29.9542 59.471 30.3359 59.4951C30.7177 59.5193 31.1627 59.4536 31.5316 59.3L32.4857 58.8634C32.8233 58.7048 33.158 58.6118 33.4423 58.5938C33.7267 58.5758 34.0568 58.6292 34.4088 58.753C34.6237 58.8346 34.9932 58.9464 35.4292 59.0765C35.8145 59.1824 36.2301 59.1994 36.6075 59.1369C36.9848 59.0745 37.4021 58.9059 37.7269 58.6733L38.5738 58.0251C38.8612 57.7875 39.1532 57.6269 39.4263 57.5458C39.6994 57.4646 40.0467 57.4412 40.4183 57.4742C40.6468 57.5002 41.0102 57.528 41.4642 57.5579C41.8635 57.5757 42.3022 57.4855 42.6527 57.3324C43.0031 57.1793 43.3717 56.9295 43.6297 56.6248L44.2809 55.8064C44.5091 55.5116 44.7668 55.2828 45.0121 55.138C45.2574 54.9932 45.5763 54.8931 45.9462 54.8445C46.1749 54.8203 46.5537 54.7551 47.0016 54.6752C47.3934 54.5965 47.7707 54.4254 48.0797 54.2003C48.3888 53.9753 48.682 53.6375 48.8684 53.2845L49.3317 52.3243C49.4831 51.9837 49.6703 51.7081 49.8789 51.5143C50.0874 51.3204 50.3822 51.1407 50.7301 51.0059C50.9426 50.9297 51.269 50.795 51.6789 50.6259L51.7015 50.6165C52.0675 50.4562 52.4131 50.177 52.6601 49.8854C52.907 49.5937 53.119 49.202 53.2164 48.815L53.4364 47.7912C53.5115 47.4262 53.6334 47.1016 53.7901 46.864C53.9467 46.6263 54.1845 46.3936 54.4955 46.1877C54.6903 46.0656 54.9926 45.8352 55.3598 45.5669C55.6771 45.3244 55.9556 44.9747 56.1258 44.6327C56.296 44.2907 56.4183 43.8631 56.4202 43.464L56.3933 42.4191C56.3786 42.0468 56.43 41.706 56.5246 41.4377C56.6193 41.1693 56.7999 40.8879 57.0518 40.6131C57.2113 40.4476 57.4621 40.1536 57.753 39.8043C58.0018 39.492 58.1817 39.1175 58.2723 38.7465C58.363 38.3754 58.3735 37.9266 58.2869 37.537L58.0247 36.5048C57.9187 36.1476 57.8868 35.8165 57.9191 35.5338C57.9515 35.2512 58.0591 34.9357 58.2431 34.6117C58.3615 34.4148 58.5307 34.0708 58.7357 33.6652Z" stroke="url(#paint3_linear)" stroke-width="2" stroke-linecap="round" stroke-linejoin="round" mask="url(#path-5-inside-2)"/>
</g>
<path d="M27.3576 14.6255L25.4108 18.3872L23.7638 19.2238L21.8939 15.532L19.081 19.1663V24.2131L17.698 25.4066L14.5257 22.7676L13.9852 27.6667L16.2134 31.8766L15.2151 33.8572L12 32.766L13.6237 37.1355L17.0235 39.1666L18.4718 41.2589L14.6204 42.7821L18.4718 45.7986L22.979 45.8956L24.6508 47.2699L21.9957 50.1199L26.7625 50.7544L29.7819 49.0436L32.4801 48.7085L32.0193 52.7333L36.4239 51.0085L38.6473 47.1891L40.38 46.5247L42.0523 50.0798L44.9379 46.432V41.8228L46.0829 40.2494L49.2637 42.697L49.8996 37.8161L47.6981 34.1198V31.8768L52 32.8114L50.0274 28.1478L46.7629 26.4561L45.6336 24.411L49.2777 22.6965L45.6336 19.8156H41.3096L39.563 18.3872L42.0098 15.341L37.0688 14.7131L33.6019 16.9213L31.697 16.8262L31.7997 12.7333L27.3576 14.6255Z" fill="url(#paint4_linear)"/>
<path opacity="0.5" d="M25.6373 18.833C25.7306 18.7855 25.8067 18.71 25.8549 18.617L27.719 15.015L31.2804 13.498L31.1972 16.8136C31.1904 17.0848 31.4011 17.312 31.6721 17.3255L33.577 17.4207C33.6805 17.4259 33.7831 17.3988 33.8705 17.3431L37.1851 15.2319L41.0605 15.7244L39.1732 18.0741C39.0013 18.288 39.0341 18.6005 39.2465 18.7742L40.9931 20.2027C41.0824 20.2757 41.1942 20.3156 41.3096 20.3156H45.4598L48.3341 22.5879L45.4207 23.9585C45.2957 24.0174 45.2005 24.1254 45.1579 24.2569C45.1153 24.3884 45.1291 24.5317 45.1959 24.6527L46.3252 26.6978C46.3729 26.7843 46.4452 26.8546 46.5328 26.9001L49.6372 28.5088L51.1638 32.118L47.8042 31.3882C47.6564 31.3561 47.502 31.3926 47.3843 31.4875C47.2665 31.5824 47.1981 31.7255 47.1981 31.8768V34.1198C47.1981 34.2098 47.2224 34.2982 47.2685 34.3756L49.3814 37.9232L48.8801 41.7709L46.3879 39.8531C46.2809 39.7708 46.1453 39.7353 46.0117 39.7545C45.8782 39.7737 45.758 39.8461 45.6787 39.9552L44.5336 41.5286C44.4714 41.6141 44.4379 41.7171 44.4379 41.8228V46.2581L42.1611 49.1364L40.8325 46.3119C40.721 46.0749 40.4456 45.9641 40.201 46.0579L38.4683 46.7223C38.3618 46.7631 38.2725 46.8391 38.2152 46.9376L36.0794 50.6065L32.6105 51.9648L32.9769 48.7654C32.9943 48.6131 32.9409 48.4612 32.832 48.3533C32.723 48.2454 32.5706 48.1934 32.4185 48.2123L29.7202 48.5474C29.6552 48.5555 29.5924 48.5763 29.5354 48.6086L26.6621 50.2366L23.0217 49.752L25.0166 47.6108C25.1107 47.5098 25.1588 47.3745 25.1497 47.2368C25.1405 47.0991 25.0749 46.9713 24.9683 46.8837L23.2966 45.5094C23.21 45.4382 23.1019 45.3981 22.9898 45.3957L18.649 45.3023L15.6154 42.9263L18.6557 41.7239C18.7975 41.6677 18.906 41.55 18.9503 41.404C18.9946 41.258 18.9697 41.0998 18.8829 40.9743L17.4347 38.882C17.394 38.8233 17.3413 38.774 17.28 38.7373L14.0312 36.7964L12.8349 33.5773L15.0544 34.3306C15.2904 34.4108 15.5494 34.3048 15.6616 34.0822L16.6599 32.1017C16.7329 31.957 16.7312 31.7859 16.6554 31.6427L14.4991 27.5687L14.9207 23.7466L17.3783 25.791C17.5662 25.9473 17.8396 25.9449 18.0247 25.7851L19.4077 24.5917C19.5177 24.4967 19.581 24.3585 19.581 24.2131V19.3372L21.8052 16.4635L23.3178 19.4497C23.3777 19.5681 23.4823 19.6578 23.6084 19.699C23.7346 19.7403 23.8719 19.7297 23.9902 19.6696L25.6373 18.833Z" stroke="url(#paint5_linear)" stroke-linecap="round" stroke-linejoin="round"/>
<path d="M25.0408 18.0143L23.9837 18.5513L22.34 15.3061L21.9826 14.6005L21.4985 15.226L18.6856 18.8603L18.581 18.9954V19.1663V23.9842L17.6921 24.7513L14.8455 22.3833L14.1307 21.7886L14.0287 22.7128L13.4882 27.6119L13.4714 27.7648L13.5433 27.9007L15.6507 31.8822L14.9643 33.244L12.1607 32.2925L11.1651 31.9546L11.5313 32.9401L13.1551 37.3096L13.2163 37.4745L13.3673 37.5647L16.6741 39.5402L17.7022 41.0256L14.4365 42.3172L13.6254 42.638L14.3121 43.1758L18.1635 46.1923L18.2946 46.2949L18.461 46.2985L22.7952 46.3918L23.9223 47.3183L21.6298 49.779L20.9696 50.4877L21.9297 50.6155L26.6965 51.25L26.8629 51.2722L27.009 51.1894L29.942 49.5276L31.9111 49.283L31.5225 52.6764L31.428 53.5018L32.2016 53.1989L36.6062 51.4741L36.7684 51.4106L36.856 51.2601L38.9908 47.5929L40.1253 47.1579L41.5999 50.2926L41.9435 51.0232L42.4445 50.39L45.33 46.7422L45.4379 46.6058V46.432V41.9855L46.185 40.9588L48.9588 43.0932L49.6473 43.623L49.7595 42.7616L50.3954 37.8807L50.4177 37.7091L50.3291 37.5603L48.1981 33.9822V32.497L51.8939 33.3L52.8362 33.5047L52.4605 32.6166L50.4879 27.953L50.4176 27.7869L50.2574 27.7039L47.1274 26.0819L46.3292 24.6363L49.4906 23.149L50.2214 22.8051L49.5878 22.3043L45.9437 19.4234L45.8074 19.3156H45.6336H41.488L40.2632 18.3139L42.3996 15.6542L42.959 14.9577L42.0728 14.845L37.1319 14.2171L36.9526 14.1943L36.8002 14.2914L33.4677 16.414L32.2091 16.3511L32.2995 12.7458L32.319 11.9686L31.6037 12.2733L27.1617 14.1655L26.9962 14.236L26.9136 14.3957L25.0408 18.0143Z" stroke="black" stroke-opacity="0.8"/>
<path d="M43.5 32.5C43.5 26.1547 38.3453 21 32 21C25.6547 21 20.5 26.1547 20.5 32.5C20.5 38.8453 25.6547 44 32 44C38.3453 44 43.5 38.8453 43.5 32.5Z" fill="url(#paint6_linear)"/>
<path d="M32 20.5C25.3786 20.5 20 25.8786 20 32.5C20 39.1214 25.3786 44.5 32 44.5C38.6214 44.5 44 39.1214 44 32.5C44 25.8786 38.6214 20.5 32 20.5Z" stroke="black" stroke-opacity="0.8"/>
<path opacity="0.5" d="M43 32.5C43 38.5751 38.0751 43.5 32 43.5C25.9249 43.5 21 38.5751 21 32.5C21 26.4249 25.9249 21.5 32 21.5C38.0751 21.5 43 26.4249 43 32.5Z" stroke="url(#paint7_linear)" stroke-linecap="round" stroke-linejoin="round"/>
<g filter="url(#filter0_d)">
<circle cx="32.0795" cy="18.8863" r="0.875745" fill="#C4C4C4"/>
<circle cx="32.0795" cy="18.8863" r="0.5" stroke="url(#paint8_linear)" stroke-width="0.751489"/>
</g>
<circle cx="32.0762" cy="23.0428" r="0.497878" fill="url(#paint9_linear)"/>
<circle cx="32.0795" cy="42.162" r="0.497878" fill="url(#paint10_linear)"/>
<circle cx="28.2282" cy="41.1662" r="0.497878" fill="url(#paint11_linear)"/>
<circle cx="35.6908" cy="41.1662" r="0.497878" fill="url(#paint12_linear)"/>
<circle cx="38.8277" cy="25.9362" r="0.497878" fill="url(#paint13_linear)"/>
<circle cx="38.8277" cy="38.8457" r="0.497878" fill="url(#paint14_linear)"/>
<circle cx="25.4203" cy="25.9362" r="0.497878" fill="url(#paint15_linear)"/>
<circle cx="28.4617" cy="23.8464" r="0.497878" fill="url(#paint16_linear)"/>
<circle cx="35.6908" cy="23.8464" r="0.497878" fill="url(#paint17_linear)"/>
<circle cx="25.1723" cy="38.8457" r="0.497878" fill="url(#paint18_linear)"/>
<g filter="url(#filter1_d)">
<circle cx="32.0795" cy="46.1967" r="0.875745" fill="#C4C4C4"/>
<circle cx="32.0795" cy="46.1967" r="0.5" stroke="url(#paint19_linear)" stroke-width="0.751489"/>
</g>
<path d="M31.6745 25.4994C38.1944 25.4258 44.7618 28.778 47.4011 31.1071C46.1505 31.9365 46.1777 33.4068 47.4011 34.1904C43.2643 36.9465 38.14 39.4119 31.6745 39.3661C25.3923 39.3215 19.8145 36.9538 16.4174 34.2663C17.5075 33.4093 17.6546 32.1955 16.4174 31.1699C20.0981 28.178 25.3184 25.5712 31.6745 25.4994Z" fill="url(#paint20_linear)"/>
<path fill-rule="evenodd" clip-rule="evenodd" d="M13.8732 32.8147C13.8165 29.4707 24.0367 24.8124 31.6745 24.7101C39.5444 24.6047 50.127 29.8456 50.127 32.8147C50.127 35.7839 39.4887 40.3913 31.6745 40.2898C24.0942 40.1914 13.93 36.1588 13.8732 32.8147ZM47.4011 31.1071C44.7618 28.778 38.1944 25.4258 31.6745 25.4994C25.3184 25.5712 20.0981 28.178 16.4174 31.1699C17.6546 32.1955 17.5075 33.4093 16.4174 34.2663C19.8145 36.9538 25.3923 39.3215 31.6745 39.3661C38.14 39.4119 43.2643 36.9465 47.4011 34.1904C46.1777 33.4068 46.1505 31.9365 47.4011 31.1071Z" fill="url(#paint21_linear)"/>
<path d="M31.6678 24.2101C27.7652 24.2624 23.2322 25.4743 19.6812 27.0917C17.9049 27.9008 16.3496 28.8223 15.233 29.7709C14.1455 30.6947 13.355 31.7456 13.3733 32.8232C13.3916 33.9 14.2028 34.906 15.3033 35.7725C16.4318 36.6611 17.9901 37.5026 19.7622 38.2318C23.3066 39.6903 27.8051 40.7396 31.668 40.7898C35.6606 40.8416 40.3422 39.6943 44.0229 38.1655C45.8644 37.4007 47.4799 36.5304 48.6446 35.6482C49.2265 35.2075 49.7115 34.7521 50.0553 34.2918C50.3962 33.8353 50.627 33.3346 50.627 32.8147C50.627 32.2982 50.3997 31.79 50.064 31.3194C49.7246 30.8435 49.2445 30.3637 48.6661 29.8931C47.5082 28.9511 45.8997 28.0004 44.0608 27.1551C40.3876 25.4668 35.6994 24.1561 31.6678 24.2101ZM31.6801 25.9994C34.8569 25.9635 38.0623 26.7632 40.8066 27.8662C43.2556 28.8504 45.3083 30.0643 46.6228 31.1083C46.1984 31.5537 45.9699 32.1 45.9733 32.6689C45.9766 33.2069 46.1869 33.719 46.5679 34.1388C42.5781 36.712 37.7218 38.9089 31.678 38.8661C25.7883 38.8243 20.5333 36.6995 17.1867 34.2252C17.5467 33.8127 17.7718 33.3285 17.7899 32.7984C17.8092 32.2329 17.5907 31.6916 17.1723 31.2084C20.757 28.4204 25.7098 26.0668 31.6801 25.9994Z" stroke="black" stroke-opacity="0.75"/>
<circle cx="15.5661" cy="32.6702" r="0.813722" fill="url(#paint22_linear)" stroke="black"/>
<circle cx="48.0695" cy="32.6702" r="0.813722" fill="url(#paint23_linear)" stroke="black"/>
<path d="M22.3055 29.7087C21.529 32.1059 21.4887 33.0438 22.3055 35.6528C28.01 37.9147 34.9338 38.1562 41.6969 35.6528C41.7138 35.2957 41.6969 35.1325 41.6969 34.7372C29.9759 36.5144 23.6447 34.7372 23.6447 34.7372V33.3044H39.7772C39.9133 32.3851 39.9133 32.852 39.7772 31.9327H23.6447V30.4836C23.6447 30.4836 31.2964 28.5915 41.6969 30.4836C41.6969 30.3007 41.7188 30.116 41.6969 29.7087C36.3708 26.9935 27.7282 26.913 22.3055 29.7087Z" fill="url(#paint24_linear)"/>
<path d="M24.1447 34.3439V33.8044H24.145H24.1599H24.1751H24.1905H24.206H24.2218H24.2377H24.2539H24.2703H24.2868H24.3036H24.3205H24.3377H24.355H24.3726H24.3903H24.4082H24.4263H24.4446H24.4631H24.4818H24.5007H24.5198H24.539H24.5584H24.5781H24.5979H24.6178H24.638H24.6584H24.6789H24.6996H24.7205H24.7416H24.7628H24.7843H24.8059H24.8277H24.8496H24.8718H24.8941H24.9165H24.9392H24.962H24.985H25.0082H25.0315H25.055H25.0787H25.1025H25.1265H25.1507H25.1751H25.1996H25.2242H25.249H25.274H25.2992H25.3245H25.35H25.3756H25.4014H25.4273H25.4534H25.4797H25.5061H25.5326H25.5594H25.5862H25.6133H25.6404H25.6677H25.6952H25.7228H25.7506H25.7785H25.8066H25.8348H25.8632H25.8917H25.9203H25.9491H25.978H26.0071H26.0363H26.0656H26.0951H26.1247H26.1545H26.1844H26.2144H26.2446H26.2749H26.3053H26.3359H26.3666H26.3974H26.4284H26.4595H26.4907H26.5221H26.5535H26.5851H26.6169H26.6487H26.6807H26.7128H26.745H26.7774H26.8099H26.8424H26.8752H26.908H26.9409H26.974H27.0072H27.0405H27.0739H27.1074H27.141H27.1748H27.2087H27.2426H27.2767H27.3109H27.3452H27.3796H27.4142H27.4488H27.4835H27.5184H27.5533H27.5884H27.6235H27.6588H27.6941H27.7296H27.7651H27.8008H27.8365H27.8724H27.9083H27.9444H27.9805H28.0168H28.0531H28.0895H28.126H28.1626H28.1993H28.2361H28.273H28.3099H28.347H28.3841H28.4214H28.4587H28.4961H28.5335H28.5711H28.6087H28.6465H28.6843H28.7221H28.7601H28.7982H28.8363H28.8745H28.9128H28.9511H28.9895H29.028H29.0666H29.1052H29.144H29.1827H29.2216H29.2605H29.2995H29.3386H29.3777H29.4169H29.4562H29.4955H29.5349H29.5743H29.6139H29.6534H29.6931H29.7328H29.7725H29.8124H29.8522H29.8922H29.9322H29.9722H30.0123H30.0525H30.0927H30.1329H30.1732H30.2136H30.254H30.2945H30.335H30.3755H30.4162H30.4568H30.4975H30.5382H30.579H30.6199H30.6607H30.7017H30.7426H30.7836H30.8246H30.8657H30.9068H30.948H30.9892H31.0304H31.0717H31.113H31.1543H31.1956H31.237H31.2785H31.3199H31.3614H31.4029H31.4444H31.486H31.5276H31.5692H31.6109H31.6525H31.6942H31.7359H31.7777H31.8194H31.8612H31.903H31.9448H31.9867H32.0285H32.0704H32.1123H32.1542H32.1961H32.238H32.28H32.3219H32.3639H32.4059H32.4479H32.4899H32.5319H32.5739H32.6159H32.6579H32.7H32.742H32.784H32.8261H32.8681H32.9102H32.9522H32.9943H33.0363H33.0783H33.1204H33.1624H33.2045H33.2465H33.2885H33.3305H33.3725H33.4145H33.4565H33.4985H33.5405H33.5825H33.6244H33.6663H33.7083H33.7502H33.7921H33.834H33.8758H33.9177H33.9595H34.0013H34.0431H34.0849H34.1267H34.1684H34.2101H34.2518H34.2935H34.3351H34.3767H34.4183H34.4599H34.5014H34.5429H34.5844H34.6258H34.6672H34.7086H34.75H34.7913H34.8326H34.8738H34.9151H34.9562H34.9974H35.0385H35.0796H35.1206H35.1616H35.2025H35.2434H35.2843H35.3251H35.3659H35.4066H35.4473H35.488H35.5286H35.5691H35.6096H35.6501H35.6905H35.7308H35.7711H35.8114H35.8516H35.8917H35.9318H35.9719H36.0118H36.0518H36.0916H36.1314H36.1712H36.2109H36.2505H36.29H36.3296H36.369H36.4084H36.4477H36.4869H36.5261H36.5652H36.6043H36.6433H36.6822H36.721H36.7598H36.7985H36.8371H36.8757H36.9142H36.9526H36.9909H37.0292H37.0674H37.1055H37.1435H37.1814H37.2193H37.2571H37.2948H37.3324H37.37H37.4074H37.4448H37.4821H37.5193H37.5564H37.5935H37.6304H37.6673H37.704H37.7407H37.7773H37.8138H37.8502H37.8865H37.9227H37.9588H37.9949H38.0308H38.0666H38.1024H38.138H38.1735H38.209H38.2443H38.2795H38.3147H38.3497H38.3846H38.4194H38.4541H38.4888H38.5233H38.5576H38.5919H38.6261H38.6602H38.6941H38.728H38.7617H38.7953H38.8288H38.8622H38.8955H38.9286H38.9617H38.9946H39.0274H39.0601H39.0927H39.1251H39.1574H39.1896H39.2217H39.2537H39.2855H39.3172H39.3488H39.3802H39.4116H39.4427H39.4738H39.5047H39.5356H39.5662H39.5968H39.6272H39.6575H39.6876H39.7176H39.7475H39.7772H40.2086L40.2718 33.3776C40.3001 33.1865 40.3221 33.0585 40.3387 32.9618C40.3415 32.9455 40.3442 32.9302 40.3467 32.9155L40.3467 32.9153C40.3627 32.8215 40.3793 32.724 40.3793 32.6186C40.3793 32.5131 40.3627 32.4156 40.3467 32.3218L40.3467 32.3216C40.3442 32.307 40.3415 32.2916 40.3387 32.2753C40.3221 32.1786 40.3001 32.0506 40.2718 31.8595L40.2086 31.4327H39.7772H39.7479H39.7185H39.689H39.6593H39.6295H39.5995H39.5694H39.5392H39.5088H39.4783H39.4477H39.4169H39.3861H39.355H39.3239H39.2926H39.2612H39.2296H39.1979H39.1661H39.1342H39.1022H39.07H39.0377H39.0053H38.9727H38.9401H38.9073H38.8744H38.8414H38.8082H38.775H38.7416H38.7081H38.6745H38.6408H38.607H38.573H38.539H38.5048H38.4705H38.4361H38.4016H38.367H38.3323H38.2975H38.2626H38.2276H38.1924H38.1572H38.1219H38.0864H38.0509H38.0152H37.9795H37.9437H37.9077H37.8717H37.8356H37.7994H37.763H37.7266H37.6901H37.6535H37.6168H37.5801H37.5432H37.5062H37.4692H37.432H37.3948H37.3575H37.3201H37.2826H37.2451H37.2074H37.1697H37.1319H37.094H37.056H37.018H36.9799H36.9417H36.9034H36.865H36.8266H36.7881H36.7495H36.7108H36.6721H36.6333H36.5944H36.5555H36.5165H36.4774H36.4383H36.3991H36.3598H36.3204H36.281H36.2416H36.202H36.1624H36.1228H36.083H36.0433H36.0034H35.9635H35.9236H35.8836H35.8435H35.8034H35.7632H35.723H35.6827H35.6424H35.602H35.5615H35.5211H35.4805H35.4399H35.3993H35.3586H35.3179H35.2771H35.2363H35.1955H35.1546H35.1136H35.0726H35.0316H34.9905H34.9494H34.9083H34.8671H34.8259H34.7847H34.7434H34.7021H34.6607H34.6193H34.5779H34.5364H34.495H34.4535H34.4119H34.3703H34.3288H34.2871H34.2455H34.2038H34.1621H34.1204H34.0787H34.0369H33.9951H33.9533H33.9115H33.8696H33.8278H33.7859H33.744H33.7021H33.6601H33.6182H33.5763H33.5343H33.4923H33.4503H33.4083H33.3663H33.3243H33.2823H33.2402H33.1982H33.1561H33.1141H33.072H33.03H32.9879H32.9458H32.9038H32.8617H32.8197H32.7776H32.7355H32.6935H32.6514H32.6094H32.5673H32.5253H32.4833H32.4412H32.3992H32.3572H32.3152H32.2732H32.2312H32.1893H32.1473H32.1054H32.0635H32.0216H31.9797H31.9378H31.8959H31.8541H31.8123H31.7705H31.7287H31.6869H31.6452H31.6035H31.5618H31.5201H31.4785H31.4369H31.3953H31.3537H31.3122H31.2707H31.2292H31.1878H31.1464H31.105H31.0637H31.0224H30.9811H30.9398H30.8986H30.8575H30.8163H30.7753H30.7342H30.6932H30.6522H30.6113H30.5704H30.5296H30.4888H30.448H30.4073H30.3666H30.326H30.2854H30.2449H30.2044H30.164H30.1237H30.0833H30.0431H30.0029H29.9627H29.9226H29.8825H29.8425H29.8026H29.7627H29.7229H29.6832H29.6435H29.6038H29.5642H29.5247H29.4853H29.4459H29.4066H29.3673H29.3281H29.289H29.2499H29.2109H29.172H29.1332H29.0944H29.0557H29.0171H28.9785H28.94H28.9016H28.8633H28.825H28.7868H28.7487H28.7107H28.6727H28.6349H28.5971H28.5594H28.5218H28.4842H28.4468H28.4094H28.3721H28.3349H28.2978H28.2608H28.2239H28.187H28.1503H28.1136H28.0771H28.0406H28.0042H27.9679H27.9317H27.8956H27.8596H27.8237H27.7879H27.7522H27.7166H27.6811H27.6457H27.6104H27.5752H27.5401H27.5051H27.4702H27.4354H27.4007H27.3662H27.3317H27.2973H27.2631H27.229H27.1949H27.161H27.1272H27.0936H27.06H27.0265H26.9932H26.96H26.9269H26.8939H26.861H26.8283H26.7956H26.7631H26.7308H26.6985H26.6664H26.6343H26.6025H26.5707H26.5391H26.5076H26.4762H26.4449H26.4138H26.3828H26.352H26.3212H26.2906H26.2602H26.2299H26.1997H26.1696H26.1397H26.1099H26.0803H26.0508H26.0214H25.9922H25.9631H25.9342H25.9054H25.8767H25.8482H25.8199H25.7916H25.7636H25.7357H25.7079H25.6803H25.6528H25.6255H25.5983H25.5713H25.5444H25.5177H25.4911H25.4647H25.4385H25.4124H25.3865H25.3607H25.3351H25.3096H25.2843H25.2592H25.2342H25.2094H25.1848H25.1603H25.136H25.1118H25.0879H25.0641H25.0404H25.0169H24.9936H24.9705H24.9475H24.9248H24.9021H24.8797H24.8574H24.8353H24.8134H24.7917H24.7701H24.7487H24.7275H24.7065H24.6857H24.665H24.6445H24.6242H24.6041H24.5842H24.5645H24.5449H24.5255H24.5064H24.4874H24.4686H24.45H24.4315H24.4133H24.3953H24.3774H24.3598H24.3423H24.3251H24.308H24.2911H24.2745H24.258H24.2417H24.2257H24.2098H24.1941H24.1787H24.1634H24.1484H24.1447V30.8853C24.3666 30.8395 24.6828 30.7783 25.0856 30.7106C25.9518 30.5651 27.2178 30.3897 28.8073 30.2727C31.987 30.0387 36.4567 30.0385 41.6074 30.9755L42.1969 31.0828V30.4836C42.1969 30.4506 42.1983 30.4092 42.2001 30.3588C42.2052 30.2133 42.2129 29.9927 42.1962 29.6818L42.1807 29.3941L41.924 29.2633C39.1739 27.8613 35.5998 27.1524 32.0389 27.1421C28.478 27.1319 24.8774 27.8202 22.0764 29.2643L21.8933 29.3587L21.8298 29.5546C21.4385 30.7628 21.2135 31.6575 21.208 32.5984C21.2025 33.5384 21.4161 34.4854 21.8283 35.8022L21.8996 36.0298L22.1212 36.1176C27.9419 38.4255 34.9932 38.6673 41.8705 36.1218L42.1807 36.0069L42.1963 35.6764C42.2078 35.4341 42.2044 35.2585 42.2008 35.066C42.1989 34.9651 42.1969 34.8595 42.1969 34.7372V34.1557L41.6219 34.2429C35.7994 35.1257 31.3237 35.1245 28.3118 34.905C26.8057 34.7952 25.6652 34.6308 24.9051 34.4949C24.583 34.4374 24.3291 34.3849 24.1447 34.3439Z" stroke="black" stroke-opacity="0.75"/>
<path d="M40.7538 29.8145C35.9395 29.0376 31.7655 29.0523 28.7339 29.2754C27.1104 29.3949 25.8135 29.5743 24.9199 29.7244C24.4731 29.7995 24.1271 29.8673 23.8914 29.9166C23.7735 29.9413 23.6832 29.9613 23.6217 29.9754C23.5909 29.9824 23.5674 29.988 23.5511 29.9918L23.5323 29.9963L23.5271 29.9976L23.5255 29.998L23.525 29.9981C23.5248 29.9982 23.5247 29.9982 23.6447 30.4836L23.5247 29.9982L23.1447 30.0922V30.4836V31.9327V32.4327H23.6447H23.6448H23.6452H23.6458H23.6467H23.6479H23.6492H23.6509H23.6528H23.6549H23.6573H23.6599H23.6628H23.666H23.6693H23.673H23.6768H23.6809H23.6853H23.6899H23.6947H23.6998H23.7051H23.7106H23.7164H23.7224H23.7287H23.7352H23.7419H23.7488H23.756H23.7635H23.7711H23.779H23.7871H23.7955H23.804H23.8128H23.8219H23.8311H23.8406H23.8503H23.8602H23.8704H23.8807H23.8913H23.9021H23.9132H23.9244H23.9359H23.9476H23.9595H23.9716H23.9839H23.9965H24.0092H24.0222H24.0354H24.0488H24.0624H24.0762H24.0902H24.1044H24.1189H24.1335H24.1484H24.1634H24.1787H24.1941H24.2098H24.2257H24.2417H24.258H24.2745H24.2911H24.308H24.3251H24.3423H24.3598H24.3774H24.3953H24.4133H24.4315H24.45H24.4686H24.4874H24.5064H24.5255H24.5449H24.5645H24.5842H24.6041H24.6242H24.6445H24.665H24.6857H24.7065H24.7275H24.7487H24.7701H24.7917H24.8134H24.8353H24.8574H24.8797H24.9021H24.9248H24.9475H24.9705H24.9936H25.0169H25.0404H25.0641H25.0879H25.1118H25.136H25.1603H25.1848H25.2094H25.2342H25.2592H25.2843H25.3096H25.3351H25.3607H25.3865H25.4124H25.4385H25.4647H25.4911H25.5177H25.5444H25.5713H25.5983H25.6255H25.6528H25.6803H25.7079H25.7357H25.7636H25.7916H25.8199H25.8482H25.8767H25.9054H25.9342H25.9631H25.9922H26.0214H26.0508H26.0803H26.1099H26.1397H26.1696H26.1997H26.2299H26.2602H26.2906H26.3212H26.352H26.3828H26.4138H26.4449H26.4762H26.5076H26.5391H26.5707H26.6025H26.6343H26.6664H26.6985H26.7308H26.7631H26.7956H26.8283H26.861H26.8939H26.9269H26.96H26.9932H27.0265H27.06H27.0936H27.1272H27.161H27.1949H27.229H27.2631H27.2973H27.3317H27.3662H27.4007H27.4354H27.4702H27.5051H27.5401H27.5752H27.6104H27.6457H27.6811H27.7166H27.7522H27.7879H27.8237H27.8596H27.8956H27.9317H27.9679H28.0042H28.0406H28.0771H28.1136H28.1503H28.187H28.2239H28.2608H28.2978H28.3349H28.3721H28.4094H28.4468H28.4842H28.5218H28.5594H28.5971H28.6349H28.6727H28.7107H28.7487H28.7868H28.825H28.8633H28.9016H28.94H28.9785H29.0171H29.0557H29.0944H29.1332H29.172H29.2109H29.2499H29.289H29.3281H29.3673H29.4066H29.4459H29.4853H29.5247H29.5642H29.6038H29.6435H29.6832H29.7229H29.7627H29.8026H29.8425H29.8825H29.9226H29.9627H30.0029H30.0431H30.0833H30.1237H30.164H30.2044H30.2449H30.2854H30.326H30.3666H30.4073H30.448H30.4888H30.5296H30.5704H30.6113H30.6522H30.6932H30.7342H30.7753H30.8163H30.8575H30.8986H30.9398H30.9811H31.0224H31.0637H31.105H31.1464H31.1878H31.2292H31.2707H31.3122H31.3537H31.3953H31.4369H31.4785H31.5201H31.5618H31.6035H31.6452H31.6869H31.7287H31.7705H31.8123H31.8541H31.8959H31.9378H31.9797H32.0216H32.0635H32.1054H32.1473H32.1893H32.2312H32.2732H32.3152H32.3572H32.3992H32.4412H32.4833H32.5253H32.5673H32.6094H32.6514H32.6935H32.7355H32.7776H32.8197H32.8617H32.9038H32.9458H32.9879H33.03H33.072H33.1141H33.1561H33.1982H33.2402H33.2823H33.3243H33.3663H33.4083H33.4503H33.4923H33.5343H33.5763H33.6182H33.6601H33.7021H33.744H33.7859H33.8278H33.8696H33.9115H33.9533H33.9951H34.0369H34.0787H34.1204H34.1621H34.2038H34.2455H34.2871H34.3288H34.3703H34.4119H34.4535H34.495H34.5364H34.5779H34.6193H34.6607H34.7021H34.7434H34.7847H34.8259H34.8671H34.9083H34.9494H34.9905H35.0316H35.0726H35.1136H35.1546H35.1955H35.2363H35.2771H35.3179H35.3586H35.3993H35.4399H35.4805H35.5211H35.5615H35.602H35.6424H35.6827H35.723H35.7632H35.8034H35.8435H35.8836H35.9236H35.9635H36.0034H36.0433H36.083H36.1228H36.1624H36.202H36.2416H36.281H36.3204H36.3598H36.3991H36.4383H36.4774H36.5165H36.5555H36.5944H36.6333H36.6721H36.7108H36.7495H36.7881H36.8266H36.865H36.9034H36.9417H36.9799H37.018H37.056H37.094H37.1319H37.1697H37.2074H37.2451H37.2826H37.3201H37.3575H37.3948H37.432H37.4692H37.5062H37.5432H37.5801H37.6168H37.6535H37.6901H37.7266H37.763H37.7994H37.8356H37.8717H37.9077H37.9437H37.9795H38.0152H38.0509H38.0864H38.1219H38.1572H38.1924H38.2276H38.2626H38.2975H38.3323H38.367H38.4016H38.4361H38.4705H38.5048H38.539H38.573H38.607H38.6408H38.6745H38.7081H38.7416H38.775H38.8082H38.8414H38.8744H38.9073H38.9401H38.9727H39.0053H39.0377H39.07H39.1022H39.1342H39.1661H39.1979H39.2296H39.2612H39.2926H39.3239H39.3511C39.3519 32.4369 39.3526 32.441 39.3533 32.4451C39.356 32.461 39.3585 32.4758 39.3609 32.4896C39.3789 32.5955 39.3793 32.611 39.3793 32.6186C39.3793 32.6261 39.3789 32.6416 39.3609 32.7476C39.3585 32.7613 39.356 32.7761 39.3533 32.792C39.3526 32.7961 39.3519 32.8002 39.3511 32.8044H39.3488H39.3172H39.2855H39.2537H39.2217H39.1896H39.1574H39.1251H39.0927H39.0601H39.0274H38.9946H38.9617H38.9286H38.8955H38.8622H38.8288H38.7953H38.7617H38.728H38.6941H38.6602H38.6261H38.5919H38.5576H38.5233H38.4888H38.4541H38.4194H38.3846H38.3497H38.3147H38.2795H38.2443H38.209H38.1735H38.138H38.1024H38.0666H38.0308H37.9949H37.9588H37.9227H37.8865H37.8502H37.8138H37.7773H37.7407H37.704H37.6673H37.6304H37.5935H37.5564H37.5193H37.4821H37.4448H37.4074H37.37H37.3324H37.2948H37.2571H37.2193H37.1814H37.1435H37.1055H37.0674H37.0292H36.9909H36.9526H36.9142H36.8757H36.8371H36.7985H36.7598H36.721H36.6822H36.6433H36.6043H36.5652H36.5261H36.4869H36.4477H36.4084H36.369H36.3296H36.29H36.2505H36.2109H36.1712H36.1314H36.0916H36.0518H36.0118H35.9719H35.9318H35.8917H35.8516H35.8114H35.7711H35.7308H35.6905H35.6501H35.6096H35.5691H35.5286H35.488H35.4473H35.4066H35.3659H35.3251H35.2843H35.2434H35.2025H35.1616H35.1206H35.0796H35.0385H34.9974H34.9562H34.9151H34.8738H34.8326H34.7913H34.75H34.7086H34.6672H34.6258H34.5844H34.5429H34.5014H34.4599H34.4183H34.3767H34.3351H34.2935H34.2518H34.2101H34.1684H34.1267H34.0849H34.0431H34.0013H33.9595H33.9177H33.8758H33.834H33.7921H33.7502H33.7083H33.6663H33.6244H33.5825H33.5405H33.4985H33.4565H33.4145H33.3725H33.3305H33.2885H33.2465H33.2045H33.1624H33.1204H33.0783H33.0363H32.9943H32.9522H32.9102H32.8681H32.8261H32.784H32.742H32.7H32.6579H32.6159H32.5739H32.5319H32.4899H32.4479H32.4059H32.3639H32.3219H32.28H32.238H32.1961H32.1542H32.1123H32.0704H32.0285H31.9867H31.9448H31.903H31.8612H31.8194H31.7777H31.7359H31.6942H31.6525H31.6109H31.5692H31.5276H31.486H31.4444H31.4029H31.3614H31.3199H31.2785H31.237H31.1956H31.1543H31.113H31.0717H31.0304H30.9892H30.948H30.9068H30.8657H30.8246H30.7836H30.7426H30.7017H30.6607H30.6199H30.579H30.5382H30.4975H30.4568H30.4162H30.3755H30.335H30.2945H30.254H30.2136H30.1732H30.1329H30.0927H30.0525H30.0123H29.9722H29.9322H29.8922H29.8522H29.8124H29.7725H29.7328H29.6931H29.6534H29.6139H29.5743H29.5349H29.4955H29.4562H29.4169H29.3777H29.3386H29.2995H29.2605H29.2216H29.1827H29.144H29.1052H29.0666H29.028H28.9895H28.9511H28.9128H28.8745H28.8363H28.7982H28.7601H28.7221H28.6843H28.6465H28.6087H28.5711H28.5335H28.4961H28.4587H28.4214H28.3841H28.347H28.3099H28.273H28.2361H28.1993H28.1626H28.126H28.0895H28.0531H28.0168H27.9805H27.9444H27.9083H27.8724H27.8365H27.8008H27.7651H27.7296H27.6941H27.6588H27.6235H27.5884H27.5533H27.5184H27.4835H27.4488H27.4142H27.3796H27.3452H27.3109H27.2767H27.2426H27.2087H27.1748H27.141H27.1074H27.0739H27.0405H27.0072H26.974H26.9409H26.908H26.8752H26.8424H26.8099H26.7774H26.745H26.7128H26.6807H26.6487H26.6169H26.5851H26.5535H26.5221H26.4907H26.4595H26.4284H26.3974H26.3666H26.3359H26.3053H26.2749H26.2446H26.2144H26.1844H26.1545H26.1247H26.0951H26.0656H26.0363H26.0071H25.978H25.9491H25.9203H25.8917H25.8632H25.8348H25.8066H25.7785H25.7506H25.7228H25.6952H25.6677H25.6404H25.6133H25.5862H25.5594H25.5326H25.5061H25.4797H25.4534H25.4273H25.4014H25.3756H25.35H25.3245H25.2992H25.274H25.249H25.2242H25.1996H25.1751H25.1507H25.1265H25.1025H25.0787H25.055H25.0315H25.0082H24.985H24.962H24.9392H24.9165H24.8941H24.8718H24.8496H24.8277H24.8059H24.7843H24.7628H24.7416H24.7205H24.6996H24.6789H24.6584H24.638H24.6178H24.5979H24.5781H24.5584H24.539H24.5198H24.5007H24.4818H24.4631H24.4446H24.4263H24.4082H24.3903H24.3726H24.355H24.3377H24.3205H24.3036H24.2868H24.2703H24.2539H24.2377H24.2218H24.206H24.1905H24.1751H24.1599H24.145H24.1302H24.1157H24.1013H24.0872H24.0733H24.0595H24.046H24.0327H24.0196H24.0067H23.994H23.9816H23.9693H23.9573H23.9455H23.9339H23.9225H23.9113H23.9004H23.8896H23.8791H23.8688H23.8587H23.8489H23.8392H23.8298H23.8206H23.8117H23.8029H23.7944H23.7861H23.7781H23.7702H23.7626H23.7553H23.7481H23.7412H23.7345H23.7281H23.7219H23.7159H23.7101H23.7046H23.6994H23.6943H23.6895H23.685H23.6807H23.6766H23.6728H23.6692H23.6658H23.6627H23.6598H23.6572H23.6548H23.6527H23.6508H23.6492H23.6478H23.6467H23.6458H23.6452H23.6448H23.6447H23.1447V33.3044V34.7372V35.1162L23.5096 35.2186L23.6447 34.7372C23.5096 35.2186 23.5098 35.2187 23.51 35.2187L23.5105 35.2189L23.5121 35.2193L23.517 35.2207L23.5337 35.2252C23.5479 35.229 23.5683 35.2344 23.5948 35.2412C23.6479 35.2547 23.7255 35.2739 23.8274 35.2974C24.0313 35.3443 24.3325 35.4084 24.7291 35.4793C25.5223 35.6211 26.6973 35.79 28.2391 35.9023C31.2103 36.1189 35.5429 36.1257 41.1308 35.3261C34.6954 37.6036 28.1471 37.3671 22.712 35.2749C22.3577 34.1118 22.2037 33.3377 22.208 32.6043C22.2123 31.8687 22.3758 31.1392 22.7178 30.0604C25.3151 28.7709 28.6681 28.1325 32.036 28.1421C35.1729 28.1511 38.279 28.7223 40.7538 29.8145Z" fill="url(#paint25_linear)" stroke="url(#paint26_linear)"/>
<defs>
<filter id="filter0_d" x="30.2037" y="17.0105" width="3.75149" height="3.75149" filterUnits="userSpaceOnUse" color-interpolation-filters="sRGB">
<feFlood flood-opacity="0" result="BackgroundImageFix"/>
<feColorMatrix in="SourceAlpha" type="matrix" values="0 0 0 0 0 0 0 0 0 0 0 0 0 0 0 0 0 0 127 0"/>
<feMorphology radius="1" operator="dilate" in="SourceAlpha" result="effect1_dropShadow"/>
<feOffset/>
<feColorMatrix type="matrix" values="0 0 0 0 0 0 0 0 0 0 0 0 0 0 0 0 0 0 0.15 0"/>
<feBlend mode="normal" in2="BackgroundImageFix" result="effect1_dropShadow"/>
<feBlend mode="normal" in="SourceGraphic" in2="effect1_dropShadow" result="shape"/>
</filter>
<filter id="filter1_d" x="30.2037" y="44.3209" width="3.75149" height="3.75149" filterUnits="userSpaceOnUse" color-interpolation-filters="sRGB">
<feFlood flood-opacity="0" result="BackgroundImageFix"/>
<feColorMatrix in="SourceAlpha" type="matrix" values="0 0 0 0 0 0 0 0 0 0 0 0 0 0 0 0 0 0 127 0"/>
<feMorphology radius="1" operator="dilate" in="SourceAlpha" result="effect1_dropShadow"/>
<feOffset/>
<feColorMatrix type="matrix" values="0 0 0 0 0 0 0 0 0 0 0 0 0 0 0 0 0 0 0.15 0"/>
<feBlend mode="normal" in2="BackgroundImageFix" result="effect1_dropShadow"/>
<feBlend mode="normal" in="SourceGraphic" in2="effect1_dropShadow" result="shape"/>
</filter>
<radialGradient id="paint0_radial" cx="0" cy="0" r="1" gradientUnits="userSpaceOnUse" gradientTransform="translate(32 54.4985) scale(24 7.00042)">
<stop/>
<stop offset="1" stop-opacity="0"/>
</radialGradient>
<radialGradient id="paint1_radial" cx="0" cy="0" r="1" gradientUnits="userSpaceOnUse" gradientTransform="translate(32 56.4989) scale(16 4.99977)">
<stop/>
<stop offset="1" stop-opacity="0"/>
</radialGradient>
<linearGradient id="paint2_linear" x1="32" y1="5" x2="32" y2="60" gradientUnits="userSpaceOnUse">
<stop stop-color="#EFEFEF"/>
<stop offset="1" stop-color="#C5C5C5"/>
</linearGradient>
<linearGradient id="paint3_linear" x1="29.8245" y1="4.51862" x2="29.8245" y2="60.7744" gradientUnits="userSpaceOnUse">
<stop stop-color="white"/>
<stop offset="0.424479" stop-color="white" stop-opacity="0.28"/>
<stop offset="0.820899" stop-color="white" stop-opacity="0.156863"/>
<stop offset="1" stop-color="white" stop-opacity="0.392157"/>
</linearGradient>
<linearGradient id="paint4_linear" x1="32" y1="12.7333" x2="32" y2="52.7333" gradientUnits="userSpaceOnUse">
<stop stop-color="#4D4D4D"/>
<stop offset="1" stop-color="#1A1A1A"/>
</linearGradient>
<linearGradient id="paint5_linear" x1="30.3885" y1="12.0063" x2="30.3885" y2="53.6773" gradientUnits="userSpaceOnUse">
<stop stop-color="white"/>
<stop offset="0.424479" stop-color="white" stop-opacity="0.235294"/>
<stop offset="0.820899" stop-color="white" stop-opacity="0.156863"/>
<stop offset="1" stop-color="white" stop-opacity="0.392157"/>
</linearGradient>
<linearGradient id="paint6_linear" x1="32" y1="21" x2="32" y2="44" gradientUnits="userSpaceOnUse">
<stop stop-color="#333333"/>
<stop offset="1" stop-color="#1A1A1A"/>
</linearGradient>
<linearGradient id="paint7_linear" x1="31.0734" y1="20.582" x2="31.0734" y2="44.5428" gradientUnits="userSpaceOnUse">
<stop stop-color="white"/>
<stop offset="0.424479" stop-color="white" stop-opacity="0.235294"/>
<stop offset="0.820899" stop-color="white" stop-opacity="0.156863"/>
<stop offset="1" stop-color="white" stop-opacity="0.392157"/>
</linearGradient>
<linearGradient id="paint8_linear" x1="32.0795" y1="18.0105" x2="32.0795" y2="19.762" gradientUnits="userSpaceOnUse">
<stop stop-color="white"/>
<stop offset="1" stop-color="white" stop-opacity="0"/>
</linearGradient>
<linearGradient id="paint9_linear" x1="32.0762" y1="22.545" x2="32.0762" y2="23.5407" gradientUnits="userSpaceOnUse">
<stop stop-color="#FFF394"/>
<stop offset="1" stop-color="#F9C440"/>
</linearGradient>
<linearGradient id="paint10_linear" x1="32.0795" y1="41.6641" x2="32.0795" y2="42.6598" gradientUnits="userSpaceOnUse">
<stop stop-color="#FFF394"/>
<stop offset="1" stop-color="#F9C440"/>
</linearGradient>
<linearGradient id="paint11_linear" x1="28.2282" y1="40.6683" x2="28.2282" y2="41.6641" gradientUnits="userSpaceOnUse">
<stop stop-color="#FFF394"/>
<stop offset="1" stop-color="#F9C440"/>
</linearGradient>
<linearGradient id="paint12_linear" x1="35.6908" y1="40.6683" x2="35.6908" y2="41.6641" gradientUnits="userSpaceOnUse">
<stop stop-color="#FFF394"/>
<stop offset="1" stop-color="#F9C440"/>
</linearGradient>
<linearGradient id="paint13_linear" x1="38.8277" y1="25.4383" x2="38.8277" y2="26.4341" gradientUnits="userSpaceOnUse">
<stop stop-color="#FFF394"/>
<stop offset="1" stop-color="#F9C440"/>
</linearGradient>
<linearGradient id="paint14_linear" x1="38.8277" y1="38.3478" x2="38.8277" y2="39.3436" gradientUnits="userSpaceOnUse">
<stop stop-color="#FFF394"/>
<stop offset="1" stop-color="#F9C440"/>
</linearGradient>
<linearGradient id="paint15_linear" x1="25.4203" y1="25.4383" x2="25.4203" y2="26.4341" gradientUnits="userSpaceOnUse">
<stop stop-color="#FFF394"/>
<stop offset="1" stop-color="#F9C440"/>
</linearGradient>
<linearGradient id="paint16_linear" x1="28.4617" y1="23.3485" x2="28.4617" y2="24.3443" gradientUnits="userSpaceOnUse">
<stop stop-color="#FFF394"/>
<stop offset="1" stop-color="#F9C440"/>
</linearGradient>
<linearGradient id="paint17_linear" x1="35.6908" y1="23.3485" x2="35.6908" y2="24.3443" gradientUnits="userSpaceOnUse">
<stop stop-color="#FFF394"/>
<stop offset="1" stop-color="#F9C440"/>
</linearGradient>
<linearGradient id="paint18_linear" x1="25.1723" y1="38.3478" x2="25.1723" y2="39.3436" gradientUnits="userSpaceOnUse">
<stop stop-color="#FFF394"/>
<stop offset="1" stop-color="#F9C440"/>
</linearGradient>
<linearGradient id="paint19_linear" x1="32.0795" y1="45.3209" x2="32.0795" y2="47.0724" gradientUnits="userSpaceOnUse">
<stop stop-color="white"/>
<stop offset="1" stop-color="white" stop-opacity="0"/>
</linearGradient>
<linearGradient id="paint20_linear" x1="32" y1="24.7085" x2="32" y2="40.2915" gradientUnits="userSpaceOnUse">
<stop stop-color="#112251"/>
<stop offset="1" stop-color="#020D2C"/>
</linearGradient>
<linearGradient id="paint21_linear" x1="32" y1="24.7085" x2="32" y2="40.2915" gradientUnits="userSpaceOnUse">
<stop stop-color="#CDE8FD"/>
<stop offset="1" stop-color="#A4C5FC"/>
</linearGradient>
<linearGradient id="paint22_linear" x1="15.5661" y1="31.8564" x2="15.5661" y2="33.4839" gradientUnits="userSpaceOnUse">
<stop stop-color="white"/>
<stop offset="1" stop-color="#C5C5C5"/>
</linearGradient>
<linearGradient id="paint23_linear" x1="48.0695" y1="31.8564" x2="48.0695" y2="33.4839" gradientUnits="userSpaceOnUse">
<stop stop-color="white"/>
<stop offset="1" stop-color="#C5C5C5"/>
</linearGradient>
<linearGradient id="paint24_linear" x1="31.7073" y1="27.3723" x2="31.7073" y2="37.4409" gradientUnits="userSpaceOnUse">
<stop stop-color="#CDE8FD"/>
<stop offset="1" stop-color="#A4C5FC"/>
</linearGradient>
<linearGradient id="paint25_linear" x1="31.7073" y1="27.3723" x2="31.7073" y2="37.4409" gradientUnits="userSpaceOnUse">
<stop stop-color="#CDE8FD"/>
<stop offset="1" stop-color="#A4C5FC"/>
</linearGradient>
<linearGradient id="paint26_linear" x1="31.7073" y1="27.642" x2="31.7073" y2="37.4409" gradientUnits="userSpaceOnUse">
<stop stop-color="white"/>
<stop offset="0.453125" stop-color="white" stop-opacity="0"/>
<stop offset="1" stop-color="white" stop-opacity="0.33"/>
</linearGradient>
</defs>
</svg>
